<svg width="24" height="24" viewBox="0 0 24 24" fill="none" xmlns="http://www.w3.org/2000/svg">
<path d="M12.4001 6.2667C14.2779 6.2667 15.5445 7.07781 16.2667 7.75559L19.089 5.00003C17.3556 3.38892 15.1001 2.40002 12.4001 2.40002C8.48895 2.40002 5.11117 4.64447 3.46672 7.91115L6.70006 10.4223C7.51117 8.01115 9.75562 6.2667 12.4001 6.2667Z" fill="#EA4335"/>
<path d="M22.0001 12.6223C22.0001 11.8 21.9334 11.2 21.789 10.5778H12.4001V14.2889H17.9112C17.8001 15.2112 17.2001 16.6 15.8667 17.5334L19.0223 19.9778C20.9112 18.2334 22.0001 15.6667 22.0001 12.6223Z" fill="#4285F4"/>
<path d="M6.71114 14.3778C6.50003 13.7556 6.37781 13.0889 6.37781 12.4C6.37781 11.7111 6.50006 11.0445 6.70006 10.4223L3.46672 7.91115C2.78894 9.2667 2.40002 10.7889 2.40002 12.4C2.40002 14.0111 2.78891 15.5334 3.46669 16.8889L6.71114 14.3778Z" fill="#FBBC05"/>
<path d="M12.4 22.4C15.1 22.4 17.3667 21.5112 19.0223 19.9778L15.8667 17.5334C15.0223 18.1223 13.8889 18.5333 12.4 18.5333C9.75557 18.5333 7.51115 16.7889 6.71114 14.3778L3.47778 16.8889C5.12223 20.1556 8.4889 22.4 12.4 22.4Z" fill="#34A853"/>
</svg>
