<svg width="17" height="16" viewBox="0 0 17 16" fill="none" xmlns="http://www.w3.org/2000/svg">
<path d="M8.50004 14.6667C12.1819 14.6667 15.1667 11.6819 15.1667 8C15.1667 4.3181 12.1819 1.33333 8.50004 1.33333C4.81814 1.33333 1.83337 4.3181 1.83337 8C1.83337 11.6819 4.81814 14.6667 8.50004 14.6667Z" stroke="#94A5AB" stroke-width="1.5" stroke-linecap="round" stroke-linejoin="round"/>
<path fill-rule="evenodd" clip-rule="evenodd" d="M8.49776 6.04527C7.83131 5.26613 6.71996 5.05655 5.88494 5.77C5.04992 6.48346 4.93236 7.67633 5.58811 8.52013C6.00811 9.0606 7.08376 10.0628 7.80286 10.7136C8.04183 10.9298 8.16131 11.038 8.30443 11.0813C8.42746 11.1186 8.56806 11.1186 8.69108 11.0813C8.8342 11.038 8.95369 10.9298 9.19265 10.7136C9.91175 10.0628 10.9874 9.0606 11.4074 8.52013C12.0632 7.67633 11.9599 6.47596 11.1106 5.77C10.2612 5.06405 9.16421 5.26613 8.49776 6.04527Z" stroke="#94A5AB" stroke-width="1.5" stroke-linecap="round" stroke-linejoin="round"/>
</svg>
