<svg width="18" height="18" viewBox="0 0 18 18" fill="none" xmlns="http://www.w3.org/2000/svg">
<g clip-path="url(#clip0_266_8016)">
<path fill-rule="evenodd" clip-rule="evenodd" d="M8.74511 4.13787C7.3289 2.4822 4.96728 2.03683 3.19287 3.55293C1.41846 5.06902 1.16864 7.60386 2.5621 9.39695C3.72066 10.8878 7.22688 14.0321 8.37603 15.0498C8.5046 15.1636 8.56888 15.2205 8.64386 15.2429C8.7093 15.2624 8.78091 15.2624 8.84636 15.2429C8.92134 15.2205 8.98562 15.1636 9.11419 15.0498C10.2633 14.0321 13.7696 10.8878 14.9281 9.39695C16.3216 7.60386 16.1023 5.05307 14.2973 3.55293C12.4924 2.05278 10.1613 2.4822 8.74511 4.13787Z" stroke="#050C0E" stroke-width="1.5" stroke-linecap="round" stroke-linejoin="round"/>
</g>
<defs>
<clipPath id="clip0_266_8016">
<rect width="17" height="17" fill="white" transform="translate(0.25 0.5)"/>
</clipPath>
</defs>
</svg>
