<svg width="21" height="20" viewBox="0 0 21 20" fill="none" xmlns="http://www.w3.org/2000/svg">
<path d="M7.33744 10.1094C7.33744 8.29994 8.80479 6.83269 10.6154 6.83269C12.4259 6.83269 13.8941 8.29994 13.8941 10.1094C13.8941 11.9189 12.4259 13.3862 10.6154 13.3862C8.80479 13.3862 7.33744 11.9189 7.33744 10.1094ZM5.56503 10.1094C5.56503 12.897 7.82606 15.1567 10.6154 15.1567C13.4047 15.1567 15.6657 12.897 15.6657 10.1094C15.6657 7.3218 13.4047 5.06213 10.6154 5.06213C7.82606 5.06213 5.56503 7.3218 5.56503 10.1094ZM14.6854 4.86201C14.6853 5.09529 14.7544 5.32337 14.884 5.5174C15.0136 5.71142 15.1979 5.86268 15.4135 5.95204C15.6291 6.0414 15.8664 6.06486 16.0954 6.01944C16.3244 5.97401 16.5347 5.86176 16.6998 5.69686C16.865 5.53197 16.9774 5.32184 17.0231 5.09305C17.0687 4.86427 17.0454 4.62709 16.9562 4.41153C16.8669 4.19596 16.7157 4.01168 16.5217 3.88199C16.3277 3.75231 16.0995 3.68304 15.8661 3.68295H15.8656C15.5527 3.68309 15.2527 3.80735 15.0314 4.02842C14.8101 4.24949 14.6856 4.5493 14.6854 4.86201V4.86201ZM6.64188 18.1103C5.68298 18.0667 5.16178 17.9071 4.81542 17.7722C4.35623 17.5935 4.0286 17.3808 3.68413 17.037C3.33965 16.6932 3.12642 16.3661 2.94844 15.9071C2.81342 15.5611 2.6537 15.0401 2.61011 14.0818C2.56243 13.0457 2.55291 12.7344 2.55291 10.1095C2.55291 7.48457 2.56321 7.1742 2.61011 6.13724C2.65378 5.17891 2.81468 4.65889 2.94844 4.31187C3.12721 3.85296 3.34012 3.52552 3.68413 3.18125C4.02813 2.83699 4.35544 2.62388 4.81542 2.44601C5.16163 2.31107 5.68298 2.15144 6.64188 2.10788C7.6786 2.06023 7.99003 2.05071 10.6154 2.05071C13.2407 2.05071 13.5524 2.06101 14.59 2.10788C15.5489 2.15152 16.0692 2.31233 16.4165 2.44601C16.8757 2.62388 17.2033 2.83746 17.5478 3.18125C17.8922 3.52505 18.1047 3.85296 18.2834 4.31187C18.4185 4.65787 18.5782 5.17891 18.6218 6.13724C18.6695 7.1742 18.679 7.48457 18.679 10.1095C18.679 12.7344 18.6695 13.0448 18.6218 14.0818C18.5781 15.0401 18.4176 15.561 18.2834 15.9071C18.1047 16.3661 17.8918 16.6935 17.5478 17.037C17.2038 17.3804 16.8757 17.5935 16.4165 17.7722C16.0703 17.9071 15.5489 18.0668 14.59 18.1103C13.5533 18.158 13.2419 18.1675 10.6154 18.1675C7.98885 18.1675 7.67829 18.158 6.64188 18.1103V18.1103ZM6.56045 0.339526C5.51342 0.387179 4.79796 0.5531 4.17314 0.796083C3.52605 1.04701 2.97826 1.38365 2.43087 1.92985C1.88347 2.47605 1.5475 3.02437 1.29642 3.67107C1.05329 4.29591 0.887274 5.01055 0.839592 6.05695C0.791124 7.105 0.780029 7.44007 0.780029 10.1094C0.780029 12.7788 0.791124 13.1138 0.839592 14.1619C0.887274 15.2084 1.05329 15.9229 1.29642 16.5478C1.5475 17.1941 1.88355 17.743 2.43087 18.289C2.97818 18.835 3.52605 19.1711 4.17314 19.4228C4.79914 19.6657 5.51342 19.8317 6.56045 19.8793C7.60968 19.927 7.94439 19.9388 10.6154 19.9388C13.2863 19.9388 13.6216 19.9278 14.6703 19.8793C15.7174 19.8317 16.4324 19.6657 17.0576 19.4228C17.7043 19.1711 18.2524 18.8352 18.7998 18.289C19.3472 17.7428 19.6825 17.1941 19.9343 16.5478C20.1774 15.9229 20.3442 15.2083 20.3911 14.1619C20.4388 13.1131 20.4499 12.7788 20.4499 10.1094C20.4499 7.44007 20.4388 7.105 20.3911 6.05695C20.3434 5.01047 20.1774 4.29552 19.9343 3.67107C19.6825 3.02477 19.3464 2.47691 18.7998 1.92985C18.2533 1.38278 17.7043 1.04701 17.0584 0.796083C16.4324 0.5531 15.7173 0.386392 14.671 0.339526C13.6224 0.291873 13.2871 0.279999 10.6161 0.279999C7.94518 0.279999 7.60968 0.291086 6.56045 0.339526Z" fill="#2791B5"/>
</svg>
