<svg width="21" height="20" viewBox="0 0 21 20" fill="none" xmlns="http://www.w3.org/2000/svg">
<path fill-rule="evenodd" clip-rule="evenodd" d="M2.23381 0.279999C1.43116 0.279999 0.780029 0.911304 0.780029 1.68906V18.542C0.780029 19.3199 1.43124 19.9506 2.23381 19.9506H18.9969C19.7999 19.9506 20.4507 19.3198 20.4507 18.5418V1.68906C20.4507 0.911304 19.7999 0.279999 18.9969 0.279999H2.23381ZM6.75759 7.886V16.7418H3.81406V7.886H6.75759ZM6.95161 5.14725C6.95161 5.99708 6.3127 6.6771 5.28644 6.6771L5.26715 6.67702C4.27924 6.67702 3.64056 5.997 3.64056 5.14717C3.64056 4.27805 4.29853 3.61701 5.30596 3.61701C6.3127 3.61701 6.9324 4.27805 6.95161 5.14725ZM11.3302 16.7418H8.38687C8.38687 16.7418 8.42545 8.71708 8.38703 7.88631H11.3304V9.13981C11.7217 8.53651 12.4219 7.67838 13.9832 7.67838C15.9198 7.67838 17.3717 8.94414 17.3717 11.6641V16.7418H14.4285V12.0047C14.4285 10.8141 14.0023 10.0021 12.9375 10.0021C12.1241 10.0021 11.6398 10.5497 11.4271 11.0787C11.3494 11.2675 11.3302 11.5325 11.3302 11.7968V16.7418Z" fill="#2791B5"/>
</svg>
