<svg width="306" height="179" viewBox="0 0 306 179" fill="none" xmlns="http://www.w3.org/2000/svg">
<path d="M305.49 87.03C304.86 106.82 298.69 128.74 286.78 143.79C274.8 158.93 259.13 170.14 242.67 178.3H48.93C37.55 171.09 19.95 158.87 9.98002 135.31C9.26002 133.64 8.59002 131.9 7.96002 130.1C3.87002 118.39 1.63002 104.13 2.65002 86.7C2.70002 85.65 2.78002 84.6 2.86002 83.53C3.00002 81.78 3.21002 80.04 3.48002 78.32C8.12002 48.87 31.62 24.7 56.44 15.79C73.65 9.59999 92.72 10.01 109.71 16.93C117.55 20.13 126.37 24.28 133.4 29.29C140.16 34.1 145.21 37.76 153.74 36.91C161.43 36.14 168.63 32.41 175.36 28.2C186.12 21.46 196.13 12.78 207.42 7.20999C230.56 -4.19001 258.73 -2.19001 279.01 15.42C295.12 29.41 303.65 52.9 305.27 75.6C305.54 79.45 305.62 83.28 305.49 87.03Z" fill="#D5DDFD"/>
<mask id="mask0_12_10447" style="mask-type:luminance" maskUnits="userSpaceOnUse" x="2" y="0" width="304" height="179">
<path d="M305.49 87.03C304.86 106.82 298.69 128.74 286.78 143.79C274.8 158.93 259.13 170.14 242.67 178.3H48.93C37.55 171.09 19.95 158.87 9.98002 135.31C9.26002 133.64 8.59002 131.9 7.96002 130.1C3.87002 118.39 1.63002 104.13 2.65002 86.7C2.70002 85.65 2.78002 84.6 2.86002 83.53C3.00002 81.78 3.21002 80.04 3.48002 78.32C8.12002 48.87 31.62 24.7 56.44 15.79C73.65 9.59999 92.72 10.01 109.71 16.93C117.55 20.13 126.37 24.28 133.4 29.29C140.16 34.1 145.21 37.76 153.74 36.91C161.43 36.14 168.63 32.41 175.36 28.2C186.12 21.46 196.13 12.78 207.42 7.20999C230.56 -4.19001 258.73 -2.19001 279.01 15.42C295.12 29.41 303.65 52.9 305.27 75.6C305.54 79.45 305.62 83.28 305.49 87.03Z" fill="white"/>
</mask>
<g mask="url(#mask0_12_10447)">
<path d="M219.55 -18V113.88H279.19V-18" stroke="#F3EFEC" stroke-miterlimit="10"/>
<path d="M305.55 134.98H2.40002V143.83H305.55V134.98Z" fill="white"/>
<path d="M228.22 -14.66H272.01V106.46H226.73V-14.66H228.22Z" stroke="#F3EFEC" stroke-miterlimit="10"/>
<path d="M94.28 -7.41998V83.07H20.46V43.81" stroke="#F3EFEC" stroke-miterlimit="10"/>
<path d="M83.55 -5.13L29.35 30.48V70.99H85.39V-5.13H83.55Z" stroke="#F3EFEC" stroke-miterlimit="10"/>
</g>
<path d="M182.78 77.74L185.1 78.64C191.06 80.96 195.63 85.89 197.5 92.02L212.15 140.17L189.4 133.11L180.76 119.1L182.78 77.74Z" fill="#CDE8F1"/>
<path d="M199.31 133.09C197.97 123.44 195.73 113.87 192.3 104.74C190.82 100.79 189.13 96.87 187.18 93.12C185.91 90.67 184.41 87.99 182.37 86L180.75 119.1L189.39 133.11L199.71 136.31C199.58 135.23 199.46 134.16 199.31 133.08V133.09Z" fill="#472740"/>
<path d="M110.84 127.48C112.75 137.95 113.52 148.6 113.13 159.23L112.85 166.93L112.44 178.14H181.56L181.89 167.88L182.24 156.72C182.37 152.95 182.86 149.19 183.82 145.53C193.01 110.48 182.78 77.75 182.78 77.75C179.94 76.91 175.79 75.68 171.7 74.46C164.9 72.44 158.3 70.47 158.3 70.47L144.14 68.72L127.52 70.54L115.56 71.85C115.56 75.84 106.7 104.64 106.7 104.64L110.86 127.49L110.84 127.48Z" fill="#CDE8F1"/>
<path d="M127.51 70.53C128.81 84.21 138.34 94.84 149.91 94.84C160.34 94.84 169.12 86.2 171.69 74.45C164.89 72.43 158.29 70.46 158.29 70.46L144.13 68.71L127.51 70.53Z" fill="white"/>
<path d="M112.44 178.13H120.62C120.74 173.57 120.97 169.01 121.09 164.45C121.18 161 121.21 157.55 121.08 154.1C120.95 150.73 120.62 147.37 120.34 144.01C120.05 140.59 119.76 137.17 119.52 133.74C119.28 130.31 119.16 126.88 118.91 123.45C118.42 116.78 117.65 110.12 116.42 103.54C115.42 98.19 113.37 93.18 111.59 88.08C109.23 96.37 106.69 104.63 106.69 104.63L110.86 127.48C112.77 137.95 113.54 148.6 113.15 159.23L112.46 178.13H112.44Z" fill="#472740"/>
<path d="M188.99 30.03C187.3 30.03 185.88 28.68 185.14 27.16C184.4 25.64 184.18 23.93 183.72 22.31C181.91 15.83 176.07 10.66 169.41 9.64997C168.8 9.55997 168.17 9.49997 167.58 9.29997C166.94 9.08997 166.36 8.72997 165.77 8.40997C161.99 6.35997 157.47 5.69997 153.27 6.58997C149.06 7.48997 145.2 9.92997 142.59 13.34C141.44 14.84 140.52 16.52 139.18 17.85C137.41 19.6 134.95 20.62 132.46 20.63C133.7 21.6 135.18 22.26 136.72 22.55C133.19 25.02 130.96 29.12 130.41 33.39C130.04 36.27 130.41 39.21 131.31 41.98C131.76 43.34 131.78 44.83 131.26 46.16C130.9 47.07 130.35 47.86 129.53 48.4C131.44 48.01 133.23 47.08 134.67 45.76C133.64 47.55 133.56 49.85 134.46 51.71C135.36 53.57 137.22 54.93 139.26 55.23C138.26 54.24 138.45 52.34 139.62 51.57C139.88 53 140.94 54.14 141.96 55.18C142.98 56.22 144.05 57.34 144.33 58.77C144.62 60.2 143.71 61.96 142.25 61.99C146.56 63.06 151.47 60.23 152.71 55.97C152.85 59.76 156.19 62.83 159.83 63.89C163.47 64.96 167.36 64.47 171.13 63.97C169.63 64.07 168.29 62.46 168.66 61C168.75 60.65 168.92 60.31 169.21 60.08C169.62 59.75 170.18 59.69 170.7 59.61C175.44 58.88 179.38 54.55 179.66 49.75C179.8 50.83 180.83 51.62 181.9 51.83C182.97 52.04 184.07 51.8 185.13 51.55C182.74 49.19 183.28 45.22 184.35 42.04C185.42 38.85 186.84 35.41 185.66 32.26C187.06 32.15 188.37 31.27 188.99 30.01V30.03Z" fill="#472740"/>
<path d="M145.88 77.7299C146.75 78.3299 147.68 78.8399 148.59 79.1899C154.07 81.2699 160.26 78.8699 160.94 73.6399L160.97 73.4999V73.3099L161 72.9399L161.03 72.6199L161.25 70.5399L161.39 69.6299L162.77 61.2699C162.82 60.6299 155.13 58.6099 155.13 58.6099L153.29 57.0599L151.26 55.3699L148.92 53.4099L145.44 50.5099L145.17 50.3099L145.03 51.7799L142.83 62.8399V62.8699L142.25 65.5099L141.66 68.5199C140.99 71.7899 142.65 75.3699 145.88 77.7199V77.7299Z" fill="#BF7461"/>
<path d="M150.85 68.3099C153.24 70.2199 156.33 72.2699 161.05 72.6299L161.27 70.5499L161.41 69.6399L162.79 61.2799C162.84 60.6399 155.15 58.6199 155.15 58.6199L153.31 57.0699L151.28 55.3799L148.94 53.4199C148.2 57.1199 146.6 64.8599 150.86 68.3099H150.85Z" fill="#472740"/>
<path d="M137.53 39.8C138.11 43.26 140.41 45.76 142.84 45.76C142.84 45.79 142.84 45.82 142.85 45.85C142.98 46.72 143.17 47.57 143.4 48.42C144.41 52.18 146.24 55.68 148.83 58.57C149.25 59.04 149.69 59.49 150.16 59.93C150.53 60.3 150.92 60.64 151.32 60.98C151.68 61.29 152.05 61.57 152.43 61.86C152.76 62.1 153.07 62.31 153.36 62.49C154.21 63.05 155.17 63.48 156.19 63.78C162.82 65.82 169.83 62.92 173.6 57.33C174.23 56.4 174.77 55.39 175.2 54.33C175.74 53.04 176.21 51.73 176.65 50.38C176.72 50.16 176.78 49.94 176.85 49.72C176.87 49.66 176.89 49.59 176.91 49.52C176.95 49.41 176.98 49.31 177.01 49.2C178.12 45.4 178.88 41.37 179.42 37.2C180.46 33.21 179.03 28.11 177.78 24.82C176.92 22.52 175.69 20.33 174.03 18.48C164.2 7.53998 151.24 13.66 151.24 13.66C142.45 15.74 142.92 30.13 142.92 30.13C142.83 30.92 142.78 31.68 142.71 32.41C142.22 32.28 141.69 32.22 141.16 32.3C138.54 32.73 136.92 36.09 137.52 39.8H137.53Z" fill="#BF7461"/>
<path d="M183.07 29.36C182.67 26.67 181.77 24.07 180.46 21.69C179.17 19.35 177.49 17.22 175.5 15.44C173.44 13.59 171.05 12.12 168.46 11.12C165.73 10.07 162.81 9.52997 159.88 9.52997C157.02 9.52997 154.14 10.05 151.48 11.11C148.98 12.1 146.66 13.55 144.74 15.44C142.79 17.37 141.31 19.75 140.56 22.4C139.8 25.08 139.76 27.99 140.63 30.65C140.79 31.14 140.99 31.61 141.2 32.07C141.53 32.09 141.84 32.17 142.15 32.3C142.28 32.26 142.41 32.22 142.54 32.18C142.8 32.6 143.06 33.01 143.33 33.41C144.08 34.54 144.91 35.76 144.96 37.17C145.03 38.82 143.93 40.19 143.5 41.72C143.3 42.46 143.27 43.23 143.5 43.96C143.73 44.67 144.16 45.31 144.72 45.79C146.14 47.03 148.21 47.12 149.9 46.38C150.04 46.32 149.96 46.1 149.82 46.1C149.14 46.1 148.64 45.58 148.42 44.97C148.16 44.25 148.25 43.52 148.62 42.85C149.04 42.08 149.7 41.47 150.32 40.87C150.95 40.25 151.54 39.59 152.05 38.87C153.05 37.43 153.76 35.77 154.1 34.05C154.27 33.21 154.35 32.36 154.35 31.51C154.56 31.46 154.77 31.4 154.97 31.33C155.85 31.04 156.7 30.65 157.54 30.27C158.31 29.93 159.08 29.57 159.83 29.19C162.75 27.71 165.61 25.82 167.43 23.03C167.46 22.99 167.48 22.94 167.51 22.89C166.79 25.24 165.32 27.36 163.35 28.84C162.71 29.32 162.03 29.73 161.31 30.07C161.21 30.12 161.21 30.28 161.31 30.33C164.85 32.04 169.02 32.32 172.76 31.16C173.21 31.02 173.64 30.85 174.07 30.67C172.14 31.86 169.96 32.64 167.7 32.94C167.54 32.96 167.49 33.18 167.66 33.23C170.62 34.17 173.77 34.49 176.85 34.16C177.58 34.08 178.31 33.96 179.03 33.81C176.86 36.44 176.35 40.26 177.6 43.41C177.96 44.32 178.47 45.17 179.11 45.92C179.18 46 179.3 45.96 179.35 45.89C180.96 43.48 182.1 40.78 182.72 37.95C183.34 35.13 183.46 32.21 183.03 29.36H183.07Z" fill="#472740"/>
<path d="M164.11 55.48C163.79 56.12 163.39 56.64 162.92 57.05C160.04 59.67 154.97 57.71 154.34 53.85C154.19 52.96 154.28 51.95 154.71 50.88C155.09 49.93 156.28 49.63 157.06 50.26C159.01 51.82 161.03 52.81 163.11 53.34C164.04 53.57 164.53 54.61 164.11 55.47V55.48Z" fill="#472740"/>
<path d="M162.92 57.06C160.04 59.68 154.97 57.72 154.34 53.86C155.34 53.4 156.57 53.18 157.84 53.31C160.46 53.56 162.53 55.15 162.92 57.06Z" fill="#F8B6C4"/>
<path d="M142.7 36.34C142.45 36.07 142.05 35.96 141.73 36.21C141.46 36.42 141.34 36.91 141.6 37.18C142.91 38.58 143.15 40.57 142.2 42.25C142.02 42.58 142.25 43.02 142.56 43.16C142.93 43.32 143.29 43.12 143.47 42.8C144.62 40.74 144.31 38.07 142.7 36.35V36.34Z" fill="#472740"/>
<path d="M169.68 50.4C169.65 47.21 169.38 44 169.23 40.81C169.19 40.06 168.03 40.05 168.06 40.81L168.43 48.57C168.48 49.54 168.94 51.34 167.73 51.72C166.63 52.07 165.27 51.67 164.27 51.19C163.6 50.86 162.99 51.86 163.66 52.19C165.72 53.19 169.7 53.75 169.67 50.41L169.68 50.4Z" fill="#472740"/>
<path d="M158.54 40.33C158.32 41.49 158.79 42.57 159.58 42.73C160.37 42.9 161.19 42.09 161.41 40.93C161.63 39.77 161.16 38.69 160.37 38.52C159.58 38.35 158.76 39.16 158.54 40.32V40.33Z" fill="#472740"/>
<path d="M171.38 43.49C171.16 44.65 171.63 45.73 172.42 45.9C173.21 46.07 174.03 45.26 174.25 44.1C174.47 42.94 174 41.86 173.21 41.69C172.42 41.52 171.6 42.33 171.38 43.49Z" fill="#472740"/>
<path d="M156.37 35.92C156.32 35.88 156.26 35.87 156.2 35.85C157.47 34 159.73 32.84 161.98 32.97C162.34 32.99 162.7 33.04 163 33.24C163.29 33.44 163.49 33.82 163.39 34.16C163.27 34.54 162.85 34.72 162.46 34.8C161.66 34.97 160.83 34.94 160.02 34.92C159.2 34.9 158.37 34.92 157.59 35.17C157.13 35.32 156.71 35.59 156.38 35.93L156.37 35.92Z" fill="#472740"/>
<path d="M173.21 35.41C173.52 35.32 173.82 35.37 174.09 35.45C175.88 35.98 176.99 37.72 176.94 39.78C176.87 39.49 176.78 39.21 176.61 38.98C176.6 38.97 176.59 38.96 176.58 38.95C176.49 38.8 176.39 38.66 176.27 38.54C175.83 38.11 175.22 37.87 174.61 37.66C174 37.45 173.38 37.26 172.88 36.89C172.64 36.71 172.41 36.44 172.51 36.09C172.59 35.77 172.92 35.5 173.23 35.41H173.21Z" fill="#472740"/>
<path d="M177.69 67.0499C173.05 65.7599 168.14 65.6899 163.47 66.8299C163.23 66.6099 162.71 66.8299 162.8 67.2499C163.56 71.1399 165.14 74.8499 167.44 78.0799C167.56 78.2499 167.81 78.3699 168 78.2299C171.93 75.3299 175.3 71.7499 177.94 67.6499C178.08 67.4299 177.94 67.1199 177.7 67.0499H177.69Z" fill="#472740"/>
<path d="M168.33 153.96C168.44 154.24 168.31 153.92 168.43 154.2C162.32 158.73 159.3 165.25 159.21 172.29C159.17 175.69 161.9 178.49 165.3 178.49H165.82C168.24 178.49 170.33 177 171.4 174.83C171.68 174.26 172.06 173.7 172.53 173.12C172.56 173.09 172.58 173.06 172.61 173.03C186.4 156.22 179.89 147.34 179.89 147.34C184.24 127.54 172.24 106.28 158.33 93.64C161.99 94.49 166.52 92.95 169.21 88.84C170.01 87.62 170.52 86.24 170.86 84.83C174 71.55 165.51 66.08 165.51 66.08C149.93 58.41 145.44 68.7 144.54 71.51C144.17 72.65 143.71 73.76 143.16 74.82C141.83 77.39 139.83 80.56 137.9 83.46C130.93 93.93 126.63 106 125.74 118.55C125.27 125.25 125.9 129.24 125.9 129.24L126.23 136.05C126.37 138.82 126.83 141.54 127.61 144.17C127.73 144.59 127.86 145.01 128 145.42C129.01 148.43 130.43 151.3 132.23 153.95C146.07 167.2 151.44 159.59 153.33 154.53C154.03 152.66 154.25 151.13 154.25 151.13C158.97 155.16 166.24 154.31 168.33 153.96Z" fill="#6BA3C6"/>
<path d="M182.76 132.66C182.5 131.7 182.16 130.76 181.74 129.85C181.33 128.96 180.84 128.1 180.16 127.38C179.53 126.71 178.71 126.2 177.78 126.13C176.87 126.06 176.02 126.44 175.34 127.01C174.61 127.62 174.04 128.44 173.61 129.29C173.11 130.28 172.75 131.34 172.48 132.41C171.92 134.63 171.79 136.95 172.11 139.22C172.11 139.22 172.11 139.23 172.11 139.24C172.23 140.09 171.74 140.9 170.92 141.15C168.75 141.82 166.67 142.83 165 144.37C164 145.29 163.18 146.39 162.65 147.65C162.15 148.84 161.89 150.16 161.96 151.45C162.01 152.48 162.28 153.49 162.77 154.38C162.77 154.42 162.79 154.45 162.81 154.47C163 154.5 163.19 154.53 163.37 154.58C165.11 154.83 166.88 154.82 168.62 154.54C170.52 154.23 172.37 153.61 174.07 152.72C175.78 151.83 177.36 150.66 178.69 149.27C180.05 147.84 181.14 146.18 181.91 144.37C182.7 142.53 183.16 140.57 183.31 138.58C183.45 136.59 183.28 134.58 182.76 132.65V132.66Z" fill="#472740"/>
<path d="M149.96 152.05C148.86 150.94 147.41 150.1 145.84 149.89C144.46 149.7 142.9 149.95 141.84 150.93C141.64 151.11 141.47 151.33 141.31 151.57C139.77 149.84 138.97 147.62 137.96 145.57C136.99 143.61 135.64 141.67 133.6 140.69C132.66 140.24 131.62 140.06 130.59 140.25C129.68 140.43 128.86 140.91 128.22 141.56C127.18 142.62 126.56 144.07 126.36 145.55C126.48 145.97 126.61 146.39 126.75 146.8C126.82 147 126.88 147.19 126.95 147.39C128.88 152.82 132.56 157.52 137.49 160.5C146.59 166 150.52 160.09 152.08 155.91C151.77 154.45 151.01 153.11 149.96 152.05Z" fill="#472740"/>
<path d="M158.79 85.83C158.73 85.73 158.65 85.68 158.56 85.65C158.66 85.44 158.6 85.16 158.32 85.06C156.44 84.45 154.53 83.94 152.59 83.54C152.08 83.43 151.86 84.22 152.37 84.33C153.58 84.58 154.78 84.89 155.97 85.22H154.2C153.67 85.22 153.67 86.04 154.2 86.04H157.47C156.65 86.43 155.85 86.86 155.08 87.36C154.89 87.48 154.82 87.72 154.93 87.92C155.04 88.1 155.3 88.19 155.49 88.07C156.49 87.42 157.54 86.86 158.63 86.39C158.83 86.3 158.88 86 158.78 85.83H158.79Z" fill="#472740"/>
<path d="M177.54 87.11C174.91 86.57 172.22 86.47 169.56 86.81C169.28 86.85 169.15 87.11 169.18 87.33C169.03 87.51 169 87.8 169.26 87.95C171.04 88.98 172.63 90.3 173.97 91.86C174.31 92.26 174.89 91.68 174.55 91.28C173.58 90.16 172.47 89.16 171.27 88.29C172.92 88.81 174.62 89.15 176.34 89.31C176.86 89.36 176.86 88.54 176.34 88.49C174.65 88.33 172.99 87.98 171.38 87.46C173.36 87.35 175.35 87.49 177.31 87.89C177.82 88 178.04 87.21 177.53 87.1L177.54 87.11Z" fill="#472740"/>
<path d="M152.7 62.45C152.06 62.08 151.39 61.77 150.7 61.53C150.47 61.45 150.22 61.48 150.02 61.62C149.72 61.83 149.44 62.07 149.18 62.33C148.23 63.24 147.48 64.36 147 65.58C146.52 66.8 146.42 68.38 146.52 69.75C146.54 70.07 146.81 70.31 147.13 70.33C148.95 70.4 154.73 70.51 157.03 70.55C157.49 70.55 157.81 70.1 157.63 69.67C156.56 67.03 154.98 63.77 152.7 62.46V62.45Z" fill="#472740"/>
<path d="M151.01 63.76C150.85 63.62 150.56 63.67 150.44 63.84C149.17 65.58 148.52 67.69 148.57 69.85C148.52 69.99 148.54 70.15 148.64 70.25C148.74 70.4 148.93 70.43 149.1 70.36C151.25 70.43 153.41 70.5 155.56 70.57C155.83 70.57 156.16 70.31 155.99 70.01C154.7 67.65 153.03 65.55 151.01 63.77V63.76Z" fill="#F6BAB9"/>
<path d="M146.82 71.4C147.02 70.45 146.66 69.4 145.92 68.77C147.16 68.76 148.38 69.49 148.94 70.6C149.22 70 149.16 69.26 148.79 68.71C149.58 68.59 150.42 68.98 150.84 69.67C150.96 69.16 150.93 68.62 150.77 68.12C151.58 68.59 152.29 69.23 152.84 69.98C152.95 69.3 152.95 68.6 152.84 67.92C153.76 68.55 154.58 69.31 155.29 70.18C155.63 69.14 155.47 67.95 154.87 67.04C156.98 68.09 158.27 70.58 157.91 72.91" fill="#6BA3C6"/>
<path d="M171.35 75.88C172.04 75.19 173.12 74.93 174.05 75.21C173.39 74.16 172.11 73.54 170.88 73.66C171.23 73.1 171.89 72.75 172.55 72.76C172.22 72.03 171.43 71.53 170.64 71.56C171 71.18 171.47 70.91 171.98 70.78C171.15 70.36 170.23 70.11 169.29 70.05C169.8 69.59 170.39 69.21 171.03 68.94C170 68.51 168.91 68.23 167.81 68.11C168.49 67.26 169.58 66.75 170.67 66.76C168.65 65.55 165.85 65.82 164.09 67.39" fill="#6BA3C6"/>
<path d="M168.35 120.01C168.3 119.6 168.24 119.18 168.17 118.77C166.94 111.6 162.9 104.95 157.11 100.54C153.35 97.68 148.5 95.73 143.93 96.88C140.31 97.8 137.35 100.59 135.59 103.88C133.83 107.18 133.15 110.95 132.91 114.68C132.54 120.34 133.14 126.13 135.21 131.41C137.28 136.69 140.88 141.46 145.71 144.43C152.67 148.71 159.55 146.19 163.84 139.64C167.6 133.9 169.22 126.8 168.36 120L168.35 120.01Z" fill="#CDE8F1"/>
<path d="M162.3 80.78C160.17 84.53 158.93 84.13 158.64 78.74C158.64 78.74 156.77 84.02 159.65 84.77C159.65 84.77 161.66 85.38 162.31 80.78H162.3Z" fill="#472740"/>
<path d="M167.18 82.67C168.1 86.18 169.19 86.12 170.6 81.8C170.6 81.8 170.98 86.49 168.48 86.48C168.48 86.48 166.71 86.54 167.18 82.67Z" fill="#472740"/>
<path d="M168.37 87.43C168.27 87.31 168.15 87.21 168.01 87.13C167.85 87.04 167.68 86.99 167.49 86.97C167.42 86.97 167.33 87.01 167.28 87.06C167.23 87.11 167.19 87.2 167.19 87.27C167.19 87.35 167.22 87.43 167.28 87.48C167.34 87.54 167.41 87.56 167.49 87.57C167.39 87.56 167.49 87.57 167.51 87.57C167.53 87.57 167.55 87.58 167.58 87.59C167.57 87.62 167.56 87.66 167.56 87.7C167.55 88.3 167.17 88.85 166.56 88.98C166.04 89.09 165.54 88.78 165.39 88.28C165.39 88.18 165.33 88.08 165.25 88.03C165.17 87.98 165.09 87.98 165.02 88C165.02 88 165 88 164.99 88C164.96 88 164.95 88.04 164.93 88.05C164.93 88.05 164.92 88.06 164.91 88.07C164.87 88.1 164.83 88.12 164.81 88.16C164.45 88.6 163.77 88.6 163.32 88.28C162.77 87.88 162.63 87.15 162.8 86.52C162.8 86.5 162.8 86.47 162.8 86.45C162.85 86.46 162.9 86.47 162.95 86.49C163.1 86.54 163.28 86.43 163.32 86.28C163.36 86.12 163.27 85.96 163.11 85.91C162.45 85.71 161.7 85.9 161.22 86.38C161.11 86.49 161.1 86.69 161.22 86.8C161.34 86.91 161.53 86.92 161.64 86.8C161.66 86.78 161.69 86.75 161.71 86.73C161.72 86.72 161.74 86.7 161.76 86.69C161.81 86.65 161.87 86.61 161.93 86.58C161.96 86.56 161.99 86.55 162.02 86.54C162.03 86.54 162.05 86.53 162.06 86.52C162.11 86.5 162.16 86.49 162.2 86.47C162.01 87.35 162.27 88.29 163.04 88.81C163.63 89.21 164.39 89.18 164.95 88.8C165.29 89.38 165.99 89.68 166.66 89.56C167.36 89.43 167.87 88.88 168.05 88.22C168.05 88.28 168.05 88.33 168.05 88.39C168.05 88.46 168.09 88.55 168.14 88.6C168.19 88.65 168.28 88.69 168.35 88.69C168.43 88.69 168.51 88.66 168.56 88.6C168.62 88.54 168.64 88.47 168.65 88.39C168.69 88.04 168.57 87.69 168.35 87.42L168.37 87.43Z" fill="#472740"/>
<path d="M166.7 86.58C166.7 86.58 166.67 86.53 166.65 86.51C166.5 86.32 166.27 86.21 166.04 86.17C165.78 86.12 165.43 86.09 165.17 86.14C164.29 86.32 164.81 87.65 165.25 88.03C165.57 88.31 166.05 87.95 166.29 87.72C166.6 87.42 166.96 87 166.7 86.58Z" fill="#F6BAB9"/>
<path d="M158.22 116.97C163.23 116.92 169.55 125.1 175.82 124.04C175.82 124.04 197.71 162.21 211.45 153.94C211.45 153.94 219.77 145.75 205.48 131.06L178.89 110.57C178.89 110.57 168.76 101.05 166.05 101.11L155.56 108.04L153.18 110.37C152.24 113.7 154.75 117 158.21 116.97H158.22Z" fill="#BF7461"/>
<path d="M164.9 103.41C162.9 107.57 161.81 112.16 161.72 116.78C161.67 119.27 161.85 121.98 160.41 124.02C159.38 125.48 157.57 126.35 155.79 126.24C154.01 126.13 152.31 125.05 151.47 123.47C150.62 121.88 150.63 119.97 150.76 118.17C151.16 112.34 152.42 106.57 154.5 101.11" fill="#472740"/>
<path d="M167.48 101.42C167.36 101.69 167.18 101.93 166.99 102.16C167.04 102.2 167.1 102.22 167.14 102.27C167.16 102.29 167.18 102.31 167.2 102.34C167.29 102.44 167.37 102.55 167.45 102.66C167.47 102.69 167.49 102.73 167.51 102.76C167.59 102.94 167.69 103.13 167.72 103.32C167.74 103.49 167.78 103.67 167.77 103.83C167.77 104 167.74 104.17 167.71 104.33C167.67 104.54 167.57 104.73 167.47 104.92C167.36 105.13 167.21 105.32 167.04 105.5C167 105.55 166.95 105.6 166.9 105.65C166.7 105.84 166.48 106.02 166.24 106.17C166.28 106.32 166.32 106.47 166.33 106.63C166.33 106.66 166.33 106.69 166.33 106.72C166.38 107.65 165.78 108.39 165.05 108.89C164.84 109.02 164.62 109.13 164.39 109.23C164.05 109.38 163.7 109.53 163.34 109.64C162.77 109.82 162.17 109.92 161.58 109.98C161.46 110.02 161.34 110.06 161.21 110.09C159.79 110.42 158.2 110.61 156.47 110.57C156.47 110.57 126.6 155.19 111.4 150.12C111.4 150.12 102.36 147.23 98.2 137.28C98.2 137.28 100.92 128.72 104.39 126.84C107.49 125.17 118.9 123.45 118.9 123.45C127.44 119.05 140.65 112.97 145.43 106C145.43 106 144.55 102.68 145.01 99.14C145.56 94.92 149.69 92.0399 153.82 93.0899C156.03 93.6599 159.11 94.05 162.7 93.48C162.82 93.44 162.95 93.4199 163.09 93.4199C163.18 93.4199 163.27 93.3999 163.36 93.3799C163.36 93.3799 163.36 93.4 163.36 93.43H163.61C163.75 93.41 163.88 93.3899 164.02 93.3799C164.08 93.3799 164.15 93.3799 164.21 93.3799C164.36 93.3999 164.52 93.42 164.67 93.44C164.7 93.45 164.73 93.46 164.76 93.47C164.9 93.51 165.05 93.58 165.18 93.65C165.2 93.65 165.22 93.67 165.24 93.68C165.36 93.76 165.49 93.86 165.59 93.96C165.65 94.01 165.7 94.1 165.75 94.16C165.81 94.24 165.87 94.3 165.91 94.39C165.98 94.52 166.04 94.66 166.08 94.8C166.08 94.83 166.1 94.86 166.1 94.89C166.13 95.04 166.16 95.1899 166.16 95.3399C166.16 95.3799 166.16 95.4199 166.15 95.4499C166.15 95.6099 166.13 95.7699 166.09 95.9199C166.09 95.9499 166.07 95.98 166.06 96C166 96.15 165.95 96.3 165.88 96.43C165.84 96.5 165.8 96.55 165.76 96.61C165.65 96.76 165.54 96.91 165.41 97.04C165.39 97.06 165.38 97.07 165.36 97.08C165.29 97.17 165.2 97.2399 165.12 97.3099C164.99 97.4099 164.85 97.5099 164.72 97.5999C164.75 97.5999 164.78 97.6 164.82 97.58C164.98 97.55 165.13 97.5299 165.28 97.5199H165.29C165.58 97.4999 165.86 97.5099 166.16 97.5999C166.27 97.6299 166.37 97.67 166.47 97.72C166.56 97.75 166.65 97.7899 166.73 97.8399C166.9 97.9399 167.07 98.07 167.2 98.22C167.47 98.53 167.69 98.89 167.76 99.3C167.79 99.51 167.83 99.72 167.82 99.93C167.82 100.14 167.78 100.35 167.74 100.56C167.7 100.78 167.63 100.98 167.55 101.19C167.52 101.27 167.48 101.35 167.45 101.43L167.48 101.42Z" fill="#BF7461"/>
<path d="M165.36 96.9799C165.23 96.7599 164.96 96.7099 164.74 96.8199C163.66 97.3399 162.47 97.5799 161.27 97.5299C161.03 97.5199 160.82 97.7399 160.82 97.9799C160.82 98.2299 161.03 98.4199 161.27 98.4299C162.63 98.4899 163.97 98.1899 165.19 97.5999C165.41 97.4899 165.47 97.1799 165.35 96.9799H165.36Z" fill="#472740"/>
<path d="M167.48 101.42C167.36 101.69 167.18 101.93 166.99 102.16C167.04 102.2 167.1 102.22 167.14 102.27C167.16 102.29 167.18 102.31 167.2 102.34C165.84 102.93 164.38 103.25 162.89 103.31C162.64 103.32 162.44 103.1 162.44 102.86C162.44 102.62 162.64 102.42 162.89 102.41C164.51 102.34 166.13 101.92 167.58 101.18C167.55 101.26 167.51 101.34 167.48 101.42Z" fill="#472740"/>
<path d="M166.9 105.65C166.7 105.84 166.48 106.02 166.24 106.17C166.28 106.32 166.32 106.47 166.33 106.63C165.36 106.87 164.37 107.01 163.37 107.05C163.12 107.05 162.92 106.83 162.92 106.6C162.92 106.35 163.12 106.15 163.37 106.15C164.62 106.1 165.85 105.88 167.04 105.5C167 105.55 166.95 105.6 166.9 105.65Z" fill="#472740"/>
<path d="M149.85 116.64C149.34 118.96 147.93 120.87 146.24 121.48C144.56 122.09 142.67 121.4 141.41 119.71C140.14 118.01 139.59 115.53 139.16 113.14C138.01 106.7 137.42 100.08 137.41 93.44C137.6 94.75 137.94 96.02 138.39 97.2C138.72 95.58 139.25 94.04 139.95 92.67C139.84 94.26 140.22 95.91 140.96 97.13C141.5 94.78 142.28 92.53 143.28 90.49C143.23 92.44 143.54 94.39 144.16 96.13C144.51 95.01 144.86 93.9 145.21 92.78C145.49 93.62 145.78 94.46 146.07 95.29C146.57 94.06 147.07 92.83 147.57 91.6C147.38 96.68 147.82 101.81 148.88 106.69C149.58 109.95 150.56 113.38 149.85 116.64Z" fill="#472740"/>
<path d="M115.54 71.85C95.02 74.31 89.17 96.04 98.2 137.29C102.94 129.59 108.53 124.67 118.9 123.46C123.52 102.75 122.47 85.5 115.54 71.85Z" fill="#CDE8F1"/>
<path d="M41.57 139.33V138.93C41.5 137.57 41.42 136.22 41.41 134.86C40.79 128.65 41.16 122.32 39.72 116.21C38.86 112.59 37.28 109.23 34.88 106.37C32.54 103.58 29.58 101.34 26.34 99.71C22.38 97.72 11.82 94.94 10.86 94.41C10.55 94.24 10.19 94.58 10.38 94.89C14.21 101.44 15.12 109.31 19.37 115.64C23.59 121.93 30.33 125.76 35.54 131.1C37.42 133.03 41.25 138.69 41.58 139.32L41.57 139.33Z" fill="#7EC7A5"/>
<g style="mix-blend-mode:multiply">
<path d="M37.66 124.62C37.66 124.62 37.74 124.53 37.76 124.45C38.29 122.34 38.2 120.11 37.47 118.06C37.32 117.63 36.63 117.82 36.79 118.25C37.39 119.95 37.54 121.77 37.23 123.54C36.47 121.69 35.61 119.88 34.65 118.13C34.65 118.12 34.66 118.11 34.67 118.1C35.12 116.01 35.05 113.84 34.43 111.8C34.3 111.36 33.61 111.55 33.75 111.99C34.26 113.67 34.39 115.45 34.13 117.18C33.33 115.79 32.49 114.42 31.59 113.09C31.62 113.04 31.64 112.98 31.64 112.91C31.6 110.52 31.14 108.15 30.27 105.92C30.11 105.5 29.42 105.68 29.59 106.11C30.33 108.01 30.75 110.01 30.88 112.04C30.42 111.38 29.95 110.73 29.47 110.08C28.92 109.35 28.36 108.62 27.79 107.91C27.28 105.63 26.38 103.44 25.12 101.47C24.88 101.09 24.26 101.44 24.51 101.83C25.46 103.32 26.19 104.92 26.71 106.59C25.82 105.54 24.89 104.53 23.9 103.58C21.65 101.43 19.08 99.6101 16.12 98.5701C15.69 98.4201 15.5 99.1001 15.93 99.2501C20.44 100.84 23.93 104.26 26.91 107.93C23.95 107.16 21.15 105.9 18.61 104.19C18.23 103.93 17.88 104.55 18.25 104.8C21 106.65 24.07 107.99 27.29 108.76C27.38 108.85 27.51 108.88 27.63 108.84C27.9 109.19 28.17 109.54 28.44 109.89C29.19 110.88 29.91 111.88 30.61 112.91C27.93 112.65 25.35 111.73 23.11 110.21C22.73 109.95 22.38 110.57 22.75 110.82C25.23 112.5 28.13 113.48 31.12 113.66C32.02 115.01 32.88 116.4 33.67 117.81C31.92 118.07 30.13 117.92 28.44 117.39C28 117.25 27.82 117.94 28.25 118.07C30.12 118.65 32.09 118.78 34.01 118.47C34.01 118.47 34.02 118.47 34.03 118.47C35.05 120.34 35.97 122.26 36.76 124.23C35.12 123.75 33.6 122.94 32.32 121.8C31.98 121.5 31.48 122 31.82 122.3C33.31 123.62 35.1 124.57 37.04 125.06C37.06 125.06 37.08 125.06 37.09 125.06C38.22 128.06 39.05 131.17 39.49 134.35C39.55 134.8 40.24 134.61 40.17 134.16C39.72 130.89 38.84 127.7 37.66 124.62Z" fill="#7EC7A5"/>
</g>
<path d="M47.84 128.95C50.42 131.7 50.49 135.57 50.05 139.1C49.95 139.89 49.82 140.67 49.69 141.45C50.15 141.44 50.61 141.43 51.08 141.43C51.5 133.36 52.12 125.29 51.82 117.21C51.54 109.61 50.42 101.94 47.63 94.83C45.16 88.55 41.35 82.78 36.13 78.44C31.22 74.36 25.17 71.67 18.74 71.46C12.61 71.26 6.31002 73.21 1.73002 77.38C1.16002 77.9 0.620015 78.46 0.110015 79.04C-0.139985 79.32 0.110015 79.68 0.450015 79.63C2.48002 79.34 4.65002 79.02 6.64002 79.72C8.34002 80.32 9.59001 81.58 9.90001 83.38C10.05 84.27 10.11 85.17 10.5 86.01C10.79 86.63 11.24 87.18 11.78 87.61C12.9 88.51 14.35 88.94 15.77 89.03C19.55 89.27 22.74 86.79 26.32 86.02C29.36 85.36 33.24 86.21 33.78 89.8C34.06 91.65 33.47 93.55 32.99 95.32C32.58 96.83 32.29 98.43 32.48 100C32.67 101.48 33.36 102.84 34.67 103.62C35.96 104.39 37.51 104.5 38.96 104.69C40.41 104.89 42.04 105.18 42.95 106.46C43.92 107.81 43.72 109.62 43.26 111.12C42.22 114.5 39.05 117.62 40.42 121.4C41.7 124.92 45.45 126.38 47.86 128.95H47.84Z" fill="#7EC7A5"/>
<g style="mix-blend-mode:multiply">
<path d="M51.44 123.28C51.47 123.21 51.48 123.13 51.46 123.06C51.46 123.03 51.43 123 51.42 122.98C51.29 121.18 51.07 119.38 50.78 117.6C50.2 114.12 49.35 110.69 48.33 107.31C48.75 105.85 48.97 104.34 48.97 102.83C48.97 102.37 48.26 102.37 48.26 102.83C48.26 103.9 48.15 104.96 47.92 106C47.36 104.21 46.76 102.43 46.13 100.67C46.24 100.67 46.34 100.62 46.4 100.5C47.06 99.23 47.45 97.84 47.55 96.4C47.58 95.94 46.87 95.95 46.84 96.4C46.76 97.64 46.42 98.85 45.87 99.96C45.43 98.73 44.99 97.5 44.52 96.27C44.7 96.27 44.88 96.15 44.9 95.93C45.05 94.25 45.2 92.58 45.35 90.9C45.39 90.45 44.68 90.45 44.64 90.9C44.5 92.44 44.36 93.98 44.22 95.52C43.63 94 42.99 92.5 42.27 91.05C42.27 91.03 42.29 91.02 42.3 91C42.85 89.4 42.65 87.59 41.79 86.13C41.56 85.74 40.94 86.09 41.18 86.49C41.84 87.59 42.04 88.9 41.79 90.15C40.98 88.62 40.08 87.14 39.02 85.77C38.22 84.74 37.34 83.79 36.39 82.91C36.39 82.89 36.39 82.86 36.39 82.84C36.19 81.59 35.74 80.39 35.1 79.31C34.87 78.92 34.25 79.27 34.49 79.67C34.95 80.44 35.29 81.27 35.52 82.13C33.62 80.52 31.5 79.18 29.24 78.13C29.48 78.14 29.74 77.89 29.59 77.6C28.72 76.05 27.32 74.87 25.66 74.24C25.48 74.17 25.27 74.32 25.22 74.49C25.17 74.69 25.29 74.86 25.47 74.93C26.95 75.49 28.2 76.58 28.97 77.96C28.99 77.99 29.01 78.01 29.03 78.03C28.38 77.73 27.72 77.46 27.05 77.21C25.6 76.68 24.12 76.27 22.61 75.96C22.7 75.81 22.69 75.6 22.49 75.48C20.02 74.06 17.38 72.95 14.64 72.18C14.2 72.06 14.01 72.74 14.45 72.86C16.9 73.55 19.26 74.53 21.5 75.75C17.81 75.13 14.01 75.12 10.31 75.62C9.60004 75.72 8.89003 75.83 8.18003 75.96C7.73003 76.04 7.92003 76.73 8.37003 76.64C12.41 75.9 16.59 75.74 20.67 76.33C17.9 77.22 15.32 78.63 13.07 80.49C12.72 80.78 13.22 81.28 13.57 80.99C16.04 78.95 18.93 77.48 22.03 76.67C22.09 76.65 22.14 76.63 22.17 76.59C23.2 76.79 24.23 77.03 25.24 77.33C26.16 77.61 27.07 77.95 27.97 78.33C25.1 79.76 22.35 81.4 19.72 83.23C19.35 83.49 19.7 84.1 20.08 83.84C22.83 81.92 25.73 80.21 28.74 78.73C28.77 78.72 28.79 78.7 28.81 78.68C31.23 79.78 33.49 81.23 35.47 82.99C33.86 83.31 32.24 83.63 30.63 83.95C30.18 84.04 30.37 84.72 30.82 84.63C32.44 84.31 34.06 83.99 35.68 83.67C35.84 83.64 35.91 83.53 35.93 83.41C36.48 83.92 37.01 84.45 37.51 85.02C39.09 86.8 40.34 88.8 41.41 90.91C39.24 91.01 37.12 89.83 36.1 87.91C35.89 87.51 35.27 87.86 35.49 88.27C36.65 90.44 39.11 91.81 41.57 91.63C41.64 91.63 41.7 91.6 41.75 91.57C42.43 92.97 43.03 94.42 43.6 95.87C40.78 96.55 37.77 96.11 35.27 94.63C34.88 94.4 34.52 95.01 34.91 95.24C37.59 96.82 40.82 97.29 43.84 96.54C43.84 96.54 43.84 96.54 43.86 96.54C44.2 97.44 44.54 98.33 44.87 99.23C45.02 99.64 45.17 100.06 45.32 100.47C43 101.01 40.54 100.51 38.61 99.11C38.24 98.84 37.89 99.46 38.25 99.72C40.34 101.23 43.05 101.74 45.56 101.14C46.23 103.04 46.87 104.95 47.46 106.88C46.01 106.14 44.68 105.18 43.55 104.01C43.23 103.68 42.73 104.18 43.05 104.51C44.33 105.83 45.85 106.92 47.51 107.7C47.58 107.73 47.65 107.74 47.72 107.73C48.26 109.53 48.74 111.35 49.17 113.19C49.15 113.19 49.13 113.18 49.1 113.18C47.43 113.21 45.86 112.19 45.18 110.67C45.1 110.5 44.85 110.45 44.7 110.54C44.52 110.65 44.49 110.85 44.57 111.02C45.35 112.76 47.21 113.92 49.1 113.88C49.19 113.88 49.26 113.84 49.31 113.8C49.45 114.4 49.58 115.01 49.7 115.62C49.91 116.67 50.09 117.73 50.25 118.79C47.51 118.98 44.74 117.78 43.09 115.56C42.82 115.2 42.21 115.56 42.48 115.92C44.29 118.35 47.32 119.75 50.35 119.5C50.5 120.62 50.63 121.74 50.72 122.87C48.79 123.02 46.82 122.04 45.78 120.4C45.54 120.02 44.92 120.37 45.17 120.76C46.37 122.65 48.56 123.7 50.77 123.56C50.83 124.53 50.86 125.51 50.87 126.49C49.4 126.12 48.06 125.34 47.02 124.22C46.71 123.88 46.21 124.39 46.52 124.72C47.68 125.97 49.21 126.85 50.87 127.22C50.87 128.94 50.77 130.66 50.56 132.38C50.47 133.11 50.36 133.84 50.23 134.57C50.15 135.02 50.83 135.21 50.91 134.76C51.59 130.97 51.72 127.14 51.46 123.32L51.44 123.28Z" fill="#7EC7A5"/>
</g>
<path d="M55.04 139.05V138.65C55.11 137.29 55.19 135.94 55.2 134.58C55.82 128.37 55.45 122.04 56.89 115.93C57.75 112.31 59.33 108.95 61.73 106.09C64.07 103.3 67.03 101.07 70.27 99.43C74.23 97.44 84.79 94.66 85.75 94.13C86.06 93.96 86.42 94.3 86.23 94.61C82.4 101.16 81.49 109.03 77.24 115.36C73.02 121.65 66.28 125.48 61.07 130.82C59.19 132.75 55.36 138.41 55.03 139.04L55.04 139.05Z" fill="#7EC7A5"/>
<g style="mix-blend-mode:multiply">
<path d="M58.95 124.34C58.95 124.34 58.87 124.25 58.85 124.17C58.32 122.06 58.41 119.83 59.14 117.78C59.29 117.35 59.98 117.54 59.82 117.97C59.22 119.67 59.07 121.49 59.38 123.26C60.14 121.41 61 119.6 61.96 117.85C61.96 117.84 61.95 117.83 61.94 117.82C61.48 115.73 61.56 113.56 62.18 111.52C62.31 111.08 63 111.27 62.86 111.71C62.35 113.39 62.22 115.17 62.48 116.9C63.28 115.51 64.12 114.14 65.02 112.81C64.99 112.76 64.97 112.7 64.97 112.63C65.01 110.24 65.47 107.87 66.34 105.64C66.5 105.22 67.19 105.4 67.02 105.83C66.28 107.73 65.86 109.73 65.73 111.76C66.19 111.1 66.66 110.45 67.14 109.8C67.69 109.07 68.25 108.34 68.82 107.63C69.33 105.35 70.23 103.16 71.49 101.19C71.73 100.81 72.35 101.16 72.1 101.55C71.15 103.04 70.42 104.64 69.9 106.31C70.79 105.26 71.72 104.25 72.71 103.3C74.96 101.15 77.53 99.33 80.49 98.29C80.92 98.14 81.11 98.82 80.68 98.97C76.17 100.56 72.68 103.98 69.7 107.65C72.66 106.88 75.46 105.62 78 103.91C78.38 103.65 78.73 104.27 78.36 104.52C75.61 106.37 72.54 107.71 69.32 108.48C69.23 108.57 69.1 108.6 68.98 108.56C68.71 108.91 68.44 109.26 68.17 109.61C67.42 110.6 66.7 111.6 66 112.63C68.68 112.37 71.26 111.45 73.5 109.93C73.88 109.67 74.23 110.29 73.86 110.54C71.38 112.22 68.48 113.2 65.49 113.38C64.59 114.73 63.73 116.12 62.94 117.53C64.69 117.79 66.48 117.64 68.17 117.11C68.61 116.97 68.79 117.66 68.36 117.79C66.49 118.37 64.52 118.5 62.6 118.19C62.6 118.19 62.59 118.19 62.58 118.19C61.56 120.06 60.64 121.98 59.85 123.95C61.49 123.47 63.01 122.66 64.29 121.52C64.63 121.22 65.13 121.72 64.79 122.02C63.3 123.34 61.51 124.29 59.57 124.78C59.55 124.78 59.53 124.78 59.52 124.78C58.39 127.78 57.56 130.89 57.12 134.07C57.06 134.52 56.37 134.33 56.44 133.88C56.89 130.61 57.77 127.42 58.95 124.34Z" fill="#7EC7A5"/>
</g>
<path d="M67.84 131.7V155.76C67.84 162.54 64.03 168.43 58.44 171.41C60.43 172.34 61.83 174.36 61.83 176.71V178.06H38.44V176.71C38.44 174.36 39.82 172.34 41.83 171.41C38.97 169.89 36.58 167.61 34.92 164.83C33.33 162.17 32.42 159.07 32.42 155.76V131.7H67.85H67.84Z" fill="#6BA3C6"/>
<path d="M58.05 153.44C57.52 156.87 56.88 160.26 55.2 163.37C54.25 165.12 52.55 166.3 50.75 167.1C49.46 167.68 47.89 168.28 46.32 168.53C46.49 168.59 46.66 168.64 46.83 168.69C49.75 169.59 53 169.15 55.57 167.49C58.39 165.67 59.64 162.66 60.14 159.42C60.77 155.38 61.01 136.02 61.01 136.02C61.01 136.02 59.37 145.24 58.61 149.85C58.41 151.05 58.24 152.25 58.06 153.44H58.05Z" fill="#472740"/>
<path d="M62.36 131.7C62.07 135.76 61.93 139.83 61.83 143.91C61.74 147.74 61.68 151.58 61.51 155.41C61.38 158.21 61.16 161.06 60.4 163.77C59.69 166.27 58.44 168.69 56.26 170.19C55.97 170.39 55.68 170.56 55.37 170.72C53.75 171.56 53 173.56 53.9 175.14C54.73 176.6 54.17 178.06 54.17 178.06H61.83V176.71C61.83 174.36 60.44 172.34 58.44 171.41C64.03 168.43 67.84 162.54 67.84 155.76V131.7H62.36Z" fill="#472740"/>
<path d="M282.99 178.3H236.26H42.52H24.96" stroke="#472740" stroke-linecap="round" stroke-linejoin="round"/>
</svg>
