<svg width="19" height="18" viewBox="0 0 19 18" fill="none" xmlns="http://www.w3.org/2000/svg">
<path d="M0.5 18L1.79146 13.2023C0.74993 11.3334 0.419025 9.15247 0.859468 7.05981C1.29991 4.96716 2.48215 3.10311 4.18926 1.80974C5.89636 0.51636 8.01381 -0.119591 10.1531 0.0185802C12.2923 0.156752 14.3099 1.05978 15.8355 2.56195C17.3611 4.06413 18.2925 6.06469 18.4586 8.19652C18.6248 10.3284 18.0147 12.4485 16.7402 14.1678C15.4658 15.8872 13.6124 17.0905 11.5203 17.5568C9.42819 18.0232 7.23763 17.7214 5.3506 16.7068L0.5 18ZM5.58448 14.9114L5.88447 15.0889C7.25128 15.897 8.8477 16.2314 10.4249 16.04C12.0022 15.8486 13.4717 15.1422 14.6044 14.0308C15.737 12.9194 16.4693 11.4655 16.6871 9.89559C16.9049 8.32572 16.596 6.72808 15.8084 5.35165C15.0208 3.97521 13.7989 2.8973 12.333 2.28588C10.8671 1.67447 9.23968 1.5639 7.70423 1.9714C6.16878 2.37891 4.8116 3.2816 3.84419 4.5388C2.87678 5.796 2.35348 7.3371 2.35584 8.92192C2.35455 10.236 2.7189 11.5247 3.40832 12.6444L3.59645 12.9538L2.87445 15.6316L5.58448 14.9114Z" fill="#2791B5"/>
<path fill-rule="evenodd" clip-rule="evenodd" d="M12.8653 10.1538C12.6895 10.0124 12.4836 9.91279 12.2633 9.86269C12.043 9.8126 11.8142 9.81331 11.5942 9.86477C11.2637 10.0017 11.0502 10.519 10.8366 10.7776C10.7916 10.8397 10.7254 10.8831 10.6505 10.8999C10.5756 10.9168 10.4972 10.9057 10.4299 10.8689C9.21991 10.3962 8.20573 9.52942 7.55204 8.40923C7.49628 8.33933 7.46989 8.25058 7.47843 8.16166C7.48696 8.07274 7.52976 7.99059 7.5978 7.93251C7.83597 7.69732 8.01085 7.40603 8.10625 7.08556C8.12743 6.73208 8.04624 6.37998 7.87236 6.07125C7.73794 5.63842 7.48211 5.25302 7.13511 4.96058C6.95613 4.88029 6.75769 4.85337 6.56372 4.88307C6.36975 4.91276 6.18854 4.99781 6.04194 5.12794C5.78745 5.34695 5.58545 5.62012 5.45082 5.92731C5.31619 6.23451 5.25235 6.56792 5.26402 6.90298C5.2648 7.09114 5.28871 7.2785 5.3352 7.46085C5.45327 7.89899 5.63483 8.31758 5.87416 8.70338C6.04682 8.99892 6.23522 9.28502 6.43853 9.56048C7.09929 10.4652 7.92987 11.2334 8.88417 11.8224C9.36305 12.1217 9.87487 12.365 10.4095 12.5476C10.9649 12.7987 11.5781 12.8951 12.184 12.8266C12.5292 12.7744 12.8563 12.6385 13.1365 12.4307C13.4166 12.2228 13.6413 11.9495 13.7907 11.6347C13.8785 11.4446 13.9051 11.232 13.867 11.0262C13.7754 10.6052 13.2111 10.3567 12.8653 10.1538Z" fill="#2791B5"/>
</svg>
