<svg width="21" height="20" viewBox="0 0 21 20" fill="none" xmlns="http://www.w3.org/2000/svg">
<g clip-path="url(#clip0_184_11053)">
<path d="M7.30331 6.66672C6.82047 6.65986 6.35513 6.48481 5.98748 6.17172C5.2198 5.46779 4.75474 4.49377 4.68998 3.45422C4.48748 1.37589 5.62082 0.150888 6.84498 0.0142211C7.13995 -0.0186737 7.43852 0.00820486 7.72287 0.093252C8.00722 0.178299 8.27152 0.319771 8.49998 0.509221C8.84103 0.816524 9.11793 1.18825 9.31472 1.60301C9.51152 2.01777 9.62432 2.46735 9.64665 2.92589C9.83331 4.86172 8.80165 6.66672 7.30331 6.66672ZM2.87748 11.6667C2.43405 11.6566 2.01069 11.4799 1.69165 11.1717C0.986226 10.4372 0.571626 9.47152 0.524982 8.45422C0.341649 6.37589 1.36332 5.15089 2.46748 5.01422C2.73664 4.98347 3.00926 5.01183 3.26632 5.09733C3.52339 5.18282 3.75869 5.32339 3.95582 5.50922C4.5898 6.15766 4.95864 7.01957 4.98998 7.92589C5.15748 9.86172 4.13248 11.6667 2.87748 11.6667ZM13.6966 6.66672C12.1883 6.66672 11.1683 4.86172 11.3575 2.92339C11.3798 2.46485 11.4926 2.01527 11.6894 1.60051C11.8862 1.18575 12.1631 0.814024 12.5041 0.506721C12.7324 0.318366 12.9961 0.177726 13.2796 0.0931292C13.5632 0.0085326 13.8609 -0.0182998 14.155 0.0142211C15.3791 0.150888 16.5125 1.37589 16.31 3.45422C16.2452 4.494 15.7801 5.46826 15.0125 6.17255C14.6446 6.48509 14.1793 6.65981 13.6966 6.66672ZM18.0441 11.6667C16.4725 11.6667 15.6883 9.86172 15.865 7.92339C15.9 7.01127 16.2818 6.14691 16.9325 5.50672C17.1389 5.31951 17.3829 5.17851 17.6482 5.09314C17.9135 5.00778 18.1939 4.98002 18.4708 5.01172C19.6108 5.14839 20.6666 6.37339 20.4783 8.45172C20.4254 9.47621 19.9946 10.4447 19.2691 11.1701C18.9355 11.4801 18.4996 11.6569 18.0441 11.6667ZM13.8333 20.0001C13.1211 20.0141 12.4178 19.8402 11.7941 19.4959C11.3952 19.2857 10.951 19.1758 10.5 19.1758C10.049 19.1758 9.60481 19.2857 9.20581 19.4959C6.69498 20.9017 3.76832 19.3559 3.83332 15.8334C3.83332 11.9701 7.58915 8.33339 10.5 8.33339C13.4108 8.33339 17.1666 11.9701 17.1666 15.8334C17.1666 18.2867 15.7958 20.0001 13.8333 20.0001Z" fill="#2791B5"/>
</g>
<defs>
<clipPath id="clip0_184_11053">
<rect width="20" height="20" fill="white" transform="translate(0.5)"/>
</clipPath>
</defs>
</svg>
