<svg width="275" height="193" viewBox="0 0 275 193" fill="none" xmlns="http://www.w3.org/2000/svg">
<path d="M3.44001 174.6C6.93001 180.84 12.18 186.67 18.41 191.46H250.32C262.98 179.74 271.49 163.61 274 146.54C276.57 129.08 272.83 110.77 263.63 95.71C259.5 88.97 254.25 82.8 247.59 78.53C242.06 74.98 235.83 72.89 229.52 70.96C227.3 70.28 225.08 69.62 222.87 68.93C218.85 67.67 214.88 66.29 211.13 64.44C199.06 58.5 190.06 48.41 181.05 38.24C178.86 35.78 176.66 33.3 174.41 30.89C170.78 26.96 167.02 23.19 162.94 19.8C147.74 7.17 128.04 0.260004 108.28 3.64613e-06C90.9 -0.229996 73.57 4.61 58.55 13.36C56.49 14.56 54.48 15.83 52.52 17.17C51.19 18.08 49.88 19.01 48.6 20C43.55 23.83 38.9 28.18 35 33.15C28.75 41.1 24.58 50.5 22.02 60.46C21.33 63.09 20.77 65.77 20.31 68.47C18.14 81.03 18.19 94.09 19.53 106.03C20.66 116.11 21.64 127.16 16.4 136.33C12.74 142.76 5.64001 146.61 2.36001 153.24C1.98001 154.03 1.65001 154.82 1.36001 155.63C-0.779993 161.87 0.220007 168.82 3.44001 174.59V174.6Z" fill="#CDE8F1"/>
<path d="M235.5 170.97C233.1 168.46 229.13 167.59 225.9 168.66C228.5 166.04 229.56 161.82 227.64 158.65C225.28 154.75 218.68 154.62 216.22 158.18C217.51 155.13 216.3 151.17 213.6 149.13C210.56 146.84 206.2 146.8 202.76 148.45C199.33 150.09 196.75 153.19 195.04 156.58C196.93 152.5 198.87 148.22 198.62 143.73C198.37 139.24 195.11 134.58 190.62 134.4C185.93 134.22 182.5 138.59 179.91 142.5C182.43 138.03 183.58 132.8 183.16 127.69C183.01 125.88 182.61 123.94 181.27 122.7C179.67 121.21 177.26 121.15 175.08 121.17C172.58 121.2 170 121.24 167.71 122.26C166.55 122.78 165.49 123.62 164.75 124.64C165.99 119.18 165.31 113.29 162.78 108.29C161.61 105.98 159.76 103.68 157.19 103.38C154.2 103.04 151.68 105.53 150.01 108.03C147.78 111.36 146.17 115.1 145.24 119C145.69 115.71 145.39 112.31 144.31 109.16C143.73 107.48 142.88 105.79 141.4 104.81C138.33 102.79 133.92 104.86 132.16 108.09C130.4 111.32 130.55 115.21 130.75 118.88C130 114.91 129.06 110.86 126.8 107.51C124.54 104.16 120.67 101.61 116.65 102C111.41 102.51 107.7 107.82 107.17 113.05C106.64 118.28 108.51 123.43 110.35 128.36C107.7 123.54 104.36 118.56 99.16 116.78C93.96 114.99 86.86 118.47 87.19 123.96C82.56 117.84 74.7 113.71 67.18 115.25C59.66 116.79 53.72 125.14 56.24 132.39C52.67 128.44 45.35 131.06 43.34 136C41.33 140.93 43.18 146.61 45.88 151.21C44.26 148.96 40.56 149.12 38.51 150.99C36.46 152.86 35.81 155.85 35.87 158.62C35.98 163.42 37.99 168.14 41.36 171.56C38.08 169.95 33.83 172.53 32.88 176.06C31.93 179.59 33.62 183.41 36.23 185.97C38.84 188.53 42.25 190.08 45.59 191.58L225.33 192.17C230.04 191.27 234.53 188.54 236.82 184.33C239.11 180.12 238.79 174.42 235.48 170.96L235.5 170.97Z" fill="#7EC7A5"/>
<g style="mix-blend-mode:multiply">
<path d="M136.66 186.01C134.94 178.92 134.48 171.54 134.86 164.27C135.27 156.5 136.6 148.74 138.79 141.27C141.04 133.61 144.23 126.23 148.23 119.33C151.37 113.91 155.01 108.8 159.02 103.99C158.46 103.69 157.85 103.48 157.19 103.4C154.2 103.06 151.68 105.55 150.01 108.05C147.78 111.38 146.17 115.12 145.24 119.02C145.69 115.73 145.39 112.33 144.31 109.18C143.73 107.5 142.88 105.81 141.4 104.83C138.33 102.81 133.92 104.88 132.16 108.11C130.4 111.34 130.55 115.23 130.75 118.9C130 114.93 129.06 110.88 126.8 107.53C124.54 104.18 120.67 101.63 116.65 102.02C111.41 102.53 107.7 107.84 107.17 113.07C106.64 118.3 108.51 123.45 110.35 128.38C107.7 123.56 104.36 118.58 99.16 116.8C93.96 115.01 86.86 118.49 87.19 123.98C82.56 117.86 74.7 113.73 67.18 115.27C59.66 116.81 53.72 125.16 56.24 132.41C52.67 128.46 45.35 131.08 43.34 136.02C41.33 140.95 43.18 146.63 45.88 151.23C44.26 148.98 40.56 149.14 38.51 151.01C36.46 152.88 35.81 155.87 35.87 158.64C35.98 163.44 37.99 168.16 41.36 171.58C38.08 169.97 33.83 172.55 32.88 176.08C31.93 179.61 33.62 183.43 36.23 185.99C38.84 188.55 42.25 190.1 45.59 191.6L138.44 191.91C137.73 189.98 137.13 188.01 136.65 186.02L136.66 186.01Z" fill="#7EC7A5"/>
</g>
<path d="M120.55 174.07C121.85 169.73 121.4 164.83 121.02 160.48C120.99 160.08 120.94 159.63 120.84 159.2C120.6 157.25 120.3 155.32 119.88 153.43C115.45 131.76 100.63 115.84 84.19 103.63C83.4 103.01 82.61 102.43 81.79 101.89L81.53 109.5C81.4 114.11 82.09 118.87 83.2 123.52C84.33 128.26 85.81 132.86 87.28 137.15C90.12 145.52 93.91 153.74 98.74 161.05C99.56 162.29 100.4 163.49 101.29 164.67C102.5 166.3 103.76 167.91 105.11 169.46C105.72 170.15 106.36 170.85 107 171.55C108.99 173.71 113.84 180.08 117.1 178.97C118.97 178.39 120.01 175.88 120.55 174.06V174.07Z" fill="#7EC7A5"/>
<g style="mix-blend-mode:screen" opacity="0.32">
<path d="M120.55 174.07C121.85 169.73 121.4 164.83 121.02 160.48C120.99 160.08 120.94 159.63 120.84 159.2C120.6 157.25 120.3 155.32 119.88 153.43L119.63 153.34C112.15 150.77 104.18 154.61 101.84 161.94C101.55 162.84 101.39 163.74 101.29 164.67C102.5 166.3 103.76 167.91 105.11 169.46C105.72 170.15 106.36 170.85 107 171.55C108.99 173.71 113.84 180.08 117.1 178.97C118.97 178.39 120.01 175.88 120.55 174.06V174.07Z" fill="#7EC7A5"/>
</g>
<g style="mix-blend-mode:screen" opacity="0.32">
<path d="M120.55 174.07C121.85 169.73 121.4 164.83 121.02 160.48C120.99 160.08 120.94 159.63 120.84 159.2C120.13 156.87 119.12 154.61 117.94 152.37C113.63 144.41 106.88 137.22 99.31 130.75C98.44 130.02 97.52 129.22 96.31 128.94C91.83 127.84 93.08 133.4 93.21 135.23C93.32 137.1 93.53 139.04 93.82 140.97C93.99 142.03 94.18 143.05 94.39 144.12C95.62 150.02 97.68 155.91 100.52 161.54C101.87 164.22 103.42 166.89 105.11 169.47C105.72 170.16 106.36 170.86 107 171.56C108.99 173.72 113.84 180.09 117.1 178.98C118.97 178.4 120.01 175.89 120.55 174.07Z" fill="#7EC7A5"/>
</g>
<g style="mix-blend-mode:multiply" opacity="0.39">
<path d="M110.97 162.48C107.02 156.15 102.78 150.22 99.31 143.52C97.62 140.26 95.93 136.98 94.36 133.64C92.78 130.28 91.49 126.81 89.76 123.54C87.14 118.61 84.24 112.74 83.2 106.8C83.83 108.28 84.57 109.71 85.25 111.16C86.97 114.84 88.92 118.37 90.75 121.98C94.34 129.09 97.82 136.27 101.79 143.13C105.8 150.06 110.14 156.76 114.2 163.66C116.21 167.08 118.34 170.43 120.66 173.59C120.62 173.74 120.61 173.89 120.57 174.04C120.28 175 119.85 176.12 119.26 177.08C116.58 172.16 113.94 167.2 110.99 162.48H110.97Z" fill="#7EC7A5"/>
</g>
<path d="M113.5 175.77C113.85 171.65 112.38 167.33 111.09 163.5C110.98 163.14 110.83 162.75 110.64 162.38C109.99 160.67 109.3 158.99 108.49 157.38C99.61 138.74 81.85 127.1 63.3 119.07C62.41 118.66 61.51 118.28 60.61 117.94L61.96 124.81C62.81 128.97 64.48 133.12 66.54 137.09C68.63 141.14 71.05 145 73.38 148.58C77.91 155.58 83.33 162.28 89.56 167.98C90.62 168.95 91.69 169.87 92.8 170.77C94.32 172.02 95.88 173.24 97.52 174.39C98.26 174.9 99.03 175.41 99.8 175.92C102.19 177.5 108.25 182.35 111.18 180.78C112.88 179.93 113.35 177.49 113.49 175.76L113.5 175.77Z" fill="#7EC7A5"/>
<g style="mix-blend-mode:screen" opacity="0.32">
<path d="M113.5 175.77C113.85 171.65 112.38 167.33 111.09 163.5C110.98 163.14 110.83 162.75 110.64 162.38C109.99 160.67 109.3 158.99 108.49 157.38L108.23 157.35C100.42 156.38 93.48 161.24 92.76 168.23C92.67 169.09 92.7 169.93 92.8 170.77C94.32 172.02 95.88 173.24 97.52 174.39C98.26 174.9 99.03 175.41 99.8 175.92C102.19 177.5 108.25 182.35 111.18 180.78C112.88 179.93 113.35 177.49 113.49 175.76L113.5 175.77Z" fill="#7EC7A5"/>
</g>
<g style="mix-blend-mode:screen" opacity="0.32">
<path d="M113.5 175.77C113.85 171.65 112.38 167.33 111.09 163.5C110.98 163.14 110.83 162.75 110.64 162.38C109.45 160.41 108 158.57 106.38 156.77C100.51 150.4 92.43 145.15 83.71 140.69C82.71 140.19 81.64 139.64 80.41 139.6C75.82 139.41 78.22 144.18 78.72 145.79C79.23 147.44 79.84 149.15 80.53 150.83C80.92 151.75 81.32 152.63 81.75 153.56C84.19 158.64 87.43 163.55 91.39 168.09C93.27 170.26 95.33 172.37 97.53 174.38C98.27 174.89 99.04 175.4 99.81 175.91C102.2 177.49 108.26 182.34 111.19 180.77C112.89 179.92 113.36 177.48 113.5 175.75V175.77Z" fill="#7EC7A5"/>
</g>
<g style="mix-blend-mode:multiply" opacity="0.39">
<path d="M101.74 167.08C96.56 162.11 91.19 157.55 86.4 152.15C84.07 149.52 81.74 146.88 79.5 144.17C77.26 141.44 75.27 138.56 72.89 135.93C69.3 131.97 65.25 127.23 62.99 122.09C63.91 123.31 64.94 124.46 65.9 125.64C68.35 128.64 70.99 131.45 73.53 134.37C78.51 140.11 83.42 145.93 88.72 151.37C94.08 156.87 99.71 162.11 105.11 167.57C107.79 170.28 110.56 172.9 113.48 175.33C113.48 175.47 113.5 175.61 113.48 175.75C113.4 176.66 113.22 177.74 112.85 178.71C109.2 174.77 105.59 170.8 101.73 167.08H101.74Z" fill="#7EC7A5"/>
</g>
<path d="M108.22 185.73C107.53 181.78 105.28 178.09 103.28 174.81C103.1 174.5 102.88 174.17 102.64 173.87C101.69 172.42 100.71 171.02 99.65 169.7C87.76 154.37 70.06 147.73 52.56 144.67C51.71 144.5 50.87 144.36 50.03 144.26L52.8 150.38C54.5 154.07 56.89 157.56 59.57 160.78C62.29 164.07 65.24 167.11 68.05 169.91C73.52 175.38 79.67 180.36 86.26 184.2C87.38 184.85 88.5 185.46 89.64 186.04C91.21 186.85 92.82 187.61 94.47 188.29C95.21 188.59 95.98 188.88 96.75 189.18C99.13 190.09 105.38 193.17 107.47 191C108.7 189.8 108.52 187.39 108.22 185.74V185.73Z" fill="#7EC7A5"/>
<g style="mix-blend-mode:screen" opacity="0.32">
<path d="M108.22 185.73C107.53 181.78 105.28 178.09 103.28 174.81C103.1 174.5 102.88 174.17 102.64 173.87C101.69 172.42 100.71 171.02 99.65 169.7L99.42 169.73C92.63 170.7 87.94 176.92 89 183.65C89.13 184.48 89.35 185.26 89.64 186.02C91.21 186.83 92.82 187.59 94.47 188.27C95.21 188.57 95.98 188.86 96.75 189.16C99.13 190.07 105.38 193.15 107.47 190.98C108.7 189.78 108.52 187.37 108.22 185.72V185.73Z" fill="#7EC7A5"/>
</g>
<g style="mix-blend-mode:screen" opacity="0.32">
<path d="M108.22 185.73C107.53 181.78 105.28 178.09 103.28 174.81C103.1 174.5 102.88 174.17 102.64 173.87C101.18 172.31 99.51 170.93 97.73 169.64C91.29 165.08 83.25 162.1 74.86 160.03C73.9 159.8 72.87 159.54 71.83 159.8C67.93 160.72 71.07 164.62 71.88 166.01C72.7 167.44 73.62 168.89 74.59 170.29C75.14 171.06 75.68 171.79 76.26 172.55C79.52 176.72 83.41 180.54 87.81 183.85C89.9 185.43 92.14 186.91 94.46 188.27C95.2 188.57 95.97 188.86 96.74 189.16C99.12 190.07 105.37 193.15 107.46 190.98C108.69 189.78 108.51 187.37 108.21 185.72L108.22 185.73Z" fill="#7EC7A5"/>
</g>
<g style="mix-blend-mode:multiply" opacity="0.39">
<path d="M96.27 180.42C90.74 177 85.14 174.02 79.83 170.12C77.25 168.22 74.66 166.31 72.14 164.3C69.61 162.28 67.25 160.06 64.63 158.17C60.67 155.32 56.14 151.86 53.02 147.58C54.09 148.5 55.22 149.33 56.31 150.21C59.08 152.43 61.97 154.43 64.79 156.56C70.34 160.74 75.85 165.01 81.6 168.84C87.41 172.71 93.39 176.26 99.23 180.08C102.12 181.97 105.08 183.77 108.11 185.33C108.14 185.46 108.19 185.59 108.21 185.72C108.36 186.59 108.47 187.65 108.38 188.64C104.38 185.83 100.4 182.97 96.27 180.42Z" fill="#7EC7A5"/>
</g>
<path d="M107.55 179.3C104.79 176.18 100.69 174.28 97.06 172.59C96.73 172.43 96.34 172.26 95.95 172.15C94.28 171.45 92.61 170.8 90.9 170.28C71.49 163.96 51.23 169.1 33.07 177.32C32.17 177.7 31.3 178.1 30.46 178.54L36.34 182.3C39.92 184.55 44.03 186.19 48.28 187.4C52.61 188.65 57.01 189.53 61.16 190.28C69.25 191.77 77.71 192.38 85.98 191.7C87.39 191.58 88.77 191.43 90.15 191.23C92.07 190.97 93.99 190.65 95.92 190.23C96.78 190.04 97.66 189.82 98.55 189.6C101.29 188.92 108.83 187.78 109.65 184.51C110.16 182.66 108.71 180.61 107.56 179.31L107.55 179.3Z" fill="#7EC7A5"/>
<g style="mix-blend-mode:screen" opacity="0.32">
<path d="M107.55 179.3C104.79 176.18 100.69 174.28 97.06 172.59C96.73 172.43 96.34 172.26 95.95 172.15C94.28 171.45 92.61 170.8 90.9 170.28L90.7 170.45C84.8 175.58 83.7 184.11 88.29 189.5C88.85 190.16 89.48 190.72 90.16 191.23C92.08 190.97 94 190.65 95.93 190.23C96.79 190.04 97.67 189.82 98.56 189.6C101.3 188.92 108.84 187.78 109.66 184.51C110.17 182.66 108.72 180.61 107.57 179.31L107.55 179.3Z" fill="#7EC7A5"/>
</g>
<g style="mix-blend-mode:screen" opacity="0.32">
<path d="M107.55 179.3C104.79 176.18 100.69 174.28 97.06 172.59C96.73 172.43 96.34 172.26 95.95 172.15C93.74 171.67 91.43 171.47 89.06 171.43C80.54 171.37 71.36 173.74 62.33 177.14C61.3 177.53 60.19 177.95 59.34 178.84C56.15 182.12 61.19 183.64 62.7 184.39C64.23 185.16 65.88 185.89 67.55 186.54C68.48 186.89 69.38 187.2 70.34 187.52C75.64 189.23 81.36 190.22 87.28 190.43C90.1 190.54 93.01 190.46 95.92 190.23C96.78 190.04 97.66 189.82 98.55 189.6C101.29 188.92 108.83 187.78 109.65 184.51C110.16 182.66 108.71 180.61 107.56 179.31L107.55 179.3Z" fill="#7EC7A5"/>
</g>
<g style="mix-blend-mode:multiply" opacity="0.39">
<path d="M93.43 182.02C86.38 182.42 79.5 183.25 72.41 183.07C68.96 182.98 65.49 182.89 62.04 182.67C58.57 182.45 55.16 181.92 51.68 181.87C46.42 181.79 40.29 181.52 35.06 179.64C36.56 179.8 38.07 179.84 39.57 179.94C43.37 180.2 47.17 180.18 50.97 180.32C58.44 180.59 65.93 180.98 73.4 180.81C80.96 180.64 88.49 180.08 96.05 179.85C99.79 179.74 103.54 179.5 107.24 179C107.33 179.1 107.45 179.18 107.55 179.29C108.15 179.98 108.82 180.86 109.27 181.81C103.99 181.79 98.71 181.72 93.44 182.02H93.43Z" fill="#7EC7A5"/>
</g>
<path d="M144.54 65.89C143.26 65.53 141.94 65.63 140.71 66.11C139.58 66.55 138.04 67.52 136.86 66.72C136.34 66.37 136.07 65.77 135.83 65.22C135.59 64.69 135.37 64.15 135.02 63.68C134.37 62.8 133.47 62.15 132.46 61.75C130.41 60.95 127.99 61.31 126.45 62.93C124.89 64.58 124.38 67.15 125.27 69.23C121.95 68.42 118.19 67.76 115.3 70.04C114.62 70.58 114.07 71.26 113.72 72.05C113.65 72.21 113.73 72.41 113.93 72.41C115.11 72.4 117.02 72.38 119.34 72.35C120.62 72.34 122.03 72.32 123.51 72.3C124.39 72.29 125.29 72.28 126.2 72.27C136.18 72.15 148.01 72 148.01 72C148.11 72 148.17 71.95 148.21 71.88C148.32 72.03 148.63 71.98 148.65 71.73C148.65 71.68 148.65 71.64 148.65 71.59C148.76 69 147.05 66.57 144.54 65.85V65.89Z" fill="white"/>
<g opacity="0.19">
<path d="M145.69 69.57C144.41 69.21 143.09 69.31 141.86 69.79C140.73 70.24 139.19 71.2 138.01 70.41C137.49 70.06 137.22 69.46 136.98 68.91C136.74 68.37 136.52 67.84 136.17 67.37C135.52 66.49 134.62 65.84 133.61 65.44C131.56 64.64 129.14 65 127.6 66.62C126.19 68.1 125.64 70.35 126.21 72.3C136.19 72.18 148.02 72.03 148.02 72.03C148.12 72.03 148.18 71.98 148.22 71.91C148.33 72.06 148.64 72.01 148.66 71.76C148.66 71.71 148.66 71.67 148.66 71.62C147.94 70.65 146.91 69.9 145.7 69.56L145.69 69.57Z" fill="#CDE8F1"/>
</g>
<path d="M239.9 108.95C238.19 108.46 236.42 108.6 234.78 109.25C233.27 109.84 231.21 111.13 229.63 110.07C228.94 109.61 228.58 108.8 228.25 108.06C227.94 107.35 227.63 106.63 227.17 106C226.3 104.82 225.1 103.95 223.74 103.42C221 102.35 217.76 102.83 215.7 105C213.61 107.2 212.93 110.65 214.12 113.43C209.68 112.35 204.64 111.46 200.77 114.52C199.86 115.24 199.13 116.15 198.66 117.22C198.56 117.43 198.67 117.71 198.94 117.7C200.52 117.69 203.07 117.66 206.18 117.63C207.89 117.61 209.78 117.59 211.77 117.57C212.94 117.56 214.15 117.54 215.37 117.53C228.73 117.37 244.56 117.17 244.56 117.17C244.69 117.17 244.78 117.1 244.82 117.01C244.97 117.21 245.38 117.14 245.4 116.82C245.4 116.76 245.4 116.7 245.4 116.64C245.54 113.17 243.26 109.92 239.9 108.96V108.95Z" fill="white"/>
<g opacity="0.19">
<path d="M241.44 113.87C239.73 113.38 237.96 113.52 236.32 114.16C234.81 114.76 232.75 116.04 231.17 114.98C230.48 114.52 230.12 113.71 229.79 112.97C229.48 112.25 229.17 111.54 228.71 110.91C227.84 109.73 226.64 108.86 225.28 108.33C222.54 107.26 219.3 107.74 217.24 109.91C215.36 111.9 214.61 114.9 215.37 117.51C228.73 117.35 244.56 117.15 244.56 117.15C244.69 117.15 244.78 117.08 244.82 116.99C244.97 117.19 245.38 117.12 245.4 116.8C245.4 116.74 245.4 116.68 245.4 116.62C244.43 115.32 243.06 114.32 241.44 113.86V113.87Z" fill="#CDE8F1"/>
</g>
<path d="M176.37 48.69L147.65 48.64L121.88 48.6H115.11L59.77 48.5H58.79C58.65 42.99 59.87 37.44 62.39 32.21C63.09 30.76 63.91 29.3 65.35 28.13C66.78 26.96 68.94 26.12 71.15 26.27C77.92 26.72 78.81 34.85 85.56 35.4C88.94 35.69 91.92 33.71 93.29 31.55C94.67 29.4 94.97 26.99 96.21 24.8C97.45 22.6 100.13 20.5 103.54 20.5C107.66 20.5 110.46 23.55 110.95 26.37C111.44 29.19 110.48 32.06 111.12 34.86C111.76 37.67 114.95 40.6 119.05 40.3C123.45 39.97 125.45 36.42 128.76 34.39C133.74 31.35 142.7 32.46 145.84 36.5C147.66 38.83 148.04 42.05 151.51 43.18C155.13 44.35 159.07 42.29 162.97 41.67C169.2 40.69 176.07 44.27 176.39 48.67L176.37 48.69Z" fill="white"/>
<g opacity="0.19">
<path d="M115.1 48.59L59.76 48.5C60.36 46.03 61.24 43.61 62.38 41.25C63.08 39.8 63.9 38.34 65.34 37.17C66.77 36 68.93 35.16 71.14 35.32C77.91 35.76 78.8 43.89 85.55 44.45C88.93 44.74 91.91 42.76 93.28 40.6C94.66 38.45 94.96 36.04 96.2 33.85C97.44 31.66 100.12 29.55 103.53 29.55C107.65 29.55 110.45 32.6 110.94 35.42C111.43 38.24 110.47 41.11 111.11 43.92C111.52 45.73 113 47.59 115.09 48.59H115.1Z" fill="#CDE8F1"/>
</g>
<g opacity="0.19">
<path d="M147.64 48.64L121.87 48.6C124.49 47.39 126.25 44.98 128.75 43.45C133.73 40.4 142.69 41.51 145.83 45.55C146.57 46.5 147.07 47.59 147.65 48.64H147.64Z" fill="#CDE8F1"/>
</g>
<path d="M9.54001 191.46H16.97H161.78H181.27H210.72H248.88H265.46" stroke="#472740" stroke-miterlimit="10"/>
<path d="M178.38 87.71C175.37 78.83 163.89 75.48 159.85 67.02C157.81 62.73 157.99 57.77 157.13 53.1C154.59 39.34 141.71 28.21 127.72 27.71C120.28 27.44 112.94 30.2 107.17 34.87C102.73 36.43 98.63 38.94 95.26 42.22C89.73 47.61 86.23 55.04 85.59 62.74C85.06 69.18 87.33 76.77 93.4 78.99C94.74 79.48 96.21 79.68 97.4 80.45C99.31 81.68 100.13 84.15 99.99 86.43C99.85 88.71 98.94 90.85 98.05 92.94C95.32 99.35 92.68 106.17 93.54 113.08C94.4 119.99 100.05 126.81 107 126.47C108.73 126.39 110.44 125.88 112.16 126.02C115.04 126.25 117.65 128.48 118.32 131.29C119 134.1 117.69 137.27 115.24 138.79C121.86 136.95 128.53 134.81 134.17 130.89C139.81 126.97 144.36 120.97 145.04 114.13C145.67 119.2 148.41 123.97 152.46 127.07C156.52 130.17 161.85 131.55 166.9 130.82C162.22 128.27 160.37 121.62 163.05 117.02C163.54 116.18 164.21 115.37 165.12 115.02C165.99 114.69 166.96 114.82 167.89 114.77C170.82 114.61 173.37 112.54 174.9 110.04C176.43 107.54 177.11 104.63 177.77 101.77C178.84 97.13 179.9 92.2 178.37 87.69L178.38 87.71Z" fill="#472740"/>
<path d="M127.79 94.23C107.89 95.19 103.29 105.94 93.78 131.53L87.88 147.14C86.91 149.71 87.38 152.61 89.14 154.72C91.53 157.59 95.35 161.45 100.01 163.66L117.36 150.77L105.66 143.31L121.01 118.12L127.81 94.23H127.79Z" fill="#EC454C"/>
<path d="M124.01 107.51C120.1 110.1 116.54 113.18 113.01 116.31C109.1 119.77 105.6 123.65 102.87 128.13C100.44 132.11 98.67 136.44 97.49 140.95C95.81 147.37 95.26 153.99 95.13 160.63C96.61 161.79 98.25 162.85 100 163.68L117.35 150.79L105.65 143.33L121 118.14L124.02 107.52L124.01 107.51Z" fill="#472740"/>
<path d="M184.12 163.67C188.81 159.23 196.88 95.29 179.49 91.99L171.72 90.14L168.8 122.41C168.8 122.41 171.42 146.31 168.12 154.09C164.82 161.86 184.12 163.68 184.12 163.68V163.67Z" fill="#EC454C"/>
<path d="M126.64 94.23C126.64 94.23 155.88 86.34 171.72 90.13L172.76 122.92C173.04 131.6 171.98 140.29 169.46 148.6C165.27 162.45 166.4 176.58 170.06 190.85H104.9L109.05 149.79C98.19 135.38 99.84 116.05 126.64 94.23Z" fill="#EC454C"/>
<path d="M172.76 122.92L172.38 110.87C171.17 113.45 169.95 116.02 168.79 118.61C166.41 123.93 164.36 129.44 163.41 135.21C162.9 138.31 162.64 141.45 162.21 144.56C161.77 147.76 161.28 150.95 160.81 154.14C159.02 166.27 157.41 178.61 158.8 190.85H170.07C166.41 176.58 165.28 162.45 169.47 148.6C171.98 140.29 173.04 131.6 172.77 122.92H172.76Z" fill="#472740"/>
<path d="M130.71 94.6C130.71 94.6 130.73 94.64 130.74 94.69C130.78 94.86 130.85 95.25 130.93 95.71C131.48 98.68 133.37 101.23 136.11 102.33C138.25 103.18 140.37 103.12 142.48 102.1C146.19 100.32 148.18 96.06 147.63 92.02L147.18 88.77L145.44 71.14L128.73 73.48L129.03 76.77L130.05 87.56L130.71 94.59V94.6Z" fill="#F6966E"/>
<path d="M130.71 94.6C130.71 94.6 130.73 94.64 130.74 94.69C147.6 91.6 143.13 71.78 143.13 71.78L129.04 76.78L130.06 87.57L130.72 94.6H130.71Z" fill="#472740"/>
<path d="M110.11 76.66C108.9 74.17 107.68 71.7 106.29 69.31C104.3 65.88 104.04 61.27 104.14 57.21C104.2 54.63 104.64 52.06 105.59 49.66C108.13 43.28 114.69 38.08 121.38 36.8C130.74 35.02 136.39 41.93 138.8 49.9C141.96 44.46 146.15 50.33 146.15 50.33C150.34 56.2 144.45 60.06 144.45 60.06C146.54 66.93 144.94 73.02 144.94 73.02C143.5 78.79 141.51 82.78 139.46 85.54C135.37 91.05 128.14 92.77 122.09 90.02C117.12 87.76 113.61 83.77 111.22 78.93C110.85 78.17 110.48 77.41 110.11 76.65V76.66Z" fill="#F6966E"/>
<path d="M120.77 78.03C120.69 77.43 120.82 76.82 120.88 76.22C120.95 75.54 120.94 74.86 120.88 74.18C120.76 72.82 120.39 71.52 119.82 70.3C119.66 69.97 119.91 69.54 120.22 69.41C120.58 69.26 120.91 69.48 121.06 69.81C122.02 71.86 122.4 74.16 122.17 76.45C122.08 77.33 121.82 78.38 122.86 78.68C123.9 78.98 124.9 78.15 125.69 77.54C126.38 77.01 127.13 78.13 126.45 78.65C125.42 79.44 124.28 80.23 122.95 80.09C121.85 79.97 120.93 79.19 120.77 78.02V78.03Z" fill="#472740"/>
<path d="M129.4 63.76C129.31 63.68 129.16 63.62 129.03 63.63C128.9 63.64 128.76 63.69 128.67 63.8C128.58 63.91 128.55 64.02 128.54 64.16C128.56 63.97 128.54 64.16 128.52 64.22C128.52 64.25 128.51 64.28 128.5 64.3C128.47 64.38 128.42 64.45 128.38 64.53C128.33 64.59 128.28 64.64 128.23 64.7C127.75 64.25 127.17 64.08 126.69 64.32C125.93 64.7 125.71 65.94 126.19 67.1C126.67 68.26 127.68 68.9 128.44 68.52C129.2 68.15 129.42 66.9 128.94 65.74C128.91 65.66 128.87 65.59 128.83 65.52C128.91 65.46 129 65.4 129.06 65.33C129.19 65.18 129.31 65.01 129.4 64.82C129.5 64.59 129.55 64.37 129.57 64.12C129.58 64 129.49 63.84 129.4 63.76Z" fill="#472740"/>
<path d="M115.18 70.99C114.72 71.22 114.46 71.77 114.43 72.42C114.4 72.42 114.38 72.42 114.35 72.4C114.31 72.38 114.27 72.36 114.23 72.34C114.2 72.31 114.17 72.29 114.14 72.26C114.11 72.21 114.07 72.17 114.05 72.12C114.07 72.15 114.08 72.19 114.1 72.22C114.08 72.16 114.05 72.1 114 72.05C113.96 71.99 113.91 71.95 113.85 71.92C113.74 71.86 113.58 71.84 113.46 71.88C113.33 71.93 113.21 72.01 113.15 72.14C113.1 72.25 113.06 72.41 113.11 72.53C113.15 72.63 113.2 72.73 113.26 72.81C113.32 72.89 113.38 72.97 113.46 73.04C113.58 73.16 113.73 73.26 113.88 73.32C114.1 73.42 114.34 73.45 114.57 73.44C114.6 73.55 114.63 73.66 114.68 73.76C115.16 74.92 116.17 75.56 116.93 75.18C117.69 74.81 117.91 73.56 117.43 72.4C116.95 71.24 115.94 70.6 115.18 70.98V70.99Z" fill="#472740"/>
<path d="M112.53 65.03C112.2 65.06 111.95 65.22 111.72 65.39C110.25 66.55 109.88 68.63 110.74 70.59C110.69 70.28 110.67 69.98 110.74 69.7C110.74 69.68 110.75 69.67 110.76 69.66C110.78 69.48 110.83 69.31 110.89 69.16C111.14 68.58 111.62 68.13 112.1 67.71C112.59 67.29 113.1 66.87 113.43 66.34C113.59 66.08 113.69 65.74 113.47 65.43C113.27 65.15 112.85 65.01 112.53 65.04V65.03Z" fill="#472740"/>
<path d="M122.2 58.75C122.33 58.43 122.55 58.23 122.78 58.06C124.29 56.96 126.29 57.25 127.78 58.72C127.52 58.57 127.25 58.46 126.98 58.44C126.96 58.44 126.95 58.44 126.93 58.44C126.76 58.41 126.6 58.4 126.43 58.41C125.83 58.47 125.27 58.81 124.74 59.16C124.2 59.51 123.67 59.89 123.08 60.05C122.8 60.13 122.45 60.12 122.25 59.8C122.06 59.51 122.07 59.05 122.2 58.74V58.75Z" fill="#472740"/>
<path d="M133.68 74.06C133.09 77.12 130.96 79.74 128.2 80.92C127.41 81.26 127.93 82.51 128.72 82.18C131.93 80.8 134.3 77.74 134.99 74.2C135.16 73.33 133.85 73.2 133.68 74.06Z" fill="#472740"/>
<path d="M108.04 151.45C106.28 149.95 104.25 148.8 102.4 147.41C100.55 146.02 98.83 144.31 98.04 142.13C96.87 138.88 98.01 135.2 99.92 132.33C97.92 133.84 96.14 135.64 94.65 137.66C93.43 134.81 94.07 131.44 95.59 128.74C97.11 126.04 99.4 123.88 101.66 121.76C97.4 123.22 93.12 124.69 89.23 126.95C85.34 129.21 81.84 132.35 79.88 136.4C79.84 134.27 80.05 132.13 80.51 130.05C76.13 135.44 72.77 141.87 72.11 148.78C71.45 155.69 73.79 163.09 79.13 167.53C77.2 167.51 75.28 167.16 73.46 166.52C78.61 171.6 85.48 174.81 92.63 175.88C99.78 176.95 107.18 175.92 113.92 173.29L114.25 167.84C115.11 161.81 112.69 155.4 108.05 151.45H108.04Z" fill="#BF7461"/>
<path d="M108.04 151.45C107.5 150.99 106.93 150.57 106.36 150.16C104.91 150.63 103.65 151.63 102.55 152.65C101.41 153.71 100.29 154.86 99.44 156.16C96.86 160.07 96.25 165.08 97.59 169.54C98.37 172.12 99.82 174.39 101.75 176.13C105.91 175.78 110.03 174.81 113.92 173.29L114.25 167.84C115.11 161.81 112.69 155.4 108.05 151.45H108.04Z" fill="#472740"/>
<path d="M146.13 151.81C142.97 154.42 140.42 155.84 140.42 155.84C141.09 157.15 141.46 158.39 141.62 159.54C141.63 159.58 141.64 159.62 141.64 159.66C142.53 166.75 134.99 170.64 134.99 170.64C142.82 170.8 145.29 174.17 146.07 176.28C146.37 177.09 145.75 177.96 144.88 177.96H114.61C113.81 177.96 113.27 177.15 113.57 176.41L114.24 174.77C112.2 175.35 110.03 175.33 108.04 174.63C92.94 169.32 109.28 145.99 109.28 145.99L139.11 107.51L152.85 113.5C163.08 129.58 153.48 145.72 146.12 151.81H146.13Z" fill="#BF7461"/>
<path d="M157.52 125.12C157.09 124.79 156.58 124.55 156.02 124.47C154.62 124.26 153.43 124.99 152.56 126.02C150.84 128.06 150.22 130.83 149.55 133.34C148.72 136.44 147.82 139.63 146.03 142.33C145.13 143.69 143.99 144.77 142.8 145.86C142.63 146.01 142.47 146.16 142.31 146.32C141.32 147.28 139.94 147.69 138.57 147.56H138.55C136.84 147.39 135.12 147.41 133.41 147.48C131.71 147.55 130.02 147.72 128.35 148.04C125.26 148.63 122.25 149.77 119.74 151.7C117.52 153.42 115.7 155.73 114.84 158.42C114.74 158.76 114.65 159.11 114.57 159.45C114.54 159.59 114.71 159.71 114.82 159.6C117.19 157.09 120.46 155.11 123.87 154.5C136.54 152.23 139.97 155.31 140.48 155.94C140.46 155.91 140.45 155.88 140.43 155.84C140.43 155.84 141 155.52 141.93 154.92C142.18 154.76 142.46 154.57 142.76 154.36C142.78 154.35 142.8 154.34 142.81 154.32C143.1 154.12 143.42 153.9 143.75 153.66C143.78 153.64 143.8 153.62 143.83 153.61C144.17 153.37 144.52 153.1 144.89 152.82C144.91 152.8 144.93 152.79 144.95 152.77C145.34 152.47 145.74 152.15 146.15 151.81C152.23 146.78 160.6 137.33 157.55 125.12H157.52Z" fill="#472740"/>
<path d="M140.47 155.93C140.56 156.09 140.58 156.06 140.47 155.93V155.93Z" fill="#472740"/>
<path d="M134.99 170.64C134.99 170.64 135.36 170.45 135.93 170.07C135.92 170.07 135.91 170.07 135.9 170.07C134.65 170.92 133.24 171.51 131.79 171.97C129.54 172.68 127.21 173.19 124.89 173.66C121.27 174.4 117.61 174.96 113.95 175.45L113.56 176.41C113.26 177.15 113.8 177.95 114.6 177.95H144.87C145.74 177.95 146.36 177.09 146.06 176.27C145.28 174.16 142.81 170.8 134.98 170.63L134.99 170.64Z" fill="#472740"/>
<path d="M156.84 117.83C161.13 120.33 162.56 125.8 160.32 133.02L165.67 131.42C169.27 130.34 173.06 132.45 174.02 136.09C174.02 136.09 175.76 136.01 177.48 136.47C180.32 137.24 180.76 141.13 178.15 142.48C177.19 142.98 176.12 143.37 175.28 143.28C175.28 143.28 170.02 145.76 166.6 141.63L158.36 142.14C151.95 144.45 144.84 141.46 142 135.27C139.57 129.95 140.93 123.67 145.34 119.83L146.26 119.03C149.2 116.48 153.47 115.88 156.83 117.84L156.84 117.83Z" fill="#BF7461"/>
<path d="M177.48 136.47C175.76 136.01 174.02 136.09 174.02 136.09C173.24 133.16 170.64 131.23 167.77 131.14C166.93 131.5 166.1 131.9 165.35 132.43C165.74 132.51 166.13 132.56 166.5 132.47C167.05 132.33 167.37 133.09 166.89 133.38C166.16 133.81 165.15 134.27 164.68 135.04C165.67 135.33 166.68 135.93 166.22 137.11C165.87 138 165.07 138.69 164.33 139.35C165.19 139.68 165.95 140.27 166.22 141.2C166.26 141.35 166.29 141.5 166.3 141.65L166.59 141.63C170.01 145.76 175.27 143.28 175.27 143.28C176.12 143.38 177.18 142.98 178.14 142.48C180.75 141.13 180.31 137.23 177.47 136.47H177.48Z" fill="white"/>
<g style="mix-blend-mode:multiply" opacity="0.49">
<path d="M141.83 176.26C141.83 176.26 141.84 176.28 141.85 176.29C141.85 176.29 141.84 176.27 141.83 176.26Z" fill="#BF7461"/>
<path d="M143.08 174.92C143.08 174.92 143.08 174.92 143.07 174.91C143.07 174.91 143.07 174.92 143.09 174.93L143.08 174.92Z" fill="#BF7461"/>
</g>
<path d="M157.11 96.01C154.88 94.92 153.1 93.03 151.87 90.87C150.64 88.71 149.94 86.29 149.51 83.84L149.37 84.16C148.72 85.65 146.92 86.25 145.5 85.45C144.51 84.9 143.98 83.8 144.12 82.68C144.4 80.41 145.01 78.19 145.92 76.09C146.24 75.36 146.62 74.61 147.29 74.18C148.01 73.72 148.92 73.73 149.77 73.82C152.78 74.14 155.62 75.33 158.47 76.37C160.3 77.04 162.21 77.68 163.66 78.98C165.43 80.58 166.3 83.12 165.88 85.47L164.6 84.6C165.1 84.97 165.38 85.6 165.44 86.22C165.5 86.84 165.39 87.47 165.24 88.08C164.61 90.59 163.35 92.94 161.61 94.86C162.23 93.94 161.92 92.52 160.97 91.94C160.83 93.06 160.47 94.16 159.92 95.14C159.64 95.63 159.28 96.13 158.73 96.3C158.19 96.46 157.62 96.25 157.11 96.01Z" fill="#472740"/>
<path d="M160.83 110.5L154.37 114.46L153.73 114.85L137.24 112.3C130.81 107.14 127.57 98.04 131.47 88.91C131.73 88.32 132.02 87.75 132.33 87.21C134.7 83.09 138.52 80.25 142.84 78.86C150.42 76.43 159.5 78.47 164.85 85.78C164.92 85.88 164.99 85.97 165.06 86.06C165.06 86.06 165.12 86 165.24 85.89C167.24 84.23 170.34 85.35 170.84 87.9C172.62 96.95 169.43 104.54 160.84 110.51L160.83 110.5Z" fill="#BF7461"/>
<path d="M134.3 85.4C134.47 85.24 134.75 85.24 134.94 85.35C134.94 85.34 134.95 85.32 134.96 85.31C135.13 85.09 135.43 85 135.65 85.13C135.66 85.08 135.67 85.03 135.69 84.98C135.76 84.7 135.98 84.6 136.2 84.63C136.22 84.6 136.23 84.56 136.24 84.53C136.38 84.25 136.77 84.23 136.99 84.4C137 84.4 137.01 84.38 137.02 84.37C137.31 84.13 137.78 84.08 138.05 84.37C138.07 84.39 138.09 84.43 138.11 84.46C138.18 84.26 138.27 84.06 138.34 83.91C138.55 83.49 139.12 83.66 139.25 84.03V84.05C139.29 83.98 139.34 83.9 139.4 83.83C139.58 83.64 139.93 83.64 140.11 83.83C140.21 83.93 140.28 84.05 140.34 84.17C140.45 83.93 140.61 83.75 140.83 83.61C141.08 83.46 141.36 83.57 141.51 83.79C141.51 83.79 141.52 83.81 141.53 83.82C141.64 83.68 141.77 83.57 141.97 83.54C142.41 83.46 142.58 83.7 142.71 83.98C142.86 83.77 143.04 83.62 143.35 83.63C143.58 83.64 143.73 83.76 143.84 83.91C143.97 83.71 144.14 83.55 144.44 83.55C144.78 83.55 144.94 83.72 145.06 83.95C145.27 83.72 145.49 83.53 145.87 83.52C146.22 83.51 146.48 83.64 146.72 83.83C146.87 83.43 147.57 83.4 147.67 83.88C147.69 83.98 147.71 84.09 147.74 84.19C147.82 84.19 147.89 84.21 147.97 84.24C148.14 84.31 148.25 84.43 148.33 84.56C148.51 84.37 148.87 84.32 149.04 84.54C149.16 84.68 149.24 84.89 149.34 85.09C149.59 84.9 149.99 84.96 150.11 85.34C150.14 85.42 150.15 85.51 150.17 85.59C150.3 85.61 150.43 85.67 150.53 85.8C150.66 85.97 150.74 86.17 150.8 86.37C150.88 86.37 150.97 86.37 151.07 86.4C151.16 86.43 151.22 86.48 151.29 86.54C151.32 86.49 151.34 86.43 151.38 86.38C151.56 86.15 151.9 86.03 152.14 86.26C152.18 86.15 152.23 86.05 152.27 85.96C152.38 85.72 152.67 85.68 152.89 85.77C152.9 85.53 152.91 85.28 152.99 85.06C153.05 84.87 153.18 84.77 153.34 84.73C153.29 84.64 153.24 84.55 153.24 84.46C153.18 84.43 153.11 84.39 153.06 84.33C152.97 84.23 152.92 84.11 152.85 84.01C152.7 83.81 152.89 83.95 152.56 83.82C152.27 83.7 152.12 83.36 152.25 83.11C152.15 83.05 152.04 82.98 151.99 82.87C151.97 82.83 151.95 82.78 151.95 82.73C151.95 82.71 151.95 82.71 151.95 82.7C151.85 82.67 151.73 82.64 151.63 82.61C151.36 82.53 151.24 82.27 151.29 82.03C151.18 82.01 151.07 82 150.97 81.97C150.76 81.91 150.63 81.7 150.62 81.49C150.55 81.48 150.49 81.46 150.42 81.44C150.27 81.4 150.18 81.28 150.12 81.15C149.95 81.15 149.78 81.14 149.61 81.11C149.42 81.08 149.3 80.92 149.27 80.74C148.69 80.72 148.1 80.79 147.62 80.37C147.54 80.3 147.51 80.21 147.49 80.11C147.22 80.08 146.96 80.08 146.75 79.92C146.59 79.92 146.43 79.89 146.26 79.84C146.26 79.84 146.26 79.84 146.25 79.83C145.86 79.86 145.47 79.93 145.08 79.84C144.99 79.82 144.94 79.77 144.89 79.73C144.58 79.79 144.27 79.88 143.94 79.89C143.72 79.89 143.58 79.78 143.51 79.63C143.36 79.67 143.21 79.72 143.05 79.76C142.83 79.81 142.61 79.83 142.41 79.76C141.83 79.77 141.3 80.04 140.75 80.2C140.7 80.22 140.65 80.22 140.6 80.22C140.47 80.27 140.35 80.32 140.22 80.38C140.02 80.48 139.82 80.59 139.62 80.7C139.35 80.85 139.1 80.73 138.97 80.53C138.95 80.54 138.92 80.55 138.9 80.57C136.23 82.13 133.93 84.35 132.31 87.17C132.34 87.16 132.36 87.17 132.39 87.15C132.83 87.03 133.22 86.78 133.59 86.52C133.76 86.1 133.95 85.69 134.29 85.37L134.3 85.4Z" fill="white"/>
<path d="M160.85 110.48L154.4 114.45C154.25 114.42 154.09 114.39 153.94 114.35C152.46 113.99 151.02 113.3 150.07 112.12C149.3 111.15 148.91 109.92 148.84 108.69C148.7 106.46 149.53 104.27 150.69 102.35C151.84 100.44 153.32 98.75 154.66 96.96C156.45 94.56 157.99 91.96 159.95 89.69C161.32 88.1 162.96 86.67 164.82 85.74C164.89 85.83 164.96 85.93 165.02 86.02C165.02 86.02 165.08 85.96 165.21 85.85C167.2 84.19 170.3 85.29 170.81 87.85C172.61 96.89 169.44 104.48 160.85 110.48Z" fill="white"/>
<path d="M155.96 112.27C155.91 112.69 155.86 113.11 155.82 113.53C157.77 112.95 159.6 111.95 161.14 110.61C161.1 111.09 161.06 111.56 161.02 112.04C161.97 111.41 162.93 110.78 163.74 109.98C164.55 109.18 165.22 108.19 165.46 107.08C165.49 107.73 165.53 108.37 165.56 109.02C167.14 107.81 167.72 105.72 168.21 103.78C168.07 104.16 168.84 104.6 168.84 104.6C168.84 104.6 171.09 98.39 170.52 94.79" fill="white"/>
<path d="M143.96 111.78C144.39 108.9 143.74 105.92 142.47 103.3C141.2 100.68 139.32 98.39 137.24 96.35L137.64 96.43C139.51 96.79 141.29 95.45 141.46 93.55C141.58 92.23 140.87 90.98 139.7 90.37C137.32 89.14 134.77 88.25 132.14 87.74C131.22 87.56 130.24 87.44 129.39 87.8C128.47 88.19 127.87 89.08 127.39 89.96C125.7 93.08 124.97 96.62 124.08 100.05C123.51 102.26 122.86 104.53 123.16 106.8C123.53 109.57 125.41 112.1 127.96 113.25C127.96 112.65 127.96 112.04 127.97 111.44C128 112.18 128.42 112.86 128.98 113.33C129.54 113.81 130.23 114.11 130.92 114.37C133.76 115.42 136.87 115.77 139.87 115.36C138.56 115.35 137.4 114.11 137.47 112.8C138.65 113.41 139.94 113.79 141.26 113.91C141.92 113.97 142.65 113.95 143.16 113.53C143.67 113.12 143.85 112.42 143.95 111.77L143.96 111.78Z" fill="#472740"/>
<path d="M169.56 85.65C169.51 85.3 169.42 84.95 169.31 84.61C169.11 84.02 168.8 83.42 168.23 83.18C167.7 82.95 167.09 83.1 166.56 83.32C165.34 83.81 164.27 84.65 163.49 85.7C163.05 86.3 162.7 86.98 162.58 87.72C162.46 88.46 162.59 89.25 163.04 89.84C164.13 91.3 166.31 90.56 167.6 89.79C168.37 89.33 169.04 88.65 169.37 87.81C169.64 87.13 169.68 86.38 169.57 85.65H169.56Z" fill="#472740"/>
<path d="M165.71 94.4C165.38 94.21 164.9 94.31 164.72 94.66C163.82 96.39 161.85 97.35 159.89 96.85C158.98 96.62 158.6 98.02 159.5 98.25C162.04 98.89 164.75 97.72 165.97 95.39C166.15 95.04 166.06 94.6 165.71 94.4Z" fill="#472740"/>
<path d="M149.86 89.79C152.28 94.93 150.92 95.97 144.88 92.2C144.88 92.2 149.16 98.22 152.14 95.69C152.14 95.69 154.33 93.98 149.86 89.8V89.79Z" fill="#472740"/>
<path d="M155.6 85.97C160.08 87.64 160.85 86.42 157.26 81.63C157.26 81.63 162.61 84.79 160.7 87.47C160.7 87.47 159.43 89.43 155.6 85.98V85.97Z" fill="#472740"/>
<path d="M105.66 173.01C105.66 173.01 103.59 181.17 111.75 182.08C111.75 182.08 114.57 184.36 117 183.68C117 183.68 119.43 184.42 121.08 183.81C121.08 183.81 128.17 184.07 129.05 180.67C129.05 180.67 129.54 177.75 124.39 179.7C124.39 179.7 125.26 174.94 121.38 175.42C121.38 175.42 121.73 171.24 116.84 173.19C116.84 173.19 114.07 169.12 110.96 174.27C110.5 175.04 109.49 175.29 108.72 174.83L105.67 173.01H105.66Z" fill="#F6966E"/>
<path d="M111.96 182.47L111.54 181.7C118.36 178.03 116.51 173.55 116.43 173.37L117.23 173.01C117.25 173.06 119.51 178.4 111.95 182.47H111.96Z" fill="#472740"/>
<path d="M117.24 184.05L116.74 183.33C122.29 179.51 121.01 175.74 120.95 175.58L121.77 175.28C121.84 175.46 123.37 179.83 117.23 184.06L117.24 184.05Z" fill="#472740"/>
<path d="M121.16 184.24L120.98 183.38C121.09 183.36 123.68 182.78 123.94 179.66L124.82 179.73C124.51 183.51 121.2 184.23 121.17 184.23L121.16 184.24Z" fill="#472740"/>
<path d="M144.99 59.38C143.94 58.31 142.73 57.37 141.91 56.11C139.79 52.88 140.76 48.58 139.9 44.82C138.96 40.74 135.76 37.37 131.9 35.73C128.04 34.09 123.63 34.06 119.57 35.1C111.81 37.1 105.2 43.12 102.49 50.66C99.78 58.21 101.06 67.06 105.78 73.53L107.09 73.45C105.91 71.02 106.4 68.07 107.6 65.65C108.8 63.23 110.64 61.21 112.28 59.06C113.92 56.91 115.41 54.52 115.71 51.84C115.41 54.45 116.35 57.18 118.2 59.05C118.66 55.56 120.42 52.25 123.07 49.93C123.74 52.19 125.64 53.88 127.67 55.06C129.7 56.24 131.94 57.05 133.96 58.26C135.98 59.47 137.83 61.23 138.41 63.51C138.62 64.35 138.64 65.27 138.26 66.05C137.88 66.83 137.03 67.41 136.17 67.29C138.72 69.18 142.54 69.11 145.01 67.11C146.18 66.17 147.06 64.77 147.02 63.27C146.98 61.77 146.04 60.44 144.99 59.37V59.38Z" fill="#472740"/>
<path d="M162.73 142.31C159.88 140.1 157.28 137.59 154.98 134.82L148.23 126.69C148.14 126 147.98 125.33 147.77 124.66C147.72 122.28 146.81 119.91 145.53 117.91C144.61 116.47 143.51 115.15 142.37 113.88C142.08 113.56 141.79 113.24 141.5 112.92C141.24 112.64 140.99 112.31 140.64 112.12C140.36 111.97 140.01 111.95 139.75 112.16C139.23 112.6 139.19 113.72 139.32 114.31C139.55 115.32 140.09 116.16 140.7 116.97C141.04 117.42 141.59 118.56 142.1 118.82C136.21 115.8 129.91 112 124.27 114.21C123.34 114.57 122.97 115.67 123.1 116.62C123.12 116.76 123.15 116.91 123.21 117.06C123.21 117.11 123.23 117.15 123.25 117.19C123.25 117.19 122.04 117.19 121.83 118.05C121.73 118.46 121.85 119.06 122.42 119.94C122.44 119.98 122.47 120.01 122.48 120.05C122.48 120.05 122.47 120.05 122.45 120.08C122.29 120.29 121.44 121.55 123.3 122.89C123.39 122.97 123.49 123.03 123.6 123.1C123.6 123.1 123.56 123.15 123.51 123.26C123.18 123.82 122.25 125.74 123.91 126.78C123.91 126.78 125.23 127.52 127.17 128.66C128.73 129.58 130.6 130.95 132.7 132.04C137.77 134.68 142.85 135.03 141.99 135.28C141.99 135.28 152.95 157.99 172.6 170.84C174.15 171.85 176.26 171.31 177.58 170.02L184.11 163.69C183.53 155 175.67 152.34 162.71 142.33L162.73 142.31Z" fill="#F6966E"/>
<path d="M136.17 119.39C132.19 117.66 128.04 115.9 123.61 116.16C122.97 116.2 122.9 117.21 123.55 117.17C127.9 116.92 131.96 118.66 135.86 120.35C136.46 120.61 136.76 119.64 136.17 119.39Z" fill="#472740"/>
<path d="M136.43 124.5C132.35 121.82 127.73 120.09 122.91 119.39C122.26 119.3 122.24 120.31 122.88 120.4C127.53 121.07 131.99 122.79 135.91 125.37C136.45 125.73 136.98 124.86 136.44 124.5H136.43Z" fill="#472740"/>
<path d="M135.28 128.14C131.91 125.55 128.08 123.58 124.01 122.36C123.39 122.17 122.99 123.11 123.62 123.29C127.62 124.49 131.36 126.4 134.66 128.94C135.18 129.34 135.79 128.53 135.28 128.14Z" fill="#472740"/>
</svg>
