<svg width="21" height="20" viewBox="0 0 21 20" fill="none" xmlns="http://www.w3.org/2000/svg">
<g clip-path="url(#clip0_184_11070)">
<path d="M8 10C10.7575 10 13 7.7575 13 5C13 2.2425 10.7575 0 8 0C5.2425 0 3 2.2425 3 5C3 7.7575 5.2425 10 8 10ZM13.905 20H11.3333V17.4283L17.3958 11.3658C17.7369 11.0248 18.1994 10.8332 18.6817 10.8332C19.1639 10.8332 19.6265 11.0248 19.9675 11.3658C20.3085 11.7069 20.5001 12.1694 20.5001 12.6517C20.5001 13.1339 20.3085 13.5965 19.9675 13.9375L13.905 20ZM9.66667 20H0.5V15.8333C0.5 13.5358 2.36917 11.6667 4.66667 11.6667H11.3333C12.2875 11.6667 13.1575 12.0025 13.8608 12.5442L9.66667 16.7383V20Z" fill="#9CA2AA"/>
</g>
<defs>
<clipPath id="clip0_184_11070">
<rect width="20" height="20" fill="white" transform="translate(0.5)"/>
</clipPath>
</defs>
</svg>
