<svg width="17" height="16" viewBox="0 0 17 16" fill="none" xmlns="http://www.w3.org/2000/svg">
<path d="M7.18858 2.18094C7.72504 1.0508 9.27504 1.0508 9.8115 2.18094L10.7386 4.13412C10.9517 4.5829 11.3634 4.89396 11.8398 4.96593L13.9129 5.27913C15.1125 5.46036 15.5915 6.99303 14.7235 7.87272L13.2233 9.39306C12.8786 9.74239 12.7213 10.2457 12.8027 10.739L13.1568 12.8857C13.3618 14.1278 12.1078 15.0751 11.0349 14.4886L9.18059 13.4751C8.75454 13.2422 8.24554 13.2422 7.81949 13.4751L5.96522 14.4886C4.8923 15.0751 3.63832 14.1278 3.84323 12.8857L4.19737 10.739C4.27874 10.2457 4.12145 9.74239 3.77676 9.39306L2.27662 7.87273C1.40862 6.99303 1.88759 5.46036 3.08715 5.27913L5.16029 4.96593C5.63663 4.89396 6.04842 4.5829 6.26145 4.13412L7.18858 2.18094Z" fill="#94D0E4"/>
</svg>
