<svg width="375" height="531" viewBox="0 0 375 531" fill="none" xmlns="http://www.w3.org/2000/svg">
<path d="M0 16C0 7.16344 7.16344 0 16 0H359C367.837 0 375 7.16344 375 16V531H0V16Z" fill="white"/>
<path d="M17.156 52V40.1H19.332V44.911L23.735 40.1H26.421L22.035 44.826L26.54 52H23.871L20.471 46.492L19.332 47.733V52H17.156ZM29.152 42.259C28.7554 42.259 28.4267 42.14 28.166 41.902C27.9167 41.664 27.792 41.3637 27.792 41.001C27.792 40.6383 27.9167 40.3437 28.166 40.117C28.4267 39.879 28.7554 39.76 29.152 39.76C29.5487 39.76 29.8717 39.879 30.121 40.117C30.3817 40.3437 30.512 40.6383 30.512 41.001C30.512 41.3637 30.3817 41.664 30.121 41.902C29.8717 42.14 29.5487 42.259 29.152 42.259ZM28.064 52V43.568H30.24V52H28.064ZM32.5113 52V43.568H34.4323L34.6023 44.996C34.8629 44.4973 35.2369 44.1007 35.7243 43.806C36.2229 43.5113 36.8066 43.364 37.4753 43.364C38.5179 43.364 39.3283 43.6927 39.9062 44.35C40.4842 45.0073 40.7732 45.9707 40.7732 47.24V52H38.5973V47.444C38.5973 46.7187 38.4499 46.1633 38.1553 45.778C37.8606 45.3927 37.4016 45.2 36.7783 45.2C36.1663 45.2 35.6619 45.4153 35.2653 45.846C34.8799 46.2767 34.6873 46.8773 34.6873 47.648V52H32.5113ZM46.73 52.204C45.9367 52.204 45.2284 52.0113 44.605 51.626C43.9817 51.2407 43.4887 50.7137 43.126 50.045C42.7634 49.3763 42.582 48.617 42.582 47.767C42.582 46.917 42.7634 46.1633 43.126 45.506C43.4887 44.8373 43.9817 44.316 44.605 43.942C45.2284 43.5567 45.9367 43.364 46.73 43.364C47.3647 43.364 47.92 43.483 48.396 43.721C48.872 43.959 49.2574 44.2933 49.552 44.724V39.76H51.728V52H49.79L49.552 50.793C49.28 51.167 48.9174 51.4957 48.464 51.779C48.022 52.0623 47.444 52.204 46.73 52.204ZM47.189 50.3C47.8917 50.3 48.464 50.0677 48.906 49.603C49.3594 49.127 49.586 48.5207 49.586 47.784C49.586 47.0473 49.3594 46.4467 48.906 45.982C48.464 45.506 47.8917 45.268 47.189 45.268C46.4977 45.268 45.9254 45.5003 45.472 45.965C45.0187 46.4297 44.792 47.0303 44.792 47.767C44.792 48.5037 45.0187 49.11 45.472 49.586C45.9254 50.062 46.4977 50.3 47.189 50.3ZM62.0406 52.204C61.2246 52.204 60.488 52.017 59.8306 51.643C59.1846 51.269 58.669 50.7533 58.2836 50.096C57.9096 49.4273 57.7226 48.6567 57.7226 47.784C57.7226 46.9113 57.9153 46.1463 58.3006 45.489C58.686 44.8203 59.2016 44.299 59.8476 43.925C60.505 43.551 61.2416 43.364 62.0576 43.364C62.8623 43.364 63.5876 43.551 64.2336 43.925C64.891 44.299 65.4066 44.8203 65.7806 45.489C66.166 46.1463 66.3586 46.9113 66.3586 47.784C66.3586 48.6567 66.166 49.4273 65.7806 50.096C65.4066 50.7533 64.891 51.269 64.2336 51.643C63.5763 52.017 62.8453 52.204 62.0406 52.204ZM62.0406 50.317C62.6073 50.317 63.1003 50.1073 63.5196 49.688C63.939 49.2573 64.1486 48.6227 64.1486 47.784C64.1486 46.9453 63.939 46.3163 63.5196 45.897C63.1003 45.4663 62.613 45.251 62.0576 45.251C61.4796 45.251 60.981 45.4663 60.5616 45.897C60.1536 46.3163 59.9496 46.9453 59.9496 47.784C59.9496 48.6227 60.1536 49.2573 60.5616 49.688C60.981 50.1073 61.474 50.317 62.0406 50.317ZM68.6952 52V45.387H67.5392V43.568H68.6952V42.582C68.6952 41.562 68.9502 40.8367 69.4602 40.406C69.9816 39.9753 70.6842 39.76 71.5682 39.76H72.5032V41.613H71.9082C71.5342 41.613 71.2679 41.6867 71.1092 41.834C70.9506 41.9813 70.8712 42.2307 70.8712 42.582V43.568H72.6902V45.387H70.8712V52H68.6952ZM78.4644 55.74V43.568H80.4024L80.6404 44.775C80.9124 44.401 81.2694 44.0723 81.7114 43.789C82.1647 43.5057 82.7484 43.364 83.4624 43.364C84.2557 43.364 84.964 43.5567 85.5874 43.942C86.2107 44.3273 86.7037 44.8543 87.0664 45.523C87.429 46.1917 87.6104 46.951 87.6104 47.801C87.6104 48.651 87.429 49.4103 87.0664 50.079C86.7037 50.7363 86.2107 51.2577 85.5874 51.643C84.964 52.017 84.2557 52.204 83.4624 52.204C82.8277 52.204 82.2724 52.085 81.7964 51.847C81.3204 51.609 80.935 51.2747 80.6404 50.844V55.74H78.4644ZM83.0034 50.3C83.6947 50.3 84.267 50.0677 84.7204 49.603C85.1737 49.1383 85.4004 48.5377 85.4004 47.801C85.4004 47.0643 85.1737 46.458 84.7204 45.982C84.267 45.506 83.6947 45.268 83.0034 45.268C82.3007 45.268 81.7227 45.506 81.2694 45.982C80.8274 46.4467 80.6064 47.0473 80.6064 47.784C80.6064 48.5207 80.8274 49.127 81.2694 49.603C81.7227 50.0677 82.3007 50.3 83.0034 50.3ZM93.6512 52.204C92.8012 52.204 92.0476 52.0227 91.3902 51.66C90.7329 51.2973 90.2172 50.7873 89.8432 50.13C89.4692 49.4727 89.2822 48.7133 89.2822 47.852C89.2822 46.9793 89.4636 46.203 89.8262 45.523C90.2002 44.843 90.7102 44.316 91.3562 43.942C92.0136 43.5567 92.7842 43.364 93.6682 43.364C94.4956 43.364 95.2266 43.5453 95.8612 43.908C96.4959 44.2707 96.9889 44.7693 97.3402 45.404C97.7029 46.0273 97.8842 46.7243 97.8842 47.495C97.8842 47.6197 97.8786 47.75 97.8672 47.886C97.8672 48.022 97.8616 48.1637 97.8502 48.311H91.4412C91.4866 48.9683 91.7132 49.484 92.1212 49.858C92.5406 50.232 93.0449 50.419 93.6342 50.419C94.0762 50.419 94.4446 50.3227 94.7392 50.13C95.0452 49.926 95.2719 49.6653 95.4192 49.348H97.6292C97.4706 49.8807 97.2042 50.368 96.8302 50.81C96.4676 51.2407 96.0142 51.5807 95.4702 51.83C94.9376 52.0793 94.3312 52.204 93.6512 52.204ZM93.6682 45.132C93.1356 45.132 92.6652 45.285 92.2572 45.591C91.8492 45.8857 91.5886 46.339 91.4752 46.951H95.6742C95.6402 46.3957 95.4362 45.9537 95.0622 45.625C94.6882 45.2963 94.2236 45.132 93.6682 45.132ZM103.322 52C102.438 52 101.73 51.7847 101.197 51.354C100.664 50.9233 100.398 50.1583 100.398 49.059V45.387H98.953V43.568H100.398L100.653 41.307H102.574V43.568H104.852V45.387H102.574V49.076C102.574 49.484 102.659 49.7673 102.829 49.926C103.01 50.0733 103.316 50.147 103.747 50.147H104.801V52H103.322Z" fill="#265565"/>
<rect x="16" y="69" width="79" height="37" rx="8" fill="#2791B5"/>
<path d="M41.7954 93V81.8H45.6195C46.9315 81.8 48.0088 82.0347 48.8514 82.504C49.7048 82.9627 50.3341 83.6133 50.7395 84.456C51.1555 85.288 51.3635 86.2693 51.3635 87.4C51.3635 88.5307 51.1555 89.5173 50.7395 90.36C50.3341 91.192 49.7048 91.8427 48.8514 92.312C48.0088 92.7707 46.9315 93 45.6195 93H41.7954ZM43.8435 91.24H45.5235C46.4621 91.24 47.2035 91.0907 47.7475 90.792C48.2915 90.4827 48.6808 90.0453 48.9155 89.48C49.1501 88.904 49.2675 88.2107 49.2675 87.4C49.2675 86.6 49.1501 85.912 48.9155 85.336C48.6808 84.76 48.2915 84.3173 47.7475 84.008C47.2035 83.6987 46.4621 83.544 45.5235 83.544H43.8435V91.24ZM56.8793 93.192C56.1113 93.192 55.4179 93.016 54.7993 92.664C54.1913 92.312 53.7059 91.8267 53.3433 91.208C52.9913 90.5787 52.8153 89.8533 52.8153 89.032C52.8153 88.2107 52.9966 87.4907 53.3593 86.872C53.7219 86.2427 54.2073 85.752 54.8153 85.4C55.4339 85.048 56.1273 84.872 56.8953 84.872C57.6526 84.872 58.3353 85.048 58.9433 85.4C59.5619 85.752 60.0473 86.2427 60.3993 86.872C60.7619 87.4907 60.9433 88.2107 60.9433 89.032C60.9433 89.8533 60.7619 90.5787 60.3993 91.208C60.0473 91.8267 59.5619 92.312 58.9433 92.664C58.3246 93.016 57.6366 93.192 56.8793 93.192ZM56.8793 91.416C57.4126 91.416 57.8766 91.2187 58.2713 90.824C58.6659 90.4187 58.8633 89.8213 58.8633 89.032C58.8633 88.2427 58.6659 87.6507 58.2713 87.256C57.8766 86.8507 57.4179 86.648 56.8953 86.648C56.3513 86.648 55.8819 86.8507 55.4873 87.256C55.1033 87.6507 54.9113 88.2427 54.9113 89.032C54.9113 89.8213 55.1033 90.4187 55.4873 90.824C55.8819 91.2187 56.3459 91.416 56.8793 91.416ZM65.5832 90.632C65.1992 90.632 64.8418 90.5893 64.5112 90.504L63.9192 91.096C64.1005 91.192 64.3458 91.272 64.6552 91.336C64.9645 91.4 65.4658 91.464 66.1592 91.528C67.2152 91.624 67.9832 91.8747 68.4632 92.28C68.9432 92.6853 69.1832 93.2453 69.1832 93.96C69.1832 94.4293 69.0552 94.872 68.7992 95.288C68.5432 95.7147 68.1485 96.056 67.6152 96.312C67.0818 96.5787 66.3992 96.712 65.5672 96.712C64.4365 96.712 63.5245 96.4987 62.8312 96.072C62.1378 95.656 61.7912 95.0267 61.7912 94.184C61.7912 93.4693 62.1378 92.8507 62.8312 92.328C62.6178 92.232 62.4312 92.1307 62.2712 92.024C62.1218 91.9173 61.9885 91.8053 61.8712 91.688V91.32L63.2632 89.848C62.6445 89.304 62.3352 88.6053 62.3352 87.752C62.3352 87.2187 62.4632 86.7333 62.7192 86.296C62.9858 85.8587 63.3592 85.512 63.8392 85.256C64.3192 85 64.9005 84.872 65.5832 84.872C66.0312 84.872 66.4472 84.936 66.8312 85.064H69.8392V86.312L68.4792 86.408C68.6925 86.8133 68.7992 87.2613 68.7992 87.752C68.7992 88.2853 68.6712 88.7707 68.4152 89.208C68.1592 89.6453 67.7858 89.992 67.2952 90.248C66.8152 90.504 66.2445 90.632 65.5832 90.632ZM65.5832 89.064C65.9992 89.064 66.3405 88.952 66.6072 88.728C66.8845 88.504 67.0232 88.184 67.0232 87.768C67.0232 87.352 66.8845 87.032 66.6072 86.808C66.3405 86.584 65.9992 86.472 65.5832 86.472C65.1458 86.472 64.7938 86.584 64.5272 86.808C64.2605 87.032 64.1272 87.352 64.1272 87.768C64.1272 88.184 64.2605 88.504 64.5272 88.728C64.7938 88.952 65.1458 89.064 65.5832 89.064ZM63.6632 93.976C63.6632 94.3707 63.8445 94.664 64.2072 94.856C64.5805 95.0587 65.0338 95.16 65.5672 95.16C66.0792 95.16 66.4952 95.0533 66.8152 94.84C67.1352 94.6373 67.2952 94.36 67.2952 94.008C67.2952 93.72 67.1885 93.48 66.9752 93.288C66.7725 93.096 66.3618 92.9787 65.7432 92.936C65.3058 92.904 64.9005 92.856 64.5272 92.792C64.2178 92.9627 63.9938 93.1493 63.8552 93.352C63.7272 93.5547 63.6632 93.7627 63.6632 93.976Z" fill="#FAFAFA"/>
<rect x="104" y="69" width="79" height="37" rx="8" fill="#E7EAEB"/>
<path d="M135.883 93.192C134.752 93.192 133.782 92.952 132.971 92.472C132.16 91.9813 131.536 91.304 131.099 90.44C130.662 89.5653 130.443 88.5573 130.443 87.416C130.443 86.2747 130.662 85.2667 131.099 84.392C131.536 83.5173 132.16 82.8347 132.971 82.344C133.782 81.8533 134.752 81.608 135.883 81.608C137.227 81.608 138.326 81.944 139.179 82.616C140.043 83.2773 140.582 84.2107 140.795 85.416H138.539C138.4 84.808 138.102 84.3333 137.643 83.992C137.195 83.64 136.598 83.464 135.851 83.464C134.816 83.464 134.006 83.816 133.419 84.52C132.832 85.224 132.539 86.1893 132.539 87.416C132.539 88.6427 132.832 89.608 133.419 90.312C134.006 91.0053 134.816 91.352 135.851 91.352C136.598 91.352 137.195 91.192 137.643 90.872C138.102 90.5413 138.4 90.088 138.539 89.512H140.795C140.582 90.664 140.043 91.5653 139.179 92.216C138.326 92.8667 137.227 93.192 135.883 93.192ZM145.245 93.192C144.562 93.192 144.002 93.0853 143.565 92.872C143.127 92.648 142.802 92.3547 142.589 91.992C142.375 91.6293 142.269 91.2293 142.269 90.792C142.269 90.056 142.557 89.4587 143.133 89C143.709 88.5413 144.573 88.312 145.725 88.312H147.741V88.12C147.741 87.576 147.586 87.176 147.277 86.92C146.967 86.664 146.583 86.536 146.125 86.536C145.709 86.536 145.346 86.6373 145.037 86.84C144.727 87.032 144.535 87.32 144.461 87.704H142.461C142.514 87.128 142.706 86.6267 143.037 86.2C143.378 85.7733 143.815 85.448 144.349 85.224C144.882 84.9893 145.479 84.872 146.141 84.872C147.271 84.872 148.162 85.1547 148.813 85.72C149.463 86.2853 149.789 87.0853 149.789 88.12V93H148.045L147.853 91.72C147.618 92.1467 147.287 92.4987 146.861 92.776C146.445 93.0533 145.906 93.192 145.245 93.192ZM145.709 91.592C146.295 91.592 146.749 91.4 147.069 91.016C147.399 90.632 147.607 90.1573 147.693 89.592H145.949C145.405 89.592 145.015 89.6933 144.781 89.896C144.546 90.088 144.429 90.328 144.429 90.616C144.429 90.9253 144.546 91.1653 144.781 91.336C145.015 91.5067 145.325 91.592 145.709 91.592ZM155.119 93C154.287 93 153.62 92.7973 153.119 92.392C152.617 91.9867 152.367 91.2667 152.367 90.232V86.776H151.007V85.064H152.367L152.607 82.936H154.415V85.064H156.559V86.776H154.415V90.248C154.415 90.632 154.495 90.8987 154.655 91.048C154.825 91.1867 155.113 91.256 155.519 91.256H156.511V93H155.119Z" fill="#2791B5"/>
<rect x="192" y="69" width="79" height="37" rx="8" fill="#E7EAEB"/>
<path d="M207.325 93V81.8H211.437C212.333 81.8 213.069 81.9547 213.645 82.264C214.232 82.5627 214.669 82.9733 214.957 83.496C215.245 84.008 215.389 84.5787 215.389 85.208C215.389 85.8907 215.208 86.5147 214.845 87.08C214.493 87.6453 213.939 88.056 213.181 88.312L215.501 93H213.149L211.069 88.584H209.373V93H207.325ZM209.373 87.08H211.309C211.992 87.08 212.493 86.9147 212.813 86.584C213.133 86.2533 213.293 85.816 213.293 85.272C213.293 84.7387 213.133 84.312 212.813 83.992C212.504 83.672 211.997 83.512 211.293 83.512H209.373V87.08ZM219.634 93.192C218.951 93.192 218.391 93.0853 217.954 92.872C217.517 92.648 217.191 92.3547 216.978 91.992C216.765 91.6293 216.658 91.2293 216.658 90.792C216.658 90.056 216.946 89.4587 217.522 89C218.098 88.5413 218.962 88.312 220.114 88.312H222.13V88.12C222.13 87.576 221.975 87.176 221.666 86.92C221.357 86.664 220.973 86.536 220.514 86.536C220.098 86.536 219.735 86.6373 219.426 86.84C219.117 87.032 218.925 87.32 218.85 87.704H216.85C216.903 87.128 217.095 86.6267 217.426 86.2C217.767 85.7733 218.205 85.448 218.738 85.224C219.271 84.9893 219.869 84.872 220.53 84.872C221.661 84.872 222.551 85.1547 223.202 85.72C223.853 86.2853 224.178 87.0853 224.178 88.12V93H222.434L222.242 91.72C222.007 92.1467 221.677 92.4987 221.25 92.776C220.834 93.0533 220.295 93.192 219.634 93.192ZM220.098 91.592C220.685 91.592 221.138 91.4 221.458 91.016C221.789 90.632 221.997 90.1573 222.082 89.592H220.338C219.794 89.592 219.405 89.6933 219.17 89.896C218.935 90.088 218.818 90.328 218.818 90.616C218.818 90.9253 218.935 91.1653 219.17 91.336C219.405 91.5067 219.714 91.592 220.098 91.592ZM230.785 93.192C230.188 93.192 229.665 93.08 229.217 92.856C228.769 92.632 228.407 92.3173 228.129 91.912L227.905 93H226.081V81.48H228.129V86.2C228.385 85.848 228.721 85.5387 229.137 85.272C229.564 85.0053 230.113 84.872 230.785 84.872C231.532 84.872 232.199 85.0533 232.785 85.416C233.372 85.7787 233.836 86.2747 234.177 86.904C234.519 87.5333 234.689 88.248 234.689 89.048C234.689 89.848 234.519 90.5627 234.177 91.192C233.836 91.8107 233.372 92.3013 232.785 92.664C232.199 93.016 231.532 93.192 230.785 93.192ZM230.353 91.4C231.004 91.4 231.543 91.1813 231.969 90.744C232.396 90.3067 232.609 89.7413 232.609 89.048C232.609 88.3547 232.396 87.784 231.969 87.336C231.543 86.888 231.004 86.664 230.353 86.664C229.692 86.664 229.148 86.888 228.721 87.336C228.305 87.7733 228.097 88.3387 228.097 89.032C228.097 89.7253 228.305 90.296 228.721 90.744C229.148 91.1813 229.692 91.4 230.353 91.4ZM241.172 93.192C240.574 93.192 240.052 93.08 239.604 92.856C239.156 92.632 238.793 92.3173 238.516 91.912L238.292 93H236.468V81.48H238.516V86.2C238.772 85.848 239.108 85.5387 239.524 85.272C239.95 85.0053 240.5 84.872 241.172 84.872C241.918 84.872 242.585 85.0533 243.172 85.416C243.758 85.7787 244.222 86.2747 244.564 86.904C244.905 87.5333 245.076 88.248 245.076 89.048C245.076 89.848 244.905 90.5627 244.564 91.192C244.222 91.8107 243.758 92.3013 243.172 92.664C242.585 93.016 241.918 93.192 241.172 93.192ZM240.74 91.4C241.39 91.4 241.929 91.1813 242.356 90.744C242.782 90.3067 242.996 89.7413 242.996 89.048C242.996 88.3547 242.782 87.784 242.356 87.336C241.929 86.888 241.39 86.664 240.74 86.664C240.078 86.664 239.534 86.888 239.108 87.336C238.692 87.7733 238.484 88.3387 238.484 89.032C238.484 89.7253 238.692 90.296 239.108 90.744C239.534 91.1813 240.078 91.4 240.74 91.4ZM247.958 83.832C247.584 83.832 247.275 83.72 247.03 83.496C246.795 83.272 246.678 82.9893 246.678 82.648C246.678 82.3067 246.795 82.0293 247.03 81.816C247.275 81.592 247.584 81.48 247.958 81.48C248.331 81.48 248.635 81.592 248.87 81.816C249.115 82.0293 249.238 82.3067 249.238 82.648C249.238 82.9893 249.115 83.272 248.87 83.496C248.635 83.72 248.331 83.832 247.958 83.832ZM246.934 93V85.064H248.982V93H246.934ZM254.604 93C253.772 93 253.106 92.7973 252.604 92.392C252.103 91.9867 251.852 91.2667 251.852 90.232V86.776H250.492V85.064H251.852L252.092 82.936H253.9V85.064H256.044V86.776H253.9V90.248C253.9 90.632 253.98 90.8987 254.14 91.048C254.311 91.1867 254.599 91.256 255.004 91.256H255.996V93H254.604Z" fill="#2791B5"/>
<rect x="280" y="69" width="79" height="37" rx="8" fill="#E7EAEB"/>
<path d="M287.687 93V81.8H289.735V86.456H294.759V81.8H296.807V93H294.759V88.12H289.735V93H287.687ZM301.621 93.192C300.938 93.192 300.378 93.0853 299.941 92.872C299.503 92.648 299.178 92.3547 298.965 91.992C298.751 91.6293 298.645 91.2293 298.645 90.792C298.645 90.056 298.933 89.4587 299.509 89C300.085 88.5413 300.949 88.312 302.101 88.312H304.117V88.12C304.117 87.576 303.962 87.176 303.653 86.92C303.343 86.664 302.959 86.536 302.501 86.536C302.085 86.536 301.722 86.6373 301.413 86.84C301.103 87.032 300.911 87.32 300.837 87.704H298.837C298.89 87.128 299.082 86.6267 299.413 86.2C299.754 85.7733 300.191 85.448 300.725 85.224C301.258 84.9893 301.855 84.872 302.517 84.872C303.647 84.872 304.538 85.1547 305.189 85.72C305.839 86.2853 306.165 87.0853 306.165 88.12V93H304.421L304.229 91.72C303.994 92.1467 303.663 92.4987 303.237 92.776C302.821 93.0533 302.282 93.192 301.621 93.192ZM302.085 91.592C302.671 91.592 303.125 91.4 303.445 91.016C303.775 90.632 303.983 90.1573 304.069 89.592H302.325C301.781 89.592 301.391 89.6933 301.157 89.896C300.922 90.088 300.805 90.328 300.805 90.616C300.805 90.9253 300.922 91.1653 301.157 91.336C301.391 91.5067 301.701 91.592 302.085 91.592ZM308.068 93V85.064H309.876L310.052 86.136C310.308 85.752 310.644 85.448 311.06 85.224C311.486 84.9893 311.977 84.872 312.532 84.872C313.758 84.872 314.628 85.3467 315.14 86.296C315.428 85.8587 315.812 85.512 316.292 85.256C316.782 85 317.316 84.872 317.892 84.872C318.926 84.872 319.721 85.1813 320.276 85.8C320.83 86.4187 321.108 87.3253 321.108 88.52V93H319.06V88.712C319.06 88.0293 318.926 87.5067 318.66 87.144C318.404 86.7813 318.004 86.6 317.46 86.6C316.905 86.6 316.457 86.8027 316.116 87.208C315.785 87.6133 315.62 88.1787 315.62 88.904V93H313.572V88.712C313.572 88.0293 313.438 87.5067 313.172 87.144C312.905 86.7813 312.494 86.6 311.94 86.6C311.396 86.6 310.953 86.8027 310.612 87.208C310.281 87.6133 310.116 88.1787 310.116 88.904V93H308.068ZM326.281 93.192C325.577 93.192 324.958 93.08 324.425 92.856C323.892 92.6213 323.465 92.3013 323.145 91.896C322.825 91.4907 322.633 91.0213 322.569 90.488H324.633C324.697 90.7973 324.868 91.064 325.145 91.288C325.433 91.5013 325.801 91.608 326.249 91.608C326.697 91.608 327.022 91.5173 327.225 91.336C327.438 91.1547 327.545 90.9467 327.545 90.712C327.545 90.3707 327.396 90.1413 327.097 90.024C326.798 89.896 326.382 89.7733 325.849 89.656C325.508 89.5813 325.161 89.4907 324.809 89.384C324.457 89.2773 324.132 89.144 323.833 88.984C323.545 88.8133 323.31 88.6 323.129 88.344C322.948 88.0773 322.857 87.752 322.857 87.368C322.857 86.664 323.134 86.072 323.689 85.592C324.254 85.112 325.044 84.872 326.057 84.872C326.996 84.872 327.742 85.0907 328.297 85.528C328.862 85.9653 329.198 86.568 329.305 87.336H327.369C327.252 86.7493 326.809 86.456 326.041 86.456C325.657 86.456 325.358 86.5307 325.145 86.68C324.942 86.8293 324.841 87.016 324.841 87.24C324.841 87.4747 324.996 87.6613 325.305 87.8C325.614 87.9387 326.025 88.0667 326.537 88.184C327.092 88.312 327.598 88.456 328.057 88.616C328.526 88.7653 328.9 88.9947 329.177 89.304C329.454 89.6027 329.593 90.0347 329.593 90.6C329.604 91.0907 329.476 91.5333 329.209 91.928C328.942 92.3227 328.558 92.632 328.057 92.856C327.556 93.08 326.964 93.192 326.281 93.192ZM334.642 93C333.81 93 333.143 92.7973 332.642 92.392C332.141 91.9867 331.89 91.2667 331.89 90.232V86.776H330.53V85.064H331.89L332.13 82.936H333.938V85.064H336.082V86.776H333.938V90.248C333.938 90.632 334.018 90.8987 334.178 91.048C334.349 91.1867 334.637 91.256 335.042 91.256H336.034V93H334.642ZM341.442 93.192C340.642 93.192 339.933 93.0213 339.314 92.68C338.695 92.3387 338.21 91.8587 337.858 91.24C337.506 90.6213 337.33 89.9067 337.33 89.096C337.33 88.2747 337.501 87.544 337.842 86.904C338.194 86.264 338.674 85.768 339.282 85.416C339.901 85.0533 340.626 84.872 341.458 84.872C342.237 84.872 342.925 85.0427 343.522 85.384C344.119 85.7253 344.583 86.1947 344.914 86.792C345.255 87.3787 345.426 88.0347 345.426 88.76C345.426 88.8773 345.421 89 345.41 89.128C345.41 89.256 345.405 89.3893 345.394 89.528H339.362C339.405 90.1467 339.618 90.632 340.002 90.984C340.397 91.336 340.871 91.512 341.426 91.512C341.842 91.512 342.189 91.4213 342.466 91.24C342.754 91.048 342.967 90.8027 343.106 90.504H345.186C345.037 91.0053 344.786 91.464 344.434 91.88C344.093 92.2853 343.666 92.6053 343.154 92.84C342.653 93.0747 342.082 93.192 341.442 93.192ZM341.458 86.536C340.957 86.536 340.514 86.68 340.13 86.968C339.746 87.2453 339.501 87.672 339.394 88.248H343.346C343.314 87.7253 343.122 87.3093 342.77 87C342.418 86.6907 341.981 86.536 341.458 86.536ZM347.097 93V85.064H348.921L349.113 86.552C349.401 86.04 349.791 85.6347 350.281 85.336C350.783 85.0267 351.369 84.872 352.041 84.872V87.032H351.465C351.017 87.032 350.617 87.1013 350.265 87.24C349.913 87.3787 349.636 87.6187 349.433 87.96C349.241 88.3013 349.145 88.776 349.145 89.384V93H347.097Z" fill="#2791B5"/>
<path d="M21.2483 155.204C20.3756 155.204 19.605 155.057 18.9363 154.762C18.2676 154.456 17.7406 154.025 17.3553 153.47C16.97 152.903 16.7716 152.218 16.7603 151.413H19.0553C19.078 151.968 19.2763 152.439 19.6503 152.824C20.0356 153.198 20.5626 153.385 21.2313 153.385C21.8093 153.385 22.2683 153.249 22.6083 152.977C22.9483 152.694 23.1183 152.32 23.1183 151.855C23.1183 151.368 22.9653 150.988 22.6593 150.716C22.3646 150.444 21.968 150.223 21.4693 150.053C20.9706 149.883 20.438 149.702 19.8713 149.509C18.9533 149.192 18.2506 148.784 17.7633 148.285C17.2873 147.786 17.0493 147.123 17.0493 146.296C17.038 145.593 17.2023 144.993 17.5423 144.494C17.8936 143.984 18.3696 143.593 18.9703 143.321C19.571 143.038 20.2623 142.896 21.0443 142.896C21.8376 142.896 22.5346 143.038 23.1353 143.321C23.7473 143.604 24.2233 144.001 24.5633 144.511C24.9146 145.021 25.1016 145.627 25.1243 146.33H22.7953C22.784 145.911 22.6196 145.542 22.3023 145.225C21.9963 144.896 21.5656 144.732 21.0103 144.732C20.5343 144.721 20.132 144.84 19.8033 145.089C19.486 145.327 19.3273 145.678 19.3273 146.143C19.3273 146.54 19.452 146.857 19.7013 147.095C19.9506 147.322 20.2906 147.514 20.7213 147.673C21.152 147.832 21.645 148.002 22.2003 148.183C22.7896 148.387 23.328 148.625 23.8153 148.897C24.3026 149.169 24.6936 149.532 24.9883 149.985C25.283 150.427 25.4303 150.999 25.4303 151.702C25.4303 152.325 25.2716 152.903 24.9543 153.436C24.637 153.969 24.1666 154.399 23.5433 154.728C22.92 155.045 22.155 155.204 21.2483 155.204ZM31.0349 155C30.1509 155 29.4425 154.785 28.9099 154.354C28.3772 153.923 28.1109 153.158 28.1109 152.059V148.387H26.6659V146.568H28.1109L28.3659 144.307H30.2869V146.568H32.5649V148.387H30.2869V152.076C30.2869 152.484 30.3719 152.767 30.5419 152.926C30.7232 153.073 31.0292 153.147 31.4599 153.147H32.5139V155H31.0349ZM37.3401 155.204C36.6148 155.204 36.0198 155.091 35.5551 154.864C35.0905 154.626 34.7448 154.314 34.5181 153.929C34.2915 153.544 34.1781 153.119 34.1781 152.654C34.1781 151.872 34.4841 151.237 35.0961 150.75C35.7081 150.263 36.6261 150.019 37.8501 150.019H39.9921V149.815C39.9921 149.237 39.8278 148.812 39.4991 148.54C39.1705 148.268 38.7625 148.132 38.2751 148.132C37.8331 148.132 37.4478 148.24 37.1191 148.455C36.7905 148.659 36.5865 148.965 36.5071 149.373H34.3821C34.4388 148.761 34.6428 148.228 34.9941 147.775C35.3568 147.322 35.8215 146.976 36.3881 146.738C36.9548 146.489 37.5895 146.364 38.2921 146.364C39.4935 146.364 40.4398 146.664 41.1311 147.265C41.8225 147.866 42.1681 148.716 42.1681 149.815V155H40.3151L40.1111 153.64C39.8618 154.093 39.5105 154.467 39.0571 154.762C38.6151 155.057 38.0428 155.204 37.3401 155.204ZM37.8331 153.504C38.4565 153.504 38.9381 153.3 39.2781 152.892C39.6295 152.484 39.8505 151.98 39.9411 151.379H38.0881C37.5101 151.379 37.0965 151.487 36.8471 151.702C36.5978 151.906 36.4731 152.161 36.4731 152.467C36.4731 152.796 36.5978 153.051 36.8471 153.232C37.0965 153.413 37.4251 153.504 37.8331 153.504ZM44.2446 155V146.568H46.1826L46.3866 148.149C46.6926 147.605 47.1063 147.174 47.6276 146.857C48.1603 146.528 48.7836 146.364 49.4976 146.364V148.659H48.8856C48.4096 148.659 47.9846 148.733 47.6106 148.88C47.2366 149.027 46.942 149.282 46.7266 149.645C46.5226 150.008 46.4206 150.512 46.4206 151.158V155H44.2446ZM54.7419 155C53.8579 155 53.1495 154.785 52.6169 154.354C52.0842 153.923 51.8179 153.158 51.8179 152.059V148.387H50.3729V146.568H51.8179L52.0729 144.307H53.9939V146.568H56.2719V148.387H53.9939V152.076C53.9939 152.484 54.0789 152.767 54.2489 152.926C54.4302 153.073 54.7362 153.147 55.1669 153.147H56.2209V155H54.7419ZM66.0669 155.204C65.2736 155.204 64.5653 155.011 63.9419 154.626C63.3186 154.241 62.8256 153.714 62.4629 153.045C62.1003 152.376 61.9189 151.617 61.9189 150.767C61.9189 149.917 62.1003 149.163 62.4629 148.506C62.8256 147.837 63.3186 147.316 63.9419 146.942C64.5653 146.557 65.2736 146.364 66.0669 146.364C66.7016 146.364 67.2569 146.483 67.7329 146.721C68.2089 146.959 68.5943 147.293 68.8889 147.724V142.76H71.0649V155H69.1269L68.8889 153.793C68.6169 154.167 68.2543 154.496 67.8009 154.779C67.3589 155.062 66.7809 155.204 66.0669 155.204ZM66.5259 153.3C67.2286 153.3 67.8009 153.068 68.2429 152.603C68.6963 152.127 68.9229 151.521 68.9229 150.784C68.9229 150.047 68.6963 149.447 68.2429 148.982C67.8009 148.506 67.2286 148.268 66.5259 148.268C65.8346 148.268 65.2623 148.5 64.8089 148.965C64.3556 149.43 64.1289 150.03 64.1289 150.767C64.1289 151.504 64.3556 152.11 64.8089 152.586C65.2623 153.062 65.8346 153.3 66.5259 153.3ZM76.1878 155.204C75.4624 155.204 74.8674 155.091 74.4028 154.864C73.9381 154.626 73.5924 154.314 73.3658 153.929C73.1391 153.544 73.0258 153.119 73.0258 152.654C73.0258 151.872 73.3318 151.237 73.9438 150.75C74.5558 150.263 75.4738 150.019 76.6978 150.019H78.8398V149.815C78.8398 149.237 78.6754 148.812 78.3468 148.54C78.0181 148.268 77.6101 148.132 77.1228 148.132C76.6808 148.132 76.2954 148.24 75.9668 148.455C75.6381 148.659 75.4341 148.965 75.3548 149.373H73.2298C73.2864 148.761 73.4904 148.228 73.8418 147.775C74.2044 147.322 74.6691 146.976 75.2358 146.738C75.8024 146.489 76.4371 146.364 77.1398 146.364C78.3411 146.364 79.2874 146.664 79.9788 147.265C80.6701 147.866 81.0158 148.716 81.0158 149.815V155H79.1628L78.9588 153.64C78.7094 154.093 78.3581 154.467 77.9048 154.762C77.4628 155.057 76.8904 155.204 76.1878 155.204ZM76.6808 153.504C77.3041 153.504 77.7858 153.3 78.1258 152.892C78.4771 152.484 78.6981 151.98 78.7888 151.379H76.9358C76.3578 151.379 75.9441 151.487 75.6948 151.702C75.4454 151.906 75.3208 152.161 75.3208 152.467C75.3208 152.796 75.4454 153.051 75.6948 153.232C75.9441 153.413 76.2728 153.504 76.6808 153.504ZM86.7331 155C85.8491 155 85.1408 154.785 84.6081 154.354C84.0754 153.923 83.8091 153.158 83.8091 152.059V148.387H82.3641V146.568H83.8091L84.0641 144.307H85.9851V146.568H88.2631V148.387H85.9851V152.076C85.9851 152.484 86.0701 152.767 86.2401 152.926C86.4214 153.073 86.7274 153.147 87.1581 153.147H88.2121V155H86.7331ZM94.0125 155.204C93.1625 155.204 92.4089 155.023 91.7515 154.66C91.0942 154.297 90.5785 153.787 90.2045 153.13C89.8305 152.473 89.6435 151.713 89.6435 150.852C89.6435 149.979 89.8249 149.203 90.1875 148.523C90.5615 147.843 91.0715 147.316 91.7175 146.942C92.3749 146.557 93.1455 146.364 94.0295 146.364C94.8569 146.364 95.5879 146.545 96.2225 146.908C96.8572 147.271 97.3502 147.769 97.7015 148.404C98.0642 149.027 98.2455 149.724 98.2455 150.495C98.2455 150.62 98.2399 150.75 98.2285 150.886C98.2285 151.022 98.2229 151.164 98.2115 151.311H91.8025C91.8479 151.968 92.0745 152.484 92.4825 152.858C92.9019 153.232 93.4062 153.419 93.9955 153.419C94.4375 153.419 94.8059 153.323 95.1005 153.13C95.4065 152.926 95.6332 152.665 95.7805 152.348H97.9905C97.8319 152.881 97.5655 153.368 97.1915 153.81C96.8289 154.241 96.3755 154.581 95.8315 154.83C95.2989 155.079 94.6925 155.204 94.0125 155.204ZM94.0295 148.132C93.4969 148.132 93.0265 148.285 92.6185 148.591C92.2105 148.886 91.9499 149.339 91.8365 149.951H96.0355C96.0015 149.396 95.7975 148.954 95.4235 148.625C95.0495 148.296 94.5849 148.132 94.0295 148.132Z" fill="#265565"/>
<path d="M291.588 154V142.8H294.02L297.588 149.904L301.108 142.8H303.54V154H301.492V146.272L298.372 152.4H296.756L293.636 146.272V154H291.588ZM308.349 154.192C307.667 154.192 307.107 154.085 306.669 153.872C306.232 153.648 305.907 153.355 305.693 152.992C305.48 152.629 305.373 152.229 305.373 151.792C305.373 151.056 305.661 150.459 306.237 150C306.813 149.541 307.677 149.312 308.829 149.312H310.845V149.12C310.845 148.576 310.691 148.176 310.381 147.92C310.072 147.664 309.688 147.536 309.229 147.536C308.813 147.536 308.451 147.637 308.141 147.84C307.832 148.032 307.64 148.32 307.565 148.704H305.565C305.619 148.128 305.811 147.627 306.141 147.2C306.483 146.773 306.92 146.448 307.453 146.224C307.987 145.989 308.584 145.872 309.245 145.872C310.376 145.872 311.267 146.155 311.917 146.72C312.568 147.285 312.893 148.085 312.893 149.12V154H311.149L310.957 152.72C310.723 153.147 310.392 153.499 309.965 153.776C309.549 154.053 309.011 154.192 308.349 154.192ZM308.813 152.592C309.4 152.592 309.853 152.4 310.173 152.016C310.504 151.632 310.712 151.157 310.797 150.592H309.053C308.509 150.592 308.12 150.693 307.885 150.896C307.651 151.088 307.533 151.328 307.533 151.616C307.533 151.925 307.651 152.165 307.885 152.336C308.12 152.507 308.429 152.592 308.813 152.592ZM314.796 154V146.064H316.62L316.812 147.552C317.1 147.04 317.49 146.635 317.98 146.336C318.482 146.027 319.068 145.872 319.74 145.872V148.032H319.164C318.716 148.032 318.316 148.101 317.964 148.24C317.612 148.379 317.335 148.619 317.132 148.96C316.94 149.301 316.844 149.776 316.844 150.384V154H314.796ZM324.836 154.192C324.026 154.192 323.311 154.016 322.692 153.664C322.074 153.312 321.583 152.821 321.22 152.192C320.868 151.563 320.692 150.843 320.692 150.032C320.692 149.221 320.868 148.501 321.22 147.872C321.583 147.243 322.074 146.752 322.692 146.4C323.311 146.048 324.026 145.872 324.836 145.872C325.85 145.872 326.703 146.139 327.396 146.672C328.09 147.195 328.532 147.92 328.724 148.848H326.564C326.458 148.464 326.244 148.165 325.924 147.952C325.615 147.728 325.247 147.616 324.82 147.616C324.255 147.616 323.775 147.829 323.38 148.256C322.986 148.683 322.788 149.275 322.788 150.032C322.788 150.789 322.986 151.381 323.38 151.808C323.775 152.235 324.255 152.448 324.82 152.448C325.247 152.448 325.615 152.341 325.924 152.128C326.244 151.915 326.458 151.611 326.564 151.216H328.724C328.532 152.112 328.09 152.832 327.396 153.376C326.703 153.92 325.85 154.192 324.836 154.192ZM330.491 154V142.48H332.539V147.28C332.806 146.843 333.163 146.501 333.611 146.256C334.07 146 334.592 145.872 335.179 145.872C336.16 145.872 336.918 146.181 337.451 146.8C337.995 147.419 338.267 148.325 338.267 149.52V154H336.235V149.712C336.235 149.029 336.096 148.507 335.819 148.144C335.552 147.781 335.126 147.6 334.539 147.6C333.963 147.6 333.483 147.803 333.099 148.208C332.726 148.613 332.539 149.179 332.539 149.904V154H330.491ZM345.199 154V145.136L343.359 145.568V144L346.063 142.8H347.327V154H345.199ZM353.272 154.192C352.493 154.192 351.837 154.043 351.304 153.744C350.771 153.435 350.355 153.035 350.056 152.544C349.757 152.053 349.581 151.525 349.528 150.96H351.432C351.517 151.451 351.72 151.829 352.04 152.096C352.371 152.363 352.787 152.496 353.288 152.496C354.003 152.496 354.579 152.171 355.016 151.52C355.453 150.859 355.688 149.856 355.72 148.512C355.464 148.949 355.075 149.312 354.552 149.6C354.04 149.888 353.475 150.032 352.856 150.032C352.237 150.032 351.656 149.883 351.112 149.584C350.568 149.285 350.125 148.864 349.784 148.32C349.443 147.776 349.272 147.136 349.272 146.4C349.272 145.728 349.437 145.104 349.768 144.528C350.099 143.952 350.557 143.488 351.144 143.136C351.731 142.784 352.419 142.608 353.208 142.608C354.051 142.608 354.76 142.763 355.336 143.072C355.912 143.381 356.371 143.797 356.712 144.32C357.064 144.843 357.315 145.424 357.464 146.064C357.624 146.704 357.704 147.36 357.704 148.032C357.704 149.28 357.528 150.368 357.176 151.296C356.835 152.213 356.328 152.928 355.656 153.44C354.995 153.941 354.2 154.192 353.272 154.192ZM353.336 148.304C353.731 148.304 354.088 148.219 354.408 148.048C354.728 147.867 354.979 147.632 355.16 147.344C355.341 147.045 355.432 146.715 355.432 146.352C355.432 145.776 355.229 145.301 354.824 144.928C354.429 144.555 353.928 144.368 353.32 144.368C352.723 144.368 352.227 144.555 351.832 144.928C351.437 145.291 351.24 145.755 351.24 146.32C351.24 146.917 351.437 147.397 351.832 147.76C352.227 148.123 352.728 148.304 353.336 148.304Z" fill="#265565"/>
<path d="M306.158 176.156C305.257 176.156 304.477 175.961 303.818 175.571C303.168 175.172 302.666 174.622 302.31 173.92C301.955 173.209 301.777 172.39 301.777 171.463C301.777 170.527 301.955 169.708 302.31 169.006C302.666 168.295 303.168 167.741 303.818 167.342C304.477 166.943 305.257 166.744 306.158 166.744C307.224 166.744 308.095 167.004 308.771 167.524C309.447 168.044 309.876 168.772 310.058 169.708H308.524C308.403 169.179 308.143 168.759 307.744 168.447C307.346 168.135 306.813 167.979 306.145 167.979C305.235 167.979 304.516 168.291 303.987 168.915C303.459 169.53 303.194 170.38 303.194 171.463C303.194 172.538 303.459 173.383 303.987 173.998C304.516 174.613 305.235 174.921 306.145 174.921C306.813 174.921 307.346 174.774 307.744 174.479C308.143 174.184 308.403 173.781 308.524 173.27H310.058C309.876 174.171 309.447 174.878 308.771 175.389C308.095 175.9 307.224 176.156 306.158 176.156ZM311.511 176V166.64H312.889V170.592C313.105 170.219 313.404 169.929 313.786 169.721C314.176 169.504 314.605 169.396 315.073 169.396C315.844 169.396 316.451 169.639 316.893 170.124C317.335 170.609 317.556 171.333 317.556 172.295V176H316.191V172.438C316.191 171.19 315.692 170.566 314.696 170.566C314.176 170.566 313.742 170.748 313.396 171.112C313.058 171.476 312.889 171.996 312.889 172.672V176H311.511ZM321.352 176.156C320.806 176.156 320.356 176.065 320 175.883C319.645 175.701 319.381 175.463 319.207 175.168C319.034 174.865 318.947 174.535 318.947 174.18C318.947 173.556 319.19 173.062 319.675 172.698C320.161 172.334 320.854 172.152 321.755 172.152H323.445V172.035C323.445 171.532 323.307 171.155 323.029 170.904C322.761 170.653 322.41 170.527 321.976 170.527C321.595 170.527 321.261 170.622 320.975 170.813C320.698 170.995 320.529 171.268 320.468 171.632H319.09C319.134 171.164 319.29 170.765 319.558 170.436C319.836 170.098 320.182 169.842 320.598 169.669C321.023 169.487 321.487 169.396 321.989 169.396C322.891 169.396 323.588 169.634 324.082 170.111C324.576 170.579 324.823 171.22 324.823 172.035V176H323.627L323.51 174.895C323.328 175.25 323.064 175.549 322.717 175.792C322.371 176.035 321.916 176.156 321.352 176.156ZM321.625 175.038C321.998 175.038 322.31 174.951 322.561 174.778C322.821 174.596 323.021 174.358 323.159 174.063C323.307 173.768 323.398 173.443 323.432 173.088H321.898C321.352 173.088 320.962 173.183 320.728 173.374C320.503 173.565 320.39 173.803 320.39 174.089C320.39 174.384 320.499 174.618 320.715 174.791C320.941 174.956 321.244 175.038 321.625 175.038ZM326.42 176V169.552H327.642L327.746 170.683C327.945 170.284 328.235 169.972 328.617 169.747C329.007 169.513 329.453 169.396 329.956 169.396C330.736 169.396 331.347 169.639 331.789 170.124C332.239 170.609 332.465 171.333 332.465 172.295V176H331.1V172.438C331.1 171.19 330.588 170.566 329.566 170.566C329.054 170.566 328.63 170.748 328.292 171.112C327.962 171.476 327.798 171.996 327.798 172.672V176H326.42ZM336.716 174.024C336.378 174.024 336.066 173.985 335.78 173.907L335.221 174.453C335.316 174.514 335.433 174.566 335.572 174.609C335.711 174.652 335.906 174.691 336.157 174.726C336.408 174.761 336.751 174.795 337.184 174.83C338.042 174.908 338.662 175.116 339.043 175.454C339.424 175.783 339.615 176.225 339.615 176.78C339.615 177.161 339.511 177.521 339.303 177.859C339.104 178.206 338.787 178.483 338.354 178.691C337.929 178.908 337.383 179.016 336.716 179.016C335.815 179.016 335.082 178.843 334.519 178.496C333.964 178.158 333.687 177.642 333.687 176.949C333.687 176.68 333.756 176.412 333.895 176.143C334.042 175.883 334.272 175.636 334.584 175.402C334.402 175.324 334.242 175.242 334.103 175.155C333.973 175.06 333.856 174.964 333.752 174.869V174.557L334.87 173.413C334.367 172.98 334.116 172.412 334.116 171.71C334.116 171.285 334.216 170.9 334.415 170.553C334.623 170.198 334.922 169.916 335.312 169.708C335.702 169.5 336.17 169.396 336.716 169.396C337.08 169.396 337.418 169.448 337.73 169.552H340.135V170.462L338.991 170.527C339.199 170.882 339.303 171.277 339.303 171.71C339.303 172.143 339.199 172.533 338.991 172.88C338.792 173.227 338.497 173.504 338.107 173.712C337.726 173.92 337.262 174.024 336.716 174.024ZM336.716 172.945C337.115 172.945 337.435 172.841 337.678 172.633C337.929 172.416 338.055 172.113 338.055 171.723C338.055 171.324 337.929 171.021 337.678 170.813C337.435 170.605 337.115 170.501 336.716 170.501C336.309 170.501 335.979 170.605 335.728 170.813C335.485 171.021 335.364 171.324 335.364 171.723C335.364 172.113 335.485 172.416 335.728 172.633C335.979 172.841 336.309 172.945 336.716 172.945ZM334.987 176.819C334.987 177.192 335.152 177.469 335.481 177.651C335.81 177.842 336.222 177.937 336.716 177.937C337.193 177.937 337.578 177.833 337.873 177.625C338.168 177.426 338.315 177.157 338.315 176.819C338.315 176.568 338.215 176.351 338.016 176.169C337.817 175.996 337.44 175.887 336.885 175.844C336.469 175.818 336.101 175.779 335.78 175.727C335.477 175.892 335.269 176.069 335.156 176.26C335.043 176.451 334.987 176.637 334.987 176.819ZM344.116 176.156C343.483 176.156 342.92 176.017 342.426 175.74C341.941 175.454 341.559 175.06 341.282 174.557C341.005 174.054 340.866 173.469 340.866 172.802C340.866 172.126 341 171.532 341.269 171.021C341.546 170.51 341.928 170.111 342.413 169.825C342.907 169.539 343.479 169.396 344.129 169.396C344.762 169.396 345.312 169.539 345.78 169.825C346.248 170.102 346.612 170.475 346.872 170.943C347.132 171.411 347.262 171.927 347.262 172.49C347.262 172.577 347.258 172.672 347.249 172.776C347.249 172.871 347.245 172.98 347.236 173.101H342.218C342.261 173.725 342.465 174.202 342.829 174.531C343.202 174.852 343.631 175.012 344.116 175.012C344.506 175.012 344.831 174.925 345.091 174.752C345.36 174.57 345.559 174.327 345.689 174.024H347.067C346.894 174.631 346.547 175.138 346.027 175.545C345.516 175.952 344.879 176.156 344.116 176.156ZM344.116 170.527C343.657 170.527 343.249 170.666 342.894 170.943C342.539 171.212 342.322 171.619 342.244 172.165H345.884C345.858 171.662 345.68 171.264 345.351 170.969C345.022 170.674 344.61 170.527 344.116 170.527Z" fill="#2791B5"/>
<path d="M17.5579 222V210.1H25.3269V211.851H19.7339V215.115H24.8169V216.815H19.7339V220.249H25.3269V222H17.5579ZM27.335 222V213.568H29.256L29.426 214.996C29.6866 214.497 30.0606 214.101 30.548 213.806C31.0466 213.511 31.6303 213.364 32.299 213.364C33.3416 213.364 34.152 213.693 34.73 214.35C35.308 215.007 35.597 215.971 35.597 217.24V222H33.421V217.444C33.421 216.719 33.2736 216.163 32.979 215.778C32.6843 215.393 32.2253 215.2 31.602 215.2C30.99 215.2 30.4856 215.415 30.089 215.846C29.7036 216.277 29.511 216.877 29.511 217.648V222H27.335ZM41.5538 222.204C40.7604 222.204 40.0521 222.011 39.4288 221.626C38.8054 221.241 38.3124 220.714 37.9498 220.045C37.5871 219.376 37.4058 218.617 37.4058 217.767C37.4058 216.917 37.5871 216.163 37.9498 215.506C38.3124 214.837 38.8054 214.316 39.4288 213.942C40.0521 213.557 40.7604 213.364 41.5538 213.364C42.1884 213.364 42.7438 213.483 43.2198 213.721C43.6958 213.959 44.0811 214.293 44.3758 214.724V209.76H46.5518V222H44.6138L44.3758 220.793C44.1038 221.167 43.7411 221.496 43.2878 221.779C42.8458 222.062 42.2678 222.204 41.5538 222.204ZM42.0128 220.3C42.7154 220.3 43.2878 220.068 43.7298 219.603C44.1831 219.127 44.4098 218.521 44.4098 217.784C44.4098 217.047 44.1831 216.447 43.7298 215.982C43.2878 215.506 42.7154 215.268 42.0128 215.268C41.3214 215.268 40.7491 215.5 40.2958 215.965C39.8424 216.43 39.6158 217.03 39.6158 217.767C39.6158 218.504 39.8424 219.11 40.2958 219.586C40.7491 220.062 41.3214 220.3 42.0128 220.3ZM56.6944 222.204C55.901 222.204 55.1927 222.011 54.5694 221.626C53.946 221.241 53.453 220.714 53.0904 220.045C52.7277 219.376 52.5464 218.617 52.5464 217.767C52.5464 216.917 52.7277 216.163 53.0904 215.506C53.453 214.837 53.946 214.316 54.5694 213.942C55.1927 213.557 55.901 213.364 56.6944 213.364C57.329 213.364 57.8844 213.483 58.3604 213.721C58.8364 213.959 59.2217 214.293 59.5164 214.724V209.76H61.6924V222H59.7544L59.5164 220.793C59.2444 221.167 58.8817 221.496 58.4284 221.779C57.9864 222.062 57.4084 222.204 56.6944 222.204ZM57.1534 220.3C57.856 220.3 58.4284 220.068 58.8704 219.603C59.3237 219.127 59.5504 218.521 59.5504 217.784C59.5504 217.047 59.3237 216.447 58.8704 215.982C58.4284 215.506 57.856 215.268 57.1534 215.268C56.462 215.268 55.8897 215.5 55.4364 215.965C54.983 216.43 54.7564 217.03 54.7564 217.767C54.7564 218.504 54.983 219.11 55.4364 219.586C55.8897 220.062 56.462 220.3 57.1534 220.3ZM66.8152 222.204C66.0899 222.204 65.4949 222.091 65.0302 221.864C64.5656 221.626 64.2199 221.314 63.9932 220.929C63.7666 220.544 63.6532 220.119 63.6532 219.654C63.6532 218.872 63.9592 218.237 64.5712 217.75C65.1832 217.263 66.1012 217.019 67.3252 217.019H69.4672V216.815C69.4672 216.237 69.3029 215.812 68.9742 215.54C68.6456 215.268 68.2376 215.132 67.7502 215.132C67.3082 215.132 66.9229 215.24 66.5942 215.455C66.2656 215.659 66.0616 215.965 65.9822 216.373H63.8572C63.9139 215.761 64.1179 215.228 64.4692 214.775C64.8319 214.322 65.2966 213.976 65.8632 213.738C66.4299 213.489 67.0646 213.364 67.7672 213.364C68.9686 213.364 69.9149 213.664 70.6062 214.265C71.2976 214.866 71.6432 215.716 71.6432 216.815V222H69.7902L69.5862 220.64C69.3369 221.093 68.9856 221.467 68.5322 221.762C68.0902 222.057 67.5179 222.204 66.8152 222.204ZM67.3082 220.504C67.9316 220.504 68.4132 220.3 68.7532 219.892C69.1046 219.484 69.3256 218.98 69.4162 218.379H67.5632C66.9852 218.379 66.5716 218.487 66.3222 218.702C66.0729 218.906 65.9482 219.161 65.9482 219.467C65.9482 219.796 66.0729 220.051 66.3222 220.232C66.5716 220.413 66.9002 220.504 67.3082 220.504ZM77.3605 222C76.4765 222 75.7682 221.785 75.2355 221.354C74.7029 220.923 74.4365 220.158 74.4365 219.059V215.387H72.9915V213.568H74.4365L74.6915 211.307H76.6125V213.568H78.8905V215.387H76.6125V219.076C76.6125 219.484 76.6975 219.767 76.8675 219.926C77.0489 220.073 77.3549 220.147 77.7855 220.147H78.8395V222H77.3605ZM84.64 222.204C83.79 222.204 83.0363 222.023 82.379 221.66C81.7217 221.297 81.206 220.787 80.832 220.13C80.458 219.473 80.271 218.713 80.271 217.852C80.271 216.979 80.4523 216.203 80.815 215.523C81.189 214.843 81.699 214.316 82.345 213.942C83.0023 213.557 83.773 213.364 84.657 213.364C85.4843 213.364 86.2153 213.545 86.85 213.908C87.4847 214.271 87.9777 214.769 88.329 215.404C88.6917 216.027 88.873 216.724 88.873 217.495C88.873 217.62 88.8673 217.75 88.856 217.886C88.856 218.022 88.8503 218.164 88.839 218.311H82.43C82.4753 218.968 82.702 219.484 83.11 219.858C83.5293 220.232 84.0337 220.419 84.623 220.419C85.065 220.419 85.4333 220.323 85.728 220.13C86.034 219.926 86.2607 219.665 86.408 219.348H88.618C88.4593 219.881 88.193 220.368 87.819 220.81C87.4563 221.241 87.003 221.581 86.459 221.83C85.9263 222.079 85.32 222.204 84.64 222.204ZM84.657 215.132C84.1243 215.132 83.654 215.285 83.246 215.591C82.838 215.886 82.5773 216.339 82.464 216.951H86.663C86.629 216.396 86.425 215.954 86.051 215.625C85.677 215.296 85.2123 215.132 84.657 215.132Z" fill="#265565"/>
<path d="M288.58 221V209.8H291.012L294.58 216.904L298.1 209.8H300.532V221H298.484V213.272L295.364 219.4H293.748L290.628 213.272V221H288.58ZM305.341 221.192C304.659 221.192 304.099 221.085 303.661 220.872C303.224 220.648 302.899 220.355 302.685 219.992C302.472 219.629 302.365 219.229 302.365 218.792C302.365 218.056 302.653 217.459 303.229 217C303.805 216.541 304.669 216.312 305.821 216.312H307.837V216.12C307.837 215.576 307.683 215.176 307.373 214.92C307.064 214.664 306.68 214.536 306.221 214.536C305.805 214.536 305.443 214.637 305.133 214.84C304.824 215.032 304.632 215.32 304.557 215.704H302.557C302.611 215.128 302.803 214.627 303.133 214.2C303.475 213.773 303.912 213.448 304.445 213.224C304.979 212.989 305.576 212.872 306.237 212.872C307.368 212.872 308.259 213.155 308.909 213.72C309.56 214.285 309.885 215.085 309.885 216.12V221H308.141L307.949 219.72C307.715 220.147 307.384 220.499 306.957 220.776C306.541 221.053 306.003 221.192 305.341 221.192ZM305.805 219.592C306.392 219.592 306.845 219.4 307.165 219.016C307.496 218.632 307.704 218.157 307.789 217.592H306.045C305.501 217.592 305.112 217.693 304.877 217.896C304.643 218.088 304.525 218.328 304.525 218.616C304.525 218.925 304.643 219.165 304.877 219.336C305.112 219.507 305.421 219.592 305.805 219.592ZM311.789 221V213.064H313.613L313.805 214.552C314.093 214.04 314.482 213.635 314.973 213.336C315.474 213.027 316.061 212.872 316.733 212.872V215.032H316.157C315.709 215.032 315.309 215.101 314.957 215.24C314.605 215.379 314.327 215.619 314.125 215.96C313.933 216.301 313.837 216.776 313.837 217.384V221H311.789ZM321.829 221.192C321.018 221.192 320.303 221.016 319.685 220.664C319.066 220.312 318.575 219.821 318.213 219.192C317.861 218.563 317.685 217.843 317.685 217.032C317.685 216.221 317.861 215.501 318.213 214.872C318.575 214.243 319.066 213.752 319.685 213.4C320.303 213.048 321.018 212.872 321.829 212.872C322.842 212.872 323.695 213.139 324.389 213.672C325.082 214.195 325.525 214.92 325.717 215.848H323.557C323.45 215.464 323.237 215.165 322.917 214.952C322.607 214.728 322.239 214.616 321.813 214.616C321.247 214.616 320.767 214.829 320.373 215.256C319.978 215.683 319.781 216.275 319.781 217.032C319.781 217.789 319.978 218.381 320.373 218.808C320.767 219.235 321.247 219.448 321.813 219.448C322.239 219.448 322.607 219.341 322.917 219.128C323.237 218.915 323.45 218.611 323.557 218.216H325.717C325.525 219.112 325.082 219.832 324.389 220.376C323.695 220.92 322.842 221.192 321.829 221.192ZM327.483 221V209.48H329.531V214.28C329.798 213.843 330.155 213.501 330.603 213.256C331.062 213 331.584 212.872 332.171 212.872C333.152 212.872 333.91 213.181 334.443 213.8C334.987 214.419 335.259 215.325 335.259 216.52V221H333.227V216.712C333.227 216.029 333.088 215.507 332.811 215.144C332.544 214.781 332.118 214.6 331.531 214.6C330.955 214.6 330.475 214.803 330.091 215.208C329.718 215.613 329.531 216.179 329.531 216.904V221H327.483ZM340.704 221V219.512C341.386 218.947 342.048 218.387 342.688 217.832C343.338 217.277 343.914 216.728 344.416 216.184C344.928 215.64 345.333 215.112 345.632 214.6C345.941 214.077 346.096 213.571 346.096 213.08C346.096 212.621 345.968 212.216 345.712 211.864C345.466 211.512 345.056 211.336 344.48 211.336C343.893 211.336 343.45 211.528 343.152 211.912C342.853 212.296 342.704 212.76 342.704 213.304H340.72C340.741 212.483 340.922 211.8 341.264 211.256C341.605 210.701 342.058 210.291 342.624 210.024C343.189 209.747 343.824 209.608 344.528 209.608C345.669 209.608 346.554 209.923 347.184 210.552C347.824 211.171 348.144 211.976 348.144 212.968C348.144 213.587 348 214.189 347.712 214.776C347.434 215.363 347.066 215.928 346.608 216.472C346.149 217.016 345.653 217.528 345.12 218.008C344.586 218.477 344.069 218.915 343.568 219.32H348.416V221H340.704ZM353.729 221.192C352.993 221.192 352.326 221.064 351.729 220.808C351.132 220.541 350.652 220.136 350.289 219.592C349.926 219.048 349.734 218.365 349.713 217.544H351.729C351.74 218.088 351.916 218.547 352.257 218.92C352.609 219.283 353.1 219.464 353.729 219.464C354.326 219.464 354.785 219.299 355.105 218.968C355.425 218.637 355.585 218.221 355.585 217.72C355.585 217.133 355.372 216.691 354.945 216.392C354.529 216.083 353.99 215.928 353.329 215.928H352.497V214.248H353.345C353.889 214.248 354.342 214.12 354.705 213.864C355.068 213.608 355.249 213.229 355.249 212.728C355.249 212.312 355.11 211.981 354.833 211.736C354.566 211.48 354.193 211.352 353.713 211.352C353.19 211.352 352.78 211.507 352.481 211.816C352.193 212.125 352.033 212.504 352.001 212.952H350.001C350.044 211.917 350.401 211.101 351.073 210.504C351.756 209.907 352.636 209.608 353.713 209.608C354.481 209.608 355.126 209.747 355.649 210.024C356.182 210.291 356.582 210.648 356.849 211.096C357.126 211.544 357.265 212.04 357.265 212.584C357.265 213.213 357.089 213.747 356.737 214.184C356.396 214.611 355.969 214.899 355.457 215.048C356.086 215.176 356.598 215.485 356.993 215.976C357.388 216.456 357.585 217.064 357.585 217.8C357.585 218.419 357.436 218.984 357.137 219.496C356.838 220.008 356.401 220.419 355.825 220.728C355.26 221.037 354.561 221.192 353.729 221.192Z" fill="#265565"/>
<path d="M304.658 243.156C303.757 243.156 302.977 242.961 302.318 242.571C301.668 242.172 301.166 241.622 300.81 240.92C300.455 240.209 300.277 239.39 300.277 238.463C300.277 237.527 300.455 236.708 300.81 236.006C301.166 235.295 301.668 234.741 302.318 234.342C302.977 233.943 303.757 233.744 304.658 233.744C305.724 233.744 306.595 234.004 307.271 234.524C307.947 235.044 308.376 235.772 308.558 236.708H307.024C306.903 236.179 306.643 235.759 306.244 235.447C305.846 235.135 305.313 234.979 304.645 234.979C303.735 234.979 303.016 235.291 302.487 235.915C301.959 236.53 301.694 237.38 301.694 238.463C301.694 239.538 301.959 240.383 302.487 240.998C303.016 241.613 303.735 241.921 304.645 241.921C305.313 241.921 305.846 241.774 306.244 241.479C306.643 241.184 306.903 240.781 307.024 240.27H308.558C308.376 241.171 307.947 241.878 307.271 242.389C306.595 242.9 305.724 243.156 304.658 243.156ZM310.011 243V233.64H311.389V237.592C311.605 237.219 311.904 236.929 312.286 236.721C312.676 236.504 313.105 236.396 313.573 236.396C314.344 236.396 314.951 236.639 315.393 237.124C315.835 237.609 316.056 238.333 316.056 239.295V243H314.691V239.438C314.691 238.19 314.192 237.566 313.196 237.566C312.676 237.566 312.242 237.748 311.896 238.112C311.558 238.476 311.389 238.996 311.389 239.672V243H310.011ZM319.852 243.156C319.306 243.156 318.856 243.065 318.5 242.883C318.145 242.701 317.881 242.463 317.707 242.168C317.534 241.865 317.447 241.535 317.447 241.18C317.447 240.556 317.69 240.062 318.175 239.698C318.661 239.334 319.354 239.152 320.255 239.152H321.945V239.035C321.945 238.532 321.807 238.155 321.529 237.904C321.261 237.653 320.91 237.527 320.476 237.527C320.095 237.527 319.761 237.622 319.475 237.813C319.198 237.995 319.029 238.268 318.968 238.632H317.59C317.634 238.164 317.79 237.765 318.058 237.436C318.336 237.098 318.682 236.842 319.098 236.669C319.523 236.487 319.987 236.396 320.489 236.396C321.391 236.396 322.088 236.634 322.582 237.111C323.076 237.579 323.323 238.22 323.323 239.035V243H322.127L322.01 241.895C321.828 242.25 321.564 242.549 321.217 242.792C320.871 243.035 320.416 243.156 319.852 243.156ZM320.125 242.038C320.498 242.038 320.81 241.951 321.061 241.778C321.321 241.596 321.521 241.358 321.659 241.063C321.807 240.768 321.898 240.443 321.932 240.088H320.398C319.852 240.088 319.462 240.183 319.228 240.374C319.003 240.565 318.89 240.803 318.89 241.089C318.89 241.384 318.999 241.618 319.215 241.791C319.441 241.956 319.744 242.038 320.125 242.038ZM324.92 243V236.552H326.142L326.246 237.683C326.445 237.284 326.735 236.972 327.117 236.747C327.507 236.513 327.953 236.396 328.456 236.396C329.236 236.396 329.847 236.639 330.289 237.124C330.739 237.609 330.965 238.333 330.965 239.295V243H329.6V239.438C329.6 238.19 329.088 237.566 328.066 237.566C327.554 237.566 327.13 237.748 326.792 238.112C326.462 238.476 326.298 238.996 326.298 239.672V243H324.92ZM335.216 241.024C334.878 241.024 334.566 240.985 334.28 240.907L333.721 241.453C333.816 241.514 333.933 241.566 334.072 241.609C334.211 241.652 334.406 241.691 334.657 241.726C334.908 241.761 335.251 241.795 335.684 241.83C336.542 241.908 337.162 242.116 337.543 242.454C337.924 242.783 338.115 243.225 338.115 243.78C338.115 244.161 338.011 244.521 337.803 244.859C337.604 245.206 337.287 245.483 336.854 245.691C336.429 245.908 335.883 246.016 335.216 246.016C334.315 246.016 333.582 245.843 333.019 245.496C332.464 245.158 332.187 244.642 332.187 243.949C332.187 243.68 332.256 243.412 332.395 243.143C332.542 242.883 332.772 242.636 333.084 242.402C332.902 242.324 332.742 242.242 332.603 242.155C332.473 242.06 332.356 241.964 332.252 241.869V241.557L333.37 240.413C332.867 239.98 332.616 239.412 332.616 238.71C332.616 238.285 332.716 237.9 332.915 237.553C333.123 237.198 333.422 236.916 333.812 236.708C334.202 236.5 334.67 236.396 335.216 236.396C335.58 236.396 335.918 236.448 336.23 236.552H338.635V237.462L337.491 237.527C337.699 237.882 337.803 238.277 337.803 238.71C337.803 239.143 337.699 239.533 337.491 239.88C337.292 240.227 336.997 240.504 336.607 240.712C336.226 240.92 335.762 241.024 335.216 241.024ZM335.216 239.945C335.615 239.945 335.935 239.841 336.178 239.633C336.429 239.416 336.555 239.113 336.555 238.723C336.555 238.324 336.429 238.021 336.178 237.813C335.935 237.605 335.615 237.501 335.216 237.501C334.809 237.501 334.479 237.605 334.228 237.813C333.985 238.021 333.864 238.324 333.864 238.723C333.864 239.113 333.985 239.416 334.228 239.633C334.479 239.841 334.809 239.945 335.216 239.945ZM333.487 243.819C333.487 244.192 333.652 244.469 333.981 244.651C334.31 244.842 334.722 244.937 335.216 244.937C335.693 244.937 336.078 244.833 336.373 244.625C336.668 244.426 336.815 244.157 336.815 243.819C336.815 243.568 336.715 243.351 336.516 243.169C336.317 242.996 335.94 242.887 335.385 242.844C334.969 242.818 334.601 242.779 334.28 242.727C333.977 242.892 333.769 243.069 333.656 243.26C333.543 243.451 333.487 243.637 333.487 243.819ZM342.616 243.156C341.983 243.156 341.42 243.017 340.926 242.74C340.441 242.454 340.059 242.06 339.782 241.557C339.505 241.054 339.366 240.469 339.366 239.802C339.366 239.126 339.5 238.532 339.769 238.021C340.046 237.51 340.428 237.111 340.913 236.825C341.407 236.539 341.979 236.396 342.629 236.396C343.262 236.396 343.812 236.539 344.28 236.825C344.748 237.102 345.112 237.475 345.372 237.943C345.632 238.411 345.762 238.927 345.762 239.49C345.762 239.577 345.758 239.672 345.749 239.776C345.749 239.871 345.745 239.98 345.736 240.101H340.718C340.761 240.725 340.965 241.202 341.329 241.531C341.702 241.852 342.131 242.012 342.616 242.012C343.006 242.012 343.331 241.925 343.591 241.752C343.86 241.57 344.059 241.327 344.189 241.024H345.567C345.394 241.631 345.047 242.138 344.527 242.545C344.016 242.952 343.379 243.156 342.616 243.156ZM342.616 237.527C342.157 237.527 341.749 237.666 341.394 237.943C341.039 238.212 340.822 238.619 340.744 239.165H344.384C344.358 238.662 344.18 238.264 343.851 237.969C343.522 237.674 343.11 237.527 342.616 237.527Z" fill="#2791B5"/>
<path d="M21.5901 297.204C20.7174 297.204 19.9468 297.057 19.2781 296.762C18.6094 296.456 18.0824 296.025 17.6971 295.47C17.3118 294.903 17.1134 294.218 17.1021 293.413H19.3971C19.4198 293.968 19.6181 294.439 19.9921 294.824C20.3774 295.198 20.9044 295.385 21.5731 295.385C22.1511 295.385 22.6101 295.249 22.9501 294.977C23.2901 294.694 23.4601 294.32 23.4601 293.855C23.4601 293.368 23.3071 292.988 23.0011 292.716C22.7064 292.444 22.3098 292.223 21.8111 292.053C21.3124 291.883 20.7798 291.702 20.2131 291.509C19.2951 291.192 18.5924 290.784 18.1051 290.285C17.6291 289.786 17.3911 289.123 17.3911 288.296C17.3798 287.593 17.5441 286.993 17.8841 286.494C18.2354 285.984 18.7114 285.593 19.3121 285.321C19.9128 285.038 20.6041 284.896 21.3861 284.896C22.1794 284.896 22.8764 285.038 23.4771 285.321C24.0891 285.604 24.5651 286.001 24.9051 286.511C25.2564 287.021 25.4434 287.627 25.4661 288.33H23.1371C23.1258 287.911 22.9614 287.542 22.6441 287.225C22.3381 286.896 21.9074 286.732 21.3521 286.732C20.8761 286.721 20.4738 286.84 20.1451 287.089C19.8278 287.327 19.6691 287.678 19.6691 288.143C19.6691 288.54 19.7938 288.857 20.0431 289.095C20.2924 289.322 20.6324 289.514 21.0631 289.673C21.4938 289.832 21.9868 290.002 22.5421 290.183C23.1314 290.387 23.6698 290.625 24.1571 290.897C24.6444 291.169 25.0354 291.532 25.3301 291.985C25.6248 292.427 25.7721 292.999 25.7721 293.702C25.7721 294.325 25.6134 294.903 25.2961 295.436C24.9788 295.969 24.5084 296.399 23.8851 296.728C23.2618 297.045 22.4968 297.204 21.5901 297.204ZM31.7166 297.204C30.8666 297.204 30.113 297.023 29.4556 296.66C28.7983 296.297 28.2826 295.787 27.9086 295.13C27.5346 294.473 27.3476 293.713 27.3476 292.852C27.3476 291.979 27.529 291.203 27.8916 290.523C28.2656 289.843 28.7756 289.316 29.4216 288.942C30.079 288.557 30.8496 288.364 31.7336 288.364C32.561 288.364 33.292 288.545 33.9266 288.908C34.5613 289.271 35.0543 289.769 35.4056 290.404C35.7683 291.027 35.9496 291.724 35.9496 292.495C35.9496 292.62 35.944 292.75 35.9326 292.886C35.9326 293.022 35.927 293.164 35.9156 293.311H29.5066C29.552 293.968 29.7786 294.484 30.1866 294.858C30.606 295.232 31.1103 295.419 31.6996 295.419C32.1416 295.419 32.51 295.323 32.8046 295.13C33.1106 294.926 33.3373 294.665 33.4846 294.348H35.6946C35.536 294.881 35.2696 295.368 34.8956 295.81C34.533 296.241 34.0796 296.581 33.5356 296.83C33.003 297.079 32.3966 297.204 31.7166 297.204ZM31.7336 290.132C31.201 290.132 30.7306 290.285 30.3226 290.591C29.9146 290.886 29.654 291.339 29.5406 291.951H33.7396C33.7056 291.396 33.5016 290.954 33.1276 290.625C32.7536 290.296 32.289 290.132 31.7336 290.132ZM37.7798 297V288.568H39.7178L39.9218 290.149C40.2278 289.605 40.6415 289.174 41.1628 288.857C41.6955 288.528 42.3188 288.364 43.0328 288.364V290.659H42.4208C41.9448 290.659 41.5198 290.733 41.1458 290.88C40.7718 291.027 40.4771 291.282 40.2618 291.645C40.0578 292.008 39.9558 292.512 39.9558 293.158V297H37.7798ZM46.798 297L43.704 288.568H45.982L48.124 294.943L50.266 288.568H52.544L49.433 297H46.798ZM55.0895 287.259C54.6929 287.259 54.3642 287.14 54.1035 286.902C53.8542 286.664 53.7295 286.364 53.7295 286.001C53.7295 285.638 53.8542 285.344 54.1035 285.117C54.3642 284.879 54.6929 284.76 55.0895 284.76C55.4862 284.76 55.8092 284.879 56.0585 285.117C56.3192 285.344 56.4495 285.638 56.4495 286.001C56.4495 286.364 56.3192 286.664 56.0585 286.902C55.8092 287.14 55.4862 287.259 55.0895 287.259ZM54.0015 297V288.568H56.1775V297H54.0015ZM62.5798 297.204C61.7184 297.204 60.9591 297.017 60.3018 296.643C59.6444 296.269 59.1231 295.748 58.7378 295.079C58.3638 294.41 58.1768 293.645 58.1768 292.784C58.1768 291.923 58.3638 291.158 58.7378 290.489C59.1231 289.82 59.6444 289.299 60.3018 288.925C60.9591 288.551 61.7184 288.364 62.5798 288.364C63.6564 288.364 64.5631 288.647 65.2998 289.214C66.0364 289.769 66.5068 290.54 66.7107 291.526H64.4158C64.3024 291.118 64.0758 290.801 63.7358 290.574C63.4071 290.336 63.0161 290.217 62.5628 290.217C61.9621 290.217 61.4521 290.444 61.0328 290.897C60.6134 291.35 60.4038 291.979 60.4038 292.784C60.4038 293.589 60.6134 294.218 61.0328 294.671C61.4521 295.124 61.9621 295.351 62.5628 295.351C63.0161 295.351 63.4071 295.238 63.7358 295.011C64.0758 294.784 64.3024 294.461 64.4158 294.042H66.7107C66.5068 294.994 66.0364 295.759 65.2998 296.337C64.5631 296.915 63.6564 297.204 62.5798 297.204ZM72.7391 297.204C71.8891 297.204 71.1354 297.023 70.4781 296.66C69.8208 296.297 69.3051 295.787 68.9311 295.13C68.5571 294.473 68.3701 293.713 68.3701 292.852C68.3701 291.979 68.5514 291.203 68.9141 290.523C69.2881 289.843 69.7981 289.316 70.4441 288.942C71.1014 288.557 71.8721 288.364 72.7561 288.364C73.5834 288.364 74.3144 288.545 74.9491 288.908C75.5838 289.271 76.0768 289.769 76.4281 290.404C76.7908 291.027 76.9721 291.724 76.9721 292.495C76.9721 292.62 76.9664 292.75 76.9551 292.886C76.9551 293.022 76.9494 293.164 76.9381 293.311H70.5291C70.5744 293.968 70.8011 294.484 71.2091 294.858C71.6284 295.232 72.1328 295.419 72.7221 295.419C73.1641 295.419 73.5324 295.323 73.8271 295.13C74.1331 294.926 74.3598 294.665 74.5071 294.348H76.7171C76.5584 294.881 76.2921 295.368 75.9181 295.81C75.5554 296.241 75.1021 296.581 74.5581 296.83C74.0254 297.079 73.4191 297.204 72.7391 297.204ZM72.7561 290.132C72.2234 290.132 71.7531 290.285 71.3451 290.591C70.9371 290.886 70.6764 291.339 70.5631 291.951H74.7621C74.7281 291.396 74.5241 290.954 74.1501 290.625C73.7761 290.296 73.3114 290.132 72.7561 290.132ZM82.2873 297.204C81.5393 297.204 80.8819 297.085 80.3153 296.847C79.7486 296.598 79.2953 296.258 78.9553 295.827C78.6153 295.396 78.4113 294.898 78.3433 294.331H80.5363C80.6043 294.66 80.7856 294.943 81.0803 295.181C81.3863 295.408 81.7773 295.521 82.2533 295.521C82.7293 295.521 83.0749 295.425 83.2903 295.232C83.5169 295.039 83.6303 294.818 83.6303 294.569C83.6303 294.206 83.4716 293.963 83.1543 293.838C82.8369 293.702 82.3949 293.572 81.8283 293.447C81.4656 293.368 81.0973 293.271 80.7233 293.158C80.3493 293.045 80.0036 292.903 79.6863 292.733C79.3803 292.552 79.1309 292.325 78.9383 292.053C78.7456 291.77 78.6493 291.424 78.6493 291.016C78.6493 290.268 78.9439 289.639 79.5333 289.129C80.1339 288.619 80.9726 288.364 82.0493 288.364C83.0466 288.364 83.8399 288.596 84.4293 289.061C85.0299 289.526 85.3869 290.166 85.5003 290.982H83.4433C83.3186 290.359 82.8483 290.047 82.0323 290.047C81.6243 290.047 81.3069 290.126 81.0803 290.285C80.8649 290.444 80.7573 290.642 80.7573 290.88C80.7573 291.129 80.9216 291.328 81.2503 291.475C81.5789 291.622 82.0153 291.758 82.5593 291.883C83.1486 292.019 83.6869 292.172 84.1743 292.342C84.6729 292.501 85.0696 292.744 85.3643 293.073C85.6589 293.39 85.8063 293.849 85.8063 294.45C85.8176 294.971 85.6816 295.442 85.3983 295.861C85.1149 296.28 84.7069 296.609 84.1743 296.847C83.6416 297.085 83.0126 297.204 82.2873 297.204Z" fill="#265565"/>
<rect x="16.75" y="318.75" width="20.5" height="20.5" rx="1.25" stroke="#808C91" stroke-width="1.5"/>
<path d="M47.3796 334V322.8H49.0756V327.6H54.4996V322.8H56.1956V334H54.4996V328.992H49.0756V334H47.3796ZM62.0558 334.192C61.2771 334.192 60.5838 334.021 59.9758 333.68C59.3784 333.328 58.9091 332.843 58.5678 332.224C58.2264 331.605 58.0558 330.885 58.0558 330.064C58.0558 329.232 58.2211 328.501 58.5518 327.872C58.8931 327.243 59.3624 326.752 59.9598 326.4C60.5678 326.048 61.2718 325.872 62.0718 325.872C62.8504 325.872 63.5278 326.048 64.1038 326.4C64.6798 326.741 65.1278 327.2 65.4478 327.776C65.7678 328.352 65.9278 328.987 65.9278 329.68C65.9278 329.787 65.9224 329.904 65.9118 330.032C65.9118 330.149 65.9064 330.283 65.8958 330.432H59.7198C59.7731 331.2 60.0238 331.787 60.4718 332.192C60.9304 332.587 61.4584 332.784 62.0558 332.784C62.5358 332.784 62.9358 332.677 63.2558 332.464C63.5864 332.24 63.8318 331.941 63.9918 331.568H65.6878C65.4744 332.315 65.0478 332.939 64.4078 333.44C63.7784 333.941 62.9944 334.192 62.0558 334.192ZM62.0558 327.264C61.4904 327.264 60.9891 327.435 60.5518 327.776C60.1144 328.107 59.8478 328.608 59.7518 329.28H64.2318C64.1998 328.661 63.9811 328.171 63.5758 327.808C63.1704 327.445 62.6638 327.264 62.0558 327.264ZM70.3099 334.192C69.6379 334.192 69.0832 334.08 68.6459 333.856C68.2086 333.632 67.8832 333.339 67.6699 332.976C67.4566 332.603 67.3499 332.197 67.3499 331.76C67.3499 330.992 67.6486 330.384 68.2459 329.936C68.8432 329.488 69.6966 329.264 70.8059 329.264H72.8859V329.12C72.8859 328.501 72.7152 328.037 72.3739 327.728C72.0432 327.419 71.6112 327.264 71.0779 327.264C70.6086 327.264 70.1979 327.381 69.8459 327.616C69.5046 327.84 69.2966 328.176 69.2219 328.624H67.5259C67.5792 328.048 67.7712 327.557 68.1019 327.152C68.4432 326.736 68.8699 326.421 69.3819 326.208C69.9046 325.984 70.4752 325.872 71.0939 325.872C72.2032 325.872 73.0619 326.165 73.6699 326.752C74.2779 327.328 74.5819 328.117 74.5819 329.12V334H73.1099L72.9659 332.64C72.7419 333.077 72.4166 333.445 71.9899 333.744C71.5632 334.043 71.0032 334.192 70.3099 334.192ZM70.6459 332.816C71.1046 332.816 71.4886 332.709 71.7979 332.496C72.1179 332.272 72.3632 331.979 72.5339 331.616C72.7152 331.253 72.8272 330.853 72.8699 330.416H70.9819C70.3099 330.416 69.8299 330.533 69.5419 330.768C69.2646 331.003 69.1259 331.296 69.1259 331.648C69.1259 332.011 69.2592 332.299 69.5259 332.512C69.8032 332.715 70.1766 332.816 70.6459 332.816ZM76.4938 334V322.48H78.1898V334H76.4938ZM83.6 334C82.8213 334 82.2026 333.813 81.744 333.44C81.2853 333.056 81.056 332.379 81.056 331.408V327.488H79.696V326.064H81.056L81.264 324.048H82.752V326.064H84.992V327.488H82.752V331.408C82.752 331.845 82.8426 332.149 83.024 332.32C83.216 332.48 83.5413 332.56 84 332.56H84.912V334H83.6ZM86.6751 334V322.48H88.3711V327.344C88.6378 326.885 89.0058 326.528 89.4751 326.272C89.9551 326.005 90.4831 325.872 91.0591 325.872C92.0084 325.872 92.7551 326.171 93.2991 326.768C93.8431 327.365 94.1151 328.256 94.1151 329.44V334H92.4351V329.616C92.4351 328.08 91.8218 327.312 90.5951 327.312C89.9551 327.312 89.4218 327.536 88.9951 327.984C88.5791 328.432 88.3711 329.072 88.3711 329.904V334H86.6751ZM103.773 334.192C102.994 334.192 102.295 334.016 101.677 333.664C101.069 333.312 100.589 332.827 100.237 332.208C99.8953 331.579 99.7247 330.853 99.7247 330.032C99.7247 329.211 99.8953 328.491 100.237 327.872C100.589 327.243 101.069 326.752 101.677 326.4C102.295 326.048 102.994 325.872 103.773 325.872C104.754 325.872 105.575 326.128 106.237 326.64C106.909 327.152 107.341 327.845 107.533 328.72H105.757C105.65 328.283 105.415 327.941 105.053 327.696C104.69 327.451 104.263 327.328 103.773 327.328C103.357 327.328 102.973 327.435 102.621 327.648C102.269 327.851 101.986 328.155 101.773 328.56C101.559 328.955 101.453 329.445 101.453 330.032C101.453 330.619 101.559 331.115 101.773 331.52C101.986 331.915 102.269 332.219 102.621 332.432C102.973 332.645 103.357 332.752 103.773 332.752C104.263 332.752 104.69 332.629 105.053 332.384C105.415 332.139 105.65 331.792 105.757 331.344H107.533C107.351 332.197 106.925 332.885 106.253 333.408C105.581 333.931 104.754 334.192 103.773 334.192ZM109.306 334V322.48H111.002V327.344C111.269 326.885 111.637 326.528 112.106 326.272C112.586 326.005 113.114 325.872 113.69 325.872C114.64 325.872 115.386 326.171 115.93 326.768C116.474 327.365 116.746 328.256 116.746 329.44V334H115.066V329.616C115.066 328.08 114.453 327.312 113.226 327.312C112.586 327.312 112.053 327.536 111.626 327.984C111.21 328.432 111.002 329.072 111.002 329.904V334H109.306ZM122.39 334.192C121.612 334.192 120.918 334.021 120.31 333.68C119.713 333.328 119.244 332.843 118.902 332.224C118.561 331.605 118.39 330.885 118.39 330.064C118.39 329.232 118.556 328.501 118.886 327.872C119.228 327.243 119.697 326.752 120.294 326.4C120.902 326.048 121.606 325.872 122.406 325.872C123.185 325.872 123.862 326.048 124.438 326.4C125.014 326.741 125.462 327.2 125.782 327.776C126.102 328.352 126.262 328.987 126.262 329.68C126.262 329.787 126.257 329.904 126.246 330.032C126.246 330.149 126.241 330.283 126.23 330.432H120.054C120.108 331.2 120.358 331.787 120.806 332.192C121.265 332.587 121.793 332.784 122.39 332.784C122.87 332.784 123.27 332.677 123.59 332.464C123.921 332.24 124.166 331.941 124.326 331.568H126.022C125.809 332.315 125.382 332.939 124.742 333.44C124.113 333.941 123.329 334.192 122.39 334.192ZM122.39 327.264C121.825 327.264 121.324 327.435 120.886 327.776C120.449 328.107 120.182 328.608 120.086 329.28H124.566C124.534 328.661 124.316 328.171 123.91 327.808C123.505 327.445 122.998 327.264 122.39 327.264ZM131.716 334.192C130.938 334.192 130.239 334.016 129.62 333.664C129.012 333.312 128.532 332.827 128.18 332.208C127.839 331.579 127.668 330.853 127.668 330.032C127.668 329.211 127.839 328.491 128.18 327.872C128.532 327.243 129.012 326.752 129.62 326.4C130.239 326.048 130.938 325.872 131.716 325.872C132.698 325.872 133.519 326.128 134.18 326.64C134.852 327.152 135.284 327.845 135.476 328.72H133.7C133.594 328.283 133.359 327.941 132.996 327.696C132.634 327.451 132.207 327.328 131.716 327.328C131.3 327.328 130.916 327.435 130.564 327.648C130.212 327.851 129.93 328.155 129.716 328.56C129.503 328.955 129.396 329.445 129.396 330.032C129.396 330.619 129.503 331.115 129.716 331.52C129.93 331.915 130.212 332.219 130.564 332.432C130.916 332.645 131.3 332.752 131.716 332.752C132.207 332.752 132.634 332.629 132.996 332.384C133.359 332.139 133.594 331.792 133.7 331.344H135.476C135.295 332.197 134.868 332.885 134.196 333.408C133.524 333.931 132.698 334.192 131.716 334.192ZM137.25 334V322.48H138.946V329.344L141.986 326.064H144.018L140.642 329.664L144.514 334H142.37L138.946 329.936V334H137.25Z" fill="#576B74"/>
<rect x="16.75" y="356.75" width="20.5" height="20.5" rx="1.25" stroke="#808C91" stroke-width="1.5"/>
<path d="M50.8412 372.192C50.0199 372.192 49.2999 372.048 48.6812 371.76C48.0626 371.472 47.5772 371.061 47.2252 370.528C46.8839 369.995 46.7079 369.36 46.6972 368.624H48.4892C48.4999 369.221 48.7079 369.728 49.1132 370.144C49.5186 370.56 50.0892 370.768 50.8252 370.768C51.4759 370.768 51.9826 370.613 52.3452 370.304C52.7186 369.984 52.9052 369.579 52.9052 369.088C52.9052 368.693 52.8146 368.373 52.6332 368.128C52.4626 367.883 52.2226 367.68 51.9132 367.52C51.6146 367.36 51.2679 367.216 50.8732 367.088C50.4786 366.96 50.0626 366.821 49.6252 366.672C48.7612 366.384 48.1106 366.011 47.6732 365.552C47.2466 365.093 47.0332 364.491 47.0332 363.744C47.0226 363.115 47.1666 362.565 47.4652 362.096C47.7746 361.627 48.2012 361.264 48.7452 361.008C49.2999 360.741 49.9452 360.608 50.6812 360.608C51.4066 360.608 52.0412 360.741 52.5852 361.008C53.1399 361.275 53.5719 361.648 53.8812 362.128C54.1906 362.597 54.3506 363.147 54.3612 363.776H52.5692C52.5692 363.488 52.4946 363.216 52.3452 362.96C52.1959 362.693 51.9772 362.475 51.6892 362.304C51.4012 362.133 51.0492 362.048 50.6332 362.048C50.0999 362.037 49.6572 362.171 49.3052 362.448C48.9639 362.725 48.7932 363.109 48.7932 363.6C48.7932 364.037 48.9212 364.373 49.1772 364.608C49.4332 364.843 49.7852 365.04 50.2332 365.2C50.6812 365.349 51.1932 365.525 51.7692 365.728C52.3239 365.909 52.8199 366.128 53.2572 366.384C53.6946 366.64 54.0412 366.976 54.2972 367.392C54.5639 367.808 54.6972 368.336 54.6972 368.976C54.6972 369.541 54.5532 370.069 54.2652 370.56C53.9772 371.04 53.5452 371.435 52.9692 371.744C52.3932 372.043 51.6839 372.192 50.8412 372.192ZM56.4219 375.52V364.064H57.9419L58.1179 365.296C58.3739 364.923 58.7259 364.592 59.1739 364.304C59.6219 364.016 60.1979 363.872 60.9019 363.872C61.6699 363.872 62.3472 364.053 62.9339 364.416C63.5206 364.779 63.9792 365.275 64.3099 365.904C64.6512 366.533 64.8219 367.248 64.8219 368.048C64.8219 368.848 64.6512 369.563 64.3099 370.192C63.9792 370.811 63.5206 371.301 62.9339 371.664C62.3472 372.016 61.6646 372.192 60.8859 372.192C60.2672 372.192 59.7179 372.069 59.2379 371.824C58.7686 371.579 58.3952 371.232 58.1179 370.784V375.52H56.4219ZM60.5979 370.72C61.3232 370.72 61.9206 370.475 62.3899 369.984C62.8592 369.483 63.0939 368.832 63.0939 368.032C63.0939 367.509 62.9872 367.045 62.7739 366.64C62.5606 366.235 62.2672 365.92 61.8939 365.696C61.5206 365.461 61.0886 365.344 60.5979 365.344C59.8726 365.344 59.2752 365.595 58.8059 366.096C58.3472 366.597 58.1179 367.243 58.1179 368.032C58.1179 368.832 58.3472 369.483 58.8059 369.984C59.2752 370.475 59.8726 370.72 60.5979 370.72ZM70.3027 372.192C69.524 372.192 68.8307 372.021 68.2227 371.68C67.6253 371.328 67.156 370.843 66.8147 370.224C66.4733 369.605 66.3027 368.885 66.3027 368.064C66.3027 367.232 66.468 366.501 66.7987 365.872C67.14 365.243 67.6093 364.752 68.2067 364.4C68.8147 364.048 69.5187 363.872 70.3187 363.872C71.0973 363.872 71.7747 364.048 72.3507 364.4C72.9267 364.741 73.3747 365.2 73.6947 365.776C74.0147 366.352 74.1747 366.987 74.1747 367.68C74.1747 367.787 74.1693 367.904 74.1587 368.032C74.1587 368.149 74.1533 368.283 74.1427 368.432H67.9667C68.02 369.2 68.2707 369.787 68.7187 370.192C69.1773 370.587 69.7053 370.784 70.3027 370.784C70.7827 370.784 71.1827 370.677 71.5027 370.464C71.8333 370.24 72.0787 369.941 72.2387 369.568H73.9347C73.7213 370.315 73.2947 370.939 72.6547 371.44C72.0253 371.941 71.2413 372.192 70.3027 372.192ZM70.3027 365.264C69.7373 365.264 69.236 365.435 68.7987 365.776C68.3613 366.107 68.0947 366.608 67.9987 367.28H72.4787C72.4467 366.661 72.228 366.171 71.8227 365.808C71.4173 365.445 70.9107 365.264 70.3027 365.264ZM79.6288 372.192C78.8501 372.192 78.1515 372.016 77.5328 371.664C76.9248 371.312 76.4448 370.827 76.0928 370.208C75.7515 369.579 75.5808 368.853 75.5808 368.032C75.5808 367.211 75.7515 366.491 76.0928 365.872C76.4448 365.243 76.9248 364.752 77.5328 364.4C78.1515 364.048 78.8501 363.872 79.6288 363.872C80.6101 363.872 81.4315 364.128 82.0928 364.64C82.7648 365.152 83.1968 365.845 83.3888 366.72H81.6128C81.5061 366.283 81.2715 365.941 80.9088 365.696C80.5461 365.451 80.1195 365.328 79.6288 365.328C79.2128 365.328 78.8288 365.435 78.4768 365.648C78.1248 365.851 77.8421 366.155 77.6288 366.56C77.4155 366.955 77.3088 367.445 77.3088 368.032C77.3088 368.619 77.4155 369.115 77.6288 369.52C77.8421 369.915 78.1248 370.219 78.4768 370.432C78.8288 370.645 79.2128 370.752 79.6288 370.752C80.1195 370.752 80.5461 370.629 80.9088 370.384C81.2715 370.139 81.5061 369.792 81.6128 369.344H83.3888C83.2075 370.197 82.7808 370.885 82.1088 371.408C81.4368 371.931 80.6101 372.192 79.6288 372.192ZM86.1226 362.56C85.8026 362.56 85.5359 362.464 85.3226 362.272C85.1199 362.069 85.0186 361.819 85.0186 361.52C85.0186 361.221 85.1199 360.976 85.3226 360.784C85.5359 360.581 85.8026 360.48 86.1226 360.48C86.4426 360.48 86.7039 360.581 86.9066 360.784C87.1199 360.976 87.2266 361.221 87.2266 361.52C87.2266 361.819 87.1199 362.069 86.9066 362.272C86.7039 362.464 86.4426 362.56 86.1226 362.56ZM85.2746 372V364.064H86.9706V372H85.2746ZM91.8319 372.192C91.1599 372.192 90.6052 372.08 90.1679 371.856C89.7305 371.632 89.4052 371.339 89.1919 370.976C88.9785 370.603 88.8719 370.197 88.8719 369.76C88.8719 368.992 89.1705 368.384 89.7679 367.936C90.3652 367.488 91.2185 367.264 92.3279 367.264H94.4079V367.12C94.4079 366.501 94.2372 366.037 93.8959 365.728C93.5652 365.419 93.1332 365.264 92.5999 365.264C92.1305 365.264 91.7199 365.381 91.3679 365.616C91.0265 365.84 90.8185 366.176 90.7439 366.624H89.0479C89.1012 366.048 89.2932 365.557 89.6239 365.152C89.9652 364.736 90.3919 364.421 90.9039 364.208C91.4265 363.984 91.9972 363.872 92.6159 363.872C93.7252 363.872 94.5839 364.165 95.1919 364.752C95.7999 365.328 96.1039 366.117 96.1039 367.12V372H94.6319L94.4879 370.64C94.2639 371.077 93.9385 371.445 93.5119 371.744C93.0852 372.043 92.5252 372.192 91.8319 372.192ZM92.1679 370.816C92.6265 370.816 93.0105 370.709 93.3199 370.496C93.6399 370.272 93.8852 369.979 94.0559 369.616C94.2372 369.253 94.3492 368.853 94.3919 368.416H92.5039C91.8319 368.416 91.3519 368.533 91.0639 368.768C90.7865 369.003 90.6479 369.296 90.6479 369.648C90.6479 370.011 90.7812 370.299 91.0479 370.512C91.3252 370.715 91.6985 370.816 92.1679 370.816ZM98.0158 372V360.48H99.7118V372H98.0158ZM109.52 372.192C108.741 372.192 108.042 372.016 107.424 371.664C106.816 371.312 106.336 370.827 105.984 370.208C105.642 369.579 105.472 368.853 105.472 368.032C105.472 367.211 105.642 366.491 105.984 365.872C106.336 365.243 106.816 364.752 107.424 364.4C108.042 364.048 108.741 363.872 109.52 363.872C110.501 363.872 111.322 364.128 111.984 364.64C112.656 365.152 113.088 365.845 113.28 366.72H111.504C111.397 366.283 111.162 365.941 110.8 365.696C110.437 365.451 110.01 365.328 109.52 365.328C109.104 365.328 108.72 365.435 108.368 365.648C108.016 365.851 107.733 366.155 107.52 366.56C107.306 366.955 107.2 367.445 107.2 368.032C107.2 368.619 107.306 369.115 107.52 369.52C107.733 369.915 108.016 370.219 108.368 370.432C108.72 370.645 109.104 370.752 109.52 370.752C110.01 370.752 110.437 370.629 110.8 370.384C111.162 370.139 111.397 369.792 111.504 369.344H113.28C113.098 370.197 112.672 370.885 112 371.408C111.328 371.931 110.501 372.192 109.52 372.192ZM117.741 372.192C117.069 372.192 116.515 372.08 116.077 371.856C115.64 371.632 115.315 371.339 115.101 370.976C114.888 370.603 114.781 370.197 114.781 369.76C114.781 368.992 115.08 368.384 115.677 367.936C116.275 367.488 117.128 367.264 118.237 367.264H120.317V367.12C120.317 366.501 120.147 366.037 119.805 365.728C119.475 365.419 119.043 365.264 118.509 365.264C118.04 365.264 117.629 365.381 117.277 365.616C116.936 365.84 116.728 366.176 116.653 366.624H114.957C115.011 366.048 115.203 365.557 115.533 365.152C115.875 364.736 116.301 364.421 116.813 364.208C117.336 363.984 117.907 363.872 118.525 363.872C119.635 363.872 120.493 364.165 121.101 364.752C121.709 365.328 122.013 366.117 122.013 367.12V372H120.541L120.397 370.64C120.173 371.077 119.848 371.445 119.421 371.744C118.995 372.043 118.435 372.192 117.741 372.192ZM118.077 370.816C118.536 370.816 118.92 370.709 119.229 370.496C119.549 370.272 119.795 369.979 119.965 369.616C120.147 369.253 120.259 368.853 120.301 368.416H118.413C117.741 368.416 117.261 368.533 116.973 368.768C116.696 369.003 116.557 369.296 116.557 369.648C116.557 370.011 116.691 370.299 116.957 370.512C117.235 370.715 117.608 370.816 118.077 370.816ZM123.925 372V364.064H125.445L125.589 365.568C125.867 365.045 126.251 364.635 126.741 364.336C127.243 364.027 127.845 363.872 128.549 363.872V365.648H128.085C127.616 365.648 127.195 365.728 126.821 365.888C126.459 366.037 126.165 366.299 125.941 366.672C125.728 367.035 125.621 367.541 125.621 368.192V372H123.925ZM133.431 372.192C132.652 372.192 131.959 372.021 131.351 371.68C130.754 371.328 130.284 370.843 129.943 370.224C129.602 369.605 129.431 368.885 129.431 368.064C129.431 367.232 129.596 366.501 129.927 365.872C130.268 365.243 130.738 364.752 131.335 364.4C131.943 364.048 132.647 363.872 133.447 363.872C134.226 363.872 134.903 364.048 135.479 364.4C136.055 364.741 136.503 365.2 136.823 365.776C137.143 366.352 137.303 366.987 137.303 367.68C137.303 367.787 137.298 367.904 137.287 368.032C137.287 368.149 137.282 368.283 137.271 368.432H131.095C131.148 369.2 131.399 369.787 131.847 370.192C132.306 370.587 132.834 370.784 133.431 370.784C133.911 370.784 134.311 370.677 134.631 370.464C134.962 370.24 135.207 369.941 135.367 369.568H137.063C136.85 370.315 136.423 370.939 135.783 371.44C135.154 371.941 134.37 372.192 133.431 372.192ZM133.431 365.264C132.866 365.264 132.364 365.435 131.927 365.776C131.49 366.107 131.223 366.608 131.127 367.28H135.607C135.575 366.661 135.356 366.171 134.951 365.808C134.546 365.445 134.039 365.264 133.431 365.264Z" fill="#576B74"/>
<rect x="195.75" y="318.75" width="20.5" height="20.5" rx="1.25" stroke="#808C91" stroke-width="1.5"/>
<path d="M231.255 334.192C230.199 334.192 229.276 333.952 228.487 333.472C227.697 332.992 227.084 332.32 226.647 331.456C226.209 330.592 225.991 329.584 225.991 328.432C225.991 327.291 226.215 326.283 226.663 325.408C227.111 324.533 227.745 323.851 228.567 323.36C229.399 322.859 230.38 322.608 231.511 322.608C232.791 322.608 233.857 322.917 234.711 323.536C235.564 324.155 236.119 325.008 236.375 326.096H234.455C234.284 325.499 233.948 325.029 233.447 324.688C232.945 324.347 232.3 324.176 231.511 324.176C230.337 324.176 229.415 324.555 228.743 325.312C228.071 326.069 227.735 327.115 227.735 328.448C227.735 329.781 228.065 330.821 228.727 331.568C229.388 332.315 230.268 332.688 231.367 332.688C232.476 332.688 233.308 332.373 233.863 331.744C234.428 331.115 234.759 330.277 234.855 329.232H231.815V327.92H236.567V334H235.015L234.871 332.352C234.497 332.939 234.028 333.392 233.463 333.712C232.897 334.032 232.161 334.192 231.255 334.192ZM238.495 334V326.064H240.015L240.159 327.568C240.437 327.045 240.821 326.635 241.311 326.336C241.813 326.027 242.415 325.872 243.119 325.872V327.648H242.655C242.186 327.648 241.765 327.728 241.391 327.888C241.029 328.037 240.735 328.299 240.511 328.672C240.298 329.035 240.191 329.541 240.191 330.192V334H238.495ZM248.001 334.192C247.244 334.192 246.561 334.021 245.953 333.68C245.356 333.328 244.881 332.843 244.529 332.224C244.177 331.595 244.001 330.864 244.001 330.032C244.001 329.2 244.177 328.475 244.529 327.856C244.892 327.227 245.377 326.741 245.985 326.4C246.593 326.048 247.27 325.872 248.017 325.872C248.774 325.872 249.452 326.048 250.049 326.4C250.657 326.741 251.137 327.227 251.489 327.856C251.852 328.475 252.033 329.2 252.033 330.032C252.033 330.864 251.852 331.595 251.489 332.224C251.137 332.843 250.657 333.328 250.049 333.68C249.441 334.021 248.758 334.192 248.001 334.192ZM248.001 332.736C248.406 332.736 248.78 332.635 249.121 332.432C249.473 332.229 249.756 331.931 249.969 331.536C250.182 331.131 250.289 330.629 250.289 330.032C250.289 329.435 250.182 328.939 249.969 328.544C249.766 328.139 249.489 327.835 249.137 327.632C248.796 327.429 248.422 327.328 248.017 327.328C247.612 327.328 247.233 327.429 246.881 327.632C246.54 327.835 246.262 328.139 246.049 328.544C245.836 328.939 245.729 329.435 245.729 330.032C245.729 330.629 245.836 331.131 246.049 331.536C246.262 331.931 246.54 332.229 246.881 332.432C247.222 332.635 247.596 332.736 248.001 332.736ZM257.514 334.192C256.756 334.192 256.074 334.021 255.466 333.68C254.868 333.328 254.394 332.843 254.042 332.224C253.69 331.595 253.514 330.864 253.514 330.032C253.514 329.2 253.69 328.475 254.042 327.856C254.404 327.227 254.89 326.741 255.498 326.4C256.106 326.048 256.783 325.872 257.53 325.872C258.287 325.872 258.964 326.048 259.562 326.4C260.17 326.741 260.65 327.227 261.002 327.856C261.364 328.475 261.546 329.2 261.546 330.032C261.546 330.864 261.364 331.595 261.002 332.224C260.65 332.843 260.17 333.328 259.562 333.68C258.954 334.021 258.271 334.192 257.514 334.192ZM257.514 332.736C257.919 332.736 258.292 332.635 258.634 332.432C258.986 332.229 259.268 331.931 259.482 331.536C259.695 331.131 259.802 330.629 259.802 330.032C259.802 329.435 259.695 328.939 259.482 328.544C259.279 328.139 259.002 327.835 258.65 327.632C258.308 327.429 257.935 327.328 257.53 327.328C257.124 327.328 256.746 327.429 256.394 327.632C256.052 327.835 255.775 328.139 255.562 328.544C255.348 328.939 255.242 329.435 255.242 330.032C255.242 330.629 255.348 331.131 255.562 331.536C255.775 331.931 256.052 332.229 256.394 332.432C256.735 332.635 257.108 332.736 257.514 332.736ZM263.314 334V326.064H264.818L264.962 327.184C265.218 326.779 265.554 326.459 265.97 326.224C266.397 325.989 266.888 325.872 267.442 325.872C268.701 325.872 269.576 326.368 270.066 327.36C270.354 326.901 270.738 326.539 271.218 326.272C271.709 326.005 272.237 325.872 272.802 325.872C273.794 325.872 274.573 326.171 275.138 326.768C275.704 327.365 275.986 328.256 275.986 329.44V334H274.29V329.616C274.29 328.08 273.704 327.312 272.53 327.312C271.933 327.312 271.442 327.536 271.058 327.984C270.685 328.432 270.498 329.072 270.498 329.904V334H268.802V329.616C268.802 328.08 268.21 327.312 267.026 327.312C266.44 327.312 265.954 327.536 265.57 327.984C265.197 328.432 265.01 329.072 265.01 329.904V334H263.314ZM277.905 334V326.064H279.409L279.553 327.184C279.809 326.779 280.145 326.459 280.561 326.224C280.988 325.989 281.478 325.872 282.033 325.872C283.292 325.872 284.166 326.368 284.657 327.36C284.945 326.901 285.329 326.539 285.809 326.272C286.3 326.005 286.828 325.872 287.393 325.872C288.385 325.872 289.164 326.171 289.729 326.768C290.294 327.365 290.577 328.256 290.577 329.44V334H288.881V329.616C288.881 328.08 288.294 327.312 287.121 327.312C286.524 327.312 286.033 327.536 285.649 327.984C285.276 328.432 285.089 329.072 285.089 329.904V334H283.393V329.616C283.393 328.08 282.801 327.312 281.617 327.312C281.03 327.312 280.545 327.536 280.161 327.984C279.788 328.432 279.601 329.072 279.601 329.904V334H277.905ZM293.455 324.56C293.135 324.56 292.869 324.464 292.655 324.272C292.453 324.069 292.351 323.819 292.351 323.52C292.351 323.221 292.453 322.976 292.655 322.784C292.869 322.581 293.135 322.48 293.455 322.48C293.775 322.48 294.037 322.581 294.239 322.784C294.453 322.976 294.559 323.221 294.559 323.52C294.559 323.819 294.453 324.069 294.239 324.272C294.037 324.464 293.775 324.56 293.455 324.56ZM292.607 334V326.064H294.303V334H292.607ZM296.477 334V326.064H297.981L298.109 327.456C298.354 326.965 298.711 326.581 299.181 326.304C299.661 326.016 300.21 325.872 300.829 325.872C301.789 325.872 302.541 326.171 303.085 326.768C303.639 327.365 303.917 328.256 303.917 329.44V334H302.237V329.616C302.237 328.08 301.607 327.312 300.349 327.312C299.719 327.312 299.197 327.536 298.781 327.984C298.375 328.432 298.173 329.072 298.173 329.904V334H296.477ZM309.097 331.568C308.681 331.568 308.297 331.52 307.945 331.424L307.257 332.096C307.374 332.171 307.518 332.235 307.689 332.288C307.859 332.341 308.099 332.389 308.409 332.432C308.718 332.475 309.139 332.517 309.673 332.56C310.729 332.656 311.491 332.912 311.961 333.328C312.43 333.733 312.665 334.277 312.665 334.96C312.665 335.429 312.537 335.872 312.281 336.288C312.035 336.715 311.646 337.056 311.113 337.312C310.59 337.579 309.918 337.712 309.097 337.712C307.987 337.712 307.086 337.499 306.393 337.072C305.71 336.656 305.369 336.021 305.369 335.168C305.369 334.837 305.454 334.507 305.625 334.176C305.806 333.856 306.089 333.552 306.473 333.264C306.249 333.168 306.051 333.067 305.881 332.96C305.721 332.843 305.577 332.725 305.449 332.608V332.224L306.825 330.816C306.206 330.283 305.897 329.584 305.897 328.72C305.897 328.197 306.019 327.723 306.265 327.296C306.521 326.859 306.889 326.512 307.369 326.256C307.849 326 308.425 325.872 309.097 325.872C309.545 325.872 309.961 325.936 310.345 326.064H313.305V327.184L311.897 327.264C312.153 327.701 312.281 328.187 312.281 328.72C312.281 329.253 312.153 329.733 311.897 330.16C311.651 330.587 311.289 330.928 310.809 331.184C310.339 331.44 309.769 331.568 309.097 331.568ZM309.097 330.24C309.587 330.24 309.982 330.112 310.281 329.856C310.59 329.589 310.745 329.216 310.745 328.736C310.745 328.245 310.59 327.872 310.281 327.616C309.982 327.36 309.587 327.232 309.097 327.232C308.595 327.232 308.19 327.36 307.881 327.616C307.582 327.872 307.433 328.245 307.433 328.736C307.433 329.216 307.582 329.589 307.881 329.856C308.19 330.112 308.595 330.24 309.097 330.24ZM306.969 335.008C306.969 335.467 307.171 335.808 307.577 336.032C307.982 336.267 308.489 336.384 309.097 336.384C309.683 336.384 310.158 336.256 310.521 336C310.883 335.755 311.065 335.424 311.065 335.008C311.065 334.699 310.942 334.432 310.697 334.208C310.451 333.995 309.987 333.861 309.305 333.808C308.793 333.776 308.339 333.728 307.945 333.664C307.571 333.867 307.315 334.085 307.177 334.32C307.038 334.555 306.969 334.784 306.969 335.008Z" fill="#576B74"/>
<rect x="195.75" y="356.75" width="20.5" height="20.5" rx="1.25" stroke="#808C91" stroke-width="1.5"/>
<path d="M228.833 372V362.176H225.521V360.8H233.825V362.176H230.529V372H228.833ZM234.439 372V364.064H235.959L236.103 365.568C236.38 365.045 236.764 364.635 237.255 364.336C237.756 364.027 238.359 363.872 239.063 363.872V365.648H238.599C238.13 365.648 237.708 365.728 237.335 365.888C236.972 366.037 236.679 366.299 236.455 366.672C236.242 367.035 236.135 367.541 236.135 368.192V372H234.439ZM243.14 372.192C242.468 372.192 241.913 372.08 241.476 371.856C241.038 371.632 240.713 371.339 240.5 370.976C240.286 370.603 240.18 370.197 240.18 369.76C240.18 368.992 240.478 368.384 241.076 367.936C241.673 367.488 242.526 367.264 243.636 367.264H245.716V367.12C245.716 366.501 245.545 366.037 245.204 365.728C244.873 365.419 244.441 365.264 243.908 365.264C243.438 365.264 243.028 365.381 242.676 365.616C242.334 365.84 242.126 366.176 242.052 366.624H240.356C240.409 366.048 240.601 365.557 240.932 365.152C241.273 364.736 241.7 364.421 242.212 364.208C242.734 363.984 243.305 363.872 243.924 363.872C245.033 363.872 245.892 364.165 246.5 364.752C247.108 365.328 247.412 366.117 247.412 367.12V372H245.94L245.796 370.64C245.572 371.077 245.246 371.445 244.82 371.744C244.393 372.043 243.833 372.192 243.14 372.192ZM243.476 370.816C243.934 370.816 244.318 370.709 244.628 370.496C244.948 370.272 245.193 369.979 245.364 369.616C245.545 369.253 245.657 368.853 245.7 368.416H243.812C243.14 368.416 242.66 368.533 242.372 368.768C242.094 369.003 241.956 369.296 241.956 369.648C241.956 370.011 242.089 370.299 242.356 370.512C242.633 370.715 243.006 370.816 243.476 370.816ZM250.284 362.56C249.964 362.56 249.697 362.464 249.484 362.272C249.281 362.069 249.18 361.819 249.18 361.52C249.18 361.221 249.281 360.976 249.484 360.784C249.697 360.581 249.964 360.48 250.284 360.48C250.604 360.48 250.865 360.581 251.068 360.784C251.281 360.976 251.388 361.221 251.388 361.52C251.388 361.819 251.281 362.069 251.068 362.272C250.865 362.464 250.604 362.56 250.284 362.56ZM249.436 372V364.064H251.132V372H249.436ZM253.305 372V364.064H254.809L254.937 365.456C255.182 364.965 255.539 364.581 256.009 364.304C256.489 364.016 257.038 363.872 257.657 363.872C258.617 363.872 259.369 364.171 259.913 364.768C260.467 365.365 260.745 366.256 260.745 367.44V372H259.065V367.616C259.065 366.08 258.435 365.312 257.177 365.312C256.547 365.312 256.025 365.536 255.609 365.984C255.203 366.432 255.001 367.072 255.001 367.904V372H253.305ZM263.637 362.56C263.317 362.56 263.05 362.464 262.837 362.272C262.634 362.069 262.533 361.819 262.533 361.52C262.533 361.221 262.634 360.976 262.837 360.784C263.05 360.581 263.317 360.48 263.637 360.48C263.957 360.48 264.218 360.581 264.421 360.784C264.634 360.976 264.741 361.221 264.741 361.52C264.741 361.819 264.634 362.069 264.421 362.272C264.218 362.464 263.957 362.56 263.637 362.56ZM262.789 372V364.064H264.485V372H262.789ZM266.658 372V364.064H268.162L268.29 365.456C268.535 364.965 268.893 364.581 269.362 364.304C269.842 364.016 270.391 363.872 271.01 363.872C271.97 363.872 272.722 364.171 273.266 364.768C273.821 365.365 274.098 366.256 274.098 367.44V372H272.418V367.616C272.418 366.08 271.789 365.312 270.53 365.312C269.901 365.312 269.378 365.536 268.962 365.984C268.557 366.432 268.354 367.072 268.354 367.904V372H266.658ZM279.278 369.568C278.862 369.568 278.478 369.52 278.126 369.424L277.438 370.096C277.555 370.171 277.699 370.235 277.87 370.288C278.041 370.341 278.281 370.389 278.59 370.432C278.899 370.475 279.321 370.517 279.854 370.56C280.91 370.656 281.673 370.912 282.142 371.328C282.611 371.733 282.846 372.277 282.846 372.96C282.846 373.429 282.718 373.872 282.462 374.288C282.217 374.715 281.827 375.056 281.294 375.312C280.771 375.579 280.099 375.712 279.278 375.712C278.169 375.712 277.267 375.499 276.574 375.072C275.891 374.656 275.55 374.021 275.55 373.168C275.55 372.837 275.635 372.507 275.806 372.176C275.987 371.856 276.27 371.552 276.654 371.264C276.43 371.168 276.233 371.067 276.062 370.96C275.902 370.843 275.758 370.725 275.63 370.608V370.224L277.006 368.816C276.387 368.283 276.078 367.584 276.078 366.72C276.078 366.197 276.201 365.723 276.446 365.296C276.702 364.859 277.07 364.512 277.55 364.256C278.03 364 278.606 363.872 279.278 363.872C279.726 363.872 280.142 363.936 280.526 364.064H283.486V365.184L282.078 365.264C282.334 365.701 282.462 366.187 282.462 366.72C282.462 367.253 282.334 367.733 282.078 368.16C281.833 368.587 281.47 368.928 280.99 369.184C280.521 369.44 279.95 369.568 279.278 369.568ZM279.278 368.24C279.769 368.24 280.163 368.112 280.462 367.856C280.771 367.589 280.926 367.216 280.926 366.736C280.926 366.245 280.771 365.872 280.462 365.616C280.163 365.36 279.769 365.232 279.278 365.232C278.777 365.232 278.371 365.36 278.062 365.616C277.763 365.872 277.614 366.245 277.614 366.736C277.614 367.216 277.763 367.589 278.062 367.856C278.371 368.112 278.777 368.24 279.278 368.24ZM277.15 373.008C277.15 373.467 277.353 373.808 277.758 374.032C278.163 374.267 278.67 374.384 279.278 374.384C279.865 374.384 280.339 374.256 280.702 374C281.065 373.755 281.246 373.424 281.246 373.008C281.246 372.699 281.123 372.432 280.878 372.208C280.633 371.995 280.169 371.861 279.486 371.808C278.974 371.776 278.521 371.728 278.126 371.664C277.753 371.867 277.497 372.085 277.358 372.32C277.219 372.555 277.15 372.784 277.15 373.008Z" fill="#576B74"/>
<rect x="16.5" y="475.5" width="164.5" height="39" rx="7.5" fill="#F3F4F5"/>
<path d="M80.5997 500.168C79.6103 500.168 78.761 499.958 78.0517 499.538C77.3423 499.109 76.7963 498.516 76.4137 497.76C76.031 496.995 75.8397 496.113 75.8397 495.114C75.8397 494.115 76.031 493.233 76.4137 492.468C76.7963 491.703 77.3423 491.105 78.0517 490.676C78.761 490.247 79.6103 490.032 80.5997 490.032C81.7757 490.032 82.737 490.326 83.4837 490.914C84.2397 491.493 84.711 492.309 84.8977 493.364H82.9237C82.8023 492.832 82.541 492.417 82.1397 492.118C81.7477 491.81 81.225 491.656 80.5717 491.656C79.6663 491.656 78.957 491.964 78.4437 492.58C77.9303 493.196 77.6737 494.041 77.6737 495.114C77.6737 496.187 77.9303 497.032 78.4437 497.648C78.957 498.255 79.6663 498.558 80.5717 498.558C81.225 498.558 81.7477 498.418 82.1397 498.138C82.541 497.849 82.8023 497.452 82.9237 496.948H84.8977C84.711 497.956 84.2397 498.745 83.4837 499.314C82.737 499.883 81.7757 500.168 80.5997 500.168ZM88.7911 500.168C88.1938 500.168 87.7038 500.075 87.3211 499.888C86.9385 499.692 86.6538 499.435 86.4671 499.118C86.2805 498.801 86.1871 498.451 86.1871 498.068C86.1871 497.424 86.4391 496.901 86.9431 496.5C87.4471 496.099 88.2031 495.898 89.2111 495.898H90.9751V495.73C90.9751 495.254 90.8398 494.904 90.5691 494.68C90.2985 494.456 89.9625 494.344 89.5611 494.344C89.1971 494.344 88.8798 494.433 88.6091 494.61C88.3385 494.778 88.1705 495.03 88.1051 495.366H86.3551C86.4018 494.862 86.5698 494.423 86.8591 494.05C87.1578 493.677 87.5405 493.392 88.0071 493.196C88.4738 492.991 88.9965 492.888 89.5751 492.888C90.5645 492.888 91.3438 493.135 91.9131 493.63C92.4825 494.125 92.7671 494.825 92.7671 495.73V500H91.2411L91.0731 498.88C90.8678 499.253 90.5785 499.561 90.2051 499.804C89.8411 500.047 89.3698 500.168 88.7911 500.168ZM89.1971 498.768C89.7105 498.768 90.1071 498.6 90.3871 498.264C90.6765 497.928 90.8585 497.513 90.9331 497.018H89.4071C88.9311 497.018 88.5905 497.107 88.3851 497.284C88.1798 497.452 88.0771 497.662 88.0771 497.914C88.0771 498.185 88.1798 498.395 88.3851 498.544C88.5905 498.693 88.8611 498.768 89.1971 498.768ZM94.4324 500V493.056H96.0144L96.1544 494.232C96.3691 493.821 96.6771 493.495 97.0784 493.252C97.4891 493.009 97.9697 492.888 98.5204 492.888C99.3791 492.888 100.046 493.159 100.522 493.7C100.998 494.241 101.236 495.035 101.236 496.08V500H99.4444V496.248C99.4444 495.651 99.3231 495.193 99.0804 494.876C98.8377 494.559 98.4597 494.4 97.9464 494.4C97.4424 494.4 97.0271 494.577 96.7004 494.932C96.3831 495.287 96.2244 495.781 96.2244 496.416V500H94.4324ZM106.307 500.168C105.598 500.168 104.973 500.014 104.431 499.706C103.89 499.398 103.461 498.969 103.143 498.418C102.835 497.867 102.681 497.237 102.681 496.528C102.681 495.819 102.835 495.189 103.143 494.638C103.461 494.087 103.89 493.658 104.431 493.35C104.973 493.042 105.598 492.888 106.307 492.888C107.194 492.888 107.941 493.121 108.547 493.588C109.154 494.045 109.541 494.68 109.709 495.492H107.819C107.726 495.156 107.539 494.895 107.259 494.708C106.989 494.512 106.667 494.414 106.293 494.414C105.799 494.414 105.379 494.601 105.033 494.974C104.688 495.347 104.515 495.865 104.515 496.528C104.515 497.191 104.688 497.709 105.033 498.082C105.379 498.455 105.799 498.642 106.293 498.642C106.667 498.642 106.989 498.549 107.259 498.362C107.539 498.175 107.726 497.909 107.819 497.564H109.709C109.541 498.348 109.154 498.978 108.547 499.454C107.941 499.93 107.194 500.168 106.307 500.168ZM114.629 500.168C113.929 500.168 113.308 500.019 112.767 499.72C112.226 499.421 111.801 499.001 111.493 498.46C111.185 497.919 111.031 497.293 111.031 496.584C111.031 495.865 111.18 495.226 111.479 494.666C111.787 494.106 112.207 493.672 112.739 493.364C113.28 493.047 113.915 492.888 114.643 492.888C115.324 492.888 115.926 493.037 116.449 493.336C116.972 493.635 117.378 494.045 117.667 494.568C117.966 495.081 118.115 495.655 118.115 496.29C118.115 496.393 118.11 496.5 118.101 496.612C118.101 496.724 118.096 496.841 118.087 496.962H112.809C112.846 497.503 113.033 497.928 113.369 498.236C113.714 498.544 114.13 498.698 114.615 498.698C114.979 498.698 115.282 498.619 115.525 498.46C115.777 498.292 115.964 498.077 116.085 497.816H117.905C117.774 498.255 117.555 498.656 117.247 499.02C116.948 499.375 116.575 499.655 116.127 499.86C115.688 500.065 115.189 500.168 114.629 500.168ZM114.643 494.344C114.204 494.344 113.817 494.47 113.481 494.722C113.145 494.965 112.93 495.338 112.837 495.842H116.295C116.267 495.385 116.099 495.021 115.791 494.75C115.483 494.479 115.1 494.344 114.643 494.344ZM119.577 500V489.92H121.369V500H119.577Z" fill="#0C212C"/>
<rect x="16.5" y="475.5" width="164.5" height="39" rx="7.5" stroke="#B8C5CA"/>
<rect x="193.5" y="475" width="165.5" height="40" rx="8" fill="#83CBE3"/>
<path d="M256.632 500L260.216 490.2H262.232L265.816 500H263.912L263.128 497.732H259.306L258.508 500H256.632ZM259.796 496.332H262.638L261.21 492.258L259.796 496.332ZM266.992 503.08V493.056H268.588L268.784 494.05C269.008 493.742 269.302 493.471 269.666 493.238C270.039 493.005 270.52 492.888 271.108 492.888C271.761 492.888 272.345 493.047 272.858 493.364C273.371 493.681 273.777 494.115 274.076 494.666C274.375 495.217 274.524 495.842 274.524 496.542C274.524 497.242 274.375 497.867 274.076 498.418C273.777 498.959 273.371 499.389 272.858 499.706C272.345 500.014 271.761 500.168 271.108 500.168C270.585 500.168 270.128 500.07 269.736 499.874C269.344 499.678 269.027 499.403 268.784 499.048V503.08H266.992ZM270.73 498.6C271.299 498.6 271.771 498.409 272.144 498.026C272.517 497.643 272.704 497.149 272.704 496.542C272.704 495.935 272.517 495.436 272.144 495.044C271.771 494.652 271.299 494.456 270.73 494.456C270.151 494.456 269.675 494.652 269.302 495.044C268.938 495.427 268.756 495.921 268.756 496.528C268.756 497.135 268.938 497.634 269.302 498.026C269.675 498.409 270.151 498.6 270.73 498.6ZM276.08 503.08V493.056H277.676L277.872 494.05C278.096 493.742 278.39 493.471 278.754 493.238C279.127 493.005 279.608 492.888 280.196 492.888C280.849 492.888 281.433 493.047 281.946 493.364C282.459 493.681 282.865 494.115 283.164 494.666C283.463 495.217 283.612 495.842 283.612 496.542C283.612 497.242 283.463 497.867 283.164 498.418C282.865 498.959 282.459 499.389 281.946 499.706C281.433 500.014 280.849 500.168 280.196 500.168C279.673 500.168 279.216 500.07 278.824 499.874C278.432 499.678 278.115 499.403 277.872 499.048V503.08H276.08ZM279.818 498.6C280.387 498.6 280.859 498.409 281.232 498.026C281.605 497.643 281.792 497.149 281.792 496.542C281.792 495.935 281.605 495.436 281.232 495.044C280.859 494.652 280.387 494.456 279.818 494.456C279.239 494.456 278.763 494.652 278.39 495.044C278.026 495.427 277.844 495.921 277.844 496.528C277.844 497.135 278.026 497.634 278.39 498.026C278.763 498.409 279.239 498.6 279.818 498.6ZM285.168 500V489.92H286.96V500H285.168ZM289.614 503.08L291.224 499.538H290.804L288.102 493.056H290.048L291.994 497.942L294.024 493.056H295.928L291.518 503.08H289.614Z" fill="#0C212C"/>
<path d="M0 460H375V458H0V460Z" fill="#EAECF0" mask="url(#path-26-inside-1_248_16306)"/>
</svg>
