<svg width="169" height="212" viewBox="0 0 169 212" fill="none" xmlns="http://www.w3.org/2000/svg">
<g clip-path="url(#clip0_158_10431)">
<path fill-rule="evenodd" clip-rule="evenodd" d="M164.715 139.756L166.388 144.392C166.388 144.392 167.657 148.09 161.451 149.125C155.246 150.159 154.053 137.448 154.053 137.448L164.708 139.749L164.715 139.756Z" fill="#433A58"/>
<path fill-rule="evenodd" clip-rule="evenodd" d="M7.63114 138.872C12.2252 138.16 16.5313 141.304 17.2445 145.899C17.8067 149.508 15.9759 152.939 12.9315 154.583C13.3703 155.199 13.6789 155.918 13.8023 156.719C14.2274 159.445 12.3555 162 9.62649 162.417C6.89746 162.842 4.33985 160.972 3.92158 158.247C3.70901 156.884 4.07243 155.562 4.82668 154.535C2.63934 153.316 1.01427 151.138 0.602856 148.474C-0.110258 143.886 3.03704 139.585 7.638 138.872H7.63114Z" fill="white"/>
<path fill-rule="evenodd" clip-rule="evenodd" d="M136.101 104.651C136.101 104.651 139.153 24.5105 114.406 7.01964C114.406 7.01964 107.069 -0.273938 101.035 7.01964C98.7657 -6.94431 34.0438 -2.97907 46.9141 45.7681C55.4715 78.1748 55.7389 122.792 55.7389 122.792C55.7389 122.792 140.277 129.011 136.108 104.651H136.101Z" fill="#433A58"/>
<path fill-rule="evenodd" clip-rule="evenodd" d="M29.8611 147.159C29.8611 147.159 46.8524 104.925 59.8804 97.5627C72.9085 90.2007 62.3009 153.329 62.3009 153.329L29.8611 147.159Z" fill="#5B79A9"/>
<path fill-rule="evenodd" clip-rule="evenodd" d="M100.322 86.1601L109.421 88.1941C109.421 88.1941 137.898 92.1251 145.913 99.9597C136.794 148.132 147.477 184.791 147.868 211.884H43.4925C45.7347 186.469 52.6807 113.629 59.8873 97.5627L88.0827 88.831L100.329 86.1669L100.322 86.1601Z" fill="#75A8BD"/>
<path fill-rule="evenodd" clip-rule="evenodd" d="M98.9851 57.3625C98.9851 57.3625 100.315 74.2164 109.421 88.1941C109.421 88.1941 102.846 108.486 96.1532 108.664C89.461 108.849 87.4313 91.9539 87.4313 91.9539C87.4313 91.9539 87.8907 88.016 82.6315 79.9965C77.3723 71.977 98.9783 57.3625 98.9783 57.3625H98.9851Z" fill="#EAAA7D"/>
<path fill-rule="evenodd" clip-rule="evenodd" d="M98.9851 57.3625C98.9851 57.3625 99.5817 64.8957 102.695 74.0589C100.987 80.6197 96.9486 91.3718 88.165 96.1314C87.6439 93.7345 87.4313 91.9539 87.4313 91.9539C87.4313 91.9539 87.8907 88.016 82.6315 79.9965C77.3723 71.977 98.9783 57.3625 98.9783 57.3625H98.9851Z" fill="#D16E5B" stroke="#D16E5B" stroke-width="0.22" stroke-miterlimit="2.61"/>
<path fill-rule="evenodd" clip-rule="evenodd" d="M55.54 38.4676C55.54 38.4676 54.9846 64.1903 59.8256 72.4906C64.6665 80.7909 81.363 84.1535 87.6713 83.3796C93.9796 82.6058 107.741 70.395 108.386 61.5263C108.386 61.5263 117.869 64.5944 120.961 56.2393C124.054 47.8842 111.602 38.5567 106.768 53.8355C106.768 53.8355 103.648 43.556 103.353 36.824C103.353 36.824 86.1765 45.4051 71.7839 32.756C71.7839 32.756 64.3922 28.421 55.54 38.4608V38.4676Z" fill="#EAAA7D"/>
<path fill-rule="evenodd" clip-rule="evenodd" d="M111.327 56.5886C111.286 56.9241 110.978 57.1638 110.642 57.1228C110.306 57.0817 110.066 56.7735 110.107 56.4379C110.107 56.4174 110.937 49.521 116.546 49.0416C116.888 49.0142 117.183 49.2676 117.211 49.6032C117.238 49.9388 116.984 50.2401 116.648 50.2675C115.352 50.3771 114.365 50.9318 113.611 51.6577C117.368 53.1027 116.004 56.1503 116.004 56.1571C115.874 56.4722 115.51 56.616 115.195 56.479C114.879 56.3489 114.735 55.9859 114.872 55.6709C114.872 55.6709 115.791 53.6301 112.781 52.6644C111.588 54.4519 111.334 56.5749 111.334 56.5817L111.327 56.5886Z" fill="#D16E5B"/>
<path d="M68.9863 49.2197C68.9863 47.7332 67.7799 46.5282 66.2916 46.5282C64.8033 46.5282 63.5968 47.7332 63.5968 49.2197V50.8359C63.5968 52.3223 64.8033 53.5273 66.2916 53.5273C67.7799 53.5273 68.9863 52.3223 68.9863 50.8359V49.2197Z" fill="#433A58"/>
<path d="M91.95 49.2197C91.95 47.7332 90.7435 46.5282 89.2552 46.5282C87.767 46.5282 86.5605 47.7332 86.5605 49.2197V50.8359C86.5605 52.3223 87.767 53.5273 89.2552 53.5273C90.7435 53.5273 91.95 52.3223 91.95 50.8359V49.2197Z" fill="#433A58"/>
<path fill-rule="evenodd" clip-rule="evenodd" d="M75.7815 52.4453C75.7815 52.1029 76.0558 51.8289 76.3986 51.8289C76.7415 51.8289 77.0157 52.1029 77.0157 52.4453V55.7873C77.0157 56.1297 76.7415 56.4037 76.3986 56.4037C76.3163 56.4037 76.2341 56.39 76.1586 56.3557C73.7724 55.4928 72.1954 55.7736 71.3108 56.568C70.5154 57.2803 70.2617 58.424 70.488 59.4992C70.7211 60.5812 71.4411 61.5811 72.5931 61.9988C74.1153 62.5399 76.3918 62.0947 79.3471 59.6087C79.6076 59.3896 79.9916 59.4238 80.211 59.6841C80.4305 59.9443 80.3962 60.3278 80.1356 60.547C76.7758 63.3685 74.0604 63.8342 72.1748 63.1562C70.584 62.5878 69.5898 61.225 69.2743 59.7526C68.9589 58.2733 69.3361 56.6776 70.4812 55.6503C71.5645 54.6847 73.313 54.2396 75.7747 54.9381V52.4453H75.7815Z" fill="#D16E5B"/>
<path fill-rule="evenodd" clip-rule="evenodd" d="M72.5314 70.0731C72.5314 70.0731 86.8622 62.0331 93.1362 64.882C99.3554 67.7036 94.6105 77.579 85.9434 78.6679C77.2763 79.7637 71.3177 73.3261 72.5314 70.0663V70.0731Z" fill="#D16E5B"/>
<path fill-rule="evenodd" clip-rule="evenodd" d="M63.9808 37.0637C66.2093 36.5364 68.3144 37.3787 68.6915 38.9539C69.0686 40.529 67.567 42.2274 65.3385 42.7616C63.11 43.2889 61.005 42.4466 60.6278 40.8714C60.2507 39.2963 61.7524 37.5979 63.9808 37.0637Z" fill="#433A58"/>
<path fill-rule="evenodd" clip-rule="evenodd" d="M88.5833 37.0637C86.3548 36.5364 84.2497 37.3787 83.8726 38.9539C83.4955 40.529 84.9971 42.2274 87.2256 42.7616C89.4541 43.2889 91.5592 42.4466 91.9363 40.8714C92.3134 39.2963 90.8118 37.5979 88.5833 37.0637Z" fill="#433A58"/>
<path fill-rule="evenodd" clip-rule="evenodd" d="M73.8136 69.9978C73.8136 69.9978 85.004 64.2177 89.7969 65.0327C94.5899 65.8477 91.8403 69.8334 85.2988 71.7852C78.7642 73.737 74.9724 71.4086 73.8067 69.9978H73.8136Z" fill="white"/>
<path fill-rule="evenodd" clip-rule="evenodd" d="M71.1805 93.125C71.1805 93.125 70.0217 127.347 68.5064 143.502C68.5064 143.502 52.8384 145.016 50.8157 148.885C49.2454 151.884 45.2547 193.386 43.5405 211.884H149.116C147.737 195.112 144.686 159.993 142.423 149.433L121.764 145.652C117.807 144.926 122.676 89.5227 123.3 89.5227C123.924 89.5227 117.3 88.4132 117.3 88.4132C117.3 88.4132 114.31 121.101 114.194 145.337C114.194 145.337 94.1236 143.488 74.1427 143.803L78.0443 90.9882C78.0443 90.9882 72.4285 92.8442 71.1737 93.125H71.1805Z" fill="#433A58"/>
<path fill-rule="evenodd" clip-rule="evenodd" d="M103.072 144.495C103.072 144.495 93.9522 134.195 87.2667 134.77C80.5813 135.346 87.9799 144.687 87.9799 144.687L103.065 144.495H103.072Z" fill="#D16E5B"/>
<path fill-rule="evenodd" clip-rule="evenodd" d="M95.3373 167.095C95.3373 167.095 93.863 136.236 92.1763 130.99C90.4895 125.744 78.1334 126.347 75.9941 130.832C73.8547 135.318 77.9208 167.355 77.9208 167.355C77.9208 167.355 77.962 171.834 87.4382 171.307C96.9212 170.779 95.3373 167.095 95.3373 167.095Z" fill="white"/>
<path fill-rule="evenodd" clip-rule="evenodd" d="M104.951 148.659L103.949 143.536C103.949 143.536 95.9613 139.14 87.6507 140.557C79.3402 141.975 73.1896 147.844 73.1896 147.844C73.1896 147.844 67.3201 153.336 73.6902 160.555C80.0602 167.773 94.8299 164.095 94.6927 155.679L104.951 148.659Z" fill="#EAAA7D"/>
<path fill-rule="evenodd" clip-rule="evenodd" d="M103.949 143.536C119.665 152.254 154.464 163.054 164.502 173.272C174.541 183.49 164.564 199.31 147.203 193.893C129.848 188.476 93.959 154.617 93.959 154.617C93.959 154.617 97.9703 144.694 103.949 143.536Z" fill="#EAAA7D"/>
<path fill-rule="evenodd" clip-rule="evenodd" d="M160.45 126.949C160.45 126.949 166.484 163.253 167.993 179.004L140.702 177.71C140.702 177.71 139.461 142.05 138.289 132.661C137.116 123.279 156.734 117.088 160.443 126.942L160.45 126.949Z" fill="#EAAA7D"/>
<path fill-rule="evenodd" clip-rule="evenodd" d="M160.45 126.949C160.45 126.949 162.13 137.064 163.94 148.933C157.31 145.598 147.84 143.543 139.619 151.98C139.221 143.995 138.748 136.332 138.289 132.668C137.116 123.285 156.734 117.094 160.443 126.949H160.45Z" fill="#D16E5B"/>
<path fill-rule="evenodd" clip-rule="evenodd" d="M166.395 144.399C166.395 144.399 158.098 98.364 143.184 97.8778C128.271 97.3915 137.809 146.282 137.809 146.282C138.241 140.687 158.612 136.113 166.388 144.399H166.395Z" fill="#75A8BD"/>
<path fill-rule="evenodd" clip-rule="evenodd" d="M90.6266 131.675C90.6266 131.675 90.4346 126.901 88.9192 123.847C87.4039 120.793 77.338 122.217 77.002 125.265C76.6592 128.312 76.9746 132.051 76.9746 132.051L90.6266 131.675Z" fill="white"/>
<path fill-rule="evenodd" clip-rule="evenodd" d="M15.2697 164.465C15.2697 164.465 12.1567 190.201 20.8375 211.884H128.147C129.004 200.858 125.542 187.099 104.999 182.339C68.7669 173.943 56.1572 190.736 56.1572 190.736C56.1572 190.736 57.556 181.34 61.5604 172.745C65.5648 164.15 15.2697 164.465 15.2697 164.465Z" fill="#E8A327"/>
<path fill-rule="evenodd" clip-rule="evenodd" d="M115.044 186.003C113.364 185.099 111.478 184.284 109.38 183.579C109.86 186.284 110.169 191.229 107.076 194.564C102.633 199.358 118.047 203.35 115.311 187.174C115.243 186.77 115.147 186.38 115.037 186.003H115.044ZM102.393 181.778C103.264 184.599 104.162 188.209 104.724 192.379C106.137 202.796 90.5992 205.809 93.7945 196.071C95.6115 190.53 95.3578 184.606 94.8093 180.531C97.2023 180.819 99.7325 181.223 102.393 181.771V181.778ZM89.3718 180.079C84.5994 179.847 80.4167 180.114 76.7757 180.703C77.8386 184.545 79.2236 191.311 77.9894 197.255C76.1381 206.151 89.2072 201.933 89.9272 191.044C90.222 186.565 89.8792 182.874 89.3718 180.086V180.079Z" fill="#BF7B46"/>
<path fill-rule="evenodd" clip-rule="evenodd" d="M56.9114 186.873C57.6999 183.339 59.1673 177.895 61.5672 172.738C64.5911 166.239 36.5808 164.835 22.7368 164.54C22.6888 165.444 22.8465 166.485 23.2853 167.718C25.5413 174.135 24.1562 178.203 24.1562 178.203C24.1562 178.203 41.9017 192.03 56.9183 186.866L56.9114 186.873Z" fill="#BF7B46"/>
<path fill-rule="evenodd" clip-rule="evenodd" d="M23.4568 133.901C28.764 132.455 37.767 130.558 43.3622 130.49C44.4868 119.396 54.3058 117.985 54.3058 117.985C57.8919 123.58 58.2005 128.894 58.4885 134.25C72.6616 144.516 80.6773 178.381 44.5896 182.771C21.6534 185.565 1.82337 185.134 7.6517 151.761C0.561706 130.511 15.8457 121.888 15.8457 121.888C19.7403 125.58 22.1608 129.702 23.4499 133.901H23.4568Z" fill="#E8A327"/>
<path fill-rule="evenodd" clip-rule="evenodd" d="M43.3622 130.49C43.6022 128.114 44.2468 126.182 45.1039 124.614C47.6821 133.524 54.6349 131.346 58.1594 129.559C58.3308 131.12 58.4131 132.681 58.5022 134.243C52.9001 130.737 43.3691 130.483 43.3691 130.483L43.3622 130.49Z" fill="#BF7B46"/>
<path fill-rule="evenodd" clip-rule="evenodd" d="M24.1082 133.729C25.2738 133.421 26.5904 133.099 27.9823 132.777C28.8668 135.332 30.1696 140.126 27.7217 140.845C25.555 141.482 24.547 137.003 24.1013 133.729H24.1082ZM28.9011 132.572C29.9091 136.537 32.4941 144.653 36.4162 143.16C39.7418 141.893 38.247 135.489 36.7659 131.106C34.1603 131.49 31.4244 132.017 28.908 132.572H28.9011ZM38.2265 130.901C39.8927 130.689 41.4698 130.545 42.8617 130.497C43.4514 133.291 43.6571 136.414 41.7509 136.791C39.7075 137.195 38.7064 133.818 38.2333 130.901H38.2265Z" fill="#BF7B46"/>
<path fill-rule="evenodd" clip-rule="evenodd" d="M47.1609 162.075C46.7975 161.616 47.8055 160.466 48.9917 160.637C49.2317 160.671 49.3963 160.89 49.362 161.13C47.9015 171.389 62.0678 167.259 59.9353 161.383C59.709 161.055 60.2713 160.26 60.8198 161.109C62.8357 166.499 53.4213 170.909 49.7391 166.8C48.9917 172.902 36.5465 173.738 37.1842 166.389C37.3488 165.677 38.0756 165.958 38.0756 166.581C37.7465 174.08 53.8875 170.635 47.1678 162.082L47.1609 162.075Z" fill="#433A58"/>
<path fill-rule="evenodd" clip-rule="evenodd" d="M42.08 158.685C42.08 158.685 49.1289 155.699 52.0362 157.158C54.9503 158.61 51.5768 161.445 49.0466 162.589C46.5164 163.739 40.5304 160.952 42.0732 158.685H42.08Z" fill="#433A58"/>
<path fill-rule="evenodd" clip-rule="evenodd" d="M47.3255 172.834C47.3255 172.834 51.3094 173.334 54.6966 170.848C58.0839 168.355 53.4418 180.333 47.3255 172.834Z" fill="#BF7B46"/>
<path fill-rule="evenodd" clip-rule="evenodd" d="M31.6439 149.542C32.9741 149.289 34.2769 150.172 34.5306 151.501L34.6609 152.172C34.9146 153.501 34.03 154.802 32.6998 155.055C31.3696 155.309 30.0668 154.425 29.8131 153.097L29.6828 152.426C29.4291 151.097 30.3136 149.796 31.6439 149.542Z" fill="#433A58"/>
<path fill-rule="evenodd" clip-rule="evenodd" d="M52.2487 145.07C53.579 144.817 54.8818 145.7 55.1355 147.029L55.2658 147.7C55.5195 149.029 54.6349 150.33 53.3047 150.583C51.9745 150.837 50.6717 149.953 50.418 148.625L50.2877 147.953C50.034 146.625 50.9185 145.324 52.2487 145.07Z" fill="#433A58"/>
<path fill-rule="evenodd" clip-rule="evenodd" d="M19.4455 136.619C19.4455 136.619 18.7187 128.805 14.8034 124.539C15.5371 124.607 1.86451 129.518 8.27568 148.59C8.27568 148.59 11.4641 139.756 19.4455 136.619Z" fill="#BF7B46"/>
<path fill-rule="evenodd" clip-rule="evenodd" d="M14.8514 140.722C14.8514 140.722 16.6753 132.531 13.6926 132.366C10.7099 132.202 13.1098 139.277 13.1098 139.277C13.1098 139.277 10.6207 135.798 9.0505 137.455C7.47342 139.112 13.2743 142.256 13.2743 142.256L14.8514 140.722Z" fill="#E8A327"/>
<path fill-rule="evenodd" clip-rule="evenodd" d="M21.6191 162.513C23.8339 162.048 25.891 162.917 26.2201 164.465C26.5492 166.013 25.0201 167.643 22.8054 168.115C20.5906 168.581 18.5335 167.711 18.2044 166.163C17.8753 164.616 19.4044 162.986 21.6191 162.513Z" fill="#BF7B46"/>
<path fill-rule="evenodd" clip-rule="evenodd" d="M64.7968 151.823C66.6619 151.426 68.4035 152.165 68.6778 153.466C68.9521 154.768 67.663 156.144 65.7979 156.541C63.9328 156.939 62.1912 156.199 61.9169 154.898C61.6426 153.597 62.9317 152.22 64.7968 151.823Z" fill="#BF7B46"/>
<path fill-rule="evenodd" clip-rule="evenodd" d="M14.0903 203.912C16.0308 203.939 17.8342 204.535 19.3427 205.535C22.7642 198.913 29.7102 194.434 37.7328 194.537C45.4125 194.632 52.1116 198.913 55.6703 205.172C57.1994 204.015 59.1125 203.344 61.1901 203.371C66.0105 203.433 69.9532 207.247 70.2274 211.993C44.2742 212.014 19.6238 211.993 4.57298 211.993C5.25867 207.364 9.25622 203.857 14.0903 203.919V203.912ZM77.818 206.254C80.9996 206.295 83.5983 208.836 83.7355 211.979C79.7791 211.979 75.8226 211.986 71.8937 211.993C71.9485 208.774 74.5816 206.22 77.818 206.261V206.254Z" fill="white"/>
<path fill-rule="evenodd" clip-rule="evenodd" d="M119.686 208.165C122.024 208.192 124.006 209.767 124.664 211.897C124.26 211.897 123.855 211.897 123.444 211.897C115.613 211.925 107.289 211.938 98.7794 211.952C99.2457 207.665 102.887 204.371 107.309 204.426C111.074 204.474 114.276 206.939 115.428 210.329C116.367 209 117.931 208.137 119.693 208.165H119.686Z" fill="white"/>
<path fill-rule="evenodd" clip-rule="evenodd" d="M18.1427 124.299C18.1427 124.299 22.0443 116.711 31.8633 120.923C31.8633 120.923 35.2437 117.067 40.6126 119.012C45.9816 120.957 45.5633 127.066 45.5633 127.066C45.5633 127.066 50.226 124.292 52.6602 129.175C55.1012 134.058 51.7276 138.311 46.6398 137.345C41.552 136.38 44.1028 130.394 44.1988 130.524C44.2948 130.654 31.9661 131.777 23.2853 133.901C22.3391 130.702 20.4329 127.504 18.1427 124.306V124.299Z" fill="white"/>
<path fill-rule="evenodd" clip-rule="evenodd" d="M51.1036 116.04C53.2018 116.115 54.8955 117.868 54.8955 119.964C54.8955 122.06 53.195 123.696 51.1036 123.621C49.0054 123.546 47.3118 121.792 47.3118 119.697C47.3118 117.601 49.0123 115.964 51.1036 116.04Z" fill="white"/>
<path fill-rule="evenodd" clip-rule="evenodd" d="M42.8137 110.561C43.8422 110.595 44.6719 111.458 44.6719 112.479C44.6719 113.499 43.8422 114.3 42.8137 114.266C41.792 114.232 40.9555 113.369 40.9555 112.349C40.9555 111.328 41.7852 110.527 42.8137 110.561Z" fill="white"/>
<path fill-rule="evenodd" clip-rule="evenodd" d="M97.6823 172.868C101.015 173.649 103.511 176.128 104.457 179.175C105.602 178.367 107.076 178.039 108.544 178.381C111.279 179.018 112.973 181.75 112.335 184.483C111.698 187.216 108.962 188.907 106.226 188.27C105.156 188.017 104.244 187.448 103.572 186.681C101.55 190.078 97.4903 191.941 93.4311 190.989C88.4187 189.818 85.3126 184.805 86.4851 179.806C87.6576 174.799 92.6768 171.697 97.6823 172.868ZM118.623 184.147C120.173 184.51 121.14 186.058 120.776 187.613C120.413 189.16 118.863 190.126 117.307 189.756C115.757 189.393 114.79 187.846 115.16 186.291C115.524 184.743 117.074 183.778 118.63 184.141L118.623 184.147Z" fill="white"/>
</g>
<defs>
<clipPath id="clip0_158_10431">
<rect width="168" height="212" fill="white" transform="translate(0.5)"/>
</clipPath>
</defs>
</svg>
