<svg width="195" height="232" viewBox="0 0 195 232" fill="none" xmlns="http://www.w3.org/2000/svg">
<path fill-rule="evenodd" clip-rule="evenodd" d="M48.0849 94.0044C48.0849 94.0044 27.3738 108.251 20.9886 119.298C14.6775 130.211 39.8701 182.713 37.3442 232H124.959C124.655 206.35 122.966 135.118 113.618 116.781C107.914 105.593 67.4034 93.5886 67.4034 93.5886L48.0923 94.0118L48.0849 94.0044Z" fill="#E8A327"/>
<path fill-rule="evenodd" clip-rule="evenodd" d="M40.122 204.776C40.5664 211.117 40.6479 217.59 40.2257 224.145C40.2257 224.145 38.2701 228.54 38.8035 231.993H124.959C124.87 224.324 124.655 211.651 124.144 198.585C115.337 207.137 102.892 214.027 82.3145 214.442C61.7294 214.851 49.6182 209.52 40.122 204.776Z" fill="#BF7B46"/>
<path fill-rule="evenodd" clip-rule="evenodd" d="M34.1294 78.2881C34.1294 78.2881 43.8997 89.9956 53.2034 108.63C59.7664 119.788 80.5811 117.575 76.8034 102.653C76.8034 102.653 70.3663 85.2146 62.2627 75.1775C54.159 65.1404 34.1368 78.2807 34.1368 78.2807L34.1294 78.2881Z" fill="#EAAA7D"/>
<path fill-rule="evenodd" clip-rule="evenodd" d="M72.7219 93.017C70.0849 87.0408 67.1589 81.2501 62.2552 75.1848C57.359 69.1194 47.6849 71.6361 41.1146 74.5612C42.0035 77.256 40.0479 75.066 45.1294 82.8462C50.2034 90.6339 66.1738 93.5664 72.7219 93.0096V93.017Z" fill="#D16E5B"/>
<path fill-rule="evenodd" clip-rule="evenodd" d="M64.3219 49.9955C84.4922 33.7966 69.4182 11.4803 51.1293 10.9309C51.1293 10.9309 51.7886 1.27985 43.8256 0.106872C35.8627 -1.0661 40.2257 7.73122 36.2998 11.0794L4.67759 37.9985C4.67759 37.9985 -5.97424 46.0683 4.87019 58.8225L26.7516 80.196L64.3145 50.0029L64.3219 49.9955Z" fill="#433A58"/>
<path fill-rule="evenodd" clip-rule="evenodd" d="M60.6553 30.9829C60.6553 30.9829 75.07 47.2412 77.596 60.2405C80.1219 73.2472 76.3367 85.3481 63.3589 89.4981C50.3812 93.6555 32.0035 85.1625 32.0035 85.1625C32.0035 85.1625 22.6331 93.6481 15.9664 88.0504C9.29978 82.4528 12.722 69.0898 25.8775 73.4179C25.8775 73.4179 24.7294 60.1217 19.685 54.6577C19.685 54.6577 29.359 46.6028 31.2701 37.4491C42.5441 40.4855 54.7293 35.8752 48.8479 30.0771C48.8479 30.0771 55.9367 32.9428 60.6626 30.9754L60.6553 30.9829Z" fill="#EAAA7D"/>
<path fill-rule="evenodd" clip-rule="evenodd" d="M35.8775 145.2L47.122 182.542C47.122 182.542 32.8775 186.989 24.1516 186.395L16.485 154.019C16.485 154.019 15.1591 138.808 35.885 145.2H35.8775Z" fill="#EAAA7D"/>
<path fill-rule="evenodd" clip-rule="evenodd" d="M35.8775 145.2L42.9442 168.667C33.359 169.283 26.3294 173.314 21.8924 176.878L16.4776 154.012C16.4776 154.012 15.1517 138.8 35.8775 145.192V145.2Z" fill="#D16E5B"/>
<path fill-rule="evenodd" clip-rule="evenodd" d="M14.9516 170.745C14.9516 170.745 6.11459 117.234 22.722 113.418C39.3293 109.602 47.7293 165.244 47.7293 165.244L14.9516 170.745Z" fill="white"/>
<path fill-rule="evenodd" clip-rule="evenodd" d="M126.811 65.415C126.811 65.415 138.855 66.1129 144.914 75.467C150.974 84.8137 144.003 88.7558 144.003 88.7558L125.863 70.8419L126.811 65.415Z" fill="#A36159"/>
<path fill-rule="evenodd" clip-rule="evenodd" d="M96.3663 36.4766C96.3663 36.4766 106.085 46.0163 112.722 47.9614C119.359 49.9064 123.344 47.2116 129.655 57.9688C135.959 68.726 131.025 83.1952 123.026 100.367C115.026 117.538 127.544 139.454 127.544 139.454C127.544 139.454 149.611 158.659 149.137 173.997C148.662 189.335 139.951 199.023 139.951 199.023C139.951 199.023 155.203 207.375 151.314 219.647C150.077 223.559 147.292 231.748 147.025 232C142.107 232 140.196 229.751 139.092 224.628C137.396 216.759 136.981 214.227 136.981 214.227C136.981 214.227 114.181 204.324 114.329 193.485C114.477 182.646 112.492 171.978 112.492 171.978C112.492 171.978 91.6923 159.944 82.4108 149.045C73.1293 138.147 77.8552 126.566 74.5738 121.51C71.2849 116.447 64.0849 119.097 57.996 113.544C51.9071 107.991 48.2998 102.601 48.2998 102.601L36.0183 108.273C32.6405 109.832 32.1738 97.5234 38.8183 94.1381C45.2331 90.8716 53.5812 91.3912 56.833 93.804C60.0849 96.2168 64.1293 100.478 70.9664 102.624C77.8034 104.777 77.7071 105.816 82.4182 102.186L105.063 84.7171C105.063 84.7171 108.7 80.5746 99.596 77.464C90.4997 74.3459 79.5219 70.5152 83.3441 61.4432C83.3441 61.4432 83.5219 60.4632 86.6775 62.386C89.833 64.3088 98.7515 69.6243 99.8774 69.1344C107.633 65.7342 88.1737 57.9985 88.9293 47.6867C89.6034 38.4662 92.6478 34.4796 96.3737 36.4914L96.3663 36.4766Z" fill="#BC7E68"/>
<path fill-rule="evenodd" clip-rule="evenodd" d="M127.026 70.1068C127.026 70.1068 144.64 76.7661 148.64 88.7186C152.64 100.664 138.663 106.944 134.959 98.0727C131.255 89.2011 129.796 83.0467 126.129 78.3993C122.463 73.7446 121.811 68.7186 127.026 70.1143V70.1068Z" fill="#BC7E68"/>
<path fill-rule="evenodd" clip-rule="evenodd" d="M122.27 59.4017C122.885 60.3891 122.588 61.6957 121.603 62.3119L121.5 62.3787C120.514 62.9949 119.211 62.6979 118.596 61.7106C117.981 60.7232 118.277 59.4166 119.263 58.8004L119.366 58.7336C120.351 58.1174 121.655 58.4144 122.27 59.4017Z" fill="#433A58"/>
<path fill-rule="evenodd" clip-rule="evenodd" d="M141.351 164.569C141.351 164.569 148.959 180.589 167.277 185.074C185.588 189.558 190.233 180.627 192.596 179.572C194.959 178.526 198.988 193.7 184.929 199.936C170.87 206.172 163.225 194.851 163.225 194.851C163.225 194.851 163.722 197.085 165.24 198.6C166.759 200.114 162.833 204.472 155.388 193.344C147.944 182.215 144.729 172.876 140.218 168.548C135.707 164.22 141.359 164.561 141.359 164.561L141.351 164.569Z" fill="#BC7E68"/>
<path fill-rule="evenodd" clip-rule="evenodd" d="M128.655 74.3682C128.655 74.3682 141.166 79.6094 143.314 88.8448C145.462 98.0801 139.907 102.037 136.988 97.8203C134.063 93.5961 138.677 91.458 128.655 74.3682Z" fill="#A36159"/>
<path fill-rule="evenodd" clip-rule="evenodd" d="M99.1811 89.2385C99.1811 89.2385 100.396 98.3253 123.018 100.359C123.018 100.359 123.737 101.028 123.574 102.119C123.411 103.21 122.477 107.486 121.944 108.229L121.411 108.964C121.411 108.964 105.196 113.381 91.307 95.3187C90.0404 93.9304 94.2774 85.4894 99.1811 89.2385Z" fill="white"/>
<path fill-rule="evenodd" clip-rule="evenodd" d="M101.314 40.7454C101.314 40.7454 98.8774 35.7046 95.4848 34.2792C92.0922 32.8538 88.9145 38.5702 93.0922 42.0223C97.2626 45.4744 102.226 45.7269 101.322 40.7454H101.314Z" fill="#433A58"/>
<path fill-rule="evenodd" clip-rule="evenodd" d="M100.514 69.9288C100.514 69.9288 100.337 63.8486 90.8404 62.4158C81.3367 60.9829 78.1367 68.0282 70.8256 64.3163C63.5145 60.6043 61.7516 74.6652 72.7589 74.5019C83.7737 74.3386 90.8034 64.5761 100.514 69.9288Z" fill="#A33E5F"/>
<path fill-rule="evenodd" clip-rule="evenodd" d="M81.4626 156.261C81.4626 156.261 81.07 149.847 84.0996 144.561C87.1367 139.275 87.0552 137.583 87.9811 132.23C88.907 126.877 94.7885 129.298 92.1515 136.365C89.5144 143.44 92.47 148.563 93.6626 151.272C94.8478 153.982 84.3071 159.038 81.47 156.261H81.4626Z" fill="#EAAA7D"/>
<path fill-rule="evenodd" clip-rule="evenodd" d="M38.5738 179.61L44.0701 182.765L85.27 148.979L95.3293 161.517L58.2034 201.287C58.2034 201.287 50.1071 211.362 36.9442 205.653C27.685 201.629 24.1516 186.388 24.1516 186.388L38.5738 179.61Z" fill="#EAAA7D"/>
<path fill-rule="evenodd" clip-rule="evenodd" d="M85.1589 158.199L85.27 148.978C85.27 148.978 95.307 138.882 96.6848 137.145C98.07 135.407 111.27 153.663 107.255 155.675C103.248 157.687 95.3219 161.517 95.3219 161.517L85.1515 158.199H85.1589Z" fill="#EAAA7D"/>
<path fill-rule="evenodd" clip-rule="evenodd" d="M95.5292 142.728C95.5292 142.728 113.618 135.096 115.7 134.673C117.781 134.257 120.714 138.615 117.07 139.676C113.426 140.731 98.2848 146.922 98.2848 146.922C98.2848 146.922 95.0774 147.033 95.5292 142.728Z" fill="#EAAA7D"/>
<path fill-rule="evenodd" clip-rule="evenodd" d="M99.2848 149.372L101.151 145.222C101.151 145.222 116.211 142.868 117.559 143.344C118.914 143.819 120.788 147.553 116.825 148.206C112.863 148.86 103.063 150.723 103.063 150.723C103.063 150.723 99.7292 151.755 99.2922 149.372H99.2848Z" fill="#EAAA7D"/>
<path fill-rule="evenodd" clip-rule="evenodd" d="M105.003 151.941L106.137 150.27C106.137 150.27 115.833 150.203 117.151 150.693C118.47 151.183 119.507 154.561 115.766 154.754C112.026 154.947 106.011 155.846 106.011 155.846C106.011 155.846 103.87 153.24 105.011 151.941H105.003Z" fill="#EAAA7D"/>
<path fill-rule="evenodd" clip-rule="evenodd" d="M96.2626 140.857L96.6922 137.145C96.6922 137.145 105.559 129.298 109.292 128.667C110.863 128.399 111.826 129.171 112.137 130.003C112.559 131.146 112.137 132.557 110.285 133.604C107.085 135.408 98.9663 141.295 98.9663 141.295L96.2626 140.864V140.857Z" fill="#EAAA7D"/>
<path fill-rule="evenodd" clip-rule="evenodd" d="M130.018 130.679C130.018 130.679 121.581 132.973 121.996 136.217C122.411 139.454 125.381 141.295 128.359 139.728C136.233 135.578 133.018 130.27 130.018 130.686V130.679Z" fill="#EAAA7D"/>
<path fill-rule="evenodd" clip-rule="evenodd" d="M134.307 137.011C134.307 137.011 126.922 139.023 127.285 141.851C127.648 144.687 130.248 146.298 132.855 144.925C139.744 141.295 136.929 136.647 134.307 137.011Z" fill="#EAAA7D"/>
<path fill-rule="evenodd" clip-rule="evenodd" d="M138.3 142.445C138.3 142.445 130.914 144.457 131.277 147.286C131.64 150.122 134.24 151.733 136.848 150.359C143.737 146.729 140.922 142.082 138.3 142.445Z" fill="#EAAA7D"/>
<path fill-rule="evenodd" clip-rule="evenodd" d="M141.596 148.021C141.596 148.021 135.618 149.646 135.914 151.94C136.211 154.234 138.314 155.534 140.418 154.427C145.988 151.488 143.714 147.731 141.596 148.021Z" fill="#EAAA7D"/>
<path fill-rule="evenodd" clip-rule="evenodd" d="M61.6627 69.0972C61.6627 69.0972 42.9294 69.8618 40.9516 75.7341C38.9738 81.6065 49.2479 86.2612 57.8553 84.7393C66.4553 83.21 65.1664 69.3273 61.6627 69.0972Z" fill="#D16E5B"/>
<path fill-rule="evenodd" clip-rule="evenodd" d="M61.6627 69.0972C61.6627 69.0972 48.1812 69.6465 42.8849 73.403C47.3071 76.9888 53.4256 75.7713 58.0627 74.5909C61.8182 73.6332 62.3071 70.8715 62.2552 69.2828C62.0626 69.1788 61.8626 69.112 61.6552 69.1046L61.6627 69.0972Z" fill="white"/>
<path fill-rule="evenodd" clip-rule="evenodd" d="M49.396 56.2909C49.1145 56.6175 48.6182 56.6621 48.2849 56.38C47.9516 56.0979 47.9145 55.6005 48.196 55.2664C51.1516 51.792 54.0108 50.8863 56.2997 51.3985C58.396 51.8737 59.9812 53.544 60.7293 55.5485C61.4701 57.5381 61.4034 59.8841 60.196 61.7252C58.8256 63.8336 56.0108 65.2664 51.3219 64.7244C50.8923 64.6725 50.5812 64.2864 50.6256 63.8484C50.6775 63.4178 51.0627 63.106 51.4997 63.1506C55.4849 63.6108 57.8034 62.4973 58.8775 60.8492C59.7886 59.446 59.833 57.6346 59.2553 56.083C58.6775 54.5463 57.4923 53.2694 55.9515 52.9204C54.1812 52.5195 51.8923 53.3213 49.3812 56.276L49.396 56.2909Z" fill="#D16E5B"/>
<path fill-rule="evenodd" clip-rule="evenodd" d="M57.1664 47.9095C57.5145 48.2213 58.0553 48.1916 58.3664 47.8427C58.6775 47.4938 58.6479 46.9518 58.2997 46.64C57.0923 45.5636 56.7664 44.4425 56.9738 43.5888C57.0775 43.1656 57.3145 42.8019 57.6405 42.5643C57.9664 42.3267 58.3738 42.1931 58.8256 42.2302C59.8404 42.3045 61.0626 43.1508 62.0997 45.2369C62.3071 45.6601 62.8182 45.8308 63.2404 45.6155C63.6627 45.4077 63.833 44.8954 63.6182 44.4722C62.2627 41.7625 60.4923 40.6415 58.9442 40.5301C58.0627 40.4633 57.2553 40.7232 56.6182 41.1983C55.9812 41.6734 55.5145 42.3713 55.3145 43.1879C54.9664 44.5984 55.4108 46.3653 57.159 47.9244L57.1664 47.9095Z" fill="#433A58"/>
<path fill-rule="evenodd" clip-rule="evenodd" d="M33.3294 60.5374C33.6775 60.8492 34.2183 60.8195 34.5294 60.4706C34.8405 60.1217 34.8109 59.5798 34.4627 59.268C33.2553 58.1915 32.9294 57.0705 33.1368 56.2167C33.2405 55.7936 33.4776 55.4298 33.8035 55.1922C34.1294 54.9547 34.5368 54.821 34.9886 54.8582C36.0035 54.9324 37.2257 55.7787 38.2627 57.8648C38.4701 58.288 38.9813 58.4587 39.4035 58.2435C39.8257 58.0356 39.9961 57.5233 39.7813 57.1002C38.4257 54.3904 36.6553 53.2694 35.1071 53.1581C34.2257 53.0913 33.4183 53.3511 32.7813 53.8262C32.1442 54.3014 31.6776 54.9992 31.4776 55.8158C31.1294 57.2264 31.5738 58.9933 33.322 60.5523L33.3294 60.5374Z" fill="#433A58"/>
<path fill-rule="evenodd" clip-rule="evenodd" d="M52.6108 38.6295C49.4478 36.9962 53.0479 32.7275 55.9367 33.4179C59.3219 34.2197 59.1145 36.3206 57.6108 37.7089C56.3886 38.8374 54.3071 39.5055 52.6034 38.6295H52.6108Z" fill="#433A58"/>
<path fill-rule="evenodd" clip-rule="evenodd" d="M35.5738 46.6326C35.6775 43.0691 30.2109 44.1679 29.4109 47.0335C28.4775 50.3891 30.4108 51.228 32.3516 50.5821C33.9294 50.055 35.5219 48.5554 35.5738 46.64V46.6326Z" fill="#433A58"/>
<path fill-rule="evenodd" clip-rule="evenodd" d="M27.5294 80.2926C27.7368 80.4559 27.7664 80.7603 27.6035 80.9607C27.4405 81.1686 27.1368 81.1983 26.9368 81.035C26.9294 81.0276 24.7442 79.2384 21.7961 78.6296C19.6775 79.9362 19.8775 83.0914 19.8775 83.0988C19.8923 83.3587 19.6923 83.5888 19.4257 83.5962C19.1664 83.6111 18.9368 83.4106 18.9294 83.1434C18.9294 83.1359 18.7368 80.2332 20.4998 78.4515C19.1961 78.3624 17.7887 78.5554 16.3887 79.2384C16.1516 79.3498 15.8702 79.2532 15.7516 79.0157C15.6405 78.7781 15.7368 78.496 15.9739 78.3772C17.9887 77.3973 20.0035 77.323 21.7664 77.6497C21.7887 77.6497 21.8034 77.6497 21.8257 77.6645C25.1071 78.2881 27.522 80.2777 27.5294 80.2852V80.2926Z" fill="#D16E5B"/>
</svg>
