<svg width="155" height="212" viewBox="0 0 155 212" fill="none" xmlns="http://www.w3.org/2000/svg">
<path fill-rule="evenodd" clip-rule="evenodd" d="M28.1061 58.1717C28.1061 58.1717 24.8685 41.9766 16.976 28.8247C9.0834 15.6658 20.415 22.551 21.2279 23.9683C21.2279 23.9683 22.0408 7.27998 27.0223 5.66117C31.9968 4.04237 28.6411 15.381 28.6411 15.381C28.6411 15.381 39.0487 -1.30734 60.2252 0.0821955C79.1576 1.32583 87.4531 19.2161 76.5105 25.8025C77.108 29.5889 76.9552 35.4111 71.4526 38.3083C66.3183 41.0179 64.4007 35.4041 63.6921 30.4782C54.7296 35.1957 55.4799 42.0878 55.4799 42.0878C55.4799 42.0878 39.7713 62.104 28.1061 58.1717Z" fill="#433A58"/>
<path fill-rule="evenodd" clip-rule="evenodd" d="M34.4563 62.111C34.4563 62.111 36.2835 77.0485 35.825 90.1587L57.8283 89.1305C57.8283 89.1305 55.5494 76.2495 55.7787 69.7465C56.008 63.2504 34.4563 62.111 34.4563 62.111Z" fill="#EAAA7D"/>
<path fill-rule="evenodd" clip-rule="evenodd" d="M34.4563 62.111C34.4563 62.111 34.7689 64.6886 35.1024 68.6348C39.1321 73.526 48.7754 83.8711 56.668 81.5367C56.1469 77.5765 55.6606 72.9077 55.7717 69.7465C56.001 63.2504 34.4493 62.111 34.4493 62.111H34.4563Z" fill="#D16E5B"/>
<path fill-rule="evenodd" clip-rule="evenodd" d="M70.6259 23.4055C70.6259 23.4055 76.0034 47.6807 74.6138 56.6987C73.2243 65.7168 66.1168 72.3032 58.4883 73.8664C50.8597 75.4297 36.1237 73.1717 32.4762 64.8484C32.4762 64.8484 23.3192 67.8914 20.4637 59.9155C17.6151 51.9326 27.3071 47.0345 31.976 53.5306C31.976 53.5306 33.2335 51.0225 30.1487 36.6547C30.1487 36.6547 51.353 38.3639 56.14 21.9465C56.14 21.9465 64.234 26.2819 70.612 23.4055H70.6259Z" fill="#EAAA7D"/>
<path fill-rule="evenodd" clip-rule="evenodd" d="M61.6773 88.4426C61.6773 88.4426 62.0177 83.7669 60.3086 83.5376C58.5994 83.3083 33.6295 82.6274 32.8305 83.3083C32.0316 83.9892 34.0811 89.3528 34.0811 89.3528C34.0811 89.3528 16.6911 94.5983 10.6188 109.689C4.54658 124.772 14.4331 211.993 14.4331 211.993H99.3545C99.3545 211.993 104.253 133.276 103.794 118.137C103.335 102.998 91.184 94.5149 91.184 94.5149L61.6773 88.4357V88.4426Z" fill="#A6A828"/>
<path fill-rule="evenodd" clip-rule="evenodd" d="M8.6596 130.657C8.71518 161.449 14.4401 212 14.4401 212H95.9779C95.9779 212 103.669 142.683 103.822 121.632C97.9302 120.2 90.5726 121.507 81.5059 127.968C49.7203 150.624 15.0862 115.017 15.0862 115.017L8.65265 130.657H8.6596Z" fill="#74711C"/>
<path fill-rule="evenodd" clip-rule="evenodd" d="M66.9019 92.0068C66.9019 92.0068 98.6389 86.803 126.728 94.2578C154.818 101.713 156.728 121.312 144.417 127.725C132.106 134.144 82.6801 130.844 82.6801 130.844L66.9019 91.9999V92.0068Z" fill="white"/>
<path fill-rule="evenodd" clip-rule="evenodd" d="M113.34 95.696C113.34 95.696 121.483 117.963 114.938 144.191C108.393 170.418 88.398 187.093 59.6624 182.903C30.9269 178.714 31.9273 154.967 39.5072 145.789C47.0872 136.611 61.2604 116.456 61.2604 116.456L85.6259 93.3824L113.347 95.703L113.34 95.696Z" fill="#A36159"/>
<path fill-rule="evenodd" clip-rule="evenodd" d="M115.723 95.2514C115.723 95.2514 119.878 102.894 119.093 106.819C118.308 110.752 94.7065 116.602 81.7977 110.3C68.8889 104.005 72.0223 100.636 72.0223 100.636L80.5958 90.5964L115.723 95.2444V95.2514Z" fill="#433A58"/>
<path fill-rule="evenodd" clip-rule="evenodd" d="M134.558 100.886C134.558 100.886 71.2581 108.862 62.24 109.383C61.3785 109.432 60.6907 109.633 60.1627 109.96C60.1627 109.96 46.8231 116.317 45.2252 121.298C43.6272 126.287 46.1562 142.836 46.4549 143.635C46.7537 144.427 50.9153 146.213 54.5837 145.42C58.2521 144.628 65.8459 131.741 70.0353 126.981C80.6583 127.697 132.821 133.345 143.062 131.074C153.991 128.649 164.739 102.803 134.565 100.9L134.558 100.886Z" fill="#EAAA7D"/>
<path fill-rule="evenodd" clip-rule="evenodd" d="M137.713 92.0624C137.713 92.0624 128.007 74.0888 118.426 69.4964C108.845 64.904 115.654 76.5274 121.17 90.4644C125.172 100.566 127.312 103.373 130.188 104.318C135.58 106.083 142.958 100.191 137.713 92.0624Z" fill="#BC7E68"/>
<path fill-rule="evenodd" clip-rule="evenodd" d="M84.41 62.5904C93.3725 62.2013 79.3799 78.3338 76.316 82.6344C73.2521 86.9281 64.9913 96.1059 58.8912 92.3889C46.309 84.7187 72.7588 63.0975 84.41 62.5904Z" fill="#A36159"/>
<path fill-rule="evenodd" clip-rule="evenodd" d="M115.153 68.746C115.153 68.746 96.6518 61.9234 89.5722 61.6594C82.4855 61.3954 77.108 76.4857 77.108 76.4857C77.108 76.4857 70.5772 80.1402 73.3216 90.8396C76.0589 101.539 84.9172 103.957 88.6551 105.214C93.9561 107 113.569 103.436 118.231 97.2801C122.893 91.1314 116.939 86.5668 116.939 86.5668C116.939 86.5668 117.432 72.5811 115.153 68.7391V68.746Z" fill="#BC7E68"/>
<path fill-rule="evenodd" clip-rule="evenodd" d="M103.87 64.9456C100.716 63.973 97.3605 63.0211 94.4703 62.3958C94.9288 66.1128 94.7899 70.9484 93.2127 76.9859C93.2127 76.9859 92.2053 83.6418 86.932 85.3023C82.1868 86.7961 73.5717 89.4779 79.8593 101.025C83.0969 103.512 86.6194 104.533 88.6481 105.214C91.1701 106.062 97.0687 106.173 102.801 104.422C111.402 101.796 100.827 93.9105 99.7574 83.8919C98.9932 76.7011 100.515 69.6978 103.87 64.9387V64.9456Z" fill="#D49983"/>
<path fill-rule="evenodd" clip-rule="evenodd" d="M78.442 115.684C78.442 115.684 83.5694 95.8419 73.7662 94.6886C63.9561 93.5353 59.9612 99.7118 62.9278 108.834C65.8945 117.963 77.9001 119.068 78.442 115.678V115.684Z" fill="#BC7E68"/>
<path fill-rule="evenodd" clip-rule="evenodd" d="M104.649 103.276C96.5198 106.229 92.2331 124.737 101.501 125.752C105.976 126.238 109.665 121.569 111.43 116.06C113.66 109.105 111.819 100.671 104.649 103.276Z" fill="#BC7E68"/>
<path fill-rule="evenodd" clip-rule="evenodd" d="M97.8329 173.211C97.8329 173.211 105.35 159.191 95.0122 150.055C84.674 140.918 60.7324 156.537 60.7324 156.537C60.7324 156.537 67.4508 136.847 56.2233 134.672C50.5749 133.582 47.0177 143.906 45.5239 154.897C44.0441 165.77 44.586 177.289 47.1219 179.061C52.2215 182.618 68.3748 187.6 97.8399 173.218L97.8329 173.211Z" fill="#BC7E68"/>
<path fill-rule="evenodd" clip-rule="evenodd" d="M38.1733 164.499C38.1733 164.499 49.8871 140.495 44.8639 130.858C39.8407 121.229 25.3062 140.918 24.6114 156.537C23.9167 172.155 33.3655 174.413 38.1733 164.499Z" fill="#BC7E68"/>
<path fill-rule="evenodd" clip-rule="evenodd" d="M86.7722 182.757V177.157C86.7722 177.157 85.6815 172.739 88.8565 166.889C92.0316 161.039 93.2197 156.578 93.5184 152.215C93.8172 147.852 100.265 149.638 96.5893 161.435C92.9209 173.232 98.0761 173.232 98.0761 173.232L86.7722 182.75V182.757Z" fill="#EAAA7D"/>
<path fill-rule="evenodd" clip-rule="evenodd" d="M100.223 164.798L101.821 161.532C101.821 161.532 104.475 159.232 106.455 153.653C106.455 153.653 106.163 148.936 108.393 148.853C110.624 148.769 111.52 150.402 111.52 150.402C111.52 150.402 114.229 153.73 114.646 155.647C115.07 157.565 115.042 158.975 115.042 158.975C115.042 158.975 116.717 161.991 116.501 164.992C116.286 167.993 116.89 170.307 115.952 173.315C115.015 176.324 111.874 179.874 111.874 179.874L100.223 164.791V164.798Z" fill="#EAAA7D"/>
<path fill-rule="evenodd" clip-rule="evenodd" d="M89.1205 182.973L87.0849 177.477C87.0849 177.477 99.4587 165.708 101.779 161.609C104.19 157.343 111.923 175.935 111.923 179.304C111.923 182.674 105.885 187.641 94.6231 188.336L89.1136 182.973H89.1205Z" fill="#EAAA7D"/>
<path fill-rule="evenodd" clip-rule="evenodd" d="M30.9894 164.506C30.9894 164.506 34.9079 182.903 37.02 183.806C39.1321 184.71 72.6546 180.055 87.0918 177.47L94.63 188.329C94.63 188.329 61.2812 203.6 42.731 207.797C24.1807 211.993 19.8106 210.062 15.8852 204.024C11.9667 197.993 6.082 173.107 6.082 173.107L30.9894 164.499V164.506Z" fill="#EAAA7D"/>
<path fill-rule="evenodd" clip-rule="evenodd" d="M104.454 78.6951C103.523 78.57 102.662 79.2231 102.537 80.1471L102.453 80.7585C102.328 81.6895 102.981 82.551 103.905 82.6761C104.836 82.8011 105.698 82.1481 105.823 81.224L105.906 80.6126C106.031 79.6816 105.378 78.8201 104.454 78.6951Z" fill="#433A58"/>
<path fill-rule="evenodd" clip-rule="evenodd" d="M89.7945 75.1796C88.9469 74.7835 87.9255 75.1518 87.5295 75.9994L87.2725 76.5552C86.8764 77.4028 87.2447 78.4241 88.0923 78.8201C88.9399 79.2161 89.9612 78.8479 90.3572 78.0003L90.6143 77.4445C91.0103 76.5969 90.6421 75.5756 89.7945 75.1796Z" fill="#433A58"/>
<path fill-rule="evenodd" clip-rule="evenodd" d="M101.988 65.293C101.988 65.293 102.356 54.5867 96.7491 53.2597C91.1423 51.9327 98.5208 60.7145 98.5208 60.7145C98.5208 60.7145 91.8788 55.8442 88.9955 56.2124C86.1122 56.5806 88.259 60.5686 95.1233 62.9308L101.988 65.293Z" fill="#D49983"/>
<path fill-rule="evenodd" clip-rule="evenodd" d="M96.5198 89.6793C96.5198 89.6793 89.5443 86.6641 87.203 88.1161C85.1395 89.3945 88.4883 91.9304 90.4962 92.6668C89.7875 95.5362 87.6198 97.8498 86.3345 94.376L85.6328 94.5288C85.9455 96.0851 88.5856 98.0443 89.9473 95.9739C90.6351 100.004 94.9079 96.2657 94.9218 96.2588L94.4563 95.7169C90.2183 99.3644 90.5379 95.6891 91.0381 92.8336C91.1006 92.8475 91.1632 92.8614 91.2257 92.8683C92.9557 93.0906 97.9232 90.916 96.5268 89.6863L96.5198 89.6793Z" fill="#433A58"/>
<path fill-rule="evenodd" clip-rule="evenodd" d="M46.6911 153.049C47.1497 147.755 48.8797 134.506 56.3692 135.492C66.9228 136.882 60.9478 154.202 59.4887 159.774L60.1835 159.955C62.2887 151.979 84.813 144.983 92.8723 148.568L93.1641 147.915C93.1641 147.915 82.4855 142.905 61.1909 155.856C62.6569 149.596 66.6171 135.666 56.4526 134.332C48.4142 133.276 46.4549 147.248 45.9686 152.986L46.6842 153.049H46.6911Z" fill="#433A58"/>
<path fill-rule="evenodd" clip-rule="evenodd" d="M46.5939 170.335C46.5939 170.335 45.8296 143.315 53.0483 140.766C60.2669 138.216 53.8125 161.074 52.5411 169.397C51.2697 177.72 46.5939 173.392 46.5939 170.335Z" fill="#A36159"/>
<path fill-rule="evenodd" clip-rule="evenodd" d="M28.9607 155.585C29.6207 151.785 34.2896 130.948 40.4035 132.748C45.378 134.214 39.4447 161.886 35.4151 164.089C31.3854 166.291 27.9394 156.613 28.9607 155.585Z" fill="#A36159"/>
<path fill-rule="evenodd" clip-rule="evenodd" d="M37.6244 171.884C37.6244 171.884 14.8778 180.68 6.08201 178.86C-2.71374 177.039 0.266809 121.889 8.68044 107.743C17.0941 93.5978 24.4308 108.508 27.8699 119.283C31.309 130.059 37.6175 171.877 37.6175 171.877L37.6244 171.884Z" fill="#A6A828"/>
<path fill-rule="evenodd" clip-rule="evenodd" d="M33.2613 135.2C43.8843 119.464 49.5049 133.248 44.4262 146.817C43.7662 149.492 42.9116 152.146 41.932 154.501L42.592 154.779C43.5855 152.389 44.454 149.7 45.1209 146.991C46.1353 142.857 48.428 130.552 43.2381 128.399C38.8542 126.578 34.4215 131.372 32.6151 134.874L33.2543 135.2H33.2613Z" fill="#433A58"/>
<path fill-rule="evenodd" clip-rule="evenodd" d="M105.781 119.679C105.851 120.235 105.329 124.188 103.287 125.363L103.773 125.884C106.191 124.237 106.67 120.041 106.49 119.784L105.781 119.679ZM98.4513 119.207C98.4513 119.207 97.0409 122.285 98.4513 125.231L99.0974 124.918C97.826 122.278 99.0974 119.506 99.0974 119.499L98.4443 119.207H98.4513ZM101.55 119.096C101.383 119.686 99.6185 123.139 100.452 125.703L101.161 125.571C100.584 122.493 102.182 119.436 102.182 119.429L101.55 119.096Z" fill="#433A58"/>
<path fill-rule="evenodd" clip-rule="evenodd" d="M76.1145 109.112C76.4272 109.571 77.8028 113.315 76.5453 115.302L77.2192 115.539C78.5948 112.954 77.0733 109.015 76.7954 108.876L76.1215 109.119L76.1145 109.112ZM69.4031 112.093C69.4031 112.093 69.5837 115.469 72.203 117.421L72.6337 116.845C70.2854 115.094 70.1256 112.051 70.1187 112.044L69.4031 112.086V112.093ZM72.0988 110.557H72.8144C72.8144 110.557 72.8144 114.01 74.7597 116.47L74.197 116.914C72.2725 115.038 72.2238 111.155 72.0988 110.557Z" fill="#433A58"/>
<path fill-rule="evenodd" clip-rule="evenodd" d="M63.2127 37.9748C61.976 38.1068 61.0728 39.2184 61.2048 40.4551L61.3438 41.803C61.4758 43.0396 62.5874 43.9428 63.8241 43.8108C65.0608 43.6788 65.964 42.5672 65.832 41.3305L65.693 39.9827C65.561 38.746 64.4494 37.8428 63.2127 37.9748Z" fill="#433A58"/>
<path fill-rule="evenodd" clip-rule="evenodd" d="M44.0858 39.9827C42.8491 40.1147 41.9459 41.2263 42.0779 42.463L42.2168 43.8108C42.3488 45.0475 43.4605 45.9507 44.6972 45.8187C45.9338 45.6867 46.837 44.5751 46.705 43.3384L46.5661 41.9905C46.4341 40.7539 45.3225 39.8507 44.0858 39.9827Z" fill="#433A58"/>
<path fill-rule="evenodd" clip-rule="evenodd" d="M64.3104 29.8807C62.4068 29.6306 60.7254 30.5199 60.5517 31.8678C60.378 33.2087 61.7745 34.5009 63.6782 34.7511C65.5818 35.0012 67.2632 34.1119 67.4369 32.764C67.6106 31.4231 66.2141 30.1309 64.3104 29.8807Z" fill="#433A58"/>
<path fill-rule="evenodd" clip-rule="evenodd" d="M43.8148 32.0276C45.6212 31.3884 47.4554 31.9095 47.9 33.1878C48.3516 34.4662 47.2469 36.0155 45.4405 36.6547C43.6342 37.2939 41.8 36.7728 41.3553 35.4945C40.9037 34.2161 42.0084 32.6668 43.8148 32.0276Z" fill="#433A58"/>
<path fill-rule="evenodd" clip-rule="evenodd" d="M54.4239 47.8127C54.2572 47.9169 54.2016 48.1392 54.3058 48.306C54.41 48.4727 54.6323 48.5283 54.7991 48.4241C56.8834 47.1457 58.662 47.3333 59.8778 48.1601C60.8158 48.7993 61.4202 49.8275 61.5592 50.8488C61.6912 51.8423 61.3855 52.8359 60.5101 53.4542C59.2873 54.3227 56.9876 54.5102 53.2706 53.1346C53.083 53.0651 52.8746 53.1624 52.812 53.35C52.7426 53.5376 52.8398 53.746 53.0274 53.8085C57.0015 55.2745 59.5304 55.0244 60.9269 54.0378C62.0455 53.2458 62.4485 51.9952 62.2748 50.7515C62.108 49.5357 61.3994 48.3268 60.2877 47.5695C58.8635 46.5968 56.8 46.3606 54.4308 47.8127H54.4239Z" fill="#D16E5B"/>
<path fill-rule="evenodd" clip-rule="evenodd" d="M60.0168 61.9651C60.2043 61.8956 60.2947 61.6872 60.2182 61.4996C60.1488 61.312 59.9403 61.2217 59.7528 61.2981C59.725 61.3051 51.0821 64.7997 45.3433 57.3171C45.6976 57.2337 46.0519 57.2754 46.2256 57.3171C46.4202 57.3518 46.6078 57.2268 46.6425 57.0322C46.6772 56.8377 46.5522 56.6501 46.3576 56.6154C46.038 56.5528 45.3155 56.4764 44.6763 56.8099C44.2664 57.0253 43.8912 57.3935 43.6897 58.0258C43.6272 58.2133 43.7384 58.4148 43.926 58.4774C44.1135 58.5399 44.315 58.4287 44.3776 58.2411C44.454 57.991 44.5651 57.8104 44.7041 57.6714C50.7694 65.7029 59.982 61.9859 60.0098 61.972L60.0168 61.9651Z" fill="#D16E5B"/>
</svg>
