<svg width="289" height="212" viewBox="0 0 289 212" fill="none" xmlns="http://www.w3.org/2000/svg">
<g clip-path="url(#clip0_158_10637)">
<path fill-rule="evenodd" clip-rule="evenodd" d="M5.62134 212C16.3129 207.437 34.0887 201.428 56.0124 199.926C92.4971 197.428 119.4 193.177 152.971 189.428C186.542 185.678 198.486 201.923 245.929 201.923C261.879 201.923 278.004 214.538 293.373 212H5.62134Z" fill="#A6A828"/>
<path fill-rule="evenodd" clip-rule="evenodd" d="M293.379 212H234.709C262.8 210.862 279.683 215.084 293.379 212ZM216.597 212H44.5071C63.6143 206.555 94.7788 199.135 122.768 199.135C161.216 199.135 179.487 210.395 216.597 212Z" fill="#74711C"/>
<path fill-rule="evenodd" clip-rule="evenodd" d="M256.126 204.074C256.126 204.074 253.776 182.577 260.206 182.577C266.636 182.577 261.691 198.759 261.691 198.759C261.691 198.759 267.034 188.927 271.079 190.361C275.125 191.795 264.331 202.987 264.331 202.987L256.126 204.074Z" fill="#A6A828"/>
<path fill-rule="evenodd" clip-rule="evenodd" d="M41.059 205.695C41.059 205.695 37.7929 185.598 27.9889 186.418C18.185 187.237 37.9579 206.68 37.9579 206.68L41.0647 205.701L41.059 205.695Z" fill="#A6A828"/>
<path fill-rule="evenodd" clip-rule="evenodd" d="M43.8358 202.281C43.8358 202.281 38.5725 185.951 44.8031 185.092C51.0337 184.233 47.062 202.714 47.062 202.714L43.8415 202.281H43.8358Z" fill="#A6A828"/>
<path fill-rule="evenodd" clip-rule="evenodd" d="M172.704 115.366L192.096 108.083C192.096 108.083 197.575 100.538 199.829 101.038C202.082 101.539 220.973 120.18 221.098 122.308C221.223 124.436 216.216 126.564 213.217 122.308C210.213 118.052 200.204 115.804 200.204 115.804C200.204 115.804 185.689 120.811 177.057 124.686C168.425 128.567 168.05 116.805 172.704 115.372V115.366Z" fill="#EAAD8E"/>
<path fill-rule="evenodd" clip-rule="evenodd" d="M90.0902 54.5505L72.929 68.7245C72.929 68.7245 69.5434 71.3419 73.1281 75.7403C77.9248 81.6295 93.0319 69.0886 95.1771 64.8325C98.4659 58.3117 92.0874 52.4907 90.0902 54.5505Z" fill="#EAAD8E"/>
<path fill-rule="evenodd" clip-rule="evenodd" d="M67.3356 130.507L55.2044 147.304C55.2044 147.304 54.8118 156.619 52.661 157.449C50.5101 158.28 24.4554 153.193 23.1751 151.492C21.8949 149.791 24.8878 145.25 29.7415 147.133C34.5951 149.017 44.1828 145.358 44.1828 145.358C44.1828 145.358 53.5088 133.164 58.5559 125.153C63.603 117.147 70.4196 126.74 67.3356 130.507Z" fill="#EAAD8E"/>
<path fill-rule="evenodd" clip-rule="evenodd" d="M56.0579 146.735C56.0579 146.735 52.9227 147.976 50.1346 146.513C47.3465 145.051 47.3009 141.21 47.3009 141.21C47.3009 141.21 39.9323 147.059 32.9222 146.473C25.912 145.887 21.3429 146.764 22.6004 153.666C33.5026 156.96 52.678 160.784 53.8957 159.976C55.2499 159.077 58.1746 150.769 56.0636 146.735H56.0579Z" fill="#422E4F"/>
<path fill-rule="evenodd" clip-rule="evenodd" d="M22.3102 150.986C22.3045 151.64 22.3671 152.368 22.5151 153.182C33.4172 156.476 52.6724 160.784 53.89 159.976C54.2428 159.743 54.7037 159.003 55.1532 157.973C52.513 157.853 47.6651 157.501 40.3022 155.942C32.9393 154.383 25.3772 151.862 22.3102 150.991V150.986Z" fill="white"/>
<path fill-rule="evenodd" clip-rule="evenodd" d="M101.174 45.8163C100.457 45.0994 98.5797 43.2216 98.5797 43.2216L83.9449 56.9005C83.9449 56.9005 82.8012 58.6189 87.0915 63.336C91.3818 68.053 94.6024 69.1967 94.6024 69.1967C94.6024 69.1967 104.401 58.545 105.755 54.8976C107.115 51.2503 101.18 45.8163 101.18 45.8163H101.174Z" fill="#74711C"/>
<path fill-rule="evenodd" clip-rule="evenodd" d="M142.109 95.0694C142.109 95.0694 143.929 111.61 149.881 123.19C149.881 123.19 162.502 111.69 181.893 106.939C181.893 106.939 182.736 108.122 185.364 115.628C187.993 123.133 189.814 125.841 189.814 125.841L143.878 146.075C143.878 146.075 135.44 150.707 131.309 139.953C127.172 129.198 118.074 108.851 118.074 108.851C118.074 108.851 117.072 92.4008 142.114 95.0637L142.109 95.0694Z" fill="#422E4F"/>
<path fill-rule="evenodd" clip-rule="evenodd" d="M105.305 20.0518C105.305 20.0518 102.819 13.6163 103.792 8.26765C104.765 2.919 101.687 2.59467 100.981 5.08122C100.981 5.08122 100.452 -0.972997 97.2767 0.136564C94.9836 0.938861 97.3848 3.75544 97.3848 3.75544C97.3848 3.75544 84.4969 -0.654354 78.7158 7.07843C72.9347 14.8055 72.6615 15.238 72.6615 15.238C72.6615 15.238 67.5576 12.8083 67.3925 18.4244C67.2332 24.0462 73.7939 32.3707 84.1156 26.4758C94.4374 20.5866 100.548 22.8 100.548 22.8C100.548 22.8 104.873 24.8029 105.3 20.0461L105.305 20.0518Z" fill="#422E4F"/>
<path fill-rule="evenodd" clip-rule="evenodd" d="M144.589 80.0306C144.589 80.0306 151.588 107.593 135.184 114.376C118.779 121.158 78.8068 107.44 78.8068 107.44C78.8068 107.44 70.3456 135.082 63.8874 143.059C63.8874 143.059 54.6695 140.897 46.1572 136.072C46.1572 136.072 58.0153 112.748 63.3924 97.2373C63.3924 97.2373 66.0212 87.6041 74.8977 88.4803C83.7799 89.3566 103.667 91.2343 113.175 89.8573C122.683 88.4803 144.589 80.0249 144.589 80.0249V80.0306Z" fill="#58456C"/>
<path fill-rule="evenodd" clip-rule="evenodd" d="M105.863 35.5401C105.863 35.5401 113.795 33.5542 122.592 34.6183C131.389 35.688 144.385 51.9957 150.854 72.2751C150.854 72.2751 154.888 72.3661 155.304 78.7788C155.713 85.1915 133.187 92.6739 118.057 92.4292C102.927 92.1846 115.343 85.9312 115.343 85.9312C115.343 85.9312 109.59 66.9947 107.513 60.5649C107.513 60.5649 97.8115 52.6102 97.7262 47.3469C97.6465 42.0836 102.045 38.5103 102.045 38.5103L105.869 35.5401H105.863Z" fill="#A6A828"/>
<path fill-rule="evenodd" clip-rule="evenodd" d="M104.025 27.8813C104.025 27.8813 104.458 33.0706 109.92 37.0195C109.92 37.0195 112.048 39.9043 108.196 42.6413C104.344 45.3782 102.847 43.8248 102.847 43.8248C102.847 43.8248 97.749 38.4761 96.628 36.9228C95.5071 35.3694 97.749 29.5257 104.025 27.887V27.8813Z" fill="#EAAD8E"/>
<path fill-rule="evenodd" clip-rule="evenodd" d="M104.025 27.8813C104.025 27.8813 104.139 29.2639 105.004 31.1474C105.004 31.1474 106.204 39.6881 101.402 42.2885C99.8031 40.5872 97.362 37.9356 96.628 36.9171C95.5071 35.3637 97.749 29.52 104.025 27.8813Z" fill="#D16E5B"/>
<path fill-rule="evenodd" clip-rule="evenodd" d="M159.093 64.6049C159.093 64.6049 155.776 66.3517 155.099 69.2138C154.422 72.0759 156.226 75.9053 160.032 75.3363C163.839 74.7673 159.093 64.6049 159.093 64.6049Z" fill="#D16E5B"/>
<path fill-rule="evenodd" clip-rule="evenodd" d="M76.0585 23.0277C76.0585 23.0277 81.5608 34.6752 83.4214 36.2513C85.282 37.8218 93.4985 40.8261 98.2895 38.6127C103.081 36.3993 105.937 32.678 105.652 24.82C105.652 24.82 109.8 24.3193 109.01 19.0332C108.224 13.7472 101.721 14.6007 102.432 21.4629C102.432 21.4629 96.9011 20.5411 95.0633 12.9733C95.0633 12.9733 88.036 19.7274 76.0585 23.039V23.0277Z" fill="#EAAD8E"/>
<path fill-rule="evenodd" clip-rule="evenodd" d="M133.966 30.988C133.966 30.988 146.655 27.483 159.805 27.9552C159.805 27.9552 163.793 27.648 165.256 35.4149C166.718 43.1761 165.921 65.5039 165.921 65.5039L158.359 66.1639C158.359 66.1639 154.063 48.8377 154.103 41.0993C154.103 41.0993 147.582 39.8247 135.281 42.6128C122.979 45.4009 131.4 31.6424 133.966 30.988Z" fill="#EAAD8E"/>
<path fill-rule="evenodd" clip-rule="evenodd" d="M114.301 35.3125C114.301 35.3125 127.485 29.7931 137.209 28.2909C137.209 28.2909 141.574 34.5841 141.5 44.9514C141.5 44.9514 128.987 46.0951 121.192 45.2359C113.397 44.3767 111.325 38.0152 114.301 35.3125Z" fill="#A6A828"/>
<path fill-rule="evenodd" clip-rule="evenodd" d="M52.7292 90.011C52.7292 90.011 61.9187 74.5283 71.8364 69.6121C81.7542 64.6959 84.6789 74.0276 80.2919 77.8172C75.8991 81.6067 62.4649 90.2784 58.5217 94.5289C58.5217 94.5289 54.8061 93.7323 52.7349 90.011H52.7292Z" fill="#EAAD8E"/>
<path fill-rule="evenodd" clip-rule="evenodd" d="M191.072 108.083C191.072 108.083 194.372 108.788 195.885 111.542C197.399 114.302 195.316 117.528 195.316 117.528C195.316 117.528 204.694 116.731 210.207 121.096C215.721 125.46 220.011 127.258 222.788 120.811C215.527 112.037 201.666 98.2502 200.204 98.2502C198.582 98.2502 191.549 103.553 191.077 108.083H191.072Z" fill="#422E4F"/>
<path fill-rule="evenodd" clip-rule="evenodd" d="M221.536 123.201C221.906 122.66 222.253 122.018 222.577 121.255C215.317 112.481 201.661 98.2445 200.198 98.2445C199.777 98.2445 198.986 98.6029 198.042 99.2175C200.176 100.777 204.016 103.752 209.291 109.124C214.566 114.495 219.465 120.777 221.542 123.201H221.536Z" fill="white"/>
<path fill-rule="evenodd" clip-rule="evenodd" d="M160.829 64.0757L158.359 66.1582C158.359 66.1582 157.073 70.955 157.21 72.1954C157.21 72.1954 157.529 75.1542 159.247 76.4345C164.482 80.3379 169.529 75.7744 169.683 73.5269C169.859 70.9663 167.651 71.0346 167.651 71.0346L165.921 65.4982L160.829 64.0757Z" fill="#EAAD8E"/>
<path fill-rule="evenodd" clip-rule="evenodd" d="M54.937 90.7905L52.7349 90.0166C52.7349 90.0166 48.1146 90.9555 43.2382 91.3879C43.2382 91.3879 41.5597 94.1533 45.2411 97.6186C48.9226 101.084 51.7961 101.681 51.7961 101.681C51.7961 101.681 57.8275 99.0297 58.5217 94.5345L54.937 90.7905Z" fill="#D16E5B"/>
<path fill-rule="evenodd" clip-rule="evenodd" d="M43.0277 88.8672C43.0277 88.8672 46.7433 89.3794 50.7548 88.1162C54.7663 86.853 56.6554 89.7663 53.5884 91.2969C50.5215 92.8275 44.0633 93.112 41.6621 91.7919C39.2609 90.4719 40.6265 88.3495 43.0277 88.8729V88.8672Z" fill="#EAAD8E"/>
<path fill-rule="evenodd" clip-rule="evenodd" d="M83.7912 27.3748C84.3033 27.1188 84.9349 27.3293 85.1967 27.8414L85.3958 28.2454C85.6519 28.7575 85.4414 29.3891 84.9292 29.6509C84.4171 29.9069 83.7855 29.6964 83.5238 29.1843L83.3246 28.7803C83.0686 28.2682 83.2791 27.6366 83.7912 27.3748Z" fill="#422E4F"/>
<path fill-rule="evenodd" clip-rule="evenodd" d="M92.1499 23.8186C92.662 23.5625 93.2936 23.773 93.5554 24.2852L93.7545 24.6891C94.0106 25.2012 93.8001 25.8328 93.2879 26.0946C92.7758 26.3506 92.1442 26.1401 91.8825 25.628L91.6834 25.224C91.4273 24.7119 91.6378 24.0803 92.1499 23.8186Z" fill="#422E4F"/>
<path fill-rule="evenodd" clip-rule="evenodd" d="M88.9237 21.1898C88.9237 21.1898 92.8384 20.1314 93.1116 19.3348C93.3847 18.5325 89.4358 17.588 88.3604 18.7544C87.285 19.9209 88.1612 21.5027 88.9237 21.1955V21.1898Z" fill="#422E4F"/>
<path fill-rule="evenodd" clip-rule="evenodd" d="M83.9108 23.1585C83.9108 23.1585 80.3943 25.1785 79.6375 24.8086C78.8807 24.4331 81.0031 20.9735 82.585 21.0361C84.1668 21.0987 84.6675 22.8399 83.9108 23.1585Z" fill="#422E4F"/>
<path fill-rule="evenodd" clip-rule="evenodd" d="M89.3333 28.0633C89.4585 27.9837 89.6235 28.0235 89.7032 28.1487C89.7829 28.2739 89.743 28.4389 89.6178 28.5185C85.3389 31.1929 89.7203 34.7833 92.4743 30.7718C92.5596 30.6466 92.7246 30.6182 92.8498 30.7035C92.975 30.7889 93.0034 30.9539 92.9181 31.0791C89.6691 35.8189 84.3204 31.2043 89.3333 28.069V28.0633Z" fill="#D16E5B"/>
<path fill-rule="evenodd" clip-rule="evenodd" d="M92.3036 33.7705C92.3036 33.7705 95.746 28.8144 98.6252 27.9211C101.504 27.0221 103.2 30.988 100.56 34.385C97.9196 37.782 92.1613 35.3751 92.3036 33.7705Z" fill="#D16E5B"/>
<path fill-rule="evenodd" clip-rule="evenodd" d="M34.0261 83.1544C34.0261 83.1544 51.3807 101.567 59.8418 107.809C59.8418 107.809 63.364 106.376 64.6954 109.647C66.0269 112.919 59.3923 111.61 59.3923 111.61C59.3923 111.61 61.7765 114.962 58.1974 116.339C54.6127 117.722 54.5956 111.758 56.24 109.79C56.24 109.79 39.938 92.3382 30.9364 85.7946C30.9364 85.7946 28.8709 86.7676 26.7143 84.5371C24.5521 82.3066 28.1539 80.6337 29.7699 81.51C29.7699 81.51 29.1098 79.4218 31.9264 78.6138C34.743 77.8001 35.625 81.8116 34.0261 83.1601V83.1544Z" fill="white"/>
<path fill-rule="evenodd" clip-rule="evenodd" d="M37.4913 95.6953C37.4913 95.6953 40.5639 92.4406 43.2553 93.0551C45.9467 93.6697 43.9495 96.6854 40.8712 97.6129C37.7929 98.5403 36.598 97.3284 37.4913 95.6953Z" fill="#EAAD8E"/>
<path fill-rule="evenodd" clip-rule="evenodd" d="M38.6691 99.7751C38.6691 99.7751 42.2823 95.8489 45.4915 95.7295C47.301 95.6612 47.7732 96.8902 47.3066 97.7039C46.8571 98.4948 45.85 99.3142 44.8485 100.242C42.5555 102.37 39.3861 102.552 38.8854 101.96C38.3846 101.374 38.14 100.025 38.6691 99.7751Z" fill="#EAAD8E"/>
<path fill-rule="evenodd" clip-rule="evenodd" d="M42.5953 101.38C42.5953 101.38 45.7589 98.3867 47.3465 98.546C48.934 98.7054 48.0805 100.225 46.7604 101.522C45.4403 102.825 43.6422 104.208 42.6806 103.297C41.719 102.387 42.5953 101.374 42.5953 101.374V101.38Z" fill="#EAAD8E"/>
<path fill-rule="evenodd" clip-rule="evenodd" d="M45.298 103.161C45.298 103.161 46.8287 100.065 48.7576 100.89C50.6865 101.715 49.2526 103.809 47.2725 104.424C45.2923 105.038 45.298 103.161 45.298 103.161Z" fill="#EAAD8E"/>
<path fill-rule="evenodd" clip-rule="evenodd" d="M104.531 22.4871C104.577 22.7033 104.435 22.9138 104.213 22.9594C103.991 23.0049 103.786 22.8626 103.741 22.6407C103.741 22.6293 102.83 18.174 106.216 16.7231C106.421 16.6377 106.66 16.7344 106.745 16.9393C106.83 17.1441 106.739 17.3831 106.534 17.4685C105.755 17.8042 105.254 18.3504 104.935 18.9593C107.564 19.0844 107.342 21.258 107.342 21.2637C107.325 21.4856 107.132 21.6507 106.91 21.6336C106.688 21.6165 106.523 21.423 106.54 21.2011C106.54 21.2011 106.688 19.7445 104.623 19.7616C104.253 21.1158 104.526 22.4871 104.531 22.4928V22.4871Z" fill="#D16E5B"/>
<path fill-rule="evenodd" clip-rule="evenodd" d="M117.516 120.971C117.516 120.971 122.262 114.285 129.818 114.165C137.374 114.04 137.124 119.474 137.124 119.474L120.287 123.474L117.51 120.976L117.516 120.971Z" fill="#A36159"/>
<path fill-rule="evenodd" clip-rule="evenodd" d="M122.319 146.65C122.319 146.65 118.887 157.017 113.129 161.962C107.371 166.906 101.288 157.341 95.3079 155.987C89.3333 154.627 83.0288 158.269 84.2806 162.508C85.5324 166.747 85.7486 166.15 85.7486 166.15L94.3861 162.292C94.3861 162.292 104.31 175.885 112.429 174.804C120.549 173.729 126.228 164.027 126.37 163.379C126.512 162.73 122.319 146.655 122.319 146.655V146.65Z" fill="#A36159"/>
<path fill-rule="evenodd" clip-rule="evenodd" d="M189.564 170.588C189.564 170.588 192.079 174.326 202.065 177.774C202.065 177.774 205.945 177.638 208.011 183.504C210.076 189.371 216.438 207.38 216.438 207.38H197.934C197.934 207.38 195.726 200.756 205.615 202.754C205.615 202.754 207.186 203.004 205.035 198.788C202.884 194.571 199.419 187.385 199.419 187.385C199.419 187.385 185.575 190.861 178.32 181.809C171.065 172.756 167.833 168.517 159.64 170.531C151.452 172.545 172.932 161.91 172.932 161.91C172.932 161.91 188.881 163.851 189.564 170.593V170.588Z" fill="#A36159"/>
<path fill-rule="evenodd" clip-rule="evenodd" d="M94.7218 120.06C94.7218 120.06 103.843 121.568 108.293 120.06C112.742 118.552 113.914 115.502 121.607 119.013C129.3 122.53 131.485 128.413 136.231 135.725C140.976 143.037 160.317 147.196 160.317 147.196C160.317 147.196 179.31 141.404 187.953 147.196C196.597 152.988 207.186 164.073 207.186 164.073C207.186 164.073 217.485 158.297 223.135 164.955C228.785 171.612 240.404 186.657 241.497 187.641C242.589 188.625 239.75 191.789 234.617 189.934C229.485 188.079 214.85 171.259 214.85 171.259C214.85 171.259 192.767 178.247 186.593 174.258C180.42 170.269 173.575 167.572 173.575 167.572C173.575 167.572 159.156 175.219 149.545 176.636C139.935 178.059 134.99 171.168 130.899 171.236C126.808 171.31 125.727 176.409 120.344 177.917C114.956 179.424 102.631 181.564 102.631 181.564L99.0975 191.846C99.0975 191.846 98.409 193.035 96.9751 192.284C95.5412 191.533 93.9138 188.847 94.352 183.976C94.7901 179.106 98.096 174.485 100.657 173.484C103.217 172.483 115.013 170.827 118.751 166.514C122.484 162.206 122.632 159.765 122.632 159.765L118.33 143.458C118.33 143.458 118.745 139.742 112.463 141.557C106.187 143.372 98.5911 145.523 97.1856 138.997C97.1856 138.997 96.9011 138.382 99.4047 138.217C101.908 138.052 108.941 137.534 109.374 136.817C112.367 131.907 98.5285 135.196 94.938 129.181C91.7289 123.798 91.8711 120.396 94.7275 120.06H94.7218Z" fill="#BC7E68"/>
<path fill-rule="evenodd" clip-rule="evenodd" d="M120.293 122.53C120.293 122.53 130.472 114.785 138.78 116.783C147.087 118.78 145.648 129.085 139.218 128.026C132.783 126.962 128.726 125.591 124.725 126.029C120.725 126.467 117.607 125.028 120.293 122.53Z" fill="#BC7E68"/>
<path d="M116.082 123.087C116.082 122.295 115.442 121.653 114.651 121.653C113.861 121.653 113.22 122.295 113.22 123.087V123.167C113.22 123.959 113.861 124.601 114.651 124.601C115.442 124.601 116.082 123.959 116.082 123.167V123.087Z" fill="#422E4F"/>
<path fill-rule="evenodd" clip-rule="evenodd" d="M109.647 136.129C108.765 134.871 106.312 133.961 103.94 136.157C101.061 138.82 103.177 151.697 113.556 152.027C113.556 152.027 116.281 151.998 117.852 149.677C119.422 147.355 117.567 146.496 113.209 145.785C106.062 144.613 106.933 137.466 108.537 137.136L108.97 137.079C108.97 137.079 109.533 137.005 109.653 136.14L109.647 136.129Z" fill="#A33E5F"/>
<path fill-rule="evenodd" clip-rule="evenodd" d="M179.731 148.283C179.731 148.283 191.68 149.665 200.864 140.738C210.048 131.81 206.588 125.915 206.839 124.18C207.089 122.444 217.257 125.585 215.772 135.924C214.281 146.263 205.024 146.593 205.024 146.593C205.024 146.593 206.486 147.111 207.908 146.781C209.325 146.451 210.412 150.28 201.336 150.564C192.255 150.849 185.734 149.335 181.62 150.377C177.506 151.418 179.743 148.288 179.743 148.288L179.731 148.283Z" fill="#BC7E68"/>
<path fill-rule="evenodd" clip-rule="evenodd" d="M123.331 123.127C123.331 123.127 130.854 117.807 136.936 119.895C143.019 121.983 143.286 126.604 139.81 126.769C136.328 126.934 136.766 123.508 123.331 123.127Z" fill="#A36159"/>
<path fill-rule="evenodd" clip-rule="evenodd" d="M118.927 147.617C118.927 147.617 126.899 148.027 136.231 135.731C136.231 135.731 136.874 135.554 137.443 136.043C138.012 136.533 140.134 138.604 140.362 139.179L140.589 139.753C140.589 139.753 135.292 150.906 119.9 152.408C118.643 152.636 118.381 148.374 118.922 147.623L118.927 147.617Z" fill="#6DA8BD"/>
<path fill-rule="evenodd" clip-rule="evenodd" d="M98.1871 120.47C98.1871 120.47 94.7048 118.956 92.3263 119.724C89.9479 120.493 90.8355 124.84 94.5113 124.771C98.1871 124.698 100.856 122.632 98.1871 120.47Z" fill="#422E4F"/>
</g>
<defs>
<clipPath id="clip0_158_10637">
<rect width="287.757" height="212" fill="white" transform="translate(0.621307)"/>
</clipPath>
</defs>
</svg>
