<svg width="329" height="212" viewBox="0 0 329 212" fill="none" xmlns="http://www.w3.org/2000/svg">
<path d="M213.808 103.135L216.306 104.104C222.723 106.603 227.644 111.914 229.657 118.518L245.432 170.386L220.936 162.781L211.633 147.689L213.808 103.135Z" fill="#CDE8F1"/>
<path d="M231.606 162.76C230.164 152.364 227.752 142.055 224.058 132.22C222.465 127.965 220.645 123.742 218.545 119.702C217.178 117.063 215.563 114.176 213.366 112.033L211.622 147.689L220.925 162.781L232.037 166.228C231.897 165.065 231.768 163.912 231.606 162.749V162.76Z" fill="#472740"/>
<path d="M136.347 156.716C138.403 167.995 139.232 179.467 138.812 190.919L138.511 199.213L138.069 211.289H212.494L212.85 200.237L213.226 188.215C213.366 184.153 213.894 180.103 214.928 176.16C224.823 138.403 213.808 103.145 213.808 103.145C210.75 102.24 206.281 100.915 201.877 99.6012C194.556 97.4252 187.449 95.3031 187.449 95.3031L172.202 93.4179L154.307 95.3785L141.429 96.7897C141.429 101.088 131.889 132.112 131.889 132.112L136.368 156.727L136.347 156.716Z" fill="#CDE8F1"/>
<path d="M154.296 95.3677C155.696 110.104 165.957 121.555 178.415 121.555C189.646 121.555 199.099 112.248 201.867 99.5905C194.545 97.4145 187.438 95.2923 187.438 95.2923L172.192 93.4072L154.296 95.3677Z" fill="white"/>
<path d="M138.069 211.278H146.877C147.006 206.366 147.254 201.454 147.383 196.542C147.48 192.825 147.512 189.109 147.372 185.392C147.233 181.762 146.877 178.142 146.576 174.523C146.263 170.839 145.951 167.155 145.693 163.46C145.434 159.765 145.305 156.07 145.036 152.375C144.508 145.19 143.679 138.015 142.355 130.927C141.278 125.164 139.071 119.767 137.154 114.273C134.613 123.203 131.878 132.101 131.878 132.101L136.368 156.716C138.425 167.995 139.254 179.467 138.834 190.919L138.091 211.278H138.069Z" fill="#472740"/>
<path d="M220.494 51.7397C218.675 51.7397 217.146 50.2854 216.349 48.648C215.552 47.0106 215.315 45.1685 214.82 43.4234C212.871 36.4429 206.583 30.8736 199.412 29.7856C198.755 29.6886 198.077 29.624 197.441 29.4086C196.752 29.1823 196.128 28.7945 195.492 28.4498C191.422 26.2415 186.555 25.5305 182.033 26.4893C177.5 27.4588 173.344 30.0872 170.533 33.7606C169.295 35.3764 168.304 37.1862 166.862 38.6189C164.956 40.5041 162.307 41.6029 159.626 41.6136C160.961 42.6586 162.555 43.3695 164.213 43.6819C160.412 46.3427 158.011 50.7594 157.419 55.3592C157.02 58.4616 157.419 61.6287 158.388 64.6126C158.872 66.0777 158.894 67.6828 158.334 69.1155C157.946 70.0958 157.354 70.9468 156.471 71.5285C158.528 71.1084 160.455 70.1065 162.005 68.6846C160.896 70.6128 160.81 73.0905 161.779 75.0941C162.748 77.0978 164.751 78.5628 166.948 78.886C165.871 77.8195 166.076 75.7728 167.335 74.9433C167.615 76.4838 168.757 77.7118 169.855 78.8321C170.953 79.9525 172.105 81.159 172.407 82.6994C172.719 84.2399 171.739 86.1358 170.167 86.1681C174.808 87.3208 180.095 84.2722 181.43 79.6832C181.581 83.7659 185.177 87.073 189.096 88.2149C193.016 89.3675 197.204 88.8397 201.264 88.301C199.649 88.4088 198.206 86.6744 198.604 85.1017C198.701 84.7246 198.884 84.3584 199.196 84.1106C199.638 83.7551 200.241 83.6905 200.801 83.6043C205.904 82.8179 210.147 78.1535 210.448 72.9827C210.599 74.1462 211.708 74.9972 212.86 75.2234C214.012 75.4496 215.197 75.1911 216.338 74.9218C213.765 72.3795 214.346 68.1029 215.498 64.6773C216.65 61.2409 218.179 57.5352 216.909 54.1419C218.416 54.0234 219.827 53.0754 220.494 51.7181V51.7397Z" fill="#472740"/>
<path d="M174.076 103.124C175.013 103.77 176.014 104.32 176.994 104.697C182.894 106.937 189.559 104.352 190.292 98.7179L190.324 98.5671V98.3624L190.356 97.9638L190.389 97.6191L190.625 95.3785L190.776 94.3982L192.262 85.3925C192.316 84.7031 184.036 82.5271 184.036 82.5271L182.055 80.8573L179.869 79.0368L177.349 76.9254L173.602 73.8015L173.311 73.586L173.161 75.1695L170.792 87.0838V87.1161L170.167 89.96L169.532 93.2025C168.811 96.725 170.598 100.582 174.076 103.113V103.124Z" fill="#BF7461"/>
<path d="M179.427 92.9763C182.001 95.0338 185.328 97.2421 190.41 97.6299L190.647 95.3893L190.798 94.409L192.284 85.4033C192.337 84.7139 184.057 82.5378 184.057 82.5378L182.076 80.8681L179.89 79.0476L177.371 76.9362C176.574 80.922 174.851 89.2598 179.438 92.9763H179.427Z" fill="#472740"/>
<path d="M165.085 62.2643C165.709 65.9915 168.186 68.6846 170.802 68.6846C170.802 68.7169 170.803 68.7492 170.813 68.7815C170.953 69.7187 171.158 70.6344 171.405 71.55C172.493 75.6004 174.463 79.3708 177.252 82.484C177.704 82.9903 178.178 83.475 178.684 83.949C179.083 84.3476 179.503 84.7139 179.933 85.0801C180.321 85.4141 180.719 85.7157 181.128 86.0281C181.484 86.2866 181.818 86.5128 182.13 86.7067C183.045 87.31 184.079 87.7732 185.177 88.0964C192.316 90.2939 199.864 87.1699 203.923 81.1482C204.602 80.1464 205.183 79.0584 205.646 77.9165C206.227 76.5269 206.734 75.1157 207.207 73.6614C207.283 73.4244 207.347 73.1874 207.423 72.9504C207.444 72.8858 207.466 72.8104 207.487 72.735C207.53 72.6165 207.563 72.5088 207.595 72.3903C208.79 68.2968 209.608 63.9555 210.19 59.4634C211.31 55.1653 209.77 49.6714 208.424 46.1273C207.498 43.6496 206.174 41.2905 204.386 39.2976C193.802 27.5126 179.847 34.1053 179.847 34.1053C170.383 36.346 170.889 51.8474 170.889 51.8474C170.792 52.6984 170.738 53.5171 170.663 54.3035C170.135 54.1634 169.564 54.0988 168.994 54.185C166.172 54.6482 164.428 58.2677 165.074 62.2643H165.085Z" fill="#BF7461"/>
<path d="M214.12 51.0179C213.689 48.1201 212.72 45.3193 211.31 42.7555C209.921 40.2348 208.112 37.9403 205.969 36.0228C203.751 34.0299 201.178 32.4464 198.389 31.3691C195.449 30.238 192.305 29.6563 189.15 29.6563C186.071 29.6563 182.97 30.2165 180.106 31.3583C177.414 32.4248 174.916 33.9868 172.848 36.0228C170.749 38.1018 169.155 40.6657 168.348 43.5203C167.529 46.4073 167.486 49.5421 168.423 52.4075C168.595 52.9354 168.811 53.4417 169.037 53.9372C169.392 53.9587 169.726 54.0449 170.06 54.185C170.2 54.1419 170.339 54.0988 170.479 54.0557C170.759 54.5081 171.039 54.9498 171.33 55.3807C172.138 56.598 173.031 57.9122 173.085 59.4311C173.161 61.2085 171.976 62.6844 171.513 64.3325C171.298 65.1297 171.266 65.9592 171.513 66.7455C171.761 67.5104 172.224 68.1998 172.827 68.7169C174.356 70.0527 176.585 70.1496 178.404 69.3524C178.555 69.2878 178.469 69.0508 178.318 69.0508C177.586 69.0508 177.048 68.4907 176.811 67.8335C176.531 67.0579 176.628 66.2716 177.026 65.5498C177.478 64.7203 178.189 64.0632 178.857 63.4169C179.535 62.749 180.17 62.038 180.719 61.2624C181.796 59.7112 182.561 57.923 182.927 56.0701C183.11 55.1653 183.196 54.2496 183.196 53.334C183.422 53.2801 183.648 53.2155 183.863 53.1401C184.811 52.8277 185.726 52.4075 186.631 51.9982C187.46 51.6319 188.289 51.2441 189.096 50.8348C192.241 49.2405 195.32 47.2045 197.28 44.199C197.312 44.1559 197.334 44.102 197.366 44.0482C196.591 46.5797 195.008 48.8634 192.887 50.4577C192.197 50.9748 191.465 51.4165 190.69 51.7827C190.582 51.8366 190.582 52.009 190.69 52.0628C194.502 53.9049 198.992 54.2065 203.019 52.9569C203.503 52.8061 203.966 52.623 204.429 52.4291C202.351 53.711 200.004 54.5512 197.57 54.8744C197.398 54.8959 197.344 55.1329 197.527 55.1868C200.715 56.1994 204.106 56.5441 207.423 56.1886C208.209 56.1024 208.995 55.9732 209.77 55.8116C207.433 58.6447 206.884 62.7598 208.23 66.1531C208.618 67.1333 209.167 68.049 209.856 68.8569C209.931 68.9431 210.061 68.9 210.115 68.8246C211.848 66.2285 213.076 63.3199 213.743 60.2714C214.411 57.2335 214.54 54.088 214.077 51.0179H214.12Z" fill="#472740"/>
<path d="M193.705 79.1553C193.36 79.8447 192.93 80.4049 192.424 80.8466C189.323 83.6689 183.863 81.5575 183.185 77.3994C183.024 76.4407 183.12 75.3527 183.583 74.2C183.993 73.1767 185.274 72.8535 186.114 73.5321C188.213 75.2126 190.389 76.2791 192.628 76.85C193.63 77.0978 194.157 78.2181 193.705 79.1445V79.1553Z" fill="#472740"/>
<path d="M192.424 80.8573C189.323 83.6797 183.863 81.5683 183.185 77.4102C184.262 76.9147 185.586 76.6777 186.954 76.8177C189.775 77.087 192.004 78.7998 192.424 80.8573Z" fill="#F8B6C4"/>
<path d="M170.652 58.537C170.383 58.2461 169.952 58.1276 169.607 58.3969C169.317 58.6232 169.187 59.151 169.467 59.4419C170.878 60.95 171.136 63.0937 170.113 64.9035C169.92 65.2589 170.167 65.7329 170.501 65.8837C170.899 66.0561 171.287 65.8406 171.481 65.4959C172.719 63.2768 172.385 60.4006 170.652 58.5478V58.537Z" fill="#472740"/>
<path d="M199.702 73.6829C199.67 70.2465 199.379 66.7886 199.218 63.3522C199.175 62.5443 197.926 62.5335 197.958 63.3522L198.356 71.7116C198.41 72.7565 198.906 74.6955 197.603 75.1049C196.418 75.4819 194.954 75.051 193.877 74.5339C193.156 74.1785 192.499 75.2557 193.22 75.6112C195.438 76.6884 199.724 77.2917 199.692 73.6937L199.702 73.6829Z" fill="#472740"/>
<path d="M187.707 62.8352C187.471 64.0848 187.977 65.2482 188.827 65.4205C189.678 65.6037 190.561 64.7311 190.798 63.4815C191.035 62.2319 190.528 61.0685 189.678 60.8854C188.827 60.7022 187.944 61.5748 187.707 62.8244V62.8352Z" fill="#472740"/>
<path d="M201.533 66.2393C201.296 67.4888 201.802 68.6523 202.653 68.8354C203.503 69.0185 204.386 68.146 204.623 66.8964C204.86 65.6468 204.354 64.4834 203.503 64.3002C202.653 64.1171 201.77 64.9897 201.533 66.2393Z" fill="#472740"/>
<path d="M185.371 58.0846C185.317 58.0415 185.252 58.0307 185.188 58.0092C186.555 56.0163 188.989 54.7667 191.411 54.9067C191.799 54.9283 192.187 54.9821 192.51 55.1976C192.822 55.413 193.037 55.8224 192.93 56.1886C192.8 56.598 192.348 56.7919 191.928 56.8781C191.067 57.0612 190.173 57.0289 189.301 57.0073C188.418 56.9858 187.524 57.0073 186.685 57.2766C186.189 57.4382 185.737 57.7291 185.382 58.0953L185.371 58.0846Z" fill="#472740"/>
<path d="M203.503 57.5352C203.837 57.4382 204.16 57.4921 204.451 57.5782C206.378 58.1492 207.573 60.0236 207.52 62.2427C207.444 61.9303 207.347 61.6287 207.164 61.3809C207.153 61.3701 207.143 61.3593 207.132 61.3486C207.035 61.187 206.927 61.0362 206.798 60.9069C206.324 60.4437 205.668 60.1852 205.011 59.9589C204.354 59.7327 203.686 59.528 203.148 59.1295C202.89 58.9356 202.642 58.6447 202.75 58.2677C202.836 57.923 203.191 57.6321 203.525 57.5352H203.503Z" fill="#472740"/>
<path d="M208.327 91.6189C203.331 90.2293 198.044 90.1539 193.016 91.3819C192.757 91.145 192.198 91.3819 192.294 91.8344C193.113 96.0248 194.814 100.021 197.291 103.501C197.42 103.684 197.689 103.813 197.894 103.662C202.125 100.538 205.754 96.6819 208.596 92.2653C208.747 92.0283 208.596 91.6943 208.338 91.6189H208.327Z" fill="#472740"/>
<path d="M198.249 185.242C198.367 185.543 198.227 185.198 198.357 185.5C191.778 190.38 188.526 197.403 188.429 204.987C188.386 208.65 191.325 211.666 194.986 211.666H195.546C198.152 211.666 200.402 210.061 201.554 207.723C201.856 207.109 202.265 206.506 202.771 205.881C202.803 205.849 202.825 205.817 202.857 205.784C217.706 187.676 210.696 178.11 210.696 178.11C215.38 156.781 202.459 133.879 187.481 120.263C191.422 121.178 196.3 119.519 199.196 115.092C200.058 113.778 200.607 112.291 200.973 110.772C204.354 96.4665 195.212 90.574 195.212 90.574C178.437 82.3116 173.602 93.3964 172.633 96.4234C172.235 97.6515 171.739 98.8472 171.147 99.9891C169.715 102.758 167.562 106.172 165.483 109.296C157.979 120.575 153.348 133.577 152.39 147.097C151.884 154.314 152.562 158.612 152.562 158.612L152.918 165.948C153.069 168.932 153.564 171.862 154.404 174.695C154.533 175.148 154.673 175.6 154.824 176.042C155.911 179.284 157.44 182.376 159.378 185.231C174.28 199.504 180.063 191.306 182.098 185.856C182.851 183.841 183.088 182.193 183.088 182.193C188.17 186.534 195.998 185.619 198.249 185.242Z" fill="#6BA3C6"/>
<path d="M213.786 162.296C213.506 161.262 213.14 160.25 212.688 159.269C212.247 158.311 211.719 157.384 210.987 156.609C210.308 155.887 209.425 155.337 208.424 155.262C207.444 155.187 206.529 155.596 205.797 156.21C205.011 156.867 204.397 157.75 203.934 158.666C203.396 159.733 203.008 160.874 202.717 162.027C202.114 164.419 201.974 166.918 202.319 169.363C202.319 169.363 202.319 169.374 202.319 169.385C202.448 170.3 201.921 171.173 201.038 171.442C198.701 172.164 196.461 173.252 194.663 174.911C193.587 175.902 192.704 177.087 192.133 178.444C191.595 179.726 191.315 181.148 191.39 182.538C191.444 183.647 191.735 184.735 192.262 185.694C192.262 185.737 192.284 185.769 192.305 185.791C192.51 185.823 192.714 185.856 192.908 185.909C194.782 186.179 196.688 186.168 198.561 185.866C200.607 185.532 202.599 184.864 204.429 183.906C206.271 182.947 207.972 181.687 209.404 180.189C210.868 178.649 212.042 176.861 212.871 174.911C213.722 172.929 214.217 170.817 214.379 168.674C214.529 166.53 214.346 164.365 213.786 162.286V162.296Z" fill="#472740"/>
<path d="M178.469 183.184C177.285 181.988 175.723 181.083 174.033 180.857C172.547 180.652 170.867 180.922 169.726 181.977C169.51 182.171 169.327 182.408 169.155 182.667C167.497 180.803 166.636 178.412 165.548 176.204C164.504 174.092 163.05 172.002 160.853 170.947C159.841 170.462 158.721 170.268 157.612 170.473C156.633 170.667 155.75 171.184 155.061 171.884C153.941 173.026 153.273 174.588 153.058 176.182C153.187 176.634 153.327 177.087 153.478 177.528C153.553 177.744 153.618 177.949 153.693 178.164C155.771 184.013 159.734 189.076 165.042 192.287C174.84 198.211 179.072 191.845 180.752 187.342C180.418 185.769 179.6 184.326 178.469 183.184Z" fill="#472740"/>
<path d="M187.977 111.849C187.912 111.742 187.826 111.688 187.729 111.656C187.837 111.429 187.772 111.128 187.471 111.02C185.446 110.363 183.39 109.813 181.301 109.383C180.752 109.264 180.515 110.115 181.064 110.234C182.367 110.503 183.659 110.837 184.94 111.192H183.034C182.464 111.192 182.464 112.076 183.034 112.076H186.555C185.672 112.496 184.811 112.959 183.982 113.498C183.777 113.627 183.702 113.885 183.82 114.101C183.939 114.295 184.219 114.392 184.423 114.262C185.5 113.562 186.631 112.959 187.804 112.453C188.02 112.356 188.074 112.033 187.966 111.849H187.977Z" fill="#472740"/>
<path d="M208.166 113.228C205.334 112.647 202.437 112.539 199.573 112.905C199.272 112.948 199.132 113.228 199.164 113.465C199.003 113.659 198.97 113.972 199.25 114.133C201.167 115.243 202.879 116.665 204.322 118.345C204.688 118.776 205.312 118.151 204.946 117.72C203.902 116.514 202.707 115.437 201.415 114.499C203.191 115.06 205.022 115.426 206.874 115.598C207.434 115.652 207.434 114.769 206.874 114.715C205.054 114.543 203.267 114.166 201.533 113.605C203.665 113.487 205.808 113.638 207.918 114.069C208.467 114.187 208.704 113.336 208.155 113.218L208.166 113.228Z" fill="#472740"/>
<path d="M181.419 86.6637C180.73 86.2651 180.009 85.9312 179.266 85.6726C179.018 85.5864 178.749 85.6188 178.534 85.7696C178.211 85.9958 177.909 86.2543 177.629 86.5344C176.606 87.5147 175.799 88.7212 175.282 90.0354C174.765 91.3497 174.657 93.0517 174.765 94.5275C174.787 94.8722 175.077 95.1307 175.422 95.1523C177.381 95.2277 183.605 95.3462 186.082 95.3893C186.577 95.3893 186.921 94.9045 186.728 94.4413C185.576 91.5974 183.874 88.0856 181.419 86.6744V86.6637Z" fill="#472740"/>
<path d="M179.6 88.0749C179.427 87.9241 179.115 87.9779 178.986 88.161C177.618 90.0354 176.919 92.3084 176.972 94.6352C176.919 94.786 176.94 94.9584 177.048 95.0661C177.155 95.2277 177.36 95.26 177.543 95.1846C179.858 95.26 182.184 95.3354 184.499 95.4108C184.79 95.4108 185.145 95.1308 184.962 94.8076C183.573 92.2653 181.775 90.0031 179.6 88.0856V88.0749Z" fill="#F6BAB9"/>
<path d="M175.088 96.305C175.303 95.2816 174.916 94.1505 174.119 93.4718C175.454 93.4611 176.768 94.2474 177.371 95.4432C177.672 94.7968 177.608 93.9997 177.209 93.4072C178.06 93.2779 178.964 93.698 179.417 94.4413C179.546 93.892 179.513 93.3102 179.341 92.7716C180.213 93.2779 180.978 93.9674 181.57 94.7753C181.688 94.0428 181.688 93.2887 181.57 92.5562C182.561 93.2348 183.444 94.0535 184.208 94.9907C184.574 93.8704 184.402 92.5885 183.756 91.6082C186.028 92.7393 187.417 95.4216 187.029 97.9316" fill="#6BA3C6"/>
<path d="M201.501 101.131C202.244 100.388 203.406 100.108 204.408 100.409C203.697 99.2781 202.319 98.6102 200.995 98.7395C201.371 98.1362 202.082 97.7592 202.793 97.77C202.437 96.9836 201.587 96.445 200.736 96.4773C201.124 96.0679 201.63 95.7771 202.179 95.637C201.285 95.1846 200.295 94.9153 199.282 94.8507C199.832 94.3551 200.467 93.9458 201.156 93.6549C200.047 93.1917 198.873 92.8901 197.689 92.7608C198.421 91.8452 199.595 91.2958 200.768 91.3065C198.593 90.0031 195.578 90.2939 193.683 91.9852" fill="#6BA3C6"/>
<path d="M198.27 148.669C198.217 148.228 198.152 147.775 198.077 147.334C196.752 139.61 192.402 132.446 186.168 127.696C182.119 124.615 176.897 122.514 171.976 123.753C168.078 124.744 164.891 127.749 162.996 131.294C161.101 134.848 160.369 138.91 160.11 142.928C159.712 149.025 160.358 155.262 162.587 160.95C164.816 166.638 168.692 171.776 173.893 174.975C181.387 179.586 188.795 176.871 193.414 169.816C197.463 163.632 199.207 155.984 198.281 148.659L198.27 148.669Z" fill="#CDE8F1"/>
<path d="M191.756 106.409C189.463 110.449 188.127 110.018 187.815 104.212C187.815 104.212 185.802 109.9 188.903 110.708C188.903 110.708 191.067 111.365 191.767 106.409H191.756Z" fill="#472740"/>
<path d="M197.011 108.445C198.001 112.226 199.175 112.162 200.693 107.508C200.693 107.508 201.102 112.56 198.41 112.55C198.41 112.55 196.504 112.614 197.011 108.445Z" fill="#472740"/>
<path d="M198.292 113.573C198.184 113.444 198.055 113.336 197.904 113.25C197.732 113.153 197.549 113.099 197.344 113.077C197.269 113.077 197.172 113.121 197.118 113.174C197.064 113.228 197.021 113.325 197.021 113.401C197.021 113.487 197.054 113.573 197.118 113.627C197.183 113.692 197.258 113.713 197.344 113.724C197.237 113.713 197.344 113.724 197.366 113.724C197.387 113.724 197.409 113.735 197.441 113.745C197.431 113.778 197.42 113.821 197.42 113.864C197.409 114.51 197 115.103 196.343 115.243C195.783 115.361 195.245 115.027 195.083 114.489C195.083 114.381 195.019 114.273 194.932 114.219C194.846 114.165 194.76 114.165 194.685 114.187C194.685 114.187 194.663 114.187 194.652 114.187C194.62 114.187 194.609 114.23 194.588 114.241C194.588 114.241 194.577 114.252 194.566 114.262C194.523 114.295 194.48 114.316 194.459 114.359C194.071 114.833 193.339 114.833 192.854 114.489C192.262 114.058 192.111 113.271 192.294 112.593C192.294 112.571 192.294 112.539 192.294 112.517C192.348 112.528 192.402 112.539 192.456 112.56C192.617 112.614 192.811 112.496 192.854 112.334C192.897 112.162 192.8 111.989 192.628 111.936C191.918 111.72 191.11 111.925 190.593 112.442C190.475 112.56 190.464 112.776 190.593 112.894C190.722 113.013 190.927 113.024 191.045 112.894C191.067 112.873 191.099 112.84 191.121 112.819C191.132 112.808 191.153 112.787 191.175 112.776C191.228 112.733 191.293 112.69 191.358 112.657C191.39 112.636 191.422 112.625 191.455 112.614C191.465 112.614 191.487 112.603 191.498 112.593C191.551 112.571 191.605 112.56 191.648 112.539C191.444 113.487 191.724 114.499 192.553 115.06C193.188 115.49 194.006 115.458 194.609 115.049C194.976 115.674 195.729 115.997 196.451 115.868C197.204 115.727 197.754 115.135 197.947 114.424C197.947 114.489 197.947 114.543 197.947 114.607C197.947 114.683 197.99 114.78 198.044 114.833C198.098 114.887 198.195 114.93 198.27 114.93C198.357 114.93 198.443 114.898 198.496 114.833C198.561 114.769 198.583 114.693 198.593 114.607C198.636 114.23 198.507 113.853 198.27 113.562L198.292 113.573Z" fill="#472740"/>
<path d="M196.494 112.657C196.494 112.657 196.461 112.604 196.44 112.582C196.278 112.377 196.031 112.259 195.783 112.216C195.503 112.162 195.126 112.13 194.846 112.183C193.899 112.377 194.459 113.81 194.932 114.219C195.277 114.521 195.794 114.133 196.052 113.885C196.386 113.562 196.774 113.11 196.494 112.657Z" fill="#F6BAB9"/>
<path d="M187.363 145.395C192.757 145.341 199.562 154.152 206.314 153.011C206.314 153.011 229.884 194.129 244.678 185.22C244.678 185.22 253.637 176.397 238.25 160.573L209.619 138.5C209.619 138.5 198.712 128.245 195.794 128.31L184.499 135.775L181.936 138.285C180.924 141.872 183.627 145.427 187.352 145.395H187.363Z" fill="#BF7461"/>
<path d="M194.556 130.787C192.402 135.269 191.228 140.213 191.132 145.19C191.078 147.872 191.272 150.791 189.721 152.989C188.612 154.562 186.663 155.499 184.746 155.381C182.83 155.262 180.999 154.099 180.095 152.397C179.18 150.684 179.19 148.626 179.33 146.687C179.761 140.407 181.118 134.191 183.357 128.31" fill="#472740"/>
<path d="M197.334 128.644C197.204 128.934 197.011 129.193 196.806 129.441C196.86 129.484 196.924 129.505 196.968 129.559C196.989 129.581 197.011 129.602 197.032 129.635C197.129 129.742 197.215 129.861 197.301 129.979C197.323 130.012 197.344 130.055 197.366 130.087C197.452 130.281 197.56 130.486 197.592 130.69C197.614 130.873 197.657 131.067 197.646 131.24C197.646 131.423 197.614 131.606 197.581 131.778C197.538 132.004 197.431 132.209 197.323 132.414C197.204 132.64 197.043 132.845 196.86 133.039C196.817 133.092 196.763 133.146 196.709 133.2C196.494 133.405 196.257 133.599 195.998 133.76C196.042 133.922 196.085 134.084 196.095 134.256C196.095 134.288 196.095 134.321 196.095 134.353C196.149 135.355 195.503 136.152 194.717 136.69C194.491 136.83 194.254 136.949 194.006 137.057C193.64 137.218 193.263 137.38 192.876 137.498C192.262 137.692 191.616 137.8 190.981 137.865C190.852 137.908 190.722 137.951 190.582 137.983C189.053 138.339 187.341 138.543 185.479 138.5C185.479 138.5 153.316 186.566 136.95 181.105C136.95 181.105 127.216 177.992 122.737 167.273C122.737 167.273 125.665 158.052 129.402 156.027C132.74 154.228 145.025 152.375 145.025 152.375C154.221 147.635 168.444 141.086 173.591 133.577C173.591 133.577 172.644 130.001 173.139 126.187C173.731 121.641 178.178 118.539 182.625 119.67C185.005 120.284 188.321 120.704 192.187 120.09C192.316 120.047 192.456 120.026 192.607 120.026C192.704 120.026 192.8 120.004 192.897 119.983C192.897 119.983 192.897 120.004 192.897 120.036H193.167C193.317 120.015 193.457 119.993 193.608 119.983C193.673 119.983 193.748 119.983 193.813 119.983C193.974 120.004 194.146 120.026 194.308 120.047C194.34 120.058 194.373 120.069 194.405 120.079C194.556 120.123 194.717 120.198 194.857 120.273C194.879 120.273 194.9 120.295 194.922 120.306C195.051 120.392 195.191 120.5 195.299 120.607C195.363 120.661 195.417 120.758 195.471 120.823C195.535 120.909 195.6 120.974 195.643 121.071C195.718 121.211 195.783 121.361 195.826 121.512C195.826 121.545 195.848 121.577 195.848 121.609C195.88 121.771 195.912 121.932 195.912 122.094C195.912 122.137 195.912 122.18 195.902 122.212C195.902 122.385 195.88 122.557 195.837 122.719C195.837 122.751 195.815 122.783 195.805 122.805C195.74 122.966 195.686 123.128 195.611 123.268C195.568 123.344 195.525 123.397 195.482 123.462C195.363 123.624 195.245 123.785 195.105 123.925C195.083 123.947 195.072 123.958 195.051 123.968C194.976 124.065 194.879 124.141 194.792 124.216C194.652 124.324 194.502 124.432 194.362 124.528C194.394 124.528 194.426 124.528 194.469 124.507C194.642 124.475 194.803 124.453 194.965 124.442H194.976C195.288 124.421 195.589 124.432 195.912 124.528C196.031 124.561 196.138 124.604 196.246 124.658C196.343 124.69 196.44 124.733 196.526 124.787C196.709 124.895 196.892 125.035 197.032 125.196C197.323 125.53 197.56 125.918 197.635 126.36C197.667 126.586 197.71 126.812 197.7 127.038C197.7 127.265 197.657 127.491 197.614 127.717C197.57 127.954 197.495 128.17 197.409 128.396C197.377 128.482 197.334 128.568 197.301 128.654L197.334 128.644Z" fill="#BF7461"/>
<path d="M195.051 123.861C194.911 123.624 194.62 123.57 194.383 123.688C193.22 124.248 191.939 124.507 190.647 124.453C190.389 124.442 190.162 124.679 190.162 124.938C190.162 125.207 190.389 125.412 190.647 125.423C192.111 125.487 193.554 125.164 194.868 124.528C195.105 124.41 195.169 124.076 195.04 123.861H195.051Z" fill="#472740"/>
<path d="M197.334 128.643C197.204 128.934 197.011 129.193 196.806 129.441C196.86 129.484 196.924 129.505 196.968 129.559C196.989 129.581 197.011 129.602 197.032 129.635C195.568 130.27 193.996 130.615 192.391 130.679C192.122 130.69 191.907 130.453 191.907 130.195C191.907 129.936 192.122 129.721 192.391 129.71C194.136 129.635 195.88 129.182 197.441 128.385C197.409 128.471 197.366 128.557 197.334 128.643Z" fill="#472740"/>
<path d="M196.709 133.2C196.494 133.405 196.257 133.599 195.998 133.76C196.042 133.922 196.085 134.084 196.095 134.256C195.051 134.514 193.985 134.665 192.908 134.708C192.639 134.708 192.424 134.471 192.424 134.224C192.424 133.954 192.639 133.739 192.908 133.739C194.254 133.685 195.579 133.448 196.86 133.039C196.817 133.092 196.763 133.146 196.709 133.2Z" fill="#472740"/>
<path d="M178.351 145.039C177.801 147.538 176.283 149.596 174.463 150.253C172.655 150.91 170.619 150.167 169.263 148.346C167.895 146.515 167.303 143.843 166.84 141.269C165.602 134.331 164.967 127.2 164.956 120.047C165.16 121.458 165.526 122.826 166.011 124.098C166.366 122.352 166.937 120.694 167.691 119.218C167.572 120.931 167.981 122.708 168.778 124.022C169.36 121.491 170.2 119.067 171.276 116.869C171.222 118.97 171.556 121.071 172.224 122.945C172.601 121.738 172.978 120.543 173.354 119.336C173.656 120.241 173.968 121.146 174.28 122.04C174.819 120.715 175.357 119.39 175.896 118.065C175.691 123.537 176.165 129.064 177.306 134.321C178.06 137.832 179.115 141.527 178.351 145.039Z" fill="#472740"/>
<path d="M141.407 96.7897C119.313 99.4397 113.014 122.848 122.737 167.284C127.84 158.989 133.859 153.689 145.025 152.386C150 130.076 148.869 111.494 141.407 96.7897Z" fill="#CDE8F1"/>
<path d="M61.7604 169.481V169.051C61.685 167.586 61.5989 166.131 61.5881 164.666C60.9205 157.977 61.3189 151.158 59.7684 144.576C58.8424 140.676 57.1412 137.057 54.557 133.976C52.0374 130.97 48.8502 128.557 45.3616 126.801C41.0976 124.658 29.7272 121.663 28.6935 121.092C28.3597 120.909 27.9721 121.275 28.1767 121.609C32.3006 128.665 33.2805 137.143 37.8566 143.962C42.4005 150.738 49.6578 154.863 55.2676 160.616C57.2919 162.695 61.4158 168.792 61.7712 169.471L61.7604 169.481Z" fill="#7EC7A5"/>
<g style="mix-blend-mode:multiply">
<path d="M57.5503 153.635C57.5503 153.635 57.6365 153.538 57.658 153.452C58.2287 151.179 58.1318 148.777 57.3458 146.569C57.1842 146.105 56.4413 146.31 56.6136 146.773C57.2596 148.605 57.4211 150.565 57.0873 152.472C56.269 150.479 55.343 148.529 54.3093 146.644C54.3093 146.633 54.3201 146.623 54.3309 146.612C54.8154 144.36 54.74 142.023 54.0724 139.825C53.9325 139.351 53.1895 139.556 53.3403 140.03C53.8894 141.84 54.0294 143.757 53.7494 145.621C52.888 144.123 51.9836 142.648 51.0145 141.215C51.0468 141.161 51.0683 141.096 51.0683 141.021C51.0253 138.446 50.53 135.893 49.5932 133.491C49.4209 133.039 48.6779 133.233 48.861 133.696C49.6578 135.742 50.11 137.897 50.25 140.084C49.7547 139.373 49.2486 138.673 48.7318 137.972C48.1396 137.186 47.5366 136.4 46.9228 135.635C46.3737 133.179 45.4046 130.819 44.0479 128.697C43.7895 128.288 43.1219 128.665 43.3911 129.085C44.414 130.69 45.2001 132.414 45.76 134.213C44.8017 133.082 43.8003 131.994 42.7343 130.97C40.3116 128.654 37.5444 126.694 34.3572 125.573C33.8942 125.412 33.6896 126.144 34.1526 126.306C39.0088 128.019 42.7666 131.703 45.9753 135.656C42.7881 134.827 39.7732 133.469 37.0383 131.627C36.6291 131.347 36.2523 132.015 36.6507 132.285C39.6117 134.277 42.9174 135.721 46.3845 136.55C46.4814 136.647 46.6214 136.68 46.7506 136.637C47.0413 137.014 47.332 137.391 47.6227 137.768C48.4303 138.834 49.2056 139.911 49.9593 141.021C47.0736 140.741 44.2956 139.75 41.8837 138.112C41.4745 137.832 41.0976 138.5 41.496 138.77C44.1664 140.579 47.2889 141.635 50.5084 141.829C51.4775 143.283 52.4035 144.78 53.2541 146.299C51.3698 146.579 49.4424 146.418 47.6227 145.847C47.149 145.696 46.9552 146.439 47.4182 146.579C49.4317 147.204 51.5529 147.344 53.6202 147.01C53.6202 147.01 53.631 147.01 53.6417 147.01C54.74 149.025 55.7306 151.093 56.5813 153.215C54.8154 152.698 53.1787 151.826 51.8005 150.598C51.4344 150.274 50.896 150.813 51.2621 151.136C52.8665 152.558 54.7939 153.581 56.8828 154.109C56.9043 154.109 56.9258 154.109 56.9366 154.109C58.1533 157.341 59.047 160.691 59.5208 164.117C59.5854 164.602 60.3283 164.397 60.253 163.912C59.7684 160.39 58.8209 156.953 57.5503 153.635Z" fill="#7EC7A5"/>
</g>
<path d="M68.5116 158.3C71.2896 161.262 71.365 165.431 70.8912 169.234C70.7835 170.085 70.6436 170.925 70.5036 171.765C70.9989 171.754 71.4942 171.744 72.0003 171.744C72.4525 163.05 73.1201 154.357 72.797 145.653C72.4956 137.466 71.2896 129.204 68.2855 121.545C65.6259 114.779 61.5235 108.564 55.9029 103.889C50.6161 99.4935 44.1017 96.5957 37.1783 96.3695C30.5778 96.1541 23.7943 98.2547 18.8628 102.747C18.2491 103.307 17.6676 103.91 17.1185 104.535C16.8493 104.837 17.1185 105.224 17.4846 105.171C19.6704 104.858 22.0069 104.513 24.1496 105.267C25.9801 105.914 27.326 107.271 27.6598 109.21C27.8213 110.169 27.8859 111.138 28.3059 112.043C28.6181 112.711 29.1027 113.304 29.6841 113.767C30.8901 114.736 32.4513 115.2 33.9803 115.297C38.0504 115.555 41.4853 112.884 45.34 112.054C48.6133 111.343 52.7911 112.259 53.3725 116.126C53.674 118.119 53.0387 120.166 52.5219 122.072C52.0804 123.699 51.7682 125.423 51.9728 127.114C52.1773 128.708 52.9203 130.173 54.3308 131.013C55.7198 131.843 57.3888 131.961 58.9501 132.166C60.5114 132.382 62.2665 132.694 63.2463 134.073C64.2907 135.527 64.0754 137.477 63.5801 139.093C62.4603 142.734 59.047 146.095 60.5221 150.167C61.9004 153.959 65.9382 155.531 68.5331 158.3H68.5116Z" fill="#7EC7A5"/>
<g style="mix-blend-mode:multiply">
<path d="M72.3879 152.192C72.4202 152.116 72.4309 152.03 72.4094 151.955C72.4094 151.923 72.3771 151.89 72.3663 151.869C72.2264 149.93 71.9895 147.991 71.6772 146.073C71.0527 142.324 70.1375 138.629 69.0392 134.988C69.4914 133.416 69.7283 131.789 69.7283 130.162C69.7283 129.667 68.9638 129.667 68.9638 130.162C68.9638 131.315 68.8454 132.457 68.5977 133.577C67.9947 131.649 67.3487 129.731 66.6703 127.836C66.7888 127.836 66.8965 127.782 66.9611 127.652C67.6717 126.284 68.0917 124.787 68.1993 123.236C68.2316 122.74 67.4671 122.751 67.4348 123.236C67.3487 124.572 66.9826 125.875 66.3904 127.071C65.9166 125.746 65.4429 124.421 64.9368 123.096C65.1306 123.096 65.3244 122.966 65.3459 122.729C65.5075 120.92 65.669 119.121 65.8305 117.311C65.8736 116.826 65.1091 116.826 65.066 117.311C64.9152 118.97 64.7645 120.629 64.6138 122.288C63.9785 120.65 63.2894 119.035 62.5141 117.473C62.5141 117.451 62.5356 117.44 62.5464 117.419C63.1386 115.695 62.9233 113.745 61.9973 112.173C61.7496 111.752 61.082 112.129 61.3405 112.56C62.0511 113.745 62.2665 115.156 61.9973 116.503C61.1251 114.855 60.156 113.261 59.0147 111.785C58.1533 110.675 57.2057 109.652 56.1828 108.704C56.1828 108.682 56.1828 108.65 56.1828 108.628C55.9675 107.282 55.4829 105.989 54.7938 104.826C54.5462 104.406 53.8786 104.783 54.137 105.214C54.6323 106.043 54.9984 106.937 55.2461 107.864C53.2002 106.129 50.9175 104.686 48.4841 103.555C48.7425 103.565 49.0225 103.296 48.861 102.984C47.9242 101.314 46.4167 100.043 44.6293 99.3642C44.4355 99.2888 44.2094 99.4504 44.1556 99.6335C44.1017 99.849 44.2309 100.032 44.4248 100.108C46.0183 100.711 47.3643 101.885 48.1934 103.372C48.2149 103.404 48.2364 103.425 48.258 103.447C47.5581 103.124 46.8474 102.833 46.126 102.564C44.5647 101.993 42.9711 101.551 41.3453 101.217C41.4422 101.055 41.4314 100.829 41.216 100.7C38.5565 99.1703 35.7139 97.9746 32.7636 97.1451C32.2898 97.0158 32.0852 97.7484 32.559 97.8776C35.197 98.6209 37.7382 99.6766 40.1501 100.991C36.1769 100.323 32.0852 100.312 28.1013 100.851C27.3368 100.959 26.5723 101.077 25.8078 101.217C25.3233 101.303 25.5278 102.047 26.0124 101.95C30.3624 101.152 34.8632 100.98 39.2564 101.616C36.2738 102.574 33.4958 104.093 31.0731 106.097C30.6962 106.409 31.2346 106.948 31.6115 106.636C34.271 104.438 37.3828 102.854 40.7207 101.982C40.7854 101.96 40.8392 101.939 40.8715 101.896C41.9805 102.111 43.0896 102.37 44.1771 102.693C45.1677 102.995 46.1475 103.361 47.1166 103.77C44.0264 105.311 41.0653 107.077 38.2335 109.049C37.8351 109.329 38.2119 109.986 38.6211 109.706C41.5821 107.637 44.7047 105.795 47.9457 104.201C47.978 104.19 47.9996 104.169 48.0211 104.147C50.6268 105.332 53.0603 106.894 55.1922 108.79C53.4587 109.135 51.7143 109.479 49.9808 109.824C49.4962 109.921 49.7008 110.654 50.1854 110.557C51.9297 110.212 53.674 109.867 55.4183 109.523C55.5906 109.49 55.666 109.372 55.6875 109.242C56.2797 109.792 56.8504 110.363 57.3888 110.977C59.09 112.894 60.436 115.049 61.5881 117.322C59.2516 117.429 56.9689 116.158 55.8706 114.09C55.6445 113.659 54.9769 114.036 55.2138 114.478C56.4628 116.815 59.1116 118.291 61.7604 118.097C61.8358 118.097 61.9004 118.065 61.9542 118.033C62.6864 119.541 63.3324 121.103 63.9462 122.665C60.9097 123.397 57.6687 122.923 54.9769 121.329C54.5569 121.081 54.1693 121.738 54.5892 121.986C57.4749 123.688 60.9528 124.195 64.2046 123.387C64.2046 123.387 64.2046 123.387 64.2261 123.387C64.5922 124.356 64.9583 125.315 65.3136 126.284C65.4752 126.726 65.6367 127.178 65.7982 127.62C63.3001 128.202 60.6513 127.663 58.5732 126.155C58.1748 125.864 57.798 126.532 58.1856 126.812C60.436 128.439 63.354 128.988 66.0566 128.342C66.778 130.389 67.4671 132.446 68.1024 134.525C66.5411 133.728 65.1091 132.694 63.8923 131.434C63.5478 131.078 63.0094 131.617 63.354 131.972C64.7322 133.394 66.3689 134.568 68.1563 135.409C68.2316 135.441 68.307 135.452 68.3824 135.441C68.9638 137.38 69.4807 139.34 69.9437 141.323C69.9221 141.323 69.9006 141.312 69.8683 141.312C68.0701 141.344 66.3796 140.245 65.6474 138.608C65.5613 138.425 65.2921 138.371 65.1306 138.468C64.9368 138.586 64.9045 138.802 64.9906 138.985C65.8305 140.859 67.8332 142.109 69.8683 142.066C69.9652 142.066 70.0406 142.023 70.0944 141.98C70.2451 142.626 70.3851 143.283 70.5143 143.94C70.7405 145.071 70.9343 146.213 71.1065 147.355C68.1563 147.56 65.1737 146.267 63.397 143.876C63.1063 143.488 62.4495 143.876 62.7402 144.263C64.6891 146.881 67.9517 148.389 71.2142 148.12C71.3757 149.326 71.5157 150.533 71.6126 151.75C69.5345 151.912 67.4133 150.856 66.2935 149.089C66.0351 148.68 65.3675 149.057 65.6367 149.477C66.9288 151.513 69.2868 152.644 71.6665 152.493C71.7311 153.538 71.7634 154.594 71.7741 155.65C70.1913 155.251 68.7485 154.411 67.6287 153.204C67.2949 152.838 66.7565 153.388 67.0903 153.743C68.3393 155.09 69.9867 156.038 71.7741 156.436C71.7741 158.289 71.6665 160.142 71.4403 161.995C71.3434 162.781 71.225 163.567 71.085 164.354C70.9989 164.839 71.7311 165.043 71.8172 164.559C72.5494 160.476 72.6894 156.35 72.4094 152.235L72.3879 152.192Z" fill="#7EC7A5"/>
</g>
<path d="M76.2642 169.18V168.749C76.3396 167.284 76.4257 165.83 76.4365 164.365C77.1041 157.675 76.7057 150.856 78.2562 144.274C79.1822 140.375 80.8834 136.755 83.4676 133.674C85.9872 130.669 89.1744 128.266 92.663 126.5C96.927 124.356 108.297 121.361 109.331 120.79C109.665 120.607 110.053 120.974 109.848 121.308C105.724 128.363 104.744 136.841 100.168 143.66C95.6241 150.436 88.3668 154.562 82.757 160.314C80.7327 162.393 76.6087 168.49 76.2534 169.169L76.2642 169.18Z" fill="#7EC7A5"/>
<g style="mix-blend-mode:multiply">
<path d="M80.4743 153.334C80.4743 153.334 80.3882 153.237 80.3666 153.151C79.7959 150.878 79.8929 148.475 80.6789 146.267C80.8404 145.804 81.5833 146.009 81.4111 146.472C80.765 148.303 80.6035 150.264 80.9373 152.17C81.7556 150.177 82.6816 148.228 83.7153 146.342C83.7153 146.332 83.7045 146.321 83.6938 146.31C83.1985 144.059 83.2846 141.721 83.9522 139.524C84.0922 139.05 84.8351 139.254 84.6844 139.728C84.1352 141.538 83.9953 143.455 84.2752 145.319C85.1366 143.822 86.0411 142.346 87.0101 140.913C86.9778 140.859 86.9563 140.795 86.9563 140.719C86.9994 138.145 87.4947 135.592 88.4315 133.189C88.6037 132.737 89.3467 132.931 89.1636 133.394C88.3668 135.441 87.9146 137.595 87.7746 139.782C88.2699 139.071 88.776 138.371 89.2929 137.671C89.8851 136.884 90.488 136.098 91.1018 135.333C91.6509 132.877 92.62 130.518 93.9767 128.396C94.2351 127.986 94.9027 128.363 94.6335 128.784C93.6106 130.389 92.8246 132.112 92.2647 133.911C93.223 132.78 94.2244 131.692 95.2903 130.669C97.713 128.353 100.48 126.392 103.667 125.272C104.13 125.11 104.335 125.843 103.872 126.004C99.0159 127.717 95.258 131.401 92.0493 135.355C95.2365 134.525 98.2514 133.168 100.986 131.326C101.395 131.046 101.772 131.714 101.374 131.983C98.4129 133.976 95.1073 135.419 91.6402 136.249C91.5433 136.346 91.4033 136.378 91.2741 136.335C90.9833 136.712 90.6926 137.089 90.4019 137.466C89.5943 138.532 88.8191 139.61 88.0654 140.719C90.951 140.439 93.729 139.448 96.141 137.811C96.5501 137.531 96.927 138.199 96.5286 138.468C93.8583 140.278 90.7357 141.333 87.5162 141.527C86.5471 142.981 85.6211 144.479 84.7705 145.998C86.6548 146.278 88.5822 146.116 90.4019 145.545C90.8757 145.394 91.0695 146.138 90.6065 146.278C88.593 146.903 86.4718 147.043 84.4044 146.709C84.4044 146.709 84.3937 146.709 84.3829 146.709C83.2846 148.723 82.294 150.791 81.4434 152.914C83.2092 152.397 84.8459 151.524 86.2241 150.296C86.5902 149.973 87.1286 150.511 86.7625 150.835C85.1581 152.256 83.2308 153.28 81.1419 153.808C81.1203 153.808 81.0988 153.808 81.088 153.808C79.8713 157.039 78.9776 160.39 78.5038 163.815C78.4392 164.3 77.6963 164.095 77.7717 163.611C78.2562 160.088 79.2037 156.652 80.4743 153.334Z" fill="#7EC7A5"/>
</g>
<path d="M90.0465 161.262V187.18C90.0465 194.484 85.9441 200.829 79.9251 204.039C82.0678 205.041 83.5753 207.217 83.5753 209.749V211.203H58.3902V209.749C58.3902 207.217 59.8761 205.041 62.0403 204.039C58.9608 202.402 56.3874 199.946 54.6 196.951C52.888 194.086 51.9081 190.746 51.9081 187.18V161.262H90.0573H90.0465Z" fill="#6BA3C6"/>
<path d="M79.5052 184.681C78.9345 188.376 78.2454 192.028 76.4365 195.378C75.4135 197.263 73.5831 198.535 71.6449 199.396C70.2559 200.021 68.5654 200.668 66.8749 200.937C67.058 201.001 67.241 201.055 67.4241 201.109C70.5682 202.079 74.0676 201.605 76.8348 199.817C79.8713 197.856 81.2172 194.613 81.7556 191.123C82.4339 186.771 82.6924 165.916 82.6924 165.916C82.6924 165.916 80.9265 175.848 80.1082 180.814C79.8928 182.107 79.7098 183.399 79.516 184.681H79.5052Z" fill="#472740"/>
<path d="M84.146 161.262C83.8337 165.636 83.683 170.02 83.5753 174.415C83.4784 178.541 83.4138 182.678 83.2308 186.803C83.0908 189.82 82.8539 192.89 82.0356 195.809C81.2711 198.502 79.9251 201.109 77.5778 202.725C77.2656 202.94 76.9533 203.124 76.6195 203.296C74.8752 204.201 74.0676 206.355 75.0367 208.057C75.9304 209.63 75.3274 211.203 75.3274 211.203H83.5753V209.749C83.5753 207.217 82.0786 205.041 79.9251 204.039C85.9442 200.829 90.0466 194.484 90.0466 187.18V161.262H84.146Z" fill="#472740"/>
<path d="M304.709 211.461H254.392H45.7833H26.8756" stroke="#472740" stroke-linecap="round" stroke-linejoin="round"/>
</svg>
