<svg width="65" height="64" viewBox="0 0 65 64" fill="none" xmlns="http://www.w3.org/2000/svg">
<g clip-path="url(#clip0_218_14977)">
<g clip-path="url(#clip1_218_14977)">
<path d="M12.3649 0.113779H7.75153C7.75153 0.0930384 7.75153 0.0717051 7.75153 0.0509644H12.3844C12.3779 0.0717051 12.3714 0.0930384 12.3649 0.113779Z" fill="#67B7E6"/>
<path d="M64.5 0H0.5V64H64.5V0Z" fill="#83CBE3"/>
<path d="M64.3749 21.9947C64.3773 26.7597 64.3767 31.5253 64.388 36.2904C64.3892 36.787 64.3098 36.9398 63.8327 36.6637C55.7812 31.997 47.7225 27.3428 39.6662 22.685C34.2392 19.5473 28.8141 16.4077 23.3877 13.2699C17.9791 10.1422 12.5693 7.01867 7.16428 3.88444C6.78739 3.66578 6.37732 3.44356 6.30028 2.90844L6.29376 2.91556C7.8345 3.15437 9.38473 3.04 10.929 3.01037C11.9797 2.99022 12.6867 2.11141 12.7038 0.982518C12.7181 0.0432591 12.5835 0.0687407 13.6081 0.0669629C25.8535 0.0479999 38.0988 0.0278518 50.3441 0.0112592C50.6546 0.0112592 50.9746 -0.0497779 51.2704 0.114963C51.2674 2.62993 51.2603 5.14489 51.2638 7.65985C51.265 8.54874 51.2733 9.43585 51.425 10.3182C52.0466 13.9324 53.6982 16.883 56.433 19.133C58.7678 21.0542 61.4392 21.9449 64.3749 21.9941V21.9947ZM45.601 8C46.6529 7.99822 47.4546 7.13778 47.4588 6.00593C47.4629 4.93037 46.5741 3.97867 45.5874 4.00178C44.5367 4.02667 43.7397 4.89837 43.7426 6.01956C43.7456 7.14785 44.5462 8.00178 45.6004 8H45.601Z" fill="#F2F8FA"/>
<path d="M53.1068 63.9905C49.735 63.9905 46.3631 63.9923 42.9913 63.9905C37.9667 63.987 33.7735 60.3644 32.7436 55.1407C31.5056 48.8593 35.892 42.5902 41.8879 42.077C42.3465 42.0379 42.8093 41.9781 43.2656 42.0077C43.7687 42.0403 43.8541 41.8021 43.8476 41.3375C43.8268 39.8015 43.8606 38.2649 43.8298 36.7295C43.8173 36.1084 43.9756 36.0847 44.4579 36.3236C48.1356 38.1464 51.8244 39.9431 55.5056 41.757C55.8375 41.9206 56.1658 42.0012 56.5314 42C58.961 41.9911 61.3901 42.0089 63.8197 41.9846C64.3329 41.9793 64.5012 42.1321 64.4994 42.6963C64.4828 49.5751 64.4822 56.4539 64.5 63.3333C64.5012 63.8839 64.3276 64.0024 63.8505 64C60.2695 63.9828 56.6879 63.9905 53.1068 63.9905ZM43.7948 51.9828C44.8259 51.9976 45.6982 51.1117 45.716 50.0308C45.7338 48.9707 44.8639 48.0225 43.857 48.0036C42.8206 47.9846 41.9809 48.8527 41.9625 49.9633C41.9441 51.0767 42.7524 51.9674 43.7948 51.9828ZM36.324 55.9935C36.9403 54.659 37.4879 53.475 38.033 52.2898C38.113 52.1161 38.0959 51.987 37.8748 51.987C36.7619 51.987 35.649 51.987 34.4431 51.987C35.076 53.3345 35.6591 54.5766 36.3246 55.9935H36.324Z" fill="#F2F8FA"/>
<path d="M10.0331 18.0616C11.9637 19.2172 13.9744 20.205 15.9531 21.2599C23.5596 25.315 31.1738 29.3535 38.7833 33.4015C39.0695 33.5538 39.3391 33.7428 39.5744 34.0456C32.1729 34.0456 24.7714 34.0456 17.37 34.0456C16.7477 33.9692 16.1249 33.9887 15.5021 34.0344C14.2665 34.0344 13.0316 34.0344 11.796 34.0344C11.1732 33.987 10.5504 33.9686 9.92818 34.045C8.15158 33.9834 6.36966 34.1458 4.59721 33.9603C2.34536 33.7256 0.527288 31.6332 0.516622 29.2391C0.495288 24.4356 0.494696 19.6314 0.515436 14.8279C0.526103 12.3058 2.54981 10.1707 4.97233 10.051C7.40433 9.93067 9.57499 11.8489 9.82921 14.3633C9.88966 14.9588 9.88788 15.5609 9.91455 16.16C9.90981 16.797 9.72847 17.4471 10.0331 18.0622V18.0616ZM4.26951 15.9935C4.24877 17.0951 5.06358 18.0154 6.08581 18.0439C7.07899 18.0717 7.97914 17.1627 8.02003 16.0919C8.05914 15.0596 7.16551 14.0646 6.17884 14.0415C5.15899 14.0178 4.29084 14.9055 4.2701 15.9935H4.26951Z" fill="#F2F8FA"/>
<path d="M15.2496 55.6853C14.609 54.669 14.017 53.6409 13.7687 52.4113C12.9865 48.5375 15.5856 44.6151 19.2852 44.0907C21.3219 43.8021 23.0837 44.4124 24.6203 45.8163C24.8549 46.0308 25.2034 46.2038 25.1471 46.6441C24.8857 46.5843 24.7352 46.3514 24.532 46.2003C22.6712 44.8172 20.6819 44.5873 18.6546 45.6516C16.5681 46.7467 15.4955 48.6518 15.5281 51.0975C15.5589 53.4258 16.6025 55.2533 18.5912 56.3176C20.5628 57.373 22.5183 57.2178 24.3696 55.9212C24.7329 55.667 25.057 55.3499 25.3989 55.0625C25.47 55.3884 25.2247 55.5437 25.0612 55.7268C23.745 57.2071 22.1314 57.9787 20.2078 57.9988C20.0449 58.0006 19.8825 58.0201 19.6721 58.035C19.7616 58.3502 20.0105 58.3905 20.1936 58.4883C22.3246 59.6278 24.4597 60.7585 26.593 61.8933C26.7797 61.9929 26.9752 62.0847 27.1406 62.2169C27.428 62.4468 27.572 62.7704 27.5003 63.1532C27.4309 63.523 27.23 63.7914 26.8739 63.9182C26.6072 64.0136 26.337 63.9994 26.0662 63.9994C17.8185 64.0006 9.57019 64 1.32249 63.9994C0.776513 63.9994 0.50313 63.7092 0.50234 63.1289C0.50234 58.3449 0.501155 53.5603 0.502933 48.7763C0.502933 48.035 0.510044 48.0308 1.13878 48.365C5.57493 50.7212 10.0093 53.0803 14.4466 55.4347C14.6872 55.5621 14.9124 55.741 15.198 55.7517C15.2455 55.7701 15.2935 55.7884 15.3409 55.8068C15.3106 55.7659 15.281 55.7256 15.2508 55.6847L15.2496 55.6853ZM17.374 59.9887C17.3675 58.8646 16.5521 58.0018 15.4997 58.0047C14.4591 58.0077 13.6662 58.8895 13.6763 60.0308C13.6863 61.1218 14.4899 61.9804 15.5109 61.9905C16.5415 62.0006 17.3806 61.0987 17.374 59.9887Z" fill="#F2F8FA"/>
<path d="M64.375 22.032C61.4393 21.9828 58.7679 21.0922 56.433 19.171C53.6982 16.9209 52.0467 13.9704 51.425 10.3562C51.2733 9.47378 51.265 8.58608 51.2639 7.69778C51.2603 5.18282 51.2674 2.66786 51.2704 0.152892C51.3201 0.149929 51.3699 0.146966 51.4197 0.144003C55.5027 0.142818 59.5862 0.151114 63.6692 0.128003C64.2167 0.12504 64.3874 0.289188 64.3856 0.881781C64.3667 7.8483 64.3714 14.8154 64.3702 21.7819C64.372 21.8655 64.3738 21.949 64.375 22.032Z" fill="#2791B5"/>
<path d="M25.4055 55.0578C25.0635 55.3458 24.7388 55.6622 24.3761 55.9165C22.5249 57.213 20.5693 57.3689 18.5978 56.3129C16.609 55.248 15.5655 53.4204 15.5347 51.0927C15.5021 48.6471 16.5752 46.7419 18.6612 45.6468C20.6884 44.5825 22.6778 44.8124 24.5385 46.1956C24.7418 46.3467 24.8923 46.5796 25.1536 46.6394L25.1507 46.6353C25.1702 46.7953 25.2561 46.8859 25.4055 46.909L25.4001 46.9031C25.4084 47.0732 25.479 47.1793 25.652 47.1804C25.652 47.1804 25.6472 47.1727 25.6472 47.1733C25.6212 47.3037 25.6668 47.3944 25.7824 47.4453L25.7764 47.437C25.7835 47.52 25.8197 47.5751 25.9032 47.5828L25.8979 47.5727C25.8849 47.6996 25.9335 47.7979 26.0235 47.8762C26.8846 49.501 27.0185 51.2042 26.5148 52.9784C26.327 53.6397 25.9068 54.173 25.6366 54.7887C25.5992 54.8356 25.5619 54.8818 25.5252 54.9286L25.5311 54.9221C25.4487 54.928 25.4084 54.9784 25.4013 55.0631L25.4049 55.0578H25.4055Z" fill="#2791B5"/>
<path d="M9.92874 34.0456C10.551 33.9692 11.1738 33.9882 11.7966 34.035C11.7907 35.7884 11.7664 37.5425 11.7901 39.296C11.7972 39.824 11.6982 40.0367 11.1477 40.0207C9.89911 39.9846 9.89437 40.0166 9.89911 38.7058C9.90504 37.1526 9.91867 35.5988 9.92933 34.0456H9.92874Z" fill="#1237AD"/>
<path d="M15.5021 34.035C16.1249 33.9887 16.7477 33.9692 17.3699 34.0462C17.38 35.888 17.3907 37.7304 17.4001 39.5727C17.4001 39.661 17.4244 39.7962 17.3818 39.8311C16.9041 40.2187 16.353 39.9283 15.8375 39.997C15.4766 40.045 15.5222 39.7345 15.5222 39.4963C15.5199 37.7867 15.521 36.077 15.5199 34.3674C15.5199 34.2566 15.5086 34.1458 15.5027 34.0356L15.5021 34.035Z" fill="#1237AD"/>
<path d="M64.3702 21.7813C64.3714 14.8148 64.3666 7.84771 64.3856 0.881187C64.3874 0.288594 64.2161 0.124446 63.6692 0.127409C59.5862 0.149928 55.5026 0.141631 51.4197 0.143409C51.6146 -0.0426649 51.8552 0.0154092 52.0798 0.0148166C55.9726 0.0118536 59.8647 0.0242981 63.7575 1.79739e-06C64.3358 -0.00355376 64.5018 0.176594 64.5 0.79052C64.4816 7.55319 64.4887 14.3159 64.4863 21.0779C64.4863 21.3167 64.5421 21.5721 64.3702 21.7813Z" fill="#67B7E6"/>
<path d="M10.033 18.0616C9.72901 17.4459 9.90975 16.7964 9.91449 16.1594C10.8366 16.6039 11.5992 17.3031 12.4538 17.856C12.4407 17.9247 12.4271 17.9929 12.414 18.0616H10.033Z" fill="#1237AD"/>
<path d="M25.6526 47.181C25.4796 47.1799 25.4091 47.0738 25.4008 46.9037C25.5851 46.893 25.6366 47.0193 25.6526 47.181Z" fill="#6460CD"/>
<path d="M25.4061 46.909C25.2561 46.8859 25.1708 46.7953 25.1512 46.6353C25.361 46.595 25.4232 46.7105 25.4061 46.909Z" fill="#6460CD"/>
<path d="M25.783 47.4453C25.6674 47.3944 25.6218 47.3043 25.6479 47.1733C25.767 47.2225 25.796 47.3221 25.783 47.4453Z" fill="#6460CD"/>
<path d="M26.0248 47.8767C25.9347 47.7979 25.8861 47.7001 25.8991 47.5733C26.0046 47.645 26.0354 47.7511 26.0248 47.8767Z" fill="#6460CD"/>
<path d="M6.30028 2.94519C6.28369 2.94045 6.26769 2.93511 6.2511 2.93037C6.26532 2.93749 6.27954 2.94519 6.29376 2.9523L6.30028 2.94519Z" fill="#645FCD"/>
<path d="M25.9039 47.5828C25.8203 47.5745 25.7841 47.52 25.777 47.437C25.8618 47.4442 25.8932 47.5034 25.9039 47.5828Z" fill="#6460CD"/>
<path d="M25.5258 54.9286C25.5631 54.8818 25.6004 54.8356 25.6372 54.7887C25.633 54.8652 25.6146 54.9286 25.5258 54.9286Z" fill="#6460CD"/>
<path d="M25.4025 55.0631C25.409 54.9784 25.4493 54.928 25.5323 54.9221C25.5335 55.0151 25.4973 55.069 25.4025 55.0631Z" fill="#6460CD"/>
<path d="M45.601 8.03733C44.5468 8.03911 43.7462 7.18519 43.7432 6.05689C43.7403 4.9357 44.5373 4.064 45.588 4.03911C46.5746 4.016 47.4635 4.96771 47.4594 6.04326C47.4546 7.17511 46.6535 8.03556 45.6016 8.03733H45.601Z" fill="#1237AD"/>
<path d="M43.6858 51.9834C42.6434 51.968 41.8351 51.0779 41.8535 49.9639C41.8718 48.8533 42.7115 47.9846 43.748 48.0041C44.7548 48.0231 45.6247 48.9713 45.6069 50.0314C45.5892 51.1123 44.7169 51.9982 43.6858 51.9834Z" fill="#1237AD"/>
<path d="M36.2144 55.9941C35.5489 54.5772 34.9658 53.3351 34.3329 51.9876C35.5388 51.9876 36.6517 51.9876 37.7646 51.9876C37.9856 51.9876 38.0028 52.1167 37.9228 52.2904C37.3776 53.4756 36.8301 54.6596 36.2138 55.9941H36.2144Z" fill="#2B6173"/>
<path d="M4.26947 15.9935C4.29021 14.9055 5.15836 14.0178 6.17821 14.0415C7.16547 14.0646 8.05851 15.0596 8.0194 16.0918C7.9791 17.1633 7.07836 18.0717 6.08518 18.0438C5.06296 18.0154 4.24814 17.0951 4.26888 15.9935H4.26947Z" fill="#2791B5"/>
<path d="M17.3812 59.984C17.3877 61.0945 16.5486 61.9964 15.518 61.9858C14.497 61.9757 13.6935 61.117 13.6834 60.0261C13.6733 58.8841 14.4662 58.003 15.5068 58C16.5592 57.997 17.3746 58.8599 17.3812 59.984Z" fill="#1237AD"/>
<path d="M15.2567 55.6806C15.2869 55.7215 15.3166 55.7618 15.3468 55.8027C15.2994 55.7843 15.2514 55.7659 15.204 55.7476C15.2218 55.7256 15.2389 55.7031 15.2567 55.6806Z" fill="#2791B5"/>
</g>
</g>
<defs>
<clipPath id="clip0_218_14977">
<rect x="0.5" width="64" height="64" rx="12" fill="white"/>
</clipPath>
<clipPath id="clip1_218_14977">
<rect x="0.5" width="64" height="64" rx="8" fill="white"/>
</clipPath>
</defs>
</svg>
