<svg width="305" height="180" viewBox="0 0 305 180" fill="none" xmlns="http://www.w3.org/2000/svg">
<g style="mix-blend-mode:multiply" opacity="0.6">
<path d="M189.734 161.179C189.734 166.083 152.635 165.663 106.87 165.663C61.1051 165.663 24 166.077 24 161.179C24 156.28 61.0989 147.907 106.864 147.907C152.629 147.907 189.728 156.274 189.728 161.179H189.734Z" fill="#FCE1C5"/>
</g>
<path d="M126.668 86.9912V159.259H177.711L192.093 86.9912H126.668Z" fill="#B57E5F"/>
<path d="M174.422 153.752C170.657 153.407 166.792 153.639 163.014 153.652C159.651 153.658 156.262 153.602 152.905 153.922C152.76 153.934 152.905 154.191 153.005 154.198C156.62 154.505 160.266 154.461 163.886 154.467C167.476 154.474 171.14 154.706 174.711 154.361C175.119 154.323 174.648 153.777 174.422 153.752Z" fill="#8B432F"/>
<path d="M174.41 150.905C171.178 150.635 164.194 150.848 160.962 151.005C160.68 151.018 160.943 151.438 161.138 151.444C164.426 151.588 171.454 151.839 174.736 151.538C175.163 151.501 174.642 150.93 174.41 150.905Z" fill="#8B432F"/>
<path d="M25.6253 86.9912L37.3348 159.259H145.299L155.917 86.9912H25.6253Z" fill="#D39779"/>
<path d="M73.3919 150.522H44.0492L42.1666 140.681H74.647L73.3919 150.522Z" fill="#F0C591"/>
<path d="M71.5093 133.688C66.2947 133.412 61.0863 133.399 55.8653 133.374C51.2091 133.355 46.2392 132.866 41.6269 133.518C41.2253 133.575 41.6897 134.076 41.8968 134.108C46.7412 134.773 51.9559 134.271 56.8442 134.246C61.764 134.221 66.6712 134.202 71.5846 133.932C71.7039 133.926 71.5972 133.7 71.5093 133.694V133.688Z" fill="#B57E5F"/>
<path d="M58.3126 129.968C52.5457 129.699 46.509 129.322 40.7547 129.843C40.4535 129.868 40.7296 130.313 40.9241 130.332C46.6722 130.803 52.6399 130.489 58.3942 130.207C58.5134 130.207 58.4068 129.975 58.3189 129.968H58.3126Z" fill="#B57E5F"/>
<path d="M280.887 48.7812C279.425 31.5327 272.409 17.2133 250.653 14.2905C228.897 11.3677 210.411 31.2442 202.516 40.596C194.622 49.9478 184.387 52.2873 175.382 46.7364C166.378 41.1856 129.699 18.0914 88.7598 38.846C65.2969 50.7381 56.6937 71.4613 53.6188 86.9913H172.709C171.084 90.8173 169.402 96.8197 172.364 100.991C177.033 107.57 188.742 105.814 188.742 105.814C188.742 105.814 181.432 120.133 183.333 126.13C185.234 132.12 191.961 130.232 197.007 120.798C202.052 111.365 210.825 91.7832 205.848 89.0046C200.872 86.2261 193.944 89.4688 193.505 86.985H193.499C193.267 68.3629 186.609 58.7163 186.609 58.7163C201.406 65.4401 214.213 51.704 228.834 40.596C243.456 29.488 262.174 36.795 265.682 52.2873C269.19 67.7796 282.349 66.0234 280.887 48.7812Z" fill="#76849B"/>
<g style="mix-blend-mode:multiply" opacity="0.4">
<path d="M53.6188 86.9912H172.709L173.5 85.166H54.0016C53.8636 85.7807 53.7381 86.3954 53.6188 86.9912Z" fill="#76849B"/>
</g>
<path d="M272.823 25.4743C270.307 22.3821 267.1 19.7792 263.034 17.8223C261.685 19.4593 260.035 22.0685 259.244 25.7064C257.782 32.4176 262.607 33.7285 266.26 30.3666C268.318 28.4787 270.928 26.6848 272.817 25.4743H272.823Z" fill="#596D89"/>
<path d="M248.557 14.0836C245.125 13.8453 241.786 14.1652 238.561 14.899C238.228 17.8219 238.028 22.0179 239.076 24.8655C240.833 29.6386 244.309 31.4638 246.386 22.7706C247.233 19.2331 247.974 16.3165 248.564 14.0836H248.557Z" fill="#596D89"/>
<path d="M272.698 56.8224C272.403 58.5096 274.769 60.4226 277.197 61.9028C279.18 60.4602 280.68 57.4308 280.95 52.8646C276.858 51.9991 273.169 54.1128 272.698 56.8161V56.8224Z" fill="#596D89"/>
<path d="M280.667 46.6362C280.234 42.8227 279.494 39.1786 278.358 35.7979C276.3 36.3623 273.884 37.3345 272.259 38.9716C269.316 41.932 271.631 45.8333 280.667 46.6362Z" fill="#596D89"/>
<path d="M201.173 42.095C203.42 45.2436 206.827 49.3644 208.509 48.0535C210.178 46.7552 208.911 39.7178 207.756 34.7314C205.698 36.8953 203.928 38.9213 202.51 40.6022C202.071 41.1228 201.619 41.6183 201.167 42.095H201.173Z" fill="#596D89"/>
<path d="M225.91 35.0452C228.301 32.3607 227.435 24.3888 226.638 19.5718C223.45 21.3343 220.463 23.3978 217.709 25.5742C219.591 30.0902 223.363 37.9053 225.91 35.0452Z" fill="#596D89"/>
<path d="M157.624 51.7858C160.134 48.449 165.097 44.8551 169.396 43.1804C166.359 41.4807 162.55 39.5175 158.101 37.6421C155.678 39.6931 152.547 42.8543 150.608 46.7744C147.1 53.8933 154.266 56.2454 157.624 51.7796V51.7858Z" fill="#596D89"/>
<path d="M68.1396 74.5033C73.8438 81.6661 78.2301 80.6438 74.283 71.1414C72.2059 66.1488 71.2396 58.7476 71.1203 51.8545C67.8949 55.2352 65.2028 58.8166 62.9689 62.4733C63.8976 66.4875 65.4727 71.154 68.1459 74.5033H68.1396Z" fill="#596D89"/>
<path d="M88.7598 38.8464C86.6012 39.944 84.5743 41.1169 82.6541 42.3462C82.0266 46.4859 81.5685 52.4632 82.6164 58.5723C84.5178 69.6804 90.5106 75.087 91.8284 69.5361C93.0521 64.3616 90.0525 50.4373 97.0431 35.2085C94.3071 36.2309 91.546 37.4351 88.7598 38.8464Z" fill="#596D89"/>
<path d="M110.252 31.5581C107.479 36.2998 103.87 43.7951 103.086 51.7859C101.768 65.1519 106.744 70.1194 109.229 68.2189C111.489 66.4941 111.576 44.7359 128.036 30.4667C122.389 30.1594 116.433 30.4416 110.259 31.5581H110.252Z" fill="#596D89"/>
<path d="M130.433 63.546C133.408 58.6851 138.133 44.8424 149.096 34.3491C145.205 33.1385 141.007 32.0974 136.552 31.3823C133.621 34.8634 129.103 41.0854 126.486 48.9319C122.395 61.2065 127.214 68.8084 130.433 63.546Z" fill="#596D89"/>
<path d="M181.614 89.4127C178.614 88.3715 173.914 94.2674 171.115 98.3192C171.373 99.26 171.78 100.163 172.37 100.997C173.199 102.164 174.247 103.061 175.408 103.757C178.934 99.1095 184.87 90.5417 181.62 89.4127H181.614Z" fill="#596D89"/>
<path d="M186.264 96.8637C182.938 97.3216 179.781 102.114 178.162 104.999C180.089 105.632 182.097 105.902 183.848 105.99C186.289 102.176 189.483 96.4184 186.264 96.8637Z" fill="#596D89"/>
<path d="M188.567 122.774C185.868 121.814 185.416 117.023 187.851 116.126C190.28 115.229 191.24 119.13 191.24 119.13C191.24 119.13 194.566 117.211 195.331 119.13C196.097 121.049 191.692 123.884 188.567 122.774Z" fill="#FFC7B8"/>
<path d="M186.722 126.212C185.435 126.011 186.621 122.768 187.556 123.37C188.491 123.972 188.033 126.412 186.722 126.212Z" fill="#FFC7B8"/>
<path d="M189.652 124.267C188.799 124.599 188.818 127.227 189.784 126.763C190.75 126.305 190.587 123.897 189.652 124.267Z" fill="#FFC7B8"/>
<path d="M184.952 123.2C184.036 122.623 185.73 121.162 186.157 121.896C186.59 122.629 185.586 123.602 184.952 123.2Z" fill="#FFC7B8"/>
<path d="M191.704 123.96C191.215 124.317 191.673 125.572 192.175 125.202C192.677 124.831 192.407 123.452 191.704 123.96Z" fill="#FFC7B8"/>
<path d="M132.328 79.1827C132.328 79.1827 125.47 90.2907 130.132 96.8702C134.795 103.45 146.51 101.694 146.51 101.694C146.51 101.694 139.2 116.013 141.101 122.009C143.003 127.999 149.73 126.111 154.775 116.678C159.82 107.244 168.593 87.6627 163.617 84.8841C158.64 82.1055 151.625 85.4674 151.185 82.9836C150.746 80.4998 157.329 73.7761 155.277 67.7861" fill="#76849B"/>
<path d="M139.388 85.2853C136.388 84.2441 131.688 90.1399 128.89 94.1918C129.147 95.1326 129.555 96.0358 130.145 96.87C130.973 98.0303 132.021 98.9335 133.182 99.6297C136.709 94.9821 142.651 86.4143 139.394 85.2853H139.388Z" fill="#596D89"/>
<path d="M144.032 92.7363C140.706 93.1942 137.549 97.9861 135.93 100.871C137.857 101.505 139.865 101.774 141.616 101.862C144.057 98.0488 147.251 92.291 144.032 92.7363Z" fill="#596D89"/>
<path d="M146.341 118.647C143.643 117.688 143.191 112.896 145.626 111.999C148.054 111.102 149.014 115.003 149.014 115.003C149.014 115.003 152.34 113.084 153.106 115.003C153.871 116.922 149.466 119.757 146.341 118.647Z" fill="#FFC7B8"/>
<path d="M144.496 122.084C143.21 121.883 144.396 118.641 145.331 119.243C146.266 119.845 145.808 122.285 144.496 122.084Z" fill="#FFC7B8"/>
<path d="M147.42 120.146C146.567 120.478 146.586 123.106 147.552 122.642C148.518 122.184 148.355 119.776 147.42 120.146Z" fill="#FFC7B8"/>
<path d="M142.72 119.073C141.804 118.496 143.498 117.035 143.925 117.769C144.352 118.502 143.354 119.475 142.72 119.073Z" fill="#FFC7B8"/>
<path d="M149.472 119.839C148.983 120.197 149.441 121.451 149.943 121.081C150.445 120.711 150.175 119.331 149.472 119.839Z" fill="#FFC7B8"/>
</svg>
